<?xml version="1.0" encoding="UTF-8" standalone="no"?>
<!DOCTYPE svg PUBLIC "-//W3C//DTD SVG 1.1//EN"
 "http://www.w3.org/Graphics/SVG/1.1/DTD/svg11.dtd">
<!-- Generated by graphviz version 2.26.3 (20100126.1600)
 -->
<!-- Title: G Pages: 1 -->
<svg width="250pt" height="424pt"
 viewBox="0.00 0.00 250.00 424.00" xmlns="http://www.w3.org/2000/svg" xmlns:xlink="http://www.w3.org/1999/xlink">
<g id="graph1" class="graph" transform="scale(1 1) rotate(0) translate(4 420)">
<title>G</title>
<polygon fill="white" stroke="white" points="-4,5 -4,-420 247,-420 247,5 -4,5"/>
<!-- Node1 -->
<g id="node1" class="node"><title>Node1</title>
<polygon fill="#bfbfbf" stroke="black" points="0,-0.5 0,-63.5 242,-63.5 242,-0.5 0,-0.5"/>
<text text-anchor="middle" x="121" y="-50.5" font-family="Helvetica,sans-Serif" font-size="10.00">GeneticAlgorithm.SelectionOperators.SUSSelection</text>
<polyline fill="none" stroke="black" points="0,-42.5 242,-42.5 "/>
<text text-anchor="start" x="8" y="-29.5" font-family="Helvetica,sans-Serif" font-size="10.00">+ iterate</text>
<polyline fill="none" stroke="black" points="0,-21.5 242,-21.5 "/>
<text text-anchor="start" x="8" y="-8.5" font-family="Helvetica,sans-Serif" font-size="10.00">+ select()</text>
</g>
<!-- Node2 -->
<g id="node2" class="node"><title>Node2</title>
<a xlink:href="classGeneticAlgorithm_1_1Core_1_1GeneticOperator.html" target="_top" xlink:title="GeneticOperator is the base class that should be used to implement selection, crossover and mutation...">
<polygon fill="white" stroke="black" points="26,-100.5 26,-189.5 216,-189.5 216,-100.5 26,-100.5"/>
<text text-anchor="middle" x="121" y="-176.5" font-family="Helvetica,sans-Serif" font-size="10.00">GeneticAlgorithm.Core.GeneticOperator</text>
<polyline fill="none" stroke="black" points="26,-168.5 216,-168.5 "/>
<text text-anchor="middle" x="121" y="-155.5" font-family="Helvetica,sans-Serif" font-size="10.00"> </text>
<polyline fill="none" stroke="black" points="26,-147.5 216,-147.5 "/>
<text text-anchor="start" x="34" y="-134.5" font-family="Helvetica,sans-Serif" font-size="10.00">+ initialize()</text>
<text text-anchor="start" x="34" y="-121.5" font-family="Helvetica,sans-Serif" font-size="10.00">+ iterate()</text>
<text text-anchor="start" x="34" y="-108.5" font-family="Helvetica,sans-Serif" font-size="10.00">+ finalize()</text>
</a>
</g>
<!-- Node2&#45;&gt;Node1 -->
<g id="edge2" class="edge"><title>Node2&#45;&gt;Node1</title>
<path fill="none" stroke="midnightblue" d="M121,-90.1957C121,-81.1456 121,-72.0374 121,-63.801"/>
<polygon fill="none" stroke="midnightblue" points="117.5,-90.3394 121,-100.339 124.5,-90.3394 117.5,-90.3394"/>
</g>
<!-- Node3 -->
<g id="node4" class="node"><title>Node3</title>
<a xlink:href="classGeneticAlgorithm_1_1Core_1_1GABaseObject.html" target="_top" xlink:title="The base object provides the functions repr and str.">
<polygon fill="white" stroke="black" points="29,-226.5 29,-315.5 213,-315.5 213,-226.5 29,-226.5"/>
<text text-anchor="middle" x="121" y="-302.5" font-family="Helvetica,sans-Serif" font-size="10.00">GeneticAlgorithm.Core.GABaseObject</text>
<polyline fill="none" stroke="black" points="29,-294.5 213,-294.5 "/>
<text text-anchor="middle" x="121" y="-281.5" font-family="Helvetica,sans-Serif" font-size="10.00"> </text>
<polyline fill="none" stroke="black" points="29,-273.5 213,-273.5 "/>
<text text-anchor="start" x="37" y="-260.5" font-family="Helvetica,sans-Serif" font-size="10.00">+ __init__()</text>
<text text-anchor="start" x="37" y="-247.5" font-family="Helvetica,sans-Serif" font-size="10.00">+ __repr__()</text>
<text text-anchor="start" x="37" y="-234.5" font-family="Helvetica,sans-Serif" font-size="10.00">+ __str__()</text>
</a>
</g>
<!-- Node3&#45;&gt;Node2 -->
<g id="edge4" class="edge"><title>Node3&#45;&gt;Node2</title>
<path fill="none" stroke="midnightblue" d="M121,-216.013C121,-207.198 121,-198.169 121,-189.633"/>
<polygon fill="none" stroke="midnightblue" points="117.5,-216.222 121,-226.222 124.5,-216.222 117.5,-216.222"/>
</g>
<!-- Node4 -->
<g id="node6" class="node"><title>Node4</title>
<a xlink:href="classobject.html" target="_top" xlink:title="{object\n||}">
<polygon fill="white" stroke="black" points="99.5,-352.5 99.5,-415.5 142.5,-415.5 142.5,-352.5 99.5,-352.5"/>
<text text-anchor="middle" x="121" y="-402.5" font-family="Helvetica,sans-Serif" font-size="10.00">object</text>
<polyline fill="none" stroke="black" points="99.5,-394.5 142.5,-394.5 "/>
<text text-anchor="middle" x="121" y="-381.5" font-family="Helvetica,sans-Serif" font-size="10.00"> </text>
<polyline fill="none" stroke="black" points="99.5,-373.5 142.5,-373.5 "/>
<text text-anchor="middle" x="121" y="-360.5" font-family="Helvetica,sans-Serif" font-size="10.00"> </text>
</a>
</g>
<!-- Node4&#45;&gt;Node3 -->
<g id="edge6" class="edge"><title>Node4&#45;&gt;Node3</title>
<path fill="none" stroke="midnightblue" d="M121,-342.015C121,-333.403 121,-324.307 121,-315.606"/>
<polygon fill="none" stroke="midnightblue" points="117.5,-342.222 121,-352.222 124.5,-342.223 117.5,-342.222"/>
</g>
</g>
</svg>
