<?xml version="1.0" encoding="UTF-8" standalone="no"?>
<!DOCTYPE svg PUBLIC "-//W3C//DTD SVG 1.1//EN"
 "http://www.w3.org/Graphics/SVG/1.1/DTD/svg11.dtd">
<!-- Generated by graphviz version 2.26.3 (20100126.1600)
 -->
<!-- Title: G Pages: 1 -->
<!--zoomable 270 -->
<svg id="main" version="1.1" xmlns="http://www.w3.org/2000/svg" xmlns:xlink="http://www.w3.org/1999/xlink" xml:space="preserve" onload="init(evt)">
        <defs>
                <circle id="rim" cx="0" cy="0" r="7"/>
                <circle id="rim2" cx="0" cy="0" r="3.5"/>
                <g id="zoomPlus">
                        <use xlink:href="#rim" fill="#404040">
                                <set attributeName="fill" to="#808080" begin="zoomplus.mouseover" end="zoomplus.mouseout"/>
                        </use>
                        <path d="M-4,0h8M0,-4v8" fill="none" stroke="white" stroke-width="1.5" pointer-events="none"/>
                </g>
                <g id="zoomMin">
                        <use xlink:href="#rim" fill="#404040">
                                <set attributeName="fill" to="#808080" begin="zoomminus.mouseover" end="zoomminus.mouseout"/>
                        </use>
                        <path d="M-4,0h8" fill="none" stroke="white" stroke-width="1.5" pointer-events="none"/>
                </g>
                <g id="dirArrow">
                        <path fill="none" stroke="white" stroke-width="1.5" d="M0,-3.0v7 M-2.5,-0.5L0,-3.0L2.5,-0.5"/>
                </g>
               <g id="resetDef">
                       <use xlink:href="#rim2" fill="#404040">
                               <set attributeName="fill" to="#808080" begin="reset.mouseover" end="reset.mouseout"/>
                       </use>
               </g>
        </defs>

<script type="text/javascript">
var viewWidth = 818;
var viewHeight = 270;
var sectionId = 'dynsection-5';
</script>
<script xlink:href="svgpan.js"/>
<svg id="graph" class="graph">
<g id="viewport">
<title>G</title>
<polygon fill="white" stroke="white" points="-4,5 -4,-266 815,-266 815,5 -4,5"/>
<!-- Node1 -->
<g id="node1" class="node"><title>Node1</title>
<polygon fill="#bfbfbf" stroke="black" points="0.5,-120.5 0.5,-141.5 193.5,-141.5 193.5,-120.5 0.5,-120.5"/>
<text text-anchor="middle" x="97" y="-128.5" font-family="Helvetica,sans-Serif" font-size="10.00">GeneticAlgorithm.Core.Scheduler.runGA</text>
</g>
<!-- Node2 -->
<g id="node3" class="node"><title>Node2</title>
<a xlink:href="classGeneticAlgorithm_1_1Core_1_1GeneticOperator.html#a90706b8d7851eb63cca447a36a2a6206" target="_top" xlink:title="This function is called once at the end of the algorithm run.">
<polygon fill="white" stroke="black" points="240,-240.5 240,-261.5 464,-261.5 464,-240.5 240,-240.5"/>
<text text-anchor="middle" x="352" y="-248.5" font-family="Helvetica,sans-Serif" font-size="10.00">GeneticAlgorithm.Core.GeneticOperator.finalize</text>
</a>
</g>
<!-- Node1&#45;&gt;Node2 -->
<g id="edge2" class="edge"><title>Node1&#45;&gt;Node2</title>
<path fill="none" stroke="midnightblue" d="M107.231,-141.559C128.142,-162.435 178.193,-208.876 230,-231 235.894,-233.517 242.073,-235.719 248.39,-237.645"/>
<polygon fill="midnightblue" stroke="midnightblue" points="247.835,-241.124 258.409,-240.45 249.723,-234.383 247.835,-241.124"/>
</g>
<!-- Node3 -->
<g id="node5" class="node"><title>Node3</title>
<a xlink:href="classGeneticAlgorithm_1_1Core_1_1Scheduler.html#ac908478a7dd8d6f3924b9ddbc43c53d2" target="_top" xlink:title="This function is called once at the end of the runGA method.">
<polygon fill="white" stroke="black" points="254,-200.5 254,-221.5 450,-221.5 450,-200.5 254,-200.5"/>
<text text-anchor="middle" x="352" y="-208.5" font-family="Helvetica,sans-Serif" font-size="10.00">GeneticAlgorithm.Core.Scheduler.finalize</text>
</a>
</g>
<!-- Node1&#45;&gt;Node3 -->
<g id="edge4" class="edge"><title>Node1&#45;&gt;Node3</title>
<path fill="none" stroke="midnightblue" d="M116.208,-141.604C141.526,-155.122 187.804,-178.264 230,-191 239.401,-193.837 249.338,-196.299 259.319,-198.43"/>
<polygon fill="midnightblue" stroke="midnightblue" points="258.801,-201.896 269.297,-200.451 260.191,-195.035 258.801,-201.896"/>
</g>
<!-- Node4 -->
<g id="node7" class="node"><title>Node4</title>
<a xlink:href="classGeneticAlgorithm_1_1Core_1_1GeneticOperator.html#adb54985e7880c5b826d0fcc42b900289" target="_top" xlink:title="This function is called once, during the startup phase of the algorithm.">
<polygon fill="white" stroke="black" points="238,-160.5 238,-181.5 466,-181.5 466,-160.5 238,-160.5"/>
<text text-anchor="middle" x="352" y="-168.5" font-family="Helvetica,sans-Serif" font-size="10.00">GeneticAlgorithm.Core.GeneticOperator.initialize</text>
</a>
</g>
<!-- Node1&#45;&gt;Node4 -->
<g id="edge6" class="edge"><title>Node1&#45;&gt;Node4</title>
<path fill="none" stroke="midnightblue" d="M163.998,-141.51C197.977,-146.84 239.42,-153.34 274.74,-158.881"/>
<polygon fill="midnightblue" stroke="midnightblue" points="274.585,-162.399 285.007,-160.491 275.67,-155.484 274.585,-162.399"/>
</g>
<!-- Node5 -->
<g id="node9" class="node"><title>Node5</title>
<a xlink:href="classGeneticAlgorithm_1_1Core_1_1Scheduler.html#ab5b32dc413792c0e00d27cf954fc8bf6" target="_top" xlink:title="This function is called at the begining of the runGA method.">
<polygon fill="white" stroke="black" points="252,-120.5 252,-141.5 452,-141.5 452,-120.5 252,-120.5"/>
<text text-anchor="middle" x="352" y="-128.5" font-family="Helvetica,sans-Serif" font-size="10.00">GeneticAlgorithm.Core.Scheduler.initialize</text>
</a>
</g>
<!-- Node1&#45;&gt;Node5 -->
<g id="edge8" class="edge"><title>Node1&#45;&gt;Node5</title>
<path fill="none" stroke="midnightblue" d="M193.768,-131C209.371,-131 225.627,-131 241.523,-131"/>
<polygon fill="midnightblue" stroke="midnightblue" points="241.907,-134.5 251.907,-131 241.907,-127.5 241.907,-134.5"/>
</g>
<!-- Node6 -->
<g id="node11" class="node"><title>Node6</title>
<a xlink:href="classGeneticAlgorithm_1_1Core_1_1GeneticOperator.html#a534b2db8f48295f6502771d288b959cb" target="_top" xlink:title="This function is called once every iteration.">
<polygon fill="white" stroke="black" points="242,-80.5 242,-101.5 462,-101.5 462,-80.5 242,-80.5"/>
<text text-anchor="middle" x="352" y="-88.5" font-family="Helvetica,sans-Serif" font-size="10.00">GeneticAlgorithm.Core.GeneticOperator.iterate</text>
</a>
</g>
<!-- Node1&#45;&gt;Node6 -->
<g id="edge10" class="edge"><title>Node1&#45;&gt;Node6</title>
<path fill="none" stroke="midnightblue" d="M163.998,-120.49C197.977,-115.16 239.42,-108.66 274.74,-103.119"/>
<polygon fill="midnightblue" stroke="midnightblue" points="275.67,-106.516 285.007,-101.509 274.585,-99.6008 275.67,-106.516"/>
</g>
<!-- Node7 -->
<g id="node13" class="node"><title>Node7</title>
<a xlink:href="classGeneticAlgorithm_1_1Core_1_1BasePeriodicOperator.html#aa5a2e48f42f8ebcce84980cd858eb728" target="_top" xlink:title="This function counts the number of times it has been called, and the number of individuals that have ...">
<polygon fill="white" stroke="black" points="230,-40.5 230,-61.5 474,-61.5 474,-40.5 230,-40.5"/>
<text text-anchor="middle" x="352" y="-48.5" font-family="Helvetica,sans-Serif" font-size="10.00">GeneticAlgorithm.Core.BasePeriodicOperator.iterate</text>
</a>
</g>
<!-- Node1&#45;&gt;Node7 -->
<g id="edge12" class="edge"><title>Node1&#45;&gt;Node7</title>
<path fill="none" stroke="midnightblue" d="M116.208,-120.396C141.526,-106.878 187.804,-83.7363 230,-71 239.401,-68.1626 249.338,-65.7006 259.319,-63.5704"/>
<polygon fill="midnightblue" stroke="midnightblue" points="260.191,-66.9649 269.297,-61.5492 258.801,-60.1043 260.191,-66.9649"/>
</g>
<!-- Node10 -->
<g id="node19" class="node"><title>Node10</title>
<a xlink:href="classGeneticAlgorithm_1_1Core_1_1Scheduler.html#a050ad156c72382e3ab3760763a5ca873" target="_top" xlink:title="This function is called every iteration of the runGA method.">
<polygon fill="white" stroke="black" points="256,-0.5 256,-21.5 448,-21.5 448,-0.5 256,-0.5"/>
<text text-anchor="middle" x="352" y="-8.5" font-family="Helvetica,sans-Serif" font-size="10.00">GeneticAlgorithm.Core.Scheduler.iterate</text>
</a>
</g>
<!-- Node1&#45;&gt;Node10 -->
<g id="edge18" class="edge"><title>Node1&#45;&gt;Node10</title>
<path fill="none" stroke="midnightblue" d="M107.231,-120.441C128.142,-99.5649 178.193,-53.1237 230,-31 235.894,-28.4831 242.073,-26.2812 248.39,-24.3551"/>
<polygon fill="midnightblue" stroke="midnightblue" points="249.723,-27.6165 258.409,-21.5498 247.835,-20.8757 249.723,-27.6165"/>
</g>
<!-- Node8 -->
<g id="node15" class="node"><title>Node8</title>
<a xlink:href="classGeneticAlgorithm_1_1Core_1_1BasePeriodicOperator.html#a9859bce7179872dfff3d58f8032a799b" target="_top" xlink:title="Overload this function to perform logging every time that the evaluationCounter is an integer multipl...">
<polygon fill="white" stroke="black" points="510.5,-60.5 510.5,-81.5 809.5,-81.5 809.5,-60.5 510.5,-60.5"/>
<text text-anchor="middle" x="660" y="-68.5" font-family="Helvetica,sans-Serif" font-size="10.00">GeneticAlgorithm.Core.BasePeriodicOperator.evaluationCallback</text>
</a>
</g>
<!-- Node7&#45;&gt;Node8 -->
<g id="edge14" class="edge"><title>Node7&#45;&gt;Node8</title>
<path fill="none" stroke="midnightblue" d="M474.172,-58.9333C482.743,-59.4898 491.451,-60.0553 500.185,-60.6224"/>
<polygon fill="midnightblue" stroke="midnightblue" points="500.236,-64.133 510.442,-61.2884 500.689,-57.1477 500.236,-64.133"/>
</g>
<!-- Node9 -->
<g id="node17" class="node"><title>Node9</title>
<a xlink:href="classGeneticAlgorithm_1_1Core_1_1BasePeriodicOperator.html#a06b5d7a71413ec558d525b4537035819" target="_top" xlink:title="Overload this function to perform logging every time that the iterationCounter counter is an integer ...">
<polygon fill="white" stroke="black" points="515,-20.5 515,-41.5 805,-41.5 805,-20.5 515,-20.5"/>
<text text-anchor="middle" x="660" y="-28.5" font-family="Helvetica,sans-Serif" font-size="10.00">GeneticAlgorithm.Core.BasePeriodicOperator.iterationCallback</text>
</a>
</g>
<!-- Node7&#45;&gt;Node9 -->
<g id="edge16" class="edge"><title>Node7&#45;&gt;Node9</title>
<path fill="none" stroke="midnightblue" d="M474.172,-43.0667C484.186,-42.4165 494.388,-41.754 504.598,-41.091"/>
<polygon fill="midnightblue" stroke="midnightblue" points="505.052,-44.569 514.805,-40.4283 504.599,-37.5837 505.052,-44.569"/>
</g>
</g>
</svg>
        <g id="navigator" transform="translate(0 0)" fill="#404254">
                <rect fill="#f2f5e9" fill-opacity="0.5" stroke="#606060" stroke-width=".5" x="0" y="0" width="60" height="60"/>
                <use id="zoomplus" xlink:href="#zoomPlus" x="17" y="9" onmousedown="handleZoom(evt,'in')"/>
                <use id="zoomminus" xlink:href="#zoomMin" x="42" y="9" onmousedown="handleZoom(evt,'out')"/>
                <use id="reset" xlink:href="#resetDef" x="30" y="36" onmousedown="handleReset()"/>
                <g id="arrowUp" xlink:href="#dirArrow" transform="translate(30 24)" onmousedown="handlePan(0,-1)">
                  <use xlink:href="#rim" fill="#404040">
                        <set attributeName="fill" to="#808080" begin="arrowUp.mouseover" end="arrowUp.mouseout"/>
                  </use>
                  <path fill="none" stroke="white" stroke-width="1.5" d="M0,-3.0v7 M-2.5,-0.5L0,-3.0L2.5,-0.5"/>
                </g>
                <g id="arrowRight" xlink:href="#dirArrow" transform="rotate(90) translate(36 -43)" onmousedown="handlePan(1,0)">
                  <use xlink:href="#rim" fill="#404040">
                        <set attributeName="fill" to="#808080" begin="arrowRight.mouseover" end="arrowRight.mouseout"/>
                  </use>
                  <path fill="none" stroke="white" stroke-width="1.5" d="M0,-3.0v7 M-2.5,-0.5L0,-3.0L2.5,-0.5"/>
                </g>
                <g id="arrowDown" xlink:href="#dirArrow" transform="rotate(180) translate(-30 -48)" onmousedown="handlePan(0,1)">
                  <use xlink:href="#rim" fill="#404040">
                        <set attributeName="fill" to="#808080" begin="arrowDown.mouseover" end="arrowDown.mouseout"/>
                  </use>
                  <path fill="none" stroke="white" stroke-width="1.5" d="M0,-3.0v7 M-2.5,-0.5L0,-3.0L2.5,-0.5"/>
                </g>
                <g id="arrowLeft" xlink:href="#dirArrow" transform="rotate(270) translate(-36 17)" onmousedown="handlePan(-1,0)">
                  <use xlink:href="#rim" fill="#404040">
                        <set attributeName="fill" to="#808080" begin="arrowLeft.mouseover" end="arrowLeft.mouseout"/>
                  </use>
                  <path fill="none" stroke="white" stroke-width="1.5" d="M0,-3.0v7 M-2.5,-0.5L0,-3.0L2.5,-0.5"/>
                </g>
        </g>
</svg>
