<?xml version="1.0" encoding="UTF-8" standalone="no"?>
<!DOCTYPE svg PUBLIC "-//W3C//DTD SVG 1.1//EN"
 "http://www.w3.org/Graphics/SVG/1.1/DTD/svg11.dtd">
<!-- Generated by graphviz version 2.26.3 (20100126.1600)
 -->
<!-- Title: G Pages: 1 -->
<!--zoomable 70 -->
<svg id="main" version="1.1" xmlns="http://www.w3.org/2000/svg" xmlns:xlink="http://www.w3.org/1999/xlink" xml:space="preserve" onload="init(evt)">
        <defs>
                <circle id="rim" cx="0" cy="0" r="7"/>
                <circle id="rim2" cx="0" cy="0" r="3.5"/>
                <g id="zoomPlus">
                        <use xlink:href="#rim" fill="#404040">
                                <set attributeName="fill" to="#808080" begin="zoomplus.mouseover" end="zoomplus.mouseout"/>
                        </use>
                        <path d="M-4,0h8M0,-4v8" fill="none" stroke="white" stroke-width="1.5" pointer-events="none"/>
                </g>
                <g id="zoomMin">
                        <use xlink:href="#rim" fill="#404040">
                                <set attributeName="fill" to="#808080" begin="zoomminus.mouseover" end="zoomminus.mouseout"/>
                        </use>
                        <path d="M-4,0h8" fill="none" stroke="white" stroke-width="1.5" pointer-events="none"/>
                </g>
                <g id="dirArrow">
                        <path fill="none" stroke="white" stroke-width="1.5" d="M0,-3.0v7 M-2.5,-0.5L0,-3.0L2.5,-0.5"/>
                </g>
               <g id="resetDef">
                       <use xlink:href="#rim2" fill="#404040">
                               <set attributeName="fill" to="#808080" begin="reset.mouseover" end="reset.mouseout"/>
                       </use>
               </g>
        </defs>

<script type="text/javascript">
var viewWidth = 926;
var viewHeight = 70;
var sectionId = 'dynsection-2';
</script>
<script xlink:href="svgpan.js"/>
<svg id="graph" class="graph">
<g id="viewport">
<title>G</title>
<polygon fill="white" stroke="white" points="-4,5 -4,-66 923,-66 923,5 -4,5"/>
<!-- Node1 -->
<g id="node1" class="node"><title>Node1</title>
<polygon fill="#bfbfbf" stroke="black" points="0.5,-20.5 0.5,-41.5 297.5,-41.5 297.5,-20.5 0.5,-20.5"/>
<text text-anchor="middle" x="149" y="-28.5" font-family="Helvetica,sans-Serif" font-size="10.00">GeneticAlgorithm.PlottingOperators.PlotBestLogger.plotCallback</text>
</g>
<!-- Node2 -->
<g id="node3" class="node"><title>Node2</title>
<a xlink:href="classGeneticAlgorithm_1_1LoggingOperators_1_1BestLogger.html#a48148abde69ffc26637ce171f2df5fdf" target="_top" xlink:title="Add a new individual to the log if it is different to the best logged so far.">
<polygon fill="white" stroke="black" points="334,-20.5 334,-41.5 612,-41.5 612,-20.5 334,-20.5"/>
<text text-anchor="middle" x="473" y="-28.5" font-family="Helvetica,sans-Serif" font-size="10.00">GeneticAlgorithm.LoggingOperators.BestLogger.logCallback</text>
</a>
</g>
<!-- Node1&#45;&gt;Node2 -->
<g id="edge2" class="edge"><title>Node1&#45;&gt;Node2</title>
<path fill="none" stroke="midnightblue" d="M297.724,-31C306.333,-31 314.992,-31 323.604,-31"/>
<polygon fill="midnightblue" stroke="midnightblue" points="323.685,-34.5001 333.685,-31 323.685,-27.5001 323.685,-34.5001"/>
</g>
<!-- Node3 -->
<g id="node5" class="node"><title>Node3</title>
<a xlink:href="classGeneticAlgorithm_1_1LoggingOperators_1_1BestLogger.html#a135f375954a5768fe40c1cbba4c9c45d" target="_top" xlink:title="GeneticAlgorithm.LoggingOperators.BestLogger.addToLog">
<polygon fill="white" stroke="black" points="648.5,-40.5 648.5,-61.5 917.5,-61.5 917.5,-40.5 648.5,-40.5"/>
<text text-anchor="middle" x="783" y="-48.5" font-family="Helvetica,sans-Serif" font-size="10.00">GeneticAlgorithm.LoggingOperators.BestLogger.addToLog</text>
</a>
</g>
<!-- Node2&#45;&gt;Node3 -->
<g id="edge4" class="edge"><title>Node2&#45;&gt;Node3</title>
<path fill="none" stroke="midnightblue" d="M612.131,-39.9762C620.808,-40.536 629.552,-41.1001 638.252,-41.6614"/>
<polygon fill="midnightblue" stroke="midnightblue" points="638.235,-45.1675 648.439,-42.3187 638.685,-38.182 638.235,-45.1675"/>
</g>
<!-- Node4 -->
<g id="node7" class="node"><title>Node4</title>
<a xlink:href="classGeneticAlgorithm_1_1LoggingOperators_1_1BestLogger.html#a225341823e21663ecc6a0033f3efca89" target="_top" xlink:title="Get the best individual out of the list containing the population and the best individual found so fa...">
<polygon fill="white" stroke="black" points="653,-0.5 653,-21.5 913,-21.5 913,-0.5 653,-0.5"/>
<text text-anchor="middle" x="783" y="-8.5" font-family="Helvetica,sans-Serif" font-size="10.00">GeneticAlgorithm.LoggingOperators.BestLogger.getBest</text>
</a>
</g>
<!-- Node2&#45;&gt;Node4 -->
<g id="edge6" class="edge"><title>Node2&#45;&gt;Node4</title>
<path fill="none" stroke="midnightblue" d="M612.131,-22.0238C622.272,-21.3696 632.504,-20.7094 642.651,-20.0548"/>
<polygon fill="midnightblue" stroke="midnightblue" points="643.01,-23.539 652.764,-19.4023 642.559,-16.5535 643.01,-23.539"/>
</g>
</g>
</svg>
        <g id="navigator" transform="translate(0 0)" fill="#404254">
                <rect fill="#f2f5e9" fill-opacity="0.5" stroke="#606060" stroke-width=".5" x="0" y="0" width="60" height="60"/>
                <use id="zoomplus" xlink:href="#zoomPlus" x="17" y="9" onmousedown="handleZoom(evt,'in')"/>
                <use id="zoomminus" xlink:href="#zoomMin" x="42" y="9" onmousedown="handleZoom(evt,'out')"/>
                <use id="reset" xlink:href="#resetDef" x="30" y="36" onmousedown="handleReset()"/>
                <g id="arrowUp" xlink:href="#dirArrow" transform="translate(30 24)" onmousedown="handlePan(0,-1)">
                  <use xlink:href="#rim" fill="#404040">
                        <set attributeName="fill" to="#808080" begin="arrowUp.mouseover" end="arrowUp.mouseout"/>
                  </use>
                  <path fill="none" stroke="white" stroke-width="1.5" d="M0,-3.0v7 M-2.5,-0.5L0,-3.0L2.5,-0.5"/>
                </g>
                <g id="arrowRight" xlink:href="#dirArrow" transform="rotate(90) translate(36 -43)" onmousedown="handlePan(1,0)">
                  <use xlink:href="#rim" fill="#404040">
                        <set attributeName="fill" to="#808080" begin="arrowRight.mouseover" end="arrowRight.mouseout"/>
                  </use>
                  <path fill="none" stroke="white" stroke-width="1.5" d="M0,-3.0v7 M-2.5,-0.5L0,-3.0L2.5,-0.5"/>
                </g>
                <g id="arrowDown" xlink:href="#dirArrow" transform="rotate(180) translate(-30 -48)" onmousedown="handlePan(0,1)">
                  <use xlink:href="#rim" fill="#404040">
                        <set attributeName="fill" to="#808080" begin="arrowDown.mouseover" end="arrowDown.mouseout"/>
                  </use>
                  <path fill="none" stroke="white" stroke-width="1.5" d="M0,-3.0v7 M-2.5,-0.5L0,-3.0L2.5,-0.5"/>
                </g>
                <g id="arrowLeft" xlink:href="#dirArrow" transform="rotate(270) translate(-36 17)" onmousedown="handlePan(-1,0)">
                  <use xlink:href="#rim" fill="#404040">
                        <set attributeName="fill" to="#808080" begin="arrowLeft.mouseover" end="arrowLeft.mouseout"/>
                  </use>
                  <path fill="none" stroke="white" stroke-width="1.5" d="M0,-3.0v7 M-2.5,-0.5L0,-3.0L2.5,-0.5"/>
                </g>
        </g>
</svg>
