<?xml version="1.0" encoding="UTF-8" standalone="no"?>
<!DOCTYPE svg PUBLIC "-//W3C//DTD SVG 1.1//EN"
 "http://www.w3.org/Graphics/SVG/1.1/DTD/svg11.dtd">
<!-- Generated by graphviz version 2.26.3 (20100126.1600)
 -->
<!-- Title: G Pages: 1 -->
<svg width="246pt" height="338pt"
 viewBox="0.00 0.00 246.00 338.00" xmlns="http://www.w3.org/2000/svg" xmlns:xlink="http://www.w3.org/1999/xlink">
<g id="graph1" class="graph" transform="scale(1 1) rotate(0) translate(4 334)">
<title>G</title>
<polygon fill="white" stroke="white" points="-4,5 -4,-334 243,-334 243,5 -4,5"/>
<!-- Node1 -->
<g id="node1" class="node"><title>Node1</title>
<polygon fill="#bfbfbf" stroke="black" points="-0.5,-1 -0.5,-103 238.5,-103 238.5,-1 -0.5,-1"/>
<text text-anchor="middle" x="119" y="-90" font-family="Helvetica,sans-Serif" font-size="10.00">GeneticAlgorithm.Core.BaseChromosomeSegment</text>
<polyline fill="none" stroke="black" points="-0.5,-82 238.5,-82 "/>
<text text-anchor="start" x="7.5" y="-69" font-family="Helvetica,sans-Serif" font-size="10.00">+ data</text>
<polyline fill="none" stroke="black" points="-0.5,-61 238.5,-61 "/>
<text text-anchor="start" x="7.5" y="-48" font-family="Helvetica,sans-Serif" font-size="10.00">+ __init__()</text>
<text text-anchor="start" x="7.5" y="-35" font-family="Helvetica,sans-Serif" font-size="10.00">+ randomize()</text>
<text text-anchor="start" x="7.5" y="-22" font-family="Helvetica,sans-Serif" font-size="10.00">+ crossover()</text>
<text text-anchor="start" x="7.5" y="-9" font-family="Helvetica,sans-Serif" font-size="10.00">+ mutate()</text>
</g>
<!-- Node2 -->
<g id="node2" class="node"><title>Node2</title>
<a xlink:href="classGeneticAlgorithm_1_1Core_1_1GABaseObject.html" target="_top" xlink:title="The base object provides the functions repr and str.">
<polygon fill="white" stroke="black" points="27,-140.5 27,-229.5 211,-229.5 211,-140.5 27,-140.5"/>
<text text-anchor="middle" x="119" y="-216.5" font-family="Helvetica,sans-Serif" font-size="10.00">GeneticAlgorithm.Core.GABaseObject</text>
<polyline fill="none" stroke="black" points="27,-208.5 211,-208.5 "/>
<text text-anchor="middle" x="119" y="-195.5" font-family="Helvetica,sans-Serif" font-size="10.00"> </text>
<polyline fill="none" stroke="black" points="27,-187.5 211,-187.5 "/>
<text text-anchor="start" x="35" y="-174.5" font-family="Helvetica,sans-Serif" font-size="10.00">+ __init__()</text>
<text text-anchor="start" x="35" y="-161.5" font-family="Helvetica,sans-Serif" font-size="10.00">+ __repr__()</text>
<text text-anchor="start" x="35" y="-148.5" font-family="Helvetica,sans-Serif" font-size="10.00">+ __str__()</text>
</a>
</g>
<!-- Node2&#45;&gt;Node1 -->
<g id="edge2" class="edge"><title>Node2&#45;&gt;Node1</title>
<path fill="none" stroke="midnightblue" d="M119,-130.072C119,-121.178 119,-111.998 119,-103.197"/>
<polygon fill="none" stroke="midnightblue" points="115.5,-130.343 119,-140.343 122.5,-130.343 115.5,-130.343"/>
</g>
<!-- Node3 -->
<g id="node4" class="node"><title>Node3</title>
<a xlink:href="classobject.html" target="_top" xlink:title="{object\n||}">
<polygon fill="white" stroke="black" points="97.5,-266.5 97.5,-329.5 140.5,-329.5 140.5,-266.5 97.5,-266.5"/>
<text text-anchor="middle" x="119" y="-316.5" font-family="Helvetica,sans-Serif" font-size="10.00">object</text>
<polyline fill="none" stroke="black" points="97.5,-308.5 140.5,-308.5 "/>
<text text-anchor="middle" x="119" y="-295.5" font-family="Helvetica,sans-Serif" font-size="10.00"> </text>
<polyline fill="none" stroke="black" points="97.5,-287.5 140.5,-287.5 "/>
<text text-anchor="middle" x="119" y="-274.5" font-family="Helvetica,sans-Serif" font-size="10.00"> </text>
</a>
</g>
<!-- Node3&#45;&gt;Node2 -->
<g id="edge4" class="edge"><title>Node3&#45;&gt;Node2</title>
<path fill="none" stroke="midnightblue" d="M119,-256.015C119,-247.403 119,-238.307 119,-229.606"/>
<polygon fill="none" stroke="midnightblue" points="115.5,-256.222 119,-266.222 122.5,-256.223 115.5,-256.222"/>
</g>
</g>
</svg>
