<?xml version="1.0" encoding="UTF-8" standalone="no"?>
<!DOCTYPE svg PUBLIC "-//W3C//DTD SVG 1.1//EN"
 "http://www.w3.org/Graphics/SVG/1.1/DTD/svg11.dtd">
<!-- Generated by graphviz version 2.26.3 (20100126.1600)
 -->
<!-- Title: G Pages: 1 -->
<svg width="1708pt" height="370pt"
 viewBox="0.00 0.00 1708.00 370.00" xmlns="http://www.w3.org/2000/svg" xmlns:xlink="http://www.w3.org/1999/xlink">
<g id="graph1" class="graph" transform="scale(1 1) rotate(0) translate(4 366)">
<title>G</title>
<polygon fill="white" stroke="white" points="-4,5 -4,-366 1705,-366 1705,5 -4,5"/>
<!-- Node1 -->
<g id="node1" class="node"><title>Node1</title>
<a xlink:href="classobject.html" target="_top" xlink:title="object">
<polygon fill="white" stroke="black" points="0.5,-140.5 0.5,-161.5 43.5,-161.5 43.5,-140.5 0.5,-140.5"/>
<text text-anchor="middle" x="22" y="-148.5" font-family="Helvetica,sans-Serif" font-size="10.00">object</text>
</a>
</g>
<!-- Node2 -->
<g id="node3" class="node"><title>Node2</title>
<a xlink:href="classGeneticAlgorithm_1_1Core_1_1GABaseObject.html" target="_top" xlink:title="The base object provides the functions repr and str.">
<polygon fill="white" stroke="black" points="80,-140.5 80,-161.5 264,-161.5 264,-140.5 80,-140.5"/>
<text text-anchor="middle" x="172" y="-148.5" font-family="Helvetica,sans-Serif" font-size="10.00">GeneticAlgorithm.Core.GABaseObject</text>
</a>
</g>
<!-- Node1&#45;&gt;Node2 -->
<g id="edge2" class="edge"><title>Node1&#45;&gt;Node2</title>
<path fill="none" stroke="midnightblue" d="M53.8858,-151C61.75,-151 70.5717,-151 79.7584,-151"/>
<polygon fill="midnightblue" stroke="midnightblue" points="53.8113,-147.5 43.8113,-151 53.8113,-154.5 53.8113,-147.5"/>
</g>
<!-- Node3 -->
<g id="node5" class="node"><title>Node3</title>
<a xlink:href="classGABaseObject-demo_1_1GeneticExampleClass.html" target="_top" xlink:title="GABaseObject&#45;demo.GeneticExampleClass">
<polygon fill="white" stroke="black" points="315.5,-280.5 315.5,-301.5 524.5,-301.5 524.5,-280.5 315.5,-280.5"/>
<text text-anchor="middle" x="420" y="-288.5" font-family="Helvetica,sans-Serif" font-size="10.00">GABaseObject&#45;demo.GeneticExampleClass</text>
</a>
</g>
<!-- Node2&#45;&gt;Node3 -->
<g id="edge4" class="edge"><title>Node2&#45;&gt;Node3</title>
<path fill="none" stroke="midnightblue" d="M185.983,-169.812C207.31,-196.988 250.721,-246.637 300,-271 307.763,-274.838 316.117,-277.959 324.674,-280.495"/>
<polygon fill="midnightblue" stroke="midnightblue" points="188.724,-167.635 179.856,-161.838 183.174,-171.9 188.724,-167.635"/>
</g>
<!-- Node4 -->
<g id="node7" class="node"><title>Node4</title>
<a xlink:href="classGeneticAlgorithm_1_1Core_1_1BaseChromosomeSegment.html" target="_top" xlink:title="This class defines the minimal expression of a chromosome segment.">
<polygon fill="white" stroke="black" points="300.5,-240.5 300.5,-261.5 539.5,-261.5 539.5,-240.5 300.5,-240.5"/>
<text text-anchor="middle" x="420" y="-248.5" font-family="Helvetica,sans-Serif" font-size="10.00">GeneticAlgorithm.Core.BaseChromosomeSegment</text>
</a>
</g>
<!-- Node2&#45;&gt;Node4 -->
<g id="edge6" class="edge"><title>Node2&#45;&gt;Node4</title>
<path fill="none" stroke="midnightblue" d="M193.012,-167.818C217.299,-186.342 259.182,-215.549 300,-231 310.173,-234.851 321.109,-237.962 332.09,-240.474"/>
<polygon fill="midnightblue" stroke="midnightblue" points="194.942,-164.885 184.895,-161.521 190.652,-170.416 194.942,-164.885"/>
</g>
<!-- Node6 -->
<g id="node11" class="node"><title>Node6</title>
<a xlink:href="classGeneticAlgorithm_1_1Core_1_1GeneticOperator.html" target="_top" xlink:title="GeneticOperator is the base class that should be used to implement selection, crossover and mutation...">
<polygon fill="white" stroke="black" points="325,-200.5 325,-221.5 515,-221.5 515,-200.5 325,-200.5"/>
<text text-anchor="middle" x="420" y="-208.5" font-family="Helvetica,sans-Serif" font-size="10.00">GeneticAlgorithm.Core.GeneticOperator</text>
</a>
</g>
<!-- Node2&#45;&gt;Node6 -->
<g id="edge10" class="edge"><title>Node2&#45;&gt;Node6</title>
<path fill="none" stroke="midnightblue" d="M211.219,-164.798C236.354,-173.255 269.81,-183.803 300,-191 315.101,-194.6 331.422,-197.781 347.018,-200.488"/>
<polygon fill="midnightblue" stroke="midnightblue" points="212.271,-161.459 201.677,-161.553 210.017,-168.086 212.271,-161.459"/>
</g>
<!-- Node22 -->
<g id="node43" class="node"><title>Node22</title>
<a xlink:href="classGeneticAlgorithm_1_1Core_1_1Genotype.html" target="_top" xlink:title="The base Genotype class from which all chromosomes must derived.">
<polygon fill="white" stroke="black" points="339.5,-160.5 339.5,-181.5 500.5,-181.5 500.5,-160.5 339.5,-160.5"/>
<text text-anchor="middle" x="420" y="-168.5" font-family="Helvetica,sans-Serif" font-size="10.00">GeneticAlgorithm.Core.Genotype</text>
</a>
</g>
<!-- Node2&#45;&gt;Node22 -->
<g id="edge42" class="edge"><title>Node2&#45;&gt;Node22</title>
<path fill="none" stroke="midnightblue" d="M274.546,-159.27C296.18,-161.015 318.713,-162.832 339.401,-164.5"/>
<polygon fill="midnightblue" stroke="midnightblue" points="274.595,-155.763 264.346,-158.447 274.032,-162.74 274.595,-155.763"/>
</g>
<!-- Node23 -->
<g id="node45" class="node"><title>Node23</title>
<a xlink:href="classGeneticAlgorithm_1_1Core_1_1Individual.html" target="_top" xlink:title="This class is a container intended to store all information relevant to an individual.">
<polygon fill="white" stroke="black" points="340,-120.5 340,-141.5 500,-141.5 500,-120.5 340,-120.5"/>
<text text-anchor="middle" x="420" y="-128.5" font-family="Helvetica,sans-Serif" font-size="10.00">GeneticAlgorithm.Core.Individual</text>
</a>
</g>
<!-- Node2&#45;&gt;Node23 -->
<g id="edge44" class="edge"><title>Node2&#45;&gt;Node23</title>
<path fill="none" stroke="midnightblue" d="M274.604,-142.726C296.36,-140.971 319.023,-139.143 339.803,-137.468"/>
<polygon fill="midnightblue" stroke="midnightblue" points="274.032,-139.26 264.346,-143.553 274.595,-146.237 274.032,-139.26"/>
</g>
<!-- Node24 -->
<g id="node47" class="node"><title>Node24</title>
<a xlink:href="classGeneticAlgorithm_1_1Core_1_1Population.html" target="_top" xlink:title="This class is a container, intended to store references to individuals and all their.">
<polygon fill="white" stroke="black" points="338,-80.5 338,-101.5 502,-101.5 502,-80.5 338,-80.5"/>
<text text-anchor="middle" x="420" y="-88.5" font-family="Helvetica,sans-Serif" font-size="10.00">GeneticAlgorithm.Core.Population</text>
</a>
</g>
<!-- Node2&#45;&gt;Node24 -->
<g id="edge46" class="edge"><title>Node2&#45;&gt;Node24</title>
<path fill="none" stroke="midnightblue" d="M211.219,-137.202C236.354,-128.745 269.81,-118.197 300,-111 315.101,-107.4 331.422,-104.219 347.018,-101.512"/>
<polygon fill="midnightblue" stroke="midnightblue" points="210.017,-133.914 201.677,-140.447 212.271,-140.541 210.017,-133.914"/>
</g>
<!-- Node25 -->
<g id="node49" class="node"><title>Node25</title>
<a xlink:href="classGeneticAlgorithm_1_1Core_1_1Scheduler.html" target="_top" xlink:title="A class that encapsulates a Population and a list of GeneticOperator.">
<polygon fill="white" stroke="black" points="339,-40.5 339,-61.5 501,-61.5 501,-40.5 339,-40.5"/>
<text text-anchor="middle" x="420" y="-48.5" font-family="Helvetica,sans-Serif" font-size="10.00">GeneticAlgorithm.Core.Scheduler</text>
</a>
</g>
<!-- Node2&#45;&gt;Node25 -->
<g id="edge48" class="edge"><title>Node2&#45;&gt;Node25</title>
<path fill="none" stroke="midnightblue" d="M193.012,-134.182C217.299,-115.658 259.182,-86.4513 300,-71 312.247,-66.3641 325.6,-62.8006 338.806,-60.062"/>
<polygon fill="midnightblue" stroke="midnightblue" points="190.652,-131.584 184.895,-140.479 194.942,-137.115 190.652,-131.584"/>
</g>
<!-- Node26 -->
<g id="node51" class="node"><title>Node26</title>
<a xlink:href="classGeneticAlgorithm_1_1GraphLibrary_1_1Graph.html" target="_top" xlink:title="This class.">
<polygon fill="white" stroke="black" points="330.5,-0.5 330.5,-21.5 509.5,-21.5 509.5,-0.5 330.5,-0.5"/>
<text text-anchor="middle" x="420" y="-8.5" font-family="Helvetica,sans-Serif" font-size="10.00">GeneticAlgorithm.GraphLibrary.Graph</text>
</a>
</g>
<!-- Node2&#45;&gt;Node26 -->
<g id="edge50" class="edge"><title>Node2&#45;&gt;Node26</title>
<path fill="none" stroke="midnightblue" d="M185.983,-132.188C207.31,-105.012 250.721,-55.3629 300,-31 309.467,-26.3198 319.813,-22.7049 330.334,-19.9176"/>
<polygon fill="midnightblue" stroke="midnightblue" points="183.174,-130.1 179.856,-140.162 188.724,-134.365 183.174,-130.1"/>
</g>
<!-- Node5 -->
<g id="node9" class="node"><title>Node5</title>
<a xlink:href="classGeneticAlgorithm_1_1GenotypeLibrary_1_1BinaryChromosomeSegment.html" target="_top" xlink:title="This class implements an integer variable encoded by a fixed number of bits.">
<polygon fill="white" stroke="black" points="576,-340.5 576,-361.5 870,-361.5 870,-340.5 576,-340.5"/>
<text text-anchor="middle" x="723" y="-348.5" font-family="Helvetica,sans-Serif" font-size="10.00">GeneticAlgorithm.GenotypeLibrary.BinaryChromosomeSegment</text>
</a>
</g>
<!-- Node4&#45;&gt;Node5 -->
<g id="edge8" class="edge"><title>Node4&#45;&gt;Node5</title>
<path fill="none" stroke="midnightblue" d="M531.428,-265.836C534.385,-267.41 537.25,-269.128 540,-271 565.706,-288.502 550.035,-313.885 576,-331 581.484,-334.615 587.333,-337.708 593.422,-340.347"/>
<polygon fill="midnightblue" stroke="midnightblue" points="532.846,-262.634 522.309,-261.527 529.855,-268.964 532.846,-262.634"/>
</g>
<!-- Node7 -->
<g id="node13" class="node"><title>Node7</title>
<a xlink:href="classGeneticAlgorithm_1_1Core_1_1BasePeriodicOperator.html" target="_top" xlink:title="A class that serves as a base for all periodic operators.">
<polygon fill="white" stroke="black" points="616,-300.5 616,-321.5 830,-321.5 830,-300.5 616,-300.5"/>
<text text-anchor="middle" x="723" y="-308.5" font-family="Helvetica,sans-Serif" font-size="10.00">GeneticAlgorithm.Core.BasePeriodicOperator</text>
</a>
</g>
<!-- Node6&#45;&gt;Node7 -->
<g id="edge12" class="edge"><title>Node6&#45;&gt;Node7</title>
<path fill="none" stroke="midnightblue" d="M524.453,-222.449C529.907,-224.859 535.135,-227.688 540,-231 565.706,-248.502 550.035,-273.885 576,-291 587.935,-298.867 601.604,-304.263 615.694,-307.89"/>
<polygon fill="midnightblue" stroke="midnightblue" points="525.672,-219.168 515.085,-218.776 523.117,-225.685 525.672,-219.168"/>
</g>
<!-- Node12 -->
<g id="node23" class="node"><title>Node12</title>
<a xlink:href="classGeneticAlgorithm_1_1Core_1_1Crossover.html" target="_top" xlink:title="Crossover two individuals from population.matingPool with probability population.crossoverProbability...">
<polygon fill="white" stroke="black" points="641,-260.5 641,-281.5 805,-281.5 805,-260.5 641,-260.5"/>
<text text-anchor="middle" x="723" y="-268.5" font-family="Helvetica,sans-Serif" font-size="10.00">GeneticAlgorithm.Core.Crossover</text>
</a>
</g>
<!-- Node6&#45;&gt;Node12 -->
<g id="edge22" class="edge"><title>Node6&#45;&gt;Node12</title>
<path fill="none" stroke="midnightblue" d="M515.392,-223.81C523.809,-225.866 532.118,-228.246 540,-231 557.279,-237.037 558.633,-245.222 576,-251 596.529,-257.829 619.412,-262.33 640.895,-265.296"/>
<polygon fill="midnightblue" stroke="midnightblue" points="516.011,-220.361 505.482,-221.541 514.449,-227.184 516.011,-220.361"/>
</g>
<!-- Node13 -->
<g id="node25" class="node"><title>Node13</title>
<a xlink:href="classGeneticAlgorithm_1_1Core_1_1Mutate.html" target="_top" xlink:title="Mutate an individual.">
<polygon fill="white" stroke="black" points="648.5,-220.5 648.5,-241.5 797.5,-241.5 797.5,-220.5 648.5,-220.5"/>
<text text-anchor="middle" x="723" y="-228.5" font-family="Helvetica,sans-Serif" font-size="10.00">GeneticAlgorithm.Core.Mutate</text>
</a>
</g>
<!-- Node6&#45;&gt;Node13 -->
<g id="edge24" class="edge"><title>Node6&#45;&gt;Node13</title>
<path fill="none" stroke="midnightblue" d="M525.249,-217.947C565.855,-220.627 611.363,-223.631 648.478,-226.081"/>
<polygon fill="midnightblue" stroke="midnightblue" points="525.249,-214.44 515.04,-217.273 524.787,-221.424 525.249,-214.44"/>
</g>
<!-- Node14 -->
<g id="node27" class="node"><title>Node14</title>
<a xlink:href="classGeneticAlgorithm_1_1EvaluationOperators_1_1BaseEvaluationOperator.html" target="_top" xlink:title="This class provides an easy way of developing evaluation operators that only evaluate recently replac...">
<polygon fill="white" stroke="black" points="577,-180.5 577,-201.5 869,-201.5 869,-180.5 577,-180.5"/>
<text text-anchor="middle" x="723" y="-188.5" font-family="Helvetica,sans-Serif" font-size="10.00">GeneticAlgorithm.EvaluationOperators.BaseEvaluationOperator</text>
</a>
</g>
<!-- Node6&#45;&gt;Node14 -->
<g id="edge26" class="edge"><title>Node6&#45;&gt;Node14</title>
<path fill="none" stroke="midnightblue" d="M525.32,-204.048C542.016,-202.946 559.54,-201.789 576.966,-200.639"/>
<polygon fill="midnightblue" stroke="midnightblue" points="524.787,-200.576 515.04,-204.727 525.249,-207.56 524.787,-200.576"/>
</g>
<!-- Node19 -->
<g id="node37" class="node"><title>Node19</title>
<a xlink:href="classGeneticAlgorithm_1_1SelectionOperators_1_1KTournament.html" target="_top" xlink:title="A selection operator that implements the k&#45;tournament algorithm.">
<polygon fill="white" stroke="black" points="603.5,-140.5 603.5,-161.5 842.5,-161.5 842.5,-140.5 603.5,-140.5"/>
<text text-anchor="middle" x="723" y="-148.5" font-family="Helvetica,sans-Serif" font-size="10.00">GeneticAlgorithm.SelectionOperators.KTournament</text>
</a>
</g>
<!-- Node6&#45;&gt;Node19 -->
<g id="edge36" class="edge"><title>Node6&#45;&gt;Node19</title>
<path fill="none" stroke="midnightblue" d="M515.392,-198.19C523.809,-196.134 532.118,-193.754 540,-191 557.279,-184.963 558.633,-176.778 576,-171 587.609,-167.138 599.97,-164.021 612.406,-161.505"/>
<polygon fill="midnightblue" stroke="midnightblue" points="514.449,-194.816 505.482,-200.459 516.011,-201.639 514.449,-194.816"/>
</g>
<!-- Node20 -->
<g id="node39" class="node"><title>Node20</title>
<a xlink:href="classGeneticAlgorithm_1_1SelectionOperators_1_1SelectLethals.html" target="_top" xlink:title="Select the individuals to replace based on the population.maximize flag and the population.genSize property.">
<polygon fill="white" stroke="black" points="603,-100.5 603,-121.5 843,-121.5 843,-100.5 603,-100.5"/>
<text text-anchor="middle" x="723" y="-108.5" font-family="Helvetica,sans-Serif" font-size="10.00">GeneticAlgorithm.SelectionOperators.SelectLethals</text>
</a>
</g>
<!-- Node6&#45;&gt;Node20 -->
<g id="edge38" class="edge"><title>Node6&#45;&gt;Node20</title>
<path fill="none" stroke="midnightblue" d="M524.453,-199.551C529.907,-197.141 535.135,-194.312 540,-191 565.706,-173.498 550.035,-148.115 576,-131 584.279,-125.543 593.393,-121.274 602.903,-117.961"/>
<polygon fill="midnightblue" stroke="midnightblue" points="523.117,-196.315 515.085,-203.224 525.672,-202.832 523.117,-196.315"/>
</g>
<!-- Node21 -->
<g id="node41" class="node"><title>Node21</title>
<a xlink:href="classGeneticAlgorithm_1_1SelectionOperators_1_1SUSSelection.html" target="_top" xlink:title="This operator performs stochastic uniform selection over the population, updating the field matingPoo...">
<polygon fill="white" stroke="black" points="602,-60.5 602,-81.5 844,-81.5 844,-60.5 602,-60.5"/>
<text text-anchor="middle" x="723" y="-68.5" font-family="Helvetica,sans-Serif" font-size="10.00">GeneticAlgorithm.SelectionOperators.SUSSelection</text>
</a>
</g>
<!-- Node6&#45;&gt;Node21 -->
<g id="edge40" class="edge"><title>Node6&#45;&gt;Node21</title>
<path fill="none" stroke="midnightblue" d="M524.55,-201.008C530.066,-198.248 535.272,-194.943 540,-191 576.274,-160.743 539.277,-120.711 576,-91 583.709,-84.7631 592.424,-79.9497 601.668,-76.2729"/>
<polygon fill="midnightblue" stroke="midnightblue" points="522.782,-197.96 515.006,-205.156 525.573,-204.38 522.782,-197.96"/>
</g>
<!-- Node8 -->
<g id="node15" class="node"><title>Node8</title>
<a xlink:href="classGeneticAlgorithm_1_1LoggingOperators_1_1BestLogger.html" target="_top" xlink:title="This class stores the best individual of the population, if it is better than the last individual fou...">
<polygon fill="white" stroke="black" points="915,-320.5 915,-341.5 1139,-341.5 1139,-320.5 915,-320.5"/>
<text text-anchor="middle" x="1027" y="-328.5" font-family="Helvetica,sans-Serif" font-size="10.00">GeneticAlgorithm.LoggingOperators.BestLogger</text>
</a>
</g>
<!-- Node7&#45;&gt;Node8 -->
<g id="edge14" class="edge"><title>Node7&#45;&gt;Node8</title>
<path fill="none" stroke="midnightblue" d="M840.233,-318.713C864.751,-320.326 890.543,-322.023 914.87,-323.623"/>
<polygon fill="midnightblue" stroke="midnightblue" points="840.387,-315.215 830.179,-318.051 839.928,-322.2 840.387,-315.215"/>
</g>
<!-- Node11 -->
<g id="node21" class="node"><title>Node11</title>
<a xlink:href="classGeneticAlgorithm_1_1LoggingOperators_1_1LogGenerations.html" target="_top" xlink:title="Log the full population of a GA.">
<polygon fill="white" stroke="black" points="906,-280.5 906,-301.5 1148,-301.5 1148,-280.5 906,-280.5"/>
<text text-anchor="middle" x="1027" y="-288.5" font-family="Helvetica,sans-Serif" font-size="10.00">GeneticAlgorithm.LoggingOperators.LogGenerations</text>
</a>
</g>
<!-- Node7&#45;&gt;Node11 -->
<g id="edge20" class="edge"><title>Node7&#45;&gt;Node11</title>
<path fill="none" stroke="midnightblue" d="M840.293,-303.283C861.751,-301.872 884.184,-300.396 905.754,-298.977"/>
<polygon fill="midnightblue" stroke="midnightblue" points="839.928,-299.8 830.179,-303.949 840.387,-306.785 839.928,-299.8"/>
</g>
<!-- Node9 -->
<g id="node17" class="node"><title>Node9</title>
<a xlink:href="classGeneticAlgorithm_1_1PlottingOperators_1_1PlotBestLogger.html" target="_top" xlink:title="A BestLogger specialization that plots the historic progression of the best criterion with each tick...">
<polygon fill="white" stroke="black" points="1184,-320.5 1184,-341.5 1424,-341.5 1424,-320.5 1184,-320.5"/>
<text text-anchor="middle" x="1304" y="-328.5" font-family="Helvetica,sans-Serif" font-size="10.00">GeneticAlgorithm.PlottingOperators.PlotBestLogger</text>
</a>
</g>
<!-- Node8&#45;&gt;Node9 -->
<g id="edge16" class="edge"><title>Node8&#45;&gt;Node9</title>
<path fill="none" stroke="midnightblue" d="M1149.31,-331C1160.79,-331 1172.43,-331 1183.89,-331"/>
<polygon fill="midnightblue" stroke="midnightblue" points="1149.27,-327.5 1139.27,-331 1149.27,-334.5 1149.27,-327.5"/>
</g>
<!-- Node10 -->
<g id="node19" class="node"><title>Node10</title>
<a xlink:href="classGeneticAlgorithm_1_1GraphLibrary_1_1BestPathPlotLogger.html" target="_top" xlink:title="This class extends the PlottingOperators::PlotBestLogger to display the best tour found so far...">
<polygon fill="white" stroke="black" points="1460,-320.5 1460,-341.5 1700,-341.5 1700,-320.5 1460,-320.5"/>
<text text-anchor="middle" x="1580" y="-328.5" font-family="Helvetica,sans-Serif" font-size="10.00">GeneticAlgorithm.GraphLibrary.BestPathPlotLogger</text>
</a>
</g>
<!-- Node9&#45;&gt;Node10 -->
<g id="edge18" class="edge"><title>Node9&#45;&gt;Node10</title>
<path fill="none" stroke="midnightblue" d="M1434.49,-331C1442.91,-331 1451.36,-331 1459.73,-331"/>
<polygon fill="midnightblue" stroke="midnightblue" points="1434.25,-327.5 1424.25,-331 1434.25,-334.5 1434.25,-327.5"/>
</g>
<!-- Node15 -->
<g id="node29" class="node"><title>Node15</title>
<a xlink:href="classGADemo_1_1NumOnes.html" target="_top" xlink:title="An evaluation operator that computes the number of ones in a segment whose data can be converted to b...">
<polygon fill="white" stroke="black" points="975,-230.5 975,-251.5 1079,-251.5 1079,-230.5 975,-230.5"/>
<text text-anchor="middle" x="1027" y="-238.5" font-family="Helvetica,sans-Serif" font-size="10.00">GADemo.NumOnes</text>
</a>
</g>
<!-- Node14&#45;&gt;Node15 -->
<g id="edge28" class="edge"><title>Node14&#45;&gt;Node15</title>
<path fill="none" stroke="midnightblue" d="M824.657,-202.999C839.911,-205.328 855.411,-207.996 870,-211 886.265,-214.349 889.785,-217.419 906,-221 928.454,-225.959 953.498,-230.294 974.95,-233.648"/>
<polygon fill="midnightblue" stroke="midnightblue" points="825.087,-199.524 814.681,-201.516 824.058,-206.448 825.087,-199.524"/>
</g>
<!-- Node16 -->
<g id="node31" class="node"><title>Node16</title>
<a xlink:href="classGeneticAlgorithm_1_1GraphLibrary_1_1Ordonez.html" target="_top" xlink:title="A GeneticAlgorithm::Core::GeneticOperator derivate that decodes a binary genotype as a permutation of...">
<polygon fill="white" stroke="black" points="932,-190.5 932,-211.5 1122,-211.5 1122,-190.5 932,-190.5"/>
<text text-anchor="middle" x="1027" y="-198.5" font-family="Helvetica,sans-Serif" font-size="10.00">GeneticAlgorithm.GraphLibrary.Ordonez</text>
</a>
</g>
<!-- Node14&#45;&gt;Node16 -->
<g id="edge30" class="edge"><title>Node14&#45;&gt;Node16</title>
<path fill="none" stroke="midnightblue" d="M879.698,-196.155C897.504,-196.74 915.223,-197.323 931.878,-197.871"/>
<polygon fill="midnightblue" stroke="midnightblue" points="879.322,-192.64 869.212,-195.81 879.092,-199.637 879.322,-192.64"/>
</g>
<!-- Node17 -->
<g id="node33" class="node"><title>Node17</title>
<a xlink:href="classGeneticAlgorithm_1_1GraphLibrary_1_1PathLengthFitness.html" target="_top" xlink:title="A GeneticAlgorithm::Core::GeneticOperator derivate that uses.">
<polygon fill="white" stroke="black" points="909.5,-150.5 909.5,-171.5 1144.5,-171.5 1144.5,-150.5 909.5,-150.5"/>
<text text-anchor="middle" x="1027" y="-158.5" font-family="Helvetica,sans-Serif" font-size="10.00">GeneticAlgorithm.GraphLibrary.PathLengthFitness</text>
</a>
</g>
<!-- Node14&#45;&gt;Node17 -->
<g id="edge32" class="edge"><title>Node14&#45;&gt;Node17</title>
<path fill="none" stroke="midnightblue" d="M839.84,-179.47C866.377,-176.851 894.425,-174.083 920.505,-171.509"/>
<polygon fill="midnightblue" stroke="midnightblue" points="839.359,-176 829.752,-180.465 840.047,-182.966 839.359,-176"/>
</g>
<!-- Node18 -->
<g id="node35" class="node"><title>Node18</title>
<a xlink:href="classKnapsackDemo_1_1Knapsack.html" target="_top" xlink:title="An evaluation operator that computes the relaxed version of the objective function used to solve a kn...">
<polygon fill="white" stroke="black" points="960.5,-110.5 960.5,-131.5 1093.5,-131.5 1093.5,-110.5 960.5,-110.5"/>
<text text-anchor="middle" x="1027" y="-118.5" font-family="Helvetica,sans-Serif" font-size="10.00">KnapsackDemo.Knapsack</text>
</a>
</g>
<!-- Node14&#45;&gt;Node18 -->
<g id="edge34" class="edge"><title>Node14&#45;&gt;Node18</title>
<path fill="none" stroke="midnightblue" d="M852.893,-177.484C858.758,-175.579 864.489,-173.428 870,-171 889.06,-162.603 887.062,-149.669 906,-141 922.843,-133.29 942.213,-128.511 960.447,-125.56"/>
<polygon fill="midnightblue" stroke="midnightblue" points="851.495,-174.249 842.913,-180.463 853.496,-180.957 851.495,-174.249"/>
</g>
</g>
</svg>
