<?xml version="1.0" encoding="UTF-8" standalone="no"?>
<!DOCTYPE svg PUBLIC "-//W3C//DTD SVG 1.1//EN"
 "http://www.w3.org/Graphics/SVG/1.1/DTD/svg11.dtd">
<!-- Generated by graphviz version 2.26.3 (20100126.1600)
 -->
<!-- Title: G Pages: 1 -->
<svg width="216pt" height="172pt"
 viewBox="0.00 0.00 216.00 172.00" xmlns="http://www.w3.org/2000/svg" xmlns:xlink="http://www.w3.org/1999/xlink">
<g id="graph1" class="graph" transform="scale(1 1) rotate(0) translate(4 168)">
<title>G</title>
<polygon fill="white" stroke="white" points="-4,5 -4,-168 213,-168 213,5 -4,5"/>
<!-- Node1 -->
<g id="node1" class="node"><title>Node1</title>
<polygon fill="#bfbfbf" stroke="black" points="-0.5,-0.5 -0.5,-63.5 208.5,-63.5 208.5,-0.5 -0.5,-0.5"/>
<text text-anchor="middle" x="104" y="-50.5" font-family="Helvetica,sans-Serif" font-size="10.00">GABaseObject&#45;demo.GeneticExampleClass</text>
<polyline fill="none" stroke="black" points="-0.5,-42.5 208.5,-42.5 "/>
<text text-anchor="middle" x="104" y="-29.5" font-family="Helvetica,sans-Serif" font-size="10.00"> </text>
<polyline fill="none" stroke="black" points="-0.5,-21.5 208.5,-21.5 "/>
<text text-anchor="middle" x="104" y="-8.5" font-family="Helvetica,sans-Serif" font-size="10.00"> </text>
</g>
<!-- Node2 -->
<g id="node2" class="node"><title>Node2</title>
<polygon fill="white" stroke="#bfbfbf" points="63,-100.5 63,-163.5 145,-163.5 145,-100.5 63,-100.5"/>
<text text-anchor="middle" x="104" y="-150.5" font-family="Helvetica,sans-Serif" font-size="10.00">GABaseObject</text>
<polyline fill="none" stroke="#bfbfbf" points="63,-142.5 145,-142.5 "/>
<text text-anchor="middle" x="104" y="-129.5" font-family="Helvetica,sans-Serif" font-size="10.00"> </text>
<polyline fill="none" stroke="#bfbfbf" points="63,-121.5 145,-121.5 "/>
<text text-anchor="middle" x="104" y="-108.5" font-family="Helvetica,sans-Serif" font-size="10.00"> </text>
</g>
<!-- Node2&#45;&gt;Node1 -->
<g id="edge2" class="edge"><title>Node2&#45;&gt;Node1</title>
<path fill="none" stroke="midnightblue" d="M104,-90.2111C104,-81.37 104,-72.1767 104,-63.778"/>
<polygon fill="none" stroke="midnightblue" points="100.5,-90.3593 104,-100.359 107.5,-90.3594 100.5,-90.3593"/>
</g>
</g>
</svg>
