<?xml version="1.0" encoding="UTF-8" standalone="no"?>
<!DOCTYPE svg PUBLIC "-//W3C//DTD SVG 1.1//EN"
 "http://www.w3.org/Graphics/SVG/1.1/DTD/svg11.dtd">
<!-- Generated by graphviz version 2.26.3 (20100126.1600)
 -->
<!-- Title: G Pages: 1 -->
<!--zoomable 70 -->
<svg id="main" version="1.1" xmlns="http://www.w3.org/2000/svg" xmlns:xlink="http://www.w3.org/1999/xlink" xml:space="preserve" onload="init(evt)">
        <defs>
                <circle id="rim" cx="0" cy="0" r="7"/>
                <circle id="rim2" cx="0" cy="0" r="3.5"/>
                <g id="zoomPlus">
                        <use xlink:href="#rim" fill="#404040">
                                <set attributeName="fill" to="#808080" begin="zoomplus.mouseover" end="zoomplus.mouseout"/>
                        </use>
                        <path d="M-4,0h8M0,-4v8" fill="none" stroke="white" stroke-width="1.5" pointer-events="none"/>
                </g>
                <g id="zoomMin">
                        <use xlink:href="#rim" fill="#404040">
                                <set attributeName="fill" to="#808080" begin="zoomminus.mouseover" end="zoomminus.mouseout"/>
                        </use>
                        <path d="M-4,0h8" fill="none" stroke="white" stroke-width="1.5" pointer-events="none"/>
                </g>
                <g id="dirArrow">
                        <path fill="none" stroke="white" stroke-width="1.5" d="M0,-3.0v7 M-2.5,-0.5L0,-3.0L2.5,-0.5"/>
                </g>
               <g id="resetDef">
                       <use xlink:href="#rim2" fill="#404040">
                               <set attributeName="fill" to="#808080" begin="reset.mouseover" end="reset.mouseout"/>
                       </use>
               </g>
        </defs>

<script type="text/javascript">
var viewWidth = 990;
var viewHeight = 70;
var sectionId = 'dynsection-4';
</script>
<script xlink:href="svgpan.js"/>
<svg id="graph" class="graph">
<g id="viewport">
<title>G</title>
<polygon fill="white" stroke="white" points="-4,5 -4,-66 987,-66 987,5 -4,5"/>
<!-- Node1 -->
<g id="node1" class="node"><title>Node1</title>
<polygon fill="#bfbfbf" stroke="black" points="0.5,-20.5 0.5,-41.5 341.5,-41.5 341.5,-20.5 0.5,-20.5"/>
<text text-anchor="middle" x="171" y="-28.5" font-family="Helvetica,sans-Serif" font-size="10.00">GeneticAlgorithm.GenotypeLibrary.BinaryChromosomeSegment.maxValue</text>
</g>
<!-- Node2 -->
<g id="node3" class="node"><title>Node2</title>
<a xlink:href="classGeneticAlgorithm_1_1GenotypeLibrary_1_1BinaryChromosomeSegment.html#a2175c52da4b1b07ca372c32ba8daaa09" target="_top" xlink:title="This function insures that nBits is an integer and that data value never exceeds maxValue(self)">
<polygon fill="white" stroke="black" points="378,-40.5 378,-61.5 724,-61.5 724,-40.5 378,-40.5"/>
<text text-anchor="middle" x="551" y="-48.5" font-family="Helvetica,sans-Serif" font-size="10.00">GeneticAlgorithm.GenotypeLibrary.BinaryChromosomeSegment.__setattr__</text>
</a>
</g>
<!-- Node1&#45;&gt;Node2 -->
<g id="edge2" class="edge"><title>Node1&#45;&gt;Node2</title>
<path fill="none" stroke="midnightblue" d="M351.724,-40.5118C360.406,-40.9687 369.113,-41.427 377.774,-41.8829"/>
<polygon fill="midnightblue" stroke="midnightblue" points="351.718,-37.0067 341.548,-39.9762 351.35,-43.9971 351.718,-37.0067"/>
</g>
<!-- Node4 -->
<g id="node7" class="node"><title>Node4</title>
<a xlink:href="classGeneticAlgorithm_1_1GenotypeLibrary_1_1BinaryChromosomeSegment.html#a4e0c849bf5909acca85278a6d5482376" target="_top" xlink:title="Set the chromosome value to a random value.">
<polygon fill="white" stroke="black" points="380,-0.5 380,-21.5 722,-21.5 722,-0.5 380,-0.5"/>
<text text-anchor="middle" x="551" y="-8.5" font-family="Helvetica,sans-Serif" font-size="10.00">GeneticAlgorithm.GenotypeLibrary.BinaryChromosomeSegment.randomize</text>
</a>
</g>
<!-- Node1&#45;&gt;Node4 -->
<g id="edge6" class="edge"><title>Node1&#45;&gt;Node4</title>
<path fill="none" stroke="midnightblue" d="M351.71,-21.489C361.089,-20.9953 370.499,-20.5 379.848,-20.008"/>
<polygon fill="midnightblue" stroke="midnightblue" points="351.35,-18.0029 341.548,-22.0238 351.718,-24.9933 351.35,-18.0029"/>
</g>
<!-- Node3 -->
<g id="node5" class="node"><title>Node3</title>
<a xlink:href="classGeneticAlgorithm_1_1Core_1_1GABaseObject.html#ad731aac1eabcf1aba7ed018cd52a1915" target="_top" xlink:title="(self, **kwargs)">
<polygon fill="white" stroke="black" points="760.5,-40.5 760.5,-61.5 981.5,-61.5 981.5,-40.5 760.5,-40.5"/>
<text text-anchor="middle" x="871" y="-48.5" font-family="Helvetica,sans-Serif" font-size="10.00">GeneticAlgorithm.Core.GABaseObject.__init__</text>
</a>
</g>
<!-- Node2&#45;&gt;Node3 -->
<g id="edge4" class="edge"><title>Node2&#45;&gt;Node3</title>
<path fill="none" stroke="midnightblue" d="M734.394,-51C743.121,-51 751.754,-51 760.184,-51"/>
<polygon fill="midnightblue" stroke="midnightblue" points="734.112,-47.5001 724.112,-51 734.112,-54.5001 734.112,-47.5001"/>
</g>
</g>
</svg>
        <g id="navigator" transform="translate(0 0)" fill="#404254">
                <rect fill="#f2f5e9" fill-opacity="0.5" stroke="#606060" stroke-width=".5" x="0" y="0" width="60" height="60"/>
                <use id="zoomplus" xlink:href="#zoomPlus" x="17" y="9" onmousedown="handleZoom(evt,'in')"/>
                <use id="zoomminus" xlink:href="#zoomMin" x="42" y="9" onmousedown="handleZoom(evt,'out')"/>
                <use id="reset" xlink:href="#resetDef" x="30" y="36" onmousedown="handleReset()"/>
                <g id="arrowUp" xlink:href="#dirArrow" transform="translate(30 24)" onmousedown="handlePan(0,-1)">
                  <use xlink:href="#rim" fill="#404040">
                        <set attributeName="fill" to="#808080" begin="arrowUp.mouseover" end="arrowUp.mouseout"/>
                  </use>
                  <path fill="none" stroke="white" stroke-width="1.5" d="M0,-3.0v7 M-2.5,-0.5L0,-3.0L2.5,-0.5"/>
                </g>
                <g id="arrowRight" xlink:href="#dirArrow" transform="rotate(90) translate(36 -43)" onmousedown="handlePan(1,0)">
                  <use xlink:href="#rim" fill="#404040">
                        <set attributeName="fill" to="#808080" begin="arrowRight.mouseover" end="arrowRight.mouseout"/>
                  </use>
                  <path fill="none" stroke="white" stroke-width="1.5" d="M0,-3.0v7 M-2.5,-0.5L0,-3.0L2.5,-0.5"/>
                </g>
                <g id="arrowDown" xlink:href="#dirArrow" transform="rotate(180) translate(-30 -48)" onmousedown="handlePan(0,1)">
                  <use xlink:href="#rim" fill="#404040">
                        <set attributeName="fill" to="#808080" begin="arrowDown.mouseover" end="arrowDown.mouseout"/>
                  </use>
                  <path fill="none" stroke="white" stroke-width="1.5" d="M0,-3.0v7 M-2.5,-0.5L0,-3.0L2.5,-0.5"/>
                </g>
                <g id="arrowLeft" xlink:href="#dirArrow" transform="rotate(270) translate(-36 17)" onmousedown="handlePan(-1,0)">
                  <use xlink:href="#rim" fill="#404040">
                        <set attributeName="fill" to="#808080" begin="arrowLeft.mouseover" end="arrowLeft.mouseout"/>
                  </use>
                  <path fill="none" stroke="white" stroke-width="1.5" d="M0,-3.0v7 M-2.5,-0.5L0,-3.0L2.5,-0.5"/>
                </g>
        </g>
</svg>
