<?xml version="1.0" encoding="UTF-8" standalone="no"?>
<!DOCTYPE svg PUBLIC "-//W3C//DTD SVG 1.1//EN"
 "http://www.w3.org/Graphics/SVG/1.1/DTD/svg11.dtd">
<!-- Generated by graphviz version 2.26.3 (20100126.1600)
 -->
<!-- Title: G Pages: 1 -->
<svg width="164pt" height="276pt"
 viewBox="0.00 0.00 164.00 276.00" xmlns="http://www.w3.org/2000/svg" xmlns:xlink="http://www.w3.org/1999/xlink">
<g id="graph1" class="graph" transform="scale(1 1) rotate(0) translate(4 272)">
<title>G</title>
<polygon fill="white" stroke="white" points="-4,5 -4,-272 161,-272 161,5 -4,5"/>
<!-- Node1 -->
<g id="node1" class="node"><title>Node1</title>
<polygon fill="#bfbfbf" stroke="black" points="-0.5,-0.5 -0.5,-167.5 156.5,-167.5 156.5,-0.5 -0.5,-0.5"/>
<text text-anchor="middle" x="78" y="-154.5" font-family="Helvetica,sans-Serif" font-size="10.00">KapsackSearch.SearchManager</text>
<polyline fill="none" stroke="black" points="-0.5,-146.5 156.5,-146.5 "/>
<text text-anchor="start" x="7.5" y="-133.5" font-family="Helvetica,sans-Serif" font-size="10.00">+ objectVolumes</text>
<text text-anchor="start" x="7.5" y="-120.5" font-family="Helvetica,sans-Serif" font-size="10.00">+ objectCosts</text>
<text text-anchor="start" x="7.5" y="-107.5" font-family="Helvetica,sans-Serif" font-size="10.00">+ maxVolume</text>
<text text-anchor="start" x="7.5" y="-94.5" font-family="Helvetica,sans-Serif" font-size="10.00">+ nExpansions</text>
<text text-anchor="start" x="7.5" y="-81.5" font-family="Helvetica,sans-Serif" font-size="10.00">+ openNodes</text>
<text text-anchor="start" x="7.5" y="-68.5" font-family="Helvetica,sans-Serif" font-size="10.00">+ closedNodes</text>
<text text-anchor="start" x="7.5" y="-55.5" font-family="Helvetica,sans-Serif" font-size="10.00">+ bestFound</text>
<polyline fill="none" stroke="black" points="-0.5,-47.5 156.5,-47.5 "/>
<text text-anchor="start" x="7.5" y="-34.5" font-family="Helvetica,sans-Serif" font-size="10.00">+ __init__()</text>
<text text-anchor="start" x="7.5" y="-21.5" font-family="Helvetica,sans-Serif" font-size="10.00">+ expand()</text>
<text text-anchor="start" x="7.5" y="-8.5" font-family="Helvetica,sans-Serif" font-size="10.00">+ run()</text>
</g>
<!-- Node2 -->
<g id="node2" class="node"><title>Node2</title>
<a xlink:href="classBaseObject.html" target="_top" xlink:title="{BaseObject\n||}">
<polygon fill="white" stroke="black" points="44,-204.5 44,-267.5 112,-267.5 112,-204.5 44,-204.5"/>
<text text-anchor="middle" x="78" y="-254.5" font-family="Helvetica,sans-Serif" font-size="10.00">BaseObject</text>
<polyline fill="none" stroke="black" points="44,-246.5 112,-246.5 "/>
<text text-anchor="middle" x="78" y="-233.5" font-family="Helvetica,sans-Serif" font-size="10.00"> </text>
<polyline fill="none" stroke="black" points="44,-225.5 112,-225.5 "/>
<text text-anchor="middle" x="78" y="-212.5" font-family="Helvetica,sans-Serif" font-size="10.00"> </text>
</a>
</g>
<!-- Node2&#45;&gt;Node1 -->
<g id="edge2" class="edge"><title>Node2&#45;&gt;Node1</title>
<path fill="none" stroke="midnightblue" d="M78,-194.081C78,-185.826 78,-176.894 78,-167.812"/>
<polygon fill="none" stroke="midnightblue" points="74.5001,-194.136 78,-204.136 81.5001,-194.136 74.5001,-194.136"/>
</g>
</g>
</svg>
