<?xml version="1.0" encoding="UTF-8" standalone="no"?>
<!DOCTYPE svg PUBLIC "-//W3C//DTD SVG 1.1//EN"
 "http://www.w3.org/Graphics/SVG/1.1/DTD/svg11.dtd">
<!-- Generated by graphviz version 2.26.3 (20100126.1600)
 -->
<!-- Title: G Pages: 1 -->
<svg width="324pt" height="276pt"
 viewBox="0.00 0.00 324.00 276.00" xmlns="http://www.w3.org/2000/svg" xmlns:xlink="http://www.w3.org/1999/xlink">
<g id="graph1" class="graph" transform="scale(1 1) rotate(0) translate(4 272)">
<title>G</title>
<polygon fill="white" stroke="white" points="-4,5 -4,-272 321,-272 321,5 -4,5"/>
<!-- Node1 -->
<g id="node1" class="node"><title>Node1</title>
<polygon fill="#bfbfbf" stroke="black" points="127,-204.5 127,-267.5 195,-267.5 195,-204.5 127,-204.5"/>
<text text-anchor="middle" x="161" y="-254.5" font-family="Helvetica,sans-Serif" font-size="10.00">BaseObject</text>
<polyline fill="none" stroke="black" points="127,-246.5 195,-246.5 "/>
<text text-anchor="middle" x="161" y="-233.5" font-family="Helvetica,sans-Serif" font-size="10.00"> </text>
<polyline fill="none" stroke="black" points="127,-225.5 195,-225.5 "/>
<text text-anchor="middle" x="161" y="-212.5" font-family="Helvetica,sans-Serif" font-size="10.00"> </text>
</g>
<!-- Node2 -->
<g id="node3" class="node"><title>Node2</title>
<a xlink:href="classKapsackSearch_1_1SearchManager.html" target="_top" xlink:title="{KapsackSearch.SearchManager\n|+ objectVolumes\l+ objectCosts\l+ maxVolume\l+ nExpansions\l+ openNodes\l+ closedNodes\l+ bestFound\l|+ __init__()\l+ expand()\l+ run()\l}">
<polygon fill="white" stroke="black" points="-0.5,-0.5 -0.5,-167.5 156.5,-167.5 156.5,-0.5 -0.5,-0.5"/>
<text text-anchor="middle" x="78" y="-154.5" font-family="Helvetica,sans-Serif" font-size="10.00">KapsackSearch.SearchManager</text>
<polyline fill="none" stroke="black" points="-0.5,-146.5 156.5,-146.5 "/>
<text text-anchor="start" x="7.5" y="-133.5" font-family="Helvetica,sans-Serif" font-size="10.00">+ objectVolumes</text>
<text text-anchor="start" x="7.5" y="-120.5" font-family="Helvetica,sans-Serif" font-size="10.00">+ objectCosts</text>
<text text-anchor="start" x="7.5" y="-107.5" font-family="Helvetica,sans-Serif" font-size="10.00">+ maxVolume</text>
<text text-anchor="start" x="7.5" y="-94.5" font-family="Helvetica,sans-Serif" font-size="10.00">+ nExpansions</text>
<text text-anchor="start" x="7.5" y="-81.5" font-family="Helvetica,sans-Serif" font-size="10.00">+ openNodes</text>
<text text-anchor="start" x="7.5" y="-68.5" font-family="Helvetica,sans-Serif" font-size="10.00">+ closedNodes</text>
<text text-anchor="start" x="7.5" y="-55.5" font-family="Helvetica,sans-Serif" font-size="10.00">+ bestFound</text>
<polyline fill="none" stroke="black" points="-0.5,-47.5 156.5,-47.5 "/>
<text text-anchor="start" x="7.5" y="-34.5" font-family="Helvetica,sans-Serif" font-size="10.00">+ __init__()</text>
<text text-anchor="start" x="7.5" y="-21.5" font-family="Helvetica,sans-Serif" font-size="10.00">+ expand()</text>
<text text-anchor="start" x="7.5" y="-8.5" font-family="Helvetica,sans-Serif" font-size="10.00">+ run()</text>
</a>
</g>
<!-- Node1&#45;&gt;Node2 -->
<g id="edge2" class="edge"><title>Node1&#45;&gt;Node2</title>
<path fill="none" stroke="midnightblue" d="M138.709,-195.177C134.036,-186.619 128.945,-177.298 123.766,-167.812"/>
<polygon fill="none" stroke="midnightblue" points="135.736,-197.036 143.6,-204.136 141.88,-193.682 135.736,-197.036"/>
</g>
<!-- Node3 -->
<g id="node5" class="node"><title>Node3</title>
<a xlink:href="classKapsackSearch_1_1SearchNode.html" target="_top" xlink:title="{KapsackSearch.SearchNode\n|+ solution\l+ cost\l+ volume\l|+ __init__()\l+ neighbors()\l+ exceedsVolume()\l+ solutionCost()\l+ solutionVolume()\l+ __eq__()\l}">
<polygon fill="white" stroke="black" points="173.5,-7 173.5,-161 316.5,-161 316.5,-7 173.5,-7"/>
<text text-anchor="middle" x="245" y="-148" font-family="Helvetica,sans-Serif" font-size="10.00">KapsackSearch.SearchNode</text>
<polyline fill="none" stroke="black" points="173.5,-140 316.5,-140 "/>
<text text-anchor="start" x="181.5" y="-127" font-family="Helvetica,sans-Serif" font-size="10.00">+ solution</text>
<text text-anchor="start" x="181.5" y="-114" font-family="Helvetica,sans-Serif" font-size="10.00">+ cost</text>
<text text-anchor="start" x="181.5" y="-101" font-family="Helvetica,sans-Serif" font-size="10.00">+ volume</text>
<polyline fill="none" stroke="black" points="173.5,-93 316.5,-93 "/>
<text text-anchor="start" x="181.5" y="-80" font-family="Helvetica,sans-Serif" font-size="10.00">+ __init__()</text>
<text text-anchor="start" x="181.5" y="-67" font-family="Helvetica,sans-Serif" font-size="10.00">+ neighbors()</text>
<text text-anchor="start" x="181.5" y="-54" font-family="Helvetica,sans-Serif" font-size="10.00">+ exceedsVolume()</text>
<text text-anchor="start" x="181.5" y="-41" font-family="Helvetica,sans-Serif" font-size="10.00">+ solutionCost()</text>
<text text-anchor="start" x="181.5" y="-28" font-family="Helvetica,sans-Serif" font-size="10.00">+ solutionVolume()</text>
<text text-anchor="start" x="181.5" y="-15" font-family="Helvetica,sans-Serif" font-size="10.00">+ __eq__()</text>
</a>
</g>
<!-- Node1&#45;&gt;Node3 -->
<g id="edge4" class="edge"><title>Node1&#45;&gt;Node3</title>
<path fill="none" stroke="midnightblue" d="M183.546,-195.202C189.37,-184.664 195.834,-172.967 202.32,-161.231"/>
<polygon fill="none" stroke="midnightblue" points="180.383,-193.69 178.609,-204.136 186.509,-197.076 180.383,-193.69"/>
</g>
</g>
</svg>
