<?xml version="1.0" encoding="UTF-8" standalone="no"?>
<!DOCTYPE svg PUBLIC "-//W3C//DTD SVG 1.1//EN"
 "http://www.w3.org/Graphics/SVG/1.1/DTD/svg11.dtd">
<!-- Generated by graphviz version 2.26.3 (20100126.1600)
 -->
<!-- Title: G Pages: 1 -->
<!--zoomable 1050 -->
<svg id="main" version="1.1" xmlns="http://www.w3.org/2000/svg" xmlns:xlink="http://www.w3.org/1999/xlink" xml:space="preserve" onload="init(evt)">
        <defs>
                <circle id="rim" cx="0" cy="0" r="7"/>
                <circle id="rim2" cx="0" cy="0" r="3.5"/>
                <g id="zoomPlus">
                        <use xlink:href="#rim" fill="#404040">
                                <set attributeName="fill" to="#808080" begin="zoomplus.mouseover" end="zoomplus.mouseout"/>
                        </use>
                        <path d="M-4,0h8M0,-4v8" fill="none" stroke="white" stroke-width="1.5" pointer-events="none"/>
                </g>
                <g id="zoomMin">
                        <use xlink:href="#rim" fill="#404040">
                                <set attributeName="fill" to="#808080" begin="zoomminus.mouseover" end="zoomminus.mouseout"/>
                        </use>
                        <path d="M-4,0h8" fill="none" stroke="white" stroke-width="1.5" pointer-events="none"/>
                </g>
                <g id="dirArrow">
                        <path fill="none" stroke="white" stroke-width="1.5" d="M0,-3.0v7 M-2.5,-0.5L0,-3.0L2.5,-0.5"/>
                </g>
               <g id="resetDef">
                       <use xlink:href="#rim2" fill="#404040">
                               <set attributeName="fill" to="#808080" begin="reset.mouseover" end="reset.mouseout"/>
                       </use>
               </g>
        </defs>

<script type="text/javascript">
var viewWidth = 1536;
var viewHeight = 1050;
var sectionId = 'dynsection-0';
</script>
<script xlink:href="svgpan.js"/>
<svg id="graph" class="graph">
<g id="viewport">
<title>G</title>
<polygon fill="white" stroke="white" points="-4,5 -4,-1046 1533,-1046 1533,5 -4,5"/>
<!-- Node1 -->
<g id="node1" class="node"><title>Node1</title>
<polygon fill="#bfbfbf" stroke="black" points="650,-726.5 650,-815.5 840,-815.5 840,-726.5 650,-726.5"/>
<text text-anchor="middle" x="745" y="-802.5" font-family="Helvetica,sans-Serif" font-size="10.00">GeneticAlgorithm.Core.GeneticOperator</text>
<polyline fill="none" stroke="black" points="650,-794.5 840,-794.5 "/>
<text text-anchor="middle" x="745" y="-781.5" font-family="Helvetica,sans-Serif" font-size="10.00"> </text>
<polyline fill="none" stroke="black" points="650,-773.5 840,-773.5 "/>
<text text-anchor="start" x="658" y="-760.5" font-family="Helvetica,sans-Serif" font-size="10.00">+ initialize()</text>
<text text-anchor="start" x="658" y="-747.5" font-family="Helvetica,sans-Serif" font-size="10.00">+ iterate()</text>
<text text-anchor="start" x="658" y="-734.5" font-family="Helvetica,sans-Serif" font-size="10.00">+ finalize()</text>
</g>
<!-- Node4 -->
<g id="node7" class="node"><title>Node4</title>
<a xlink:href="classGeneticAlgorithm_1_1Core_1_1BasePeriodicOperator.html" target="_top" xlink:title="A class that serves as a base for all periodic operators.">
<polygon fill="white" stroke="black" points="138,-548.5 138,-689.5 352,-689.5 352,-548.5 138,-548.5"/>
<text text-anchor="middle" x="245" y="-676.5" font-family="Helvetica,sans-Serif" font-size="10.00">GeneticAlgorithm.Core.BasePeriodicOperator</text>
<polyline fill="none" stroke="black" points="138,-668.5 352,-668.5 "/>
<text text-anchor="start" x="146" y="-655.5" font-family="Helvetica,sans-Serif" font-size="10.00">+ iterationCounter</text>
<text text-anchor="start" x="146" y="-642.5" font-family="Helvetica,sans-Serif" font-size="10.00">+ evaluationCounter</text>
<text text-anchor="start" x="146" y="-629.5" font-family="Helvetica,sans-Serif" font-size="10.00">+ iterationFrequency</text>
<text text-anchor="start" x="146" y="-616.5" font-family="Helvetica,sans-Serif" font-size="10.00">+ evaluationFrequency</text>
<polyline fill="none" stroke="black" points="138,-608.5 352,-608.5 "/>
<text text-anchor="start" x="146" y="-595.5" font-family="Helvetica,sans-Serif" font-size="10.00">+ __init__()</text>
<text text-anchor="start" x="146" y="-582.5" font-family="Helvetica,sans-Serif" font-size="10.00">+ iterationCallback()</text>
<text text-anchor="start" x="146" y="-569.5" font-family="Helvetica,sans-Serif" font-size="10.00">+ evaluationCallback()</text>
<text text-anchor="start" x="146" y="-556.5" font-family="Helvetica,sans-Serif" font-size="10.00">+ iterate()</text>
</a>
</g>
<!-- Node1&#45;&gt;Node4 -->
<g id="edge6" class="edge"><title>Node1&#45;&gt;Node4</title>
<path fill="none" stroke="midnightblue" d="M639.726,-758.666C560.938,-747.102 451.614,-726.042 361,-690 358.038,-688.822 355.066,-687.571 352.093,-686.257"/>
<polygon fill="none" stroke="midnightblue" points="639.266,-762.136 649.663,-760.098 640.265,-755.207 639.266,-762.136"/>
</g>
<!-- Node9 -->
<g id="node17" class="node"><title>Node9</title>
<a xlink:href="classGeneticAlgorithm_1_1Core_1_1Crossover.html" target="_top" xlink:title="Crossover two individuals from population.matingPool with probability population.crossoverProbability...">
<polygon fill="white" stroke="black" points="370,-587.5 370,-650.5 534,-650.5 534,-587.5 370,-587.5"/>
<text text-anchor="middle" x="452" y="-637.5" font-family="Helvetica,sans-Serif" font-size="10.00">GeneticAlgorithm.Core.Crossover</text>
<polyline fill="none" stroke="black" points="370,-629.5 534,-629.5 "/>
<text text-anchor="start" x="378" y="-616.5" font-family="Helvetica,sans-Serif" font-size="10.00">+ iterate</text>
<polyline fill="none" stroke="black" points="370,-608.5 534,-608.5 "/>
<text text-anchor="start" x="378" y="-595.5" font-family="Helvetica,sans-Serif" font-size="10.00">+ cross()</text>
</a>
</g>
<!-- Node1&#45;&gt;Node9 -->
<g id="edge16" class="edge"><title>Node1&#45;&gt;Node9</title>
<path fill="none" stroke="midnightblue" d="M640.483,-735.544C608.324,-722.945 573.406,-707.489 543,-690 523.545,-678.81 503.696,-663.822 487.52,-650.5"/>
<polygon fill="none" stroke="midnightblue" points="639.329,-738.85 649.918,-739.19 641.852,-732.321 639.329,-738.85"/>
</g>
<!-- Node10 -->
<g id="node19" class="node"><title>Node10</title>
<a xlink:href="classGeneticAlgorithm_1_1Core_1_1Mutate.html" target="_top" xlink:title="Mutate an individual.">
<polygon fill="white" stroke="black" points="551.5,-587.5 551.5,-650.5 700.5,-650.5 700.5,-587.5 551.5,-587.5"/>
<text text-anchor="middle" x="626" y="-637.5" font-family="Helvetica,sans-Serif" font-size="10.00">GeneticAlgorithm.Core.Mutate</text>
<polyline fill="none" stroke="black" points="551.5,-629.5 700.5,-629.5 "/>
<text text-anchor="start" x="559.5" y="-616.5" font-family="Helvetica,sans-Serif" font-size="10.00">+ iterate</text>
<polyline fill="none" stroke="black" points="551.5,-608.5 700.5,-608.5 "/>
<text text-anchor="start" x="559.5" y="-595.5" font-family="Helvetica,sans-Serif" font-size="10.00">+ mutate()</text>
</a>
</g>
<!-- Node1&#45;&gt;Node10 -->
<g id="edge18" class="edge"><title>Node1&#45;&gt;Node10</title>
<path fill="none" stroke="midnightblue" d="M703.6,-718.12C686.075,-695.734 666.233,-670.39 651.001,-650.934"/>
<polygon fill="none" stroke="midnightblue" points="701.019,-720.501 709.94,-726.217 706.531,-716.186 701.019,-720.501"/>
</g>
<!-- Node11 -->
<g id="node21" class="node"><title>Node11</title>
<a xlink:href="classGeneticAlgorithm_1_1EvaluationOperators_1_1BaseEvaluationOperator.html" target="_top" xlink:title="This class provides an easy way of developing evaluation operators that only evaluate recently replac...">
<polygon fill="white" stroke="black" points="718,-568 718,-670 1010,-670 1010,-568 718,-568"/>
<text text-anchor="middle" x="864" y="-657" font-family="Helvetica,sans-Serif" font-size="10.00">GeneticAlgorithm.EvaluationOperators.BaseEvaluationOperator</text>
<polyline fill="none" stroke="black" points="718,-649 1010,-649 "/>
<text text-anchor="start" x="726" y="-636" font-family="Helvetica,sans-Serif" font-size="10.00">+ initialize</text>
<text text-anchor="start" x="726" y="-623" font-family="Helvetica,sans-Serif" font-size="10.00">+ iterate</text>
<text text-anchor="start" x="726" y="-610" font-family="Helvetica,sans-Serif" font-size="10.00">+ finalize</text>
<polyline fill="none" stroke="black" points="718,-602 1010,-602 "/>
<text text-anchor="start" x="726" y="-589" font-family="Helvetica,sans-Serif" font-size="10.00">+ evaluateIndividual()</text>
<text text-anchor="start" x="726" y="-576" font-family="Helvetica,sans-Serif" font-size="10.00">+ evaluate()</text>
</a>
</g>
<!-- Node1&#45;&gt;Node11 -->
<g id="edge20" class="edge"><title>Node1&#45;&gt;Node11</title>
<path fill="none" stroke="midnightblue" d="M786.324,-718.216C798.523,-702.634 811.85,-685.612 823.966,-670.136"/>
<polygon fill="none" stroke="midnightblue" points="783.469,-716.186 780.06,-726.217 788.981,-720.501 783.469,-716.186"/>
</g>
<!-- Node15 -->
<g id="node29" class="node"><title>Node15</title>
<a xlink:href="classGeneticAlgorithm_1_1SelectionOperators_1_1SelectLethals.html" target="_top" xlink:title="Select the individuals to replace based on the population.maximize flag and the population.genSize property.">
<polygon fill="white" stroke="black" points="1028,-587.5 1028,-650.5 1268,-650.5 1268,-587.5 1028,-587.5"/>
<text text-anchor="middle" x="1148" y="-637.5" font-family="Helvetica,sans-Serif" font-size="10.00">GeneticAlgorithm.SelectionOperators.SelectLethals</text>
<polyline fill="none" stroke="black" points="1028,-629.5 1268,-629.5 "/>
<text text-anchor="start" x="1036" y="-616.5" font-family="Helvetica,sans-Serif" font-size="10.00">+ iterate</text>
<polyline fill="none" stroke="black" points="1028,-608.5 1268,-608.5 "/>
<text text-anchor="start" x="1036" y="-595.5" font-family="Helvetica,sans-Serif" font-size="10.00">+ select()</text>
</a>
</g>
<!-- Node1&#45;&gt;Node15 -->
<g id="edge28" class="edge"><title>Node1&#45;&gt;Node15</title>
<path fill="none" stroke="midnightblue" d="M850.135,-745.627C901.904,-731.705 964.703,-712.655 1019,-690 1045.42,-678.975 1073.42,-664.007 1096.55,-650.656"/>
<polygon fill="none" stroke="midnightblue" points="849.031,-742.299 840.269,-748.254 850.833,-749.063 849.031,-742.299"/>
</g>
<!-- Node16 -->
<g id="node31" class="node"><title>Node16</title>
<a xlink:href="classGeneticAlgorithm_1_1SelectionOperators_1_1SUSSelection.html" target="_top" xlink:title="This operator performs stochastic uniform selection over the population, updating the field matingPoo...">
<polygon fill="white" stroke="black" points="1286,-587.5 1286,-650.5 1528,-650.5 1528,-587.5 1286,-587.5"/>
<text text-anchor="middle" x="1407" y="-637.5" font-family="Helvetica,sans-Serif" font-size="10.00">GeneticAlgorithm.SelectionOperators.SUSSelection</text>
<polyline fill="none" stroke="black" points="1286,-629.5 1528,-629.5 "/>
<text text-anchor="start" x="1294" y="-616.5" font-family="Helvetica,sans-Serif" font-size="10.00">+ iterate</text>
<polyline fill="none" stroke="black" points="1286,-608.5 1528,-608.5 "/>
<text text-anchor="start" x="1294" y="-595.5" font-family="Helvetica,sans-Serif" font-size="10.00">+ select()</text>
</a>
</g>
<!-- Node1&#45;&gt;Node16 -->
<g id="edge30" class="edge"><title>Node1&#45;&gt;Node16</title>
<path fill="none" stroke="midnightblue" d="M850.108,-765.79C959.292,-757.906 1133.86,-738.308 1277,-690 1305.51,-680.379 1335.11,-664.722 1358.86,-650.555"/>
<polygon fill="none" stroke="midnightblue" points="849.807,-762.302 840.076,-766.494 850.297,-769.285 849.807,-762.302"/>
</g>
<!-- Node2 -->
<g id="node2" class="node"><title>Node2</title>
<a xlink:href="classGeneticAlgorithm_1_1Core_1_1GABaseObject.html" target="_top" xlink:title="The base object provides the functions repr and str.">
<polygon fill="white" stroke="black" points="653,-852.5 653,-941.5 837,-941.5 837,-852.5 653,-852.5"/>
<text text-anchor="middle" x="745" y="-928.5" font-family="Helvetica,sans-Serif" font-size="10.00">GeneticAlgorithm.Core.GABaseObject</text>
<polyline fill="none" stroke="black" points="653,-920.5 837,-920.5 "/>
<text text-anchor="middle" x="745" y="-907.5" font-family="Helvetica,sans-Serif" font-size="10.00"> </text>
<polyline fill="none" stroke="black" points="653,-899.5 837,-899.5 "/>
<text text-anchor="start" x="661" y="-886.5" font-family="Helvetica,sans-Serif" font-size="10.00">+ __init__()</text>
<text text-anchor="start" x="661" y="-873.5" font-family="Helvetica,sans-Serif" font-size="10.00">+ __repr__()</text>
<text text-anchor="start" x="661" y="-860.5" font-family="Helvetica,sans-Serif" font-size="10.00">+ __str__()</text>
</a>
</g>
<!-- Node2&#45;&gt;Node1 -->
<g id="edge2" class="edge"><title>Node2&#45;&gt;Node1</title>
<path fill="none" stroke="midnightblue" d="M745,-842.013C745,-833.198 745,-824.169 745,-815.633"/>
<polygon fill="none" stroke="midnightblue" points="741.5,-842.222 745,-852.222 748.5,-842.222 741.5,-842.222"/>
</g>
<!-- Node3 -->
<g id="node4" class="node"><title>Node3</title>
<a xlink:href="classobject.html" target="_top" xlink:title="{object\n||}">
<polygon fill="white" stroke="black" points="723.5,-978.5 723.5,-1041.5 766.5,-1041.5 766.5,-978.5 723.5,-978.5"/>
<text text-anchor="middle" x="745" y="-1028.5" font-family="Helvetica,sans-Serif" font-size="10.00">object</text>
<polyline fill="none" stroke="black" points="723.5,-1020.5 766.5,-1020.5 "/>
<text text-anchor="middle" x="745" y="-1007.5" font-family="Helvetica,sans-Serif" font-size="10.00"> </text>
<polyline fill="none" stroke="black" points="723.5,-999.5 766.5,-999.5 "/>
<text text-anchor="middle" x="745" y="-986.5" font-family="Helvetica,sans-Serif" font-size="10.00"> </text>
</a>
</g>
<!-- Node3&#45;&gt;Node2 -->
<g id="edge4" class="edge"><title>Node3&#45;&gt;Node2</title>
<path fill="none" stroke="midnightblue" d="M745,-968.015C745,-959.403 745,-950.307 745,-941.606"/>
<polygon fill="none" stroke="midnightblue" points="741.5,-968.222 745,-978.222 748.5,-968.223 741.5,-968.222"/>
</g>
<!-- Node5 -->
<g id="node9" class="node"><title>Node5</title>
<a xlink:href="classGeneticAlgorithm_1_1LoggingOperators_1_1BestLogger.html" target="_top" xlink:title="This class stores the best individual of the population, if it is better than the last individual fou...">
<polygon fill="white" stroke="black" points="8,-318.5 8,-511.5 232,-511.5 232,-318.5 8,-318.5"/>
<text text-anchor="middle" x="120" y="-498.5" font-family="Helvetica,sans-Serif" font-size="10.00">GeneticAlgorithm.LoggingOperators.BestLogger</text>
<polyline fill="none" stroke="black" points="8,-490.5 232,-490.5 "/>
<text text-anchor="start" x="16" y="-477.5" font-family="Helvetica,sans-Serif" font-size="10.00">+ bestLog</text>
<text text-anchor="start" x="16" y="-464.5" font-family="Helvetica,sans-Serif" font-size="10.00">+ numEvaluations</text>
<text text-anchor="start" x="16" y="-451.5" font-family="Helvetica,sans-Serif" font-size="10.00">+ criterion</text>
<text text-anchor="start" x="16" y="-438.5" font-family="Helvetica,sans-Serif" font-size="10.00">+ maximize</text>
<text text-anchor="start" x="16" y="-425.5" font-family="Helvetica,sans-Serif" font-size="10.00">+ iterationFrequency</text>
<text text-anchor="start" x="16" y="-412.5" font-family="Helvetica,sans-Serif" font-size="10.00">+ iterationCallback</text>
<text text-anchor="start" x="16" y="-399.5" font-family="Helvetica,sans-Serif" font-size="10.00">+ evaluationCallback</text>
<polyline fill="none" stroke="black" points="8,-391.5 232,-391.5 "/>
<text text-anchor="start" x="16" y="-378.5" font-family="Helvetica,sans-Serif" font-size="10.00">+ __init__()</text>
<text text-anchor="start" x="16" y="-365.5" font-family="Helvetica,sans-Serif" font-size="10.00">+ logCallback()</text>
<text text-anchor="start" x="16" y="-352.5" font-family="Helvetica,sans-Serif" font-size="10.00">+ addToLog()</text>
<text text-anchor="start" x="16" y="-339.5" font-family="Helvetica,sans-Serif" font-size="10.00">+ getBest()</text>
<text text-anchor="start" x="16" y="-326.5" font-family="Helvetica,sans-Serif" font-size="10.00">+ finalize()</text>
</a>
</g>
<!-- Node4&#45;&gt;Node5 -->
<g id="edge8" class="edge"><title>Node4&#45;&gt;Node5</title>
<path fill="none" stroke="midnightblue" d="M196.294,-539.512C190.67,-530.334 184.889,-520.899 179.146,-511.527"/>
<polygon fill="none" stroke="midnightblue" points="193.423,-541.525 201.632,-548.223 199.392,-537.868 193.423,-541.525"/>
</g>
<!-- Node8 -->
<g id="node15" class="node"><title>Node8</title>
<a xlink:href="classGeneticAlgorithm_1_1LoggingOperators_1_1LogGenerations.html" target="_top" xlink:title="Log the full population of a GA.">
<polygon fill="white" stroke="black" points="250,-351 250,-479 492,-479 492,-351 250,-351"/>
<text text-anchor="middle" x="371" y="-466" font-family="Helvetica,sans-Serif" font-size="10.00">GeneticAlgorithm.LoggingOperators.LogGenerations</text>
<polyline fill="none" stroke="black" points="250,-458 492,-458 "/>
<text text-anchor="start" x="258" y="-445" font-family="Helvetica,sans-Serif" font-size="10.00">+ generationLog</text>
<text text-anchor="start" x="258" y="-432" font-family="Helvetica,sans-Serif" font-size="10.00">+ numEvaluations</text>
<text text-anchor="start" x="258" y="-419" font-family="Helvetica,sans-Serif" font-size="10.00">+ iterationCallback</text>
<text text-anchor="start" x="258" y="-406" font-family="Helvetica,sans-Serif" font-size="10.00">+ evaluationCallback</text>
<polyline fill="none" stroke="black" points="250,-398 492,-398 "/>
<text text-anchor="start" x="258" y="-385" font-family="Helvetica,sans-Serif" font-size="10.00">+ __init__()</text>
<text text-anchor="start" x="258" y="-372" font-family="Helvetica,sans-Serif" font-size="10.00">+ logPopulation()</text>
<text text-anchor="start" x="258" y="-359" font-family="Helvetica,sans-Serif" font-size="10.00">+ finalize()</text>
</a>
</g>
<!-- Node4&#45;&gt;Node8 -->
<g id="edge14" class="edge"><title>Node4&#45;&gt;Node8</title>
<path fill="none" stroke="midnightblue" d="M293.971,-539.713C306.359,-519.658 319.508,-498.368 331.37,-479.163"/>
<polygon fill="none" stroke="midnightblue" points="290.992,-537.876 288.715,-548.223 296.948,-541.554 290.992,-537.876"/>
</g>
<!-- Node6 -->
<g id="node11" class="node"><title>Node6</title>
<a xlink:href="classGeneticAlgorithm_1_1PlottingOperators_1_1PlotBestLogger.html" target="_top" xlink:title="A BestLogger specialization that plots the historic progression of the best criterion with each tick...">
<polygon fill="white" stroke="black" points="0,-153 0,-281 240,-281 240,-153 0,-153"/>
<text text-anchor="middle" x="120" y="-268" font-family="Helvetica,sans-Serif" font-size="10.00">GeneticAlgorithm.PlottingOperators.PlotBestLogger</text>
<polyline fill="none" stroke="black" points="0,-260 240,-260 "/>
<text text-anchor="start" x="8" y="-247" font-family="Helvetica,sans-Serif" font-size="10.00">+ criterionAxis</text>
<text text-anchor="start" x="8" y="-234" font-family="Helvetica,sans-Serif" font-size="10.00">+ figure</text>
<text text-anchor="start" x="8" y="-221" font-family="Helvetica,sans-Serif" font-size="10.00">+ iterationCallback</text>
<text text-anchor="start" x="8" y="-208" font-family="Helvetica,sans-Serif" font-size="10.00">+ evaluationCallback</text>
<polyline fill="none" stroke="black" points="0,-200 240,-200 "/>
<text text-anchor="start" x="8" y="-187" font-family="Helvetica,sans-Serif" font-size="10.00">+ __init__()</text>
<text text-anchor="start" x="8" y="-174" font-family="Helvetica,sans-Serif" font-size="10.00">+ plotCallback()</text>
<text text-anchor="start" x="8" y="-161" font-family="Helvetica,sans-Serif" font-size="10.00">+ finalize()</text>
</a>
</g>
<!-- Node5&#45;&gt;Node6 -->
<g id="edge10" class="edge"><title>Node5&#45;&gt;Node6</title>
<path fill="none" stroke="midnightblue" d="M120,-308.234C120,-298.957 120,-289.772 120,-281.007"/>
<polygon fill="none" stroke="midnightblue" points="116.5,-308.32 120,-318.32 123.5,-308.32 116.5,-308.32"/>
</g>
<!-- Node7 -->
<g id="node13" class="node"><title>Node7</title>
<a xlink:href="classGeneticAlgorithm_1_1GraphLibrary_1_1BestPathPlotLogger.html" target="_top" xlink:title="This class extends the PlottingOperators::PlotBestLogger to display the best tour found so far...">
<polygon fill="white" stroke="black" points="0,-0.5 0,-115.5 240,-115.5 240,-0.5 0,-0.5"/>
<text text-anchor="middle" x="120" y="-102.5" font-family="Helvetica,sans-Serif" font-size="10.00">GeneticAlgorithm.GraphLibrary.BestPathPlotLogger</text>
<polyline fill="none" stroke="black" points="0,-94.5 240,-94.5 "/>
<text text-anchor="start" x="8" y="-81.5" font-family="Helvetica,sans-Serif" font-size="10.00">+ graph</text>
<text text-anchor="start" x="8" y="-68.5" font-family="Helvetica,sans-Serif" font-size="10.00">+ graphAxis</text>
<text text-anchor="start" x="8" y="-55.5" font-family="Helvetica,sans-Serif" font-size="10.00">+ iterationCallback</text>
<text text-anchor="start" x="8" y="-42.5" font-family="Helvetica,sans-Serif" font-size="10.00">+ evaluationCallback</text>
<polyline fill="none" stroke="black" points="0,-34.5 240,-34.5 "/>
<text text-anchor="start" x="8" y="-21.5" font-family="Helvetica,sans-Serif" font-size="10.00">+ __init__()</text>
<text text-anchor="start" x="8" y="-8.5" font-family="Helvetica,sans-Serif" font-size="10.00">+ plotGraphCallback()</text>
</a>
</g>
<!-- Node6&#45;&gt;Node7 -->
<g id="edge12" class="edge"><title>Node6&#45;&gt;Node7</title>
<path fill="none" stroke="midnightblue" d="M120,-142.588C120,-133.498 120,-124.32 120,-115.53"/>
<polygon fill="none" stroke="midnightblue" points="116.5,-142.787 120,-152.787 123.5,-142.787 116.5,-142.787"/>
</g>
<!-- Node12 -->
<g id="node23" class="node"><title>Node12</title>
<a xlink:href="classGADemo_1_1NumOnes.html" target="_top" xlink:title="An evaluation operator that computes the number of ones in a segment whose data can be converted to b...">
<polygon fill="white" stroke="black" points="641,-377 641,-453 751,-453 751,-377 641,-377"/>
<text text-anchor="middle" x="696" y="-440" font-family="Helvetica,sans-Serif" font-size="10.00">GADemo.NumOnes</text>
<polyline fill="none" stroke="black" points="641,-432 751,-432 "/>
<text text-anchor="middle" x="696" y="-419" font-family="Helvetica,sans-Serif" font-size="10.00"> </text>
<polyline fill="none" stroke="black" points="641,-411 751,-411 "/>
<text text-anchor="start" x="649" y="-398" font-family="Helvetica,sans-Serif" font-size="10.00">+ segmentOnes()</text>
<text text-anchor="start" x="649" y="-385" font-family="Helvetica,sans-Serif" font-size="10.00">+ evaluateIndividual()</text>
</a>
</g>
<!-- Node11&#45;&gt;Node12 -->
<g id="edge22" class="edge"><title>Node11&#45;&gt;Node12</title>
<path fill="none" stroke="midnightblue" d="M803.194,-560.401C788.468,-545.157 773.183,-528.395 760,-512 745.208,-493.604 730.569,-471.762 719.033,-453.466"/>
<polygon fill="none" stroke="midnightblue" points="800.879,-563.041 810.367,-567.755 805.89,-558.153 800.879,-563.041"/>
</g>
<!-- Node13 -->
<g id="node25" class="node"><title>Node13</title>
<a xlink:href="classGeneticAlgorithm_1_1GraphLibrary_1_1Ordonez.html" target="_top" xlink:title="A GeneticAlgorithm::Core::GeneticOperator derivate that decodes a binary genotype as a permutation of...">
<polygon fill="white" stroke="black" points="769,-383.5 769,-446.5 959,-446.5 959,-383.5 769,-383.5"/>
<text text-anchor="middle" x="864" y="-433.5" font-family="Helvetica,sans-Serif" font-size="10.00">GeneticAlgorithm.GraphLibrary.Ordonez</text>
<polyline fill="none" stroke="black" points="769,-425.5 959,-425.5 "/>
<text text-anchor="middle" x="864" y="-412.5" font-family="Helvetica,sans-Serif" font-size="10.00"> </text>
<polyline fill="none" stroke="black" points="769,-404.5 959,-404.5 "/>
<text text-anchor="start" x="777" y="-391.5" font-family="Helvetica,sans-Serif" font-size="10.00">+ evaluateIndividual()</text>
</a>
</g>
<!-- Node11&#45;&gt;Node13 -->
<g id="edge24" class="edge"><title>Node11&#45;&gt;Node13</title>
<path fill="none" stroke="midnightblue" d="M864,-557.695C864,-521.064 864,-476.056 864,-446.503"/>
<polygon fill="none" stroke="midnightblue" points="860.5,-557.785 864,-567.786 867.5,-557.786 860.5,-557.785"/>
</g>
<!-- Node14 -->
<g id="node27" class="node"><title>Node14</title>
<a xlink:href="classGeneticAlgorithm_1_1GraphLibrary_1_1PathLengthFitness.html" target="_top" xlink:title="A GeneticAlgorithm::Core::GeneticOperator derivate that uses.">
<polygon fill="white" stroke="black" points="976.5,-377 976.5,-453 1211.5,-453 1211.5,-377 976.5,-377"/>
<text text-anchor="middle" x="1094" y="-440" font-family="Helvetica,sans-Serif" font-size="10.00">GeneticAlgorithm.GraphLibrary.PathLengthFitness</text>
<polyline fill="none" stroke="black" points="976.5,-432 1211.5,-432 "/>
<text text-anchor="start" x="984.5" y="-419" font-family="Helvetica,sans-Serif" font-size="10.00">+ graph</text>
<polyline fill="none" stroke="black" points="976.5,-411 1211.5,-411 "/>
<text text-anchor="start" x="984.5" y="-398" font-family="Helvetica,sans-Serif" font-size="10.00">+ __init__()</text>
<text text-anchor="start" x="984.5" y="-385" font-family="Helvetica,sans-Serif" font-size="10.00">+ evaluateIndividual()</text>
</a>
</g>
<!-- Node11&#45;&gt;Node14 -->
<g id="edge26" class="edge"><title>Node11&#45;&gt;Node14</title>
<path fill="none" stroke="midnightblue" d="M929.417,-560.978C968.454,-526.354 1016.92,-483.368 1051.12,-453.035"/>
<polygon fill="none" stroke="midnightblue" points="926.901,-558.531 921.742,-567.786 931.546,-563.768 926.901,-558.531"/>
</g>
</g>
</svg>
        <g id="navigator" transform="translate(0 0)" fill="#404254">
                <rect fill="#f2f5e9" fill-opacity="0.5" stroke="#606060" stroke-width=".5" x="0" y="0" width="60" height="60"/>
                <use id="zoomplus" xlink:href="#zoomPlus" x="17" y="9" onmousedown="handleZoom(evt,'in')"/>
                <use id="zoomminus" xlink:href="#zoomMin" x="42" y="9" onmousedown="handleZoom(evt,'out')"/>
                <use id="reset" xlink:href="#resetDef" x="30" y="36" onmousedown="handleReset()"/>
                <g id="arrowUp" xlink:href="#dirArrow" transform="translate(30 24)" onmousedown="handlePan(0,-1)">
                  <use xlink:href="#rim" fill="#404040">
                        <set attributeName="fill" to="#808080" begin="arrowUp.mouseover" end="arrowUp.mouseout"/>
                  </use>
                  <path fill="none" stroke="white" stroke-width="1.5" d="M0,-3.0v7 M-2.5,-0.5L0,-3.0L2.5,-0.5"/>
                </g>
                <g id="arrowRight" xlink:href="#dirArrow" transform="rotate(90) translate(36 -43)" onmousedown="handlePan(1,0)">
                  <use xlink:href="#rim" fill="#404040">
                        <set attributeName="fill" to="#808080" begin="arrowRight.mouseover" end="arrowRight.mouseout"/>
                  </use>
                  <path fill="none" stroke="white" stroke-width="1.5" d="M0,-3.0v7 M-2.5,-0.5L0,-3.0L2.5,-0.5"/>
                </g>
                <g id="arrowDown" xlink:href="#dirArrow" transform="rotate(180) translate(-30 -48)" onmousedown="handlePan(0,1)">
                  <use xlink:href="#rim" fill="#404040">
                        <set attributeName="fill" to="#808080" begin="arrowDown.mouseover" end="arrowDown.mouseout"/>
                  </use>
                  <path fill="none" stroke="white" stroke-width="1.5" d="M0,-3.0v7 M-2.5,-0.5L0,-3.0L2.5,-0.5"/>
                </g>
                <g id="arrowLeft" xlink:href="#dirArrow" transform="rotate(270) translate(-36 17)" onmousedown="handlePan(-1,0)">
                  <use xlink:href="#rim" fill="#404040">
                        <set attributeName="fill" to="#808080" begin="arrowLeft.mouseover" end="arrowLeft.mouseout"/>
                  </use>
                  <path fill="none" stroke="white" stroke-width="1.5" d="M0,-3.0v7 M-2.5,-0.5L0,-3.0L2.5,-0.5"/>
                </g>
        </g>
</svg>
