<?xml version="1.0" encoding="UTF-8" standalone="no"?>
<!DOCTYPE svg PUBLIC "-//W3C//DTD SVG 1.1//EN"
 "http://www.w3.org/Graphics/SVG/1.1/DTD/svg11.dtd">
<!-- Generated by graphviz version 2.26.3 (20100126.1600)
 -->
<!-- Title: G Pages: 1 -->
<!--zoomable 872 -->
<svg id="main" version="1.1" xmlns="http://www.w3.org/2000/svg" xmlns:xlink="http://www.w3.org/1999/xlink" xml:space="preserve" onload="init(evt)">
        <defs>
                <circle id="rim" cx="0" cy="0" r="7"/>
                <circle id="rim2" cx="0" cy="0" r="3.5"/>
                <g id="zoomPlus">
                        <use xlink:href="#rim" fill="#404040">
                                <set attributeName="fill" to="#808080" begin="zoomplus.mouseover" end="zoomplus.mouseout"/>
                        </use>
                        <path d="M-4,0h8M0,-4v8" fill="none" stroke="white" stroke-width="1.5" pointer-events="none"/>
                </g>
                <g id="zoomMin">
                        <use xlink:href="#rim" fill="#404040">
                                <set attributeName="fill" to="#808080" begin="zoomminus.mouseover" end="zoomminus.mouseout"/>
                        </use>
                        <path d="M-4,0h8" fill="none" stroke="white" stroke-width="1.5" pointer-events="none"/>
                </g>
                <g id="dirArrow">
                        <path fill="none" stroke="white" stroke-width="1.5" d="M0,-3.0v7 M-2.5,-0.5L0,-3.0L2.5,-0.5"/>
                </g>
               <g id="resetDef">
                       <use xlink:href="#rim2" fill="#404040">
                               <set attributeName="fill" to="#808080" begin="reset.mouseover" end="reset.mouseout"/>
                       </use>
               </g>
        </defs>

<script type="text/javascript">
var viewWidth = 1744;
var viewHeight = 872;
var sectionId = 'dynsection-0';
</script>
<script xlink:href="svgpan.js"/>
<svg id="graph" class="graph">
<g id="viewport">
<title>G</title>
<polygon fill="white" stroke="white" points="-4,5 -4,-868 1741,-868 1741,5 -4,5"/>
<!-- Node1 -->
<g id="node1" class="node"><title>Node1</title>
<polygon fill="#bfbfbf" stroke="black" points="769,-548.5 769,-637.5 959,-637.5 959,-548.5 769,-548.5"/>
<text text-anchor="middle" x="864" y="-624.5" font-family="Helvetica,sans-Serif" font-size="10.00">GeneticAlgorithm.Core.GeneticOperator</text>
<polyline fill="none" stroke="black" points="769,-616.5 959,-616.5 "/>
<text text-anchor="middle" x="864" y="-603.5" font-family="Helvetica,sans-Serif" font-size="10.00"> </text>
<polyline fill="none" stroke="black" points="769,-595.5 959,-595.5 "/>
<text text-anchor="start" x="777" y="-582.5" font-family="Helvetica,sans-Serif" font-size="10.00">+ initialize()</text>
<text text-anchor="start" x="777" y="-569.5" font-family="Helvetica,sans-Serif" font-size="10.00">+ iterate()</text>
<text text-anchor="start" x="777" y="-556.5" font-family="Helvetica,sans-Serif" font-size="10.00">+ finalize()</text>
</g>
<!-- Node4 -->
<g id="node7" class="node"><title>Node4</title>
<a xlink:href="classGeneticAlgorithm_1_1Core_1_1BasePeriodicOperator.html" target="_top" xlink:title="A class that serves as a base for all periodic operators.">
<polygon fill="white" stroke="black" points="138,-370.5 138,-511.5 352,-511.5 352,-370.5 138,-370.5"/>
<text text-anchor="middle" x="245" y="-498.5" font-family="Helvetica,sans-Serif" font-size="10.00">GeneticAlgorithm.Core.BasePeriodicOperator</text>
<polyline fill="none" stroke="black" points="138,-490.5 352,-490.5 "/>
<text text-anchor="start" x="146" y="-477.5" font-family="Helvetica,sans-Serif" font-size="10.00">+ iterationCounter</text>
<text text-anchor="start" x="146" y="-464.5" font-family="Helvetica,sans-Serif" font-size="10.00">+ evaluationCounter</text>
<text text-anchor="start" x="146" y="-451.5" font-family="Helvetica,sans-Serif" font-size="10.00">+ iterationFrequency</text>
<text text-anchor="start" x="146" y="-438.5" font-family="Helvetica,sans-Serif" font-size="10.00">+ evaluationFrequency</text>
<polyline fill="none" stroke="black" points="138,-430.5 352,-430.5 "/>
<text text-anchor="start" x="146" y="-417.5" font-family="Helvetica,sans-Serif" font-size="10.00">+ __init__()</text>
<text text-anchor="start" x="146" y="-404.5" font-family="Helvetica,sans-Serif" font-size="10.00">+ iterationCallback()</text>
<text text-anchor="start" x="146" y="-391.5" font-family="Helvetica,sans-Serif" font-size="10.00">+ evaluationCallback()</text>
<text text-anchor="start" x="146" y="-378.5" font-family="Helvetica,sans-Serif" font-size="10.00">+ iterate()</text>
</a>
</g>
<!-- Node1&#45;&gt;Node4 -->
<g id="edge6" class="edge"><title>Node1&#45;&gt;Node4</title>
<path fill="none" stroke="midnightblue" d="M758.803,-587.943C654.9,-580.226 492.859,-560.799 361,-512 358.011,-510.894 355.014,-509.707 352.019,-508.45"/>
<polygon fill="none" stroke="midnightblue" points="758.76,-591.449 768.986,-588.675 759.263,-584.467 758.76,-591.449"/>
</g>
<!-- Node8 -->
<g id="node15" class="node"><title>Node8</title>
<a xlink:href="classGeneticAlgorithm_1_1Core_1_1Crossover.html" target="_top" xlink:title="Crossover two individuals from population.matingPool with probability population.crossoverProbability...">
<polygon fill="white" stroke="black" points="370,-409.5 370,-472.5 534,-472.5 534,-409.5 370,-409.5"/>
<text text-anchor="middle" x="452" y="-459.5" font-family="Helvetica,sans-Serif" font-size="10.00">GeneticAlgorithm.Core.Crossover</text>
<polyline fill="none" stroke="black" points="370,-451.5 534,-451.5 "/>
<text text-anchor="start" x="378" y="-438.5" font-family="Helvetica,sans-Serif" font-size="10.00">+ iterate</text>
<polyline fill="none" stroke="black" points="370,-430.5 534,-430.5 "/>
<text text-anchor="start" x="378" y="-417.5" font-family="Helvetica,sans-Serif" font-size="10.00">+ cross()</text>
</a>
</g>
<!-- Node1&#45;&gt;Node8 -->
<g id="edge14" class="edge"><title>Node1&#45;&gt;Node8</title>
<path fill="none" stroke="midnightblue" d="M758.557,-577.778C693.995,-565.734 611.001,-545.258 543,-512 522.299,-501.876 501.833,-486.52 485.568,-472.676"/>
<polygon fill="none" stroke="midnightblue" points="758.289,-581.287 768.755,-579.639 759.546,-574.401 758.289,-581.287"/>
</g>
<!-- Node9 -->
<g id="node17" class="node"><title>Node9</title>
<a xlink:href="classGeneticAlgorithm_1_1Core_1_1Mutate.html" target="_top" xlink:title="Mutate an individual.">
<polygon fill="white" stroke="black" points="551.5,-409.5 551.5,-472.5 700.5,-472.5 700.5,-409.5 551.5,-409.5"/>
<text text-anchor="middle" x="626" y="-459.5" font-family="Helvetica,sans-Serif" font-size="10.00">GeneticAlgorithm.Core.Mutate</text>
<polyline fill="none" stroke="black" points="551.5,-451.5 700.5,-451.5 "/>
<text text-anchor="start" x="559.5" y="-438.5" font-family="Helvetica,sans-Serif" font-size="10.00">+ iterate</text>
<polyline fill="none" stroke="black" points="551.5,-430.5 700.5,-430.5 "/>
<text text-anchor="start" x="559.5" y="-417.5" font-family="Helvetica,sans-Serif" font-size="10.00">+ mutate()</text>
</a>
</g>
<!-- Node1&#45;&gt;Node9 -->
<g id="edge16" class="edge"><title>Node1&#45;&gt;Node9</title>
<path fill="none" stroke="midnightblue" d="M760.974,-543.349C743.232,-533.626 725.278,-523.008 709,-512 691.721,-500.315 673.967,-485.564 659.336,-472.538"/>
<polygon fill="none" stroke="midnightblue" points="759.761,-546.673 770.222,-548.35 763.09,-540.515 759.761,-546.673"/>
</g>
<!-- Node10 -->
<g id="node19" class="node"><title>Node10</title>
<a xlink:href="classGeneticAlgorithm_1_1EvaluationOperators_1_1BaseEvaluationOperator.html" target="_top" xlink:title="This class provides an easy way of developing evaluation operators that only evaluate recently replac...">
<polygon fill="white" stroke="black" points="718,-390 718,-492 1010,-492 1010,-390 718,-390"/>
<text text-anchor="middle" x="864" y="-479" font-family="Helvetica,sans-Serif" font-size="10.00">GeneticAlgorithm.EvaluationOperators.BaseEvaluationOperator</text>
<polyline fill="none" stroke="black" points="718,-471 1010,-471 "/>
<text text-anchor="start" x="726" y="-458" font-family="Helvetica,sans-Serif" font-size="10.00">+ initialize</text>
<text text-anchor="start" x="726" y="-445" font-family="Helvetica,sans-Serif" font-size="10.00">+ iterate</text>
<text text-anchor="start" x="726" y="-432" font-family="Helvetica,sans-Serif" font-size="10.00">+ finalize</text>
<polyline fill="none" stroke="black" points="718,-424 1010,-424 "/>
<text text-anchor="start" x="726" y="-411" font-family="Helvetica,sans-Serif" font-size="10.00">+ evaluateIndividual()</text>
<text text-anchor="start" x="726" y="-398" font-family="Helvetica,sans-Serif" font-size="10.00">+ evaluate()</text>
</a>
</g>
<!-- Node1&#45;&gt;Node10 -->
<g id="edge18" class="edge"><title>Node1&#45;&gt;Node10</title>
<path fill="none" stroke="midnightblue" d="M864,-538.063C864,-523.076 864,-506.902 864,-492.136"/>
<polygon fill="none" stroke="midnightblue" points="860.5,-538.217 864,-548.217 867.5,-538.217 860.5,-538.217"/>
</g>
<!-- Node12 -->
<g id="node23" class="node"><title>Node12</title>
<a xlink:href="classGeneticAlgorithm_1_1GraphLibrary_1_1Ordonez.html" target="_top" xlink:title="{GeneticAlgorithm.GraphLibrary.Ordonez\n|+ initialize\l+ iterate\l+ finalize\l|+ decode()\l}">
<polygon fill="white" stroke="black" points="1028,-396.5 1028,-485.5 1218,-485.5 1218,-396.5 1028,-396.5"/>
<text text-anchor="middle" x="1123" y="-472.5" font-family="Helvetica,sans-Serif" font-size="10.00">GeneticAlgorithm.GraphLibrary.Ordonez</text>
<polyline fill="none" stroke="black" points="1028,-464.5 1218,-464.5 "/>
<text text-anchor="start" x="1036" y="-451.5" font-family="Helvetica,sans-Serif" font-size="10.00">+ initialize</text>
<text text-anchor="start" x="1036" y="-438.5" font-family="Helvetica,sans-Serif" font-size="10.00">+ iterate</text>
<text text-anchor="start" x="1036" y="-425.5" font-family="Helvetica,sans-Serif" font-size="10.00">+ finalize</text>
<polyline fill="none" stroke="black" points="1028,-417.5 1218,-417.5 "/>
<text text-anchor="start" x="1036" y="-404.5" font-family="Helvetica,sans-Serif" font-size="10.00">+ decode()</text>
</a>
</g>
<!-- Node1&#45;&gt;Node12 -->
<g id="edge22" class="edge"><title>Node1&#45;&gt;Node12</title>
<path fill="none" stroke="midnightblue" d="M962.834,-543.569C981.701,-533.512 1001.13,-522.719 1019,-512 1032.59,-503.847 1046.83,-494.618 1060.25,-485.575"/>
<polygon fill="none" stroke="midnightblue" points="961.12,-540.516 953.921,-548.289 964.396,-546.702 961.12,-540.516"/>
</g>
<!-- Node13 -->
<g id="node25" class="node"><title>Node13</title>
<a xlink:href="classGeneticAlgorithm_1_1SelectionOperators_1_1SelectLethals.html" target="_top" xlink:title="Select the individuals to replace based on the population.maximize flag and the population.genSize property.">
<polygon fill="white" stroke="black" points="1236,-409.5 1236,-472.5 1476,-472.5 1476,-409.5 1236,-409.5"/>
<text text-anchor="middle" x="1356" y="-459.5" font-family="Helvetica,sans-Serif" font-size="10.00">GeneticAlgorithm.SelectionOperators.SelectLethals</text>
<polyline fill="none" stroke="black" points="1236,-451.5 1476,-451.5 "/>
<text text-anchor="start" x="1244" y="-438.5" font-family="Helvetica,sans-Serif" font-size="10.00">+ iterate</text>
<polyline fill="none" stroke="black" points="1236,-430.5 1476,-430.5 "/>
<text text-anchor="start" x="1244" y="-417.5" font-family="Helvetica,sans-Serif" font-size="10.00">+ select()</text>
</a>
</g>
<!-- Node1&#45;&gt;Node13 -->
<g id="edge24" class="edge"><title>Node1&#45;&gt;Node13</title>
<path fill="none" stroke="midnightblue" d="M969.229,-577.647C1042.95,-564.945 1142.92,-543.777 1227,-512 1254.38,-501.652 1283.07,-486.357 1306.43,-472.611"/>
<polygon fill="none" stroke="midnightblue" points="968.278,-574.258 959.005,-579.383 969.45,-581.159 968.278,-574.258"/>
</g>
<!-- Node14 -->
<g id="node27" class="node"><title>Node14</title>
<a xlink:href="classGeneticAlgorithm_1_1SelectionOperators_1_1SUSSelection.html" target="_top" xlink:title="This operator performs stochastic uniform selection over the population, updating the field matingPoo...">
<polygon fill="white" stroke="black" points="1494,-409.5 1494,-472.5 1736,-472.5 1736,-409.5 1494,-409.5"/>
<text text-anchor="middle" x="1615" y="-459.5" font-family="Helvetica,sans-Serif" font-size="10.00">GeneticAlgorithm.SelectionOperators.SUSSelection</text>
<polyline fill="none" stroke="black" points="1494,-451.5 1736,-451.5 "/>
<text text-anchor="start" x="1502" y="-438.5" font-family="Helvetica,sans-Serif" font-size="10.00">+ iterate</text>
<polyline fill="none" stroke="black" points="1494,-430.5 1736,-430.5 "/>
<text text-anchor="start" x="1502" y="-417.5" font-family="Helvetica,sans-Serif" font-size="10.00">+ select()</text>
</a>
</g>
<!-- Node1&#45;&gt;Node14 -->
<g id="edge26" class="edge"><title>Node1&#45;&gt;Node14</title>
<path fill="none" stroke="midnightblue" d="M969.276,-583.998C1120.58,-570.257 1391.58,-542.419 1485,-512 1513.73,-502.644 1543.48,-486.92 1567.25,-472.643"/>
<polygon fill="none" stroke="midnightblue" points="968.685,-580.537 959.04,-584.923 969.314,-587.509 968.685,-580.537"/>
</g>
<!-- Node2 -->
<g id="node2" class="node"><title>Node2</title>
<a xlink:href="classGeneticAlgorithm_1_1Core_1_1GABaseObject.html" target="_top" xlink:title="The base object provides the functions repr and str.">
<polygon fill="white" stroke="black" points="772,-674.5 772,-763.5 956,-763.5 956,-674.5 772,-674.5"/>
<text text-anchor="middle" x="864" y="-750.5" font-family="Helvetica,sans-Serif" font-size="10.00">GeneticAlgorithm.Core.GABaseObject</text>
<polyline fill="none" stroke="black" points="772,-742.5 956,-742.5 "/>
<text text-anchor="middle" x="864" y="-729.5" font-family="Helvetica,sans-Serif" font-size="10.00"> </text>
<polyline fill="none" stroke="black" points="772,-721.5 956,-721.5 "/>
<text text-anchor="start" x="780" y="-708.5" font-family="Helvetica,sans-Serif" font-size="10.00">+ __init__()</text>
<text text-anchor="start" x="780" y="-695.5" font-family="Helvetica,sans-Serif" font-size="10.00">+ __repr__()</text>
<text text-anchor="start" x="780" y="-682.5" font-family="Helvetica,sans-Serif" font-size="10.00">+ __str__()</text>
</a>
</g>
<!-- Node2&#45;&gt;Node1 -->
<g id="edge2" class="edge"><title>Node2&#45;&gt;Node1</title>
<path fill="none" stroke="midnightblue" d="M864,-664.013C864,-655.198 864,-646.169 864,-637.633"/>
<polygon fill="none" stroke="midnightblue" points="860.5,-664.222 864,-674.222 867.5,-664.222 860.5,-664.222"/>
</g>
<!-- Node3 -->
<g id="node4" class="node"><title>Node3</title>
<a xlink:href="classobject.html" target="_top" xlink:title="{object\n||}">
<polygon fill="white" stroke="black" points="842.5,-800.5 842.5,-863.5 885.5,-863.5 885.5,-800.5 842.5,-800.5"/>
<text text-anchor="middle" x="864" y="-850.5" font-family="Helvetica,sans-Serif" font-size="10.00">object</text>
<polyline fill="none" stroke="black" points="842.5,-842.5 885.5,-842.5 "/>
<text text-anchor="middle" x="864" y="-829.5" font-family="Helvetica,sans-Serif" font-size="10.00"> </text>
<polyline fill="none" stroke="black" points="842.5,-821.5 885.5,-821.5 "/>
<text text-anchor="middle" x="864" y="-808.5" font-family="Helvetica,sans-Serif" font-size="10.00"> </text>
</a>
</g>
<!-- Node3&#45;&gt;Node2 -->
<g id="edge4" class="edge"><title>Node3&#45;&gt;Node2</title>
<path fill="none" stroke="midnightblue" d="M864,-790.015C864,-781.403 864,-772.307 864,-763.606"/>
<polygon fill="none" stroke="midnightblue" points="860.5,-790.222 864,-800.222 867.5,-790.223 860.5,-790.222"/>
</g>
<!-- Node5 -->
<g id="node9" class="node"><title>Node5</title>
<a xlink:href="classGeneticAlgorithm_1_1LoggingOperators_1_1BestLogger.html" target="_top" xlink:title="This class stores the best individual of the population, if it is better than the last individual fou...">
<polygon fill="white" stroke="black" points="8,-140.5 8,-333.5 232,-333.5 232,-140.5 8,-140.5"/>
<text text-anchor="middle" x="120" y="-320.5" font-family="Helvetica,sans-Serif" font-size="10.00">GeneticAlgorithm.LoggingOperators.BestLogger</text>
<polyline fill="none" stroke="black" points="8,-312.5 232,-312.5 "/>
<text text-anchor="start" x="16" y="-299.5" font-family="Helvetica,sans-Serif" font-size="10.00">+ bestLog</text>
<text text-anchor="start" x="16" y="-286.5" font-family="Helvetica,sans-Serif" font-size="10.00">+ numEvaluations</text>
<text text-anchor="start" x="16" y="-273.5" font-family="Helvetica,sans-Serif" font-size="10.00">+ criterion</text>
<text text-anchor="start" x="16" y="-260.5" font-family="Helvetica,sans-Serif" font-size="10.00">+ maximize</text>
<text text-anchor="start" x="16" y="-247.5" font-family="Helvetica,sans-Serif" font-size="10.00">+ iterationFrequency</text>
<text text-anchor="start" x="16" y="-234.5" font-family="Helvetica,sans-Serif" font-size="10.00">+ iterationCallback</text>
<text text-anchor="start" x="16" y="-221.5" font-family="Helvetica,sans-Serif" font-size="10.00">+ evaluationCallback</text>
<polyline fill="none" stroke="black" points="8,-213.5 232,-213.5 "/>
<text text-anchor="start" x="16" y="-200.5" font-family="Helvetica,sans-Serif" font-size="10.00">+ __init__()</text>
<text text-anchor="start" x="16" y="-187.5" font-family="Helvetica,sans-Serif" font-size="10.00">+ logCallback()</text>
<text text-anchor="start" x="16" y="-174.5" font-family="Helvetica,sans-Serif" font-size="10.00">+ addToLog()</text>
<text text-anchor="start" x="16" y="-161.5" font-family="Helvetica,sans-Serif" font-size="10.00">+ getBest()</text>
<text text-anchor="start" x="16" y="-148.5" font-family="Helvetica,sans-Serif" font-size="10.00">+ finalize()</text>
</a>
</g>
<!-- Node4&#45;&gt;Node5 -->
<g id="edge8" class="edge"><title>Node4&#45;&gt;Node5</title>
<path fill="none" stroke="midnightblue" d="M196.294,-361.512C190.67,-352.334 184.889,-342.899 179.146,-333.527"/>
<polygon fill="none" stroke="midnightblue" points="193.423,-363.525 201.632,-370.223 199.392,-359.868 193.423,-363.525"/>
</g>
<!-- Node7 -->
<g id="node13" class="node"><title>Node7</title>
<a xlink:href="classGeneticAlgorithm_1_1LoggingOperators_1_1LogGenerations.html" target="_top" xlink:title="Log the full population of a GA.">
<polygon fill="white" stroke="black" points="250,-173 250,-301 492,-301 492,-173 250,-173"/>
<text text-anchor="middle" x="371" y="-288" font-family="Helvetica,sans-Serif" font-size="10.00">GeneticAlgorithm.LoggingOperators.LogGenerations</text>
<polyline fill="none" stroke="black" points="250,-280 492,-280 "/>
<text text-anchor="start" x="258" y="-267" font-family="Helvetica,sans-Serif" font-size="10.00">+ generationLog</text>
<text text-anchor="start" x="258" y="-254" font-family="Helvetica,sans-Serif" font-size="10.00">+ numEvaluations</text>
<text text-anchor="start" x="258" y="-241" font-family="Helvetica,sans-Serif" font-size="10.00">+ iterationCallback</text>
<text text-anchor="start" x="258" y="-228" font-family="Helvetica,sans-Serif" font-size="10.00">+ evaluationCallback</text>
<polyline fill="none" stroke="black" points="250,-220 492,-220 "/>
<text text-anchor="start" x="258" y="-207" font-family="Helvetica,sans-Serif" font-size="10.00">+ __init__()</text>
<text text-anchor="start" x="258" y="-194" font-family="Helvetica,sans-Serif" font-size="10.00">+ logPopulation()</text>
<text text-anchor="start" x="258" y="-181" font-family="Helvetica,sans-Serif" font-size="10.00">+ finalize()</text>
</a>
</g>
<!-- Node4&#45;&gt;Node7 -->
<g id="edge12" class="edge"><title>Node4&#45;&gt;Node7</title>
<path fill="none" stroke="midnightblue" d="M293.971,-361.713C306.359,-341.658 319.508,-320.368 331.37,-301.163"/>
<polygon fill="none" stroke="midnightblue" points="290.992,-359.876 288.715,-370.223 296.948,-363.554 290.992,-359.876"/>
</g>
<!-- Node6 -->
<g id="node11" class="node"><title>Node6</title>
<a xlink:href="classGeneticAlgorithm_1_1PlottingOperators_1_1PlotBestLogger.html" target="_top" xlink:title="{GeneticAlgorithm.PlottingOperators.PlotBestLogger\n|+ iterationCallback\l+ evaluationCallback\l|+ __init__()\l+ plotCallback()\l+ finalize()\l}">
<polygon fill="white" stroke="black" points="0,-1 0,-103 240,-103 240,-1 0,-1"/>
<text text-anchor="middle" x="120" y="-90" font-family="Helvetica,sans-Serif" font-size="10.00">GeneticAlgorithm.PlottingOperators.PlotBestLogger</text>
<polyline fill="none" stroke="black" points="0,-82 240,-82 "/>
<text text-anchor="start" x="8" y="-69" font-family="Helvetica,sans-Serif" font-size="10.00">+ iterationCallback</text>
<text text-anchor="start" x="8" y="-56" font-family="Helvetica,sans-Serif" font-size="10.00">+ evaluationCallback</text>
<polyline fill="none" stroke="black" points="0,-48 240,-48 "/>
<text text-anchor="start" x="8" y="-35" font-family="Helvetica,sans-Serif" font-size="10.00">+ __init__()</text>
<text text-anchor="start" x="8" y="-22" font-family="Helvetica,sans-Serif" font-size="10.00">+ plotCallback()</text>
<text text-anchor="start" x="8" y="-9" font-family="Helvetica,sans-Serif" font-size="10.00">+ finalize()</text>
</a>
</g>
<!-- Node5&#45;&gt;Node6 -->
<g id="edge10" class="edge"><title>Node5&#45;&gt;Node6</title>
<path fill="none" stroke="midnightblue" d="M120,-130.284C120,-120.982 120,-111.876 120,-103.355"/>
<polygon fill="none" stroke="midnightblue" points="116.5,-130.436 120,-140.436 123.5,-130.436 116.5,-130.436"/>
</g>
<!-- Node11 -->
<g id="node21" class="node"><title>Node11</title>
<a xlink:href="classGADemo_1_1NumOnes.html" target="_top" xlink:title="An evaluation operator that computes the number of ones in a segment whose data can be converted to b...">
<polygon fill="white" stroke="black" points="809,-199 809,-275 919,-275 919,-199 809,-199"/>
<text text-anchor="middle" x="864" y="-262" font-family="Helvetica,sans-Serif" font-size="10.00">GADemo.NumOnes</text>
<polyline fill="none" stroke="black" points="809,-254 919,-254 "/>
<text text-anchor="middle" x="864" y="-241" font-family="Helvetica,sans-Serif" font-size="10.00"> </text>
<polyline fill="none" stroke="black" points="809,-233 919,-233 "/>
<text text-anchor="start" x="817" y="-220" font-family="Helvetica,sans-Serif" font-size="10.00">+ segmentOnes()</text>
<text text-anchor="start" x="817" y="-207" font-family="Helvetica,sans-Serif" font-size="10.00">+ evaluateIndividual()</text>
</a>
</g>
<!-- Node10&#45;&gt;Node11 -->
<g id="edge20" class="edge"><title>Node10&#45;&gt;Node11</title>
<path fill="none" stroke="midnightblue" d="M864,-379.489C864,-345.503 864,-304.357 864,-275.035"/>
<polygon fill="none" stroke="midnightblue" points="860.5,-379.785 864,-389.786 867.5,-379.786 860.5,-379.785"/>
</g>
</g>
</svg>
        <g id="navigator" transform="translate(0 0)" fill="#404254">
                <rect fill="#f2f5e9" fill-opacity="0.5" stroke="#606060" stroke-width=".5" x="0" y="0" width="60" height="60"/>
                <use id="zoomplus" xlink:href="#zoomPlus" x="17" y="9" onmousedown="handleZoom(evt,'in')"/>
                <use id="zoomminus" xlink:href="#zoomMin" x="42" y="9" onmousedown="handleZoom(evt,'out')"/>
                <use id="reset" xlink:href="#resetDef" x="30" y="36" onmousedown="handleReset()"/>
                <g id="arrowUp" xlink:href="#dirArrow" transform="translate(30 24)" onmousedown="handlePan(0,-1)">
                  <use xlink:href="#rim" fill="#404040">
                        <set attributeName="fill" to="#808080" begin="arrowUp.mouseover" end="arrowUp.mouseout"/>
                  </use>
                  <path fill="none" stroke="white" stroke-width="1.5" d="M0,-3.0v7 M-2.5,-0.5L0,-3.0L2.5,-0.5"/>
                </g>
                <g id="arrowRight" xlink:href="#dirArrow" transform="rotate(90) translate(36 -43)" onmousedown="handlePan(1,0)">
                  <use xlink:href="#rim" fill="#404040">
                        <set attributeName="fill" to="#808080" begin="arrowRight.mouseover" end="arrowRight.mouseout"/>
                  </use>
                  <path fill="none" stroke="white" stroke-width="1.5" d="M0,-3.0v7 M-2.5,-0.5L0,-3.0L2.5,-0.5"/>
                </g>
                <g id="arrowDown" xlink:href="#dirArrow" transform="rotate(180) translate(-30 -48)" onmousedown="handlePan(0,1)">
                  <use xlink:href="#rim" fill="#404040">
                        <set attributeName="fill" to="#808080" begin="arrowDown.mouseover" end="arrowDown.mouseout"/>
                  </use>
                  <path fill="none" stroke="white" stroke-width="1.5" d="M0,-3.0v7 M-2.5,-0.5L0,-3.0L2.5,-0.5"/>
                </g>
                <g id="arrowLeft" xlink:href="#dirArrow" transform="rotate(270) translate(-36 17)" onmousedown="handlePan(-1,0)">
                  <use xlink:href="#rim" fill="#404040">
                        <set attributeName="fill" to="#808080" begin="arrowLeft.mouseover" end="arrowLeft.mouseout"/>
                  </use>
                  <path fill="none" stroke="white" stroke-width="1.5" d="M0,-3.0v7 M-2.5,-0.5L0,-3.0L2.5,-0.5"/>
                </g>
        </g>
</svg>
