<?xml version="1.0" encoding="UTF-8" standalone="no"?>
<!DOCTYPE svg PUBLIC "-//W3C//DTD SVG 1.1//EN"
 "http://www.w3.org/Graphics/SVG/1.1/DTD/svg11.dtd">
<!-- Generated by graphviz version 2.26.3 (20100126.1600)
 -->
<!-- Title: G Pages: 1 -->
<!--zoomable 110 -->
<svg id="main" version="1.1" xmlns="http://www.w3.org/2000/svg" xmlns:xlink="http://www.w3.org/1999/xlink" xml:space="preserve" onload="init(evt)">
        <defs>
                <circle id="rim" cx="0" cy="0" r="7"/>
                <circle id="rim2" cx="0" cy="0" r="3.5"/>
                <g id="zoomPlus">
                        <use xlink:href="#rim" fill="#404040">
                                <set attributeName="fill" to="#808080" begin="zoomplus.mouseover" end="zoomplus.mouseout"/>
                        </use>
                        <path d="M-4,0h8M0,-4v8" fill="none" stroke="white" stroke-width="1.5" pointer-events="none"/>
                </g>
                <g id="zoomMin">
                        <use xlink:href="#rim" fill="#404040">
                                <set attributeName="fill" to="#808080" begin="zoomminus.mouseover" end="zoomminus.mouseout"/>
                        </use>
                        <path d="M-4,0h8" fill="none" stroke="white" stroke-width="1.5" pointer-events="none"/>
                </g>
                <g id="dirArrow">
                        <path fill="none" stroke="white" stroke-width="1.5" d="M0,-3.0v7 M-2.5,-0.5L0,-3.0L2.5,-0.5"/>
                </g>
               <g id="resetDef">
                       <use xlink:href="#rim2" fill="#404040">
                               <set attributeName="fill" to="#808080" begin="reset.mouseover" end="reset.mouseout"/>
                       </use>
               </g>
        </defs>

<script type="text/javascript">
var viewWidth = 954;
var viewHeight = 110;
var sectionId = 'dynsection-2';
</script>
<script xlink:href="svgpan.js"/>
<svg id="graph" class="graph">
<g id="viewport">
<title>G</title>
<polygon fill="white" stroke="white" points="-4,5 -4,-106 951,-106 951,5 -4,5"/>
<!-- Node1 -->
<g id="node1" class="node"><title>Node1</title>
<polygon fill="#bfbfbf" stroke="black" points="0,-40.5 0,-61.5 332,-61.5 332,-40.5 0,-40.5"/>
<text text-anchor="middle" x="166" y="-48.5" font-family="Helvetica,sans-Serif" font-size="10.00">GeneticAlgorithm.EvaluationOperators.BaseEvaluationOperator.evaluate</text>
</g>
<!-- Node2 -->
<g id="node3" class="node"><title>Node2</title>
<a xlink:href="classGeneticAlgorithm_1_1EvaluationOperators_1_1BaseEvaluationOperator.html#a245cf39701bc9c7f5ecdb24bb02f6365" target="_top" xlink:title="This function evaluates one individual; Overload this function on all derived operators.">
<polygon fill="white" stroke="black" points="368.5,-80.5 368.5,-101.5 741.5,-101.5 741.5,-80.5 368.5,-80.5"/>
<text text-anchor="middle" x="555" y="-88.5" font-family="Helvetica,sans-Serif" font-size="10.00">GeneticAlgorithm.EvaluationOperators.BaseEvaluationOperator.evaluateIndividual</text>
</a>
</g>
<!-- Node1&#45;&gt;Node2 -->
<g id="edge2" class="edge"><title>Node1&#45;&gt;Node2</title>
<path fill="none" stroke="midnightblue" d="M268.205,-61.5095C321.82,-67.0226 387.615,-73.7882 442.656,-79.4479"/>
<polygon fill="midnightblue" stroke="midnightblue" points="442.497,-82.95 452.803,-80.4913 443.213,-75.9867 442.497,-82.95"/>
</g>
<!-- Node3 -->
<g id="node5" class="node"><title>Node3</title>
<a xlink:href="classGADemo_1_1NumOnes.html#ab2135ed81b58077c5abff0fb91ce0277" target="_top" xlink:title="Call segmentOnes for each segment on the genotype, and add them all together to produce a fitness fun...">
<polygon fill="white" stroke="black" points="462.5,-40.5 462.5,-61.5 647.5,-61.5 647.5,-40.5 462.5,-40.5"/>
<text text-anchor="middle" x="555" y="-48.5" font-family="Helvetica,sans-Serif" font-size="10.00">GADemo.NumOnes.evaluateIndividual</text>
</a>
</g>
<!-- Node1&#45;&gt;Node3 -->
<g id="edge4" class="edge"><title>Node1&#45;&gt;Node3</title>
<path fill="none" stroke="midnightblue" d="M332.099,-51C372.871,-51 415.343,-51 452.143,-51"/>
<polygon fill="midnightblue" stroke="midnightblue" points="452.365,-54.5001 462.365,-51 452.365,-47.5001 452.365,-54.5001"/>
</g>
<!-- Node5 -->
<g id="node9" class="node"><title>Node5</title>
<a xlink:href="classKnapsackDemo_1_1Knapsack.html#ae8ab0e153e9a312df17bfa1eaace97dd" target="_top" xlink:title="Evaluate an individual according to the function described above.">
<polygon fill="white" stroke="black" points="448,-0.5 448,-21.5 662,-21.5 662,-0.5 448,-0.5"/>
<text text-anchor="middle" x="555" y="-8.5" font-family="Helvetica,sans-Serif" font-size="10.00">KnapsackDemo.Knapsack.evaluateIndividual</text>
</a>
</g>
<!-- Node1&#45;&gt;Node5 -->
<g id="edge8" class="edge"><title>Node1&#45;&gt;Node5</title>
<path fill="none" stroke="midnightblue" d="M268.205,-40.4905C321.82,-34.9774 387.615,-28.2118 442.656,-22.5521"/>
<polygon fill="midnightblue" stroke="midnightblue" points="443.213,-26.0133 452.803,-21.5087 442.497,-19.05 443.213,-26.0133"/>
</g>
<!-- Node4 -->
<g id="node7" class="node"><title>Node4</title>
<a xlink:href="classGADemo_1_1NumOnes.html#a6b015c19229264dd3e947334f2984255" target="_top" xlink:title="Compute the number of ones in one genotype segment.">
<polygon fill="white" stroke="black" points="778,-40.5 778,-61.5 946,-61.5 946,-40.5 778,-40.5"/>
<text text-anchor="middle" x="862" y="-48.5" font-family="Helvetica,sans-Serif" font-size="10.00">GADemo.NumOnes.segmentOnes</text>
</a>
</g>
<!-- Node3&#45;&gt;Node4 -->
<g id="edge6" class="edge"><title>Node3&#45;&gt;Node4</title>
<path fill="none" stroke="midnightblue" d="M647.526,-51C685.531,-51 729.491,-51 767.68,-51"/>
<polygon fill="midnightblue" stroke="midnightblue" points="767.771,-54.5001 777.771,-51 767.771,-47.5001 767.771,-54.5001"/>
</g>
</g>
</svg>
        <g id="navigator" transform="translate(0 0)" fill="#404254">
                <rect fill="#f2f5e9" fill-opacity="0.5" stroke="#606060" stroke-width=".5" x="0" y="0" width="60" height="60"/>
                <use id="zoomplus" xlink:href="#zoomPlus" x="17" y="9" onmousedown="handleZoom(evt,'in')"/>
                <use id="zoomminus" xlink:href="#zoomMin" x="42" y="9" onmousedown="handleZoom(evt,'out')"/>
                <use id="reset" xlink:href="#resetDef" x="30" y="36" onmousedown="handleReset()"/>
                <g id="arrowUp" xlink:href="#dirArrow" transform="translate(30 24)" onmousedown="handlePan(0,-1)">
                  <use xlink:href="#rim" fill="#404040">
                        <set attributeName="fill" to="#808080" begin="arrowUp.mouseover" end="arrowUp.mouseout"/>
                  </use>
                  <path fill="none" stroke="white" stroke-width="1.5" d="M0,-3.0v7 M-2.5,-0.5L0,-3.0L2.5,-0.5"/>
                </g>
                <g id="arrowRight" xlink:href="#dirArrow" transform="rotate(90) translate(36 -43)" onmousedown="handlePan(1,0)">
                  <use xlink:href="#rim" fill="#404040">
                        <set attributeName="fill" to="#808080" begin="arrowRight.mouseover" end="arrowRight.mouseout"/>
                  </use>
                  <path fill="none" stroke="white" stroke-width="1.5" d="M0,-3.0v7 M-2.5,-0.5L0,-3.0L2.5,-0.5"/>
                </g>
                <g id="arrowDown" xlink:href="#dirArrow" transform="rotate(180) translate(-30 -48)" onmousedown="handlePan(0,1)">
                  <use xlink:href="#rim" fill="#404040">
                        <set attributeName="fill" to="#808080" begin="arrowDown.mouseover" end="arrowDown.mouseout"/>
                  </use>
                  <path fill="none" stroke="white" stroke-width="1.5" d="M0,-3.0v7 M-2.5,-0.5L0,-3.0L2.5,-0.5"/>
                </g>
                <g id="arrowLeft" xlink:href="#dirArrow" transform="rotate(270) translate(-36 17)" onmousedown="handlePan(-1,0)">
                  <use xlink:href="#rim" fill="#404040">
                        <set attributeName="fill" to="#808080" begin="arrowLeft.mouseover" end="arrowLeft.mouseout"/>
                  </use>
                  <path fill="none" stroke="white" stroke-width="1.5" d="M0,-3.0v7 M-2.5,-0.5L0,-3.0L2.5,-0.5"/>
                </g>
        </g>
</svg>
