<?xml version="1.0" encoding="UTF-8" standalone="no"?>
<!DOCTYPE svg PUBLIC "-//W3C//DTD SVG 1.1//EN"
 "http://www.w3.org/Graphics/SVG/1.1/DTD/svg11.dtd">
<!-- Generated by graphviz version 2.26.3 (20100126.1600)
 -->
<!-- Title: G Pages: 1 -->
<svg width="216pt" height="298pt"
 viewBox="0.00 0.00 216.00 298.00" xmlns="http://www.w3.org/2000/svg" xmlns:xlink="http://www.w3.org/1999/xlink">
<g id="graph1" class="graph" transform="scale(1 1) rotate(0) translate(4 294)">
<title>G</title>
<polygon fill="white" stroke="white" points="-4,5 -4,-294 213,-294 213,5 -4,5"/>
<!-- Node1 -->
<g id="node1" class="node"><title>Node1</title>
<polygon fill="#bfbfbf" stroke="black" points="-0.5,-0.5 -0.5,-63.5 208.5,-63.5 208.5,-0.5 -0.5,-0.5"/>
<text text-anchor="middle" x="104" y="-50.5" font-family="Helvetica,sans-Serif" font-size="10.00">GABaseObject&#45;demo.GeneticExampleClass</text>
<polyline fill="none" stroke="black" points="-0.5,-42.5 208.5,-42.5 "/>
<text text-anchor="middle" x="104" y="-29.5" font-family="Helvetica,sans-Serif" font-size="10.00"> </text>
<polyline fill="none" stroke="black" points="-0.5,-21.5 208.5,-21.5 "/>
<text text-anchor="middle" x="104" y="-8.5" font-family="Helvetica,sans-Serif" font-size="10.00"> </text>
</g>
<!-- Node2 -->
<g id="node2" class="node"><title>Node2</title>
<a xlink:href="classGeneticAlgorithm_1_1Core_1_1GABaseObject.html" target="_top" xlink:title="The base object provides the functions repr and str.">
<polygon fill="white" stroke="black" points="12,-100.5 12,-189.5 196,-189.5 196,-100.5 12,-100.5"/>
<text text-anchor="middle" x="104" y="-176.5" font-family="Helvetica,sans-Serif" font-size="10.00">GeneticAlgorithm.Core.GABaseObject</text>
<polyline fill="none" stroke="black" points="12,-168.5 196,-168.5 "/>
<text text-anchor="middle" x="104" y="-155.5" font-family="Helvetica,sans-Serif" font-size="10.00"> </text>
<polyline fill="none" stroke="black" points="12,-147.5 196,-147.5 "/>
<text text-anchor="start" x="20" y="-134.5" font-family="Helvetica,sans-Serif" font-size="10.00">+ __init__()</text>
<text text-anchor="start" x="20" y="-121.5" font-family="Helvetica,sans-Serif" font-size="10.00">+ __repr__()</text>
<text text-anchor="start" x="20" y="-108.5" font-family="Helvetica,sans-Serif" font-size="10.00">+ __str__()</text>
</a>
</g>
<!-- Node2&#45;&gt;Node1 -->
<g id="edge2" class="edge"><title>Node2&#45;&gt;Node1</title>
<path fill="none" stroke="midnightblue" d="M104,-90.1957C104,-81.1456 104,-72.0374 104,-63.801"/>
<polygon fill="none" stroke="midnightblue" points="100.5,-90.3394 104,-100.339 107.5,-90.3394 100.5,-90.3394"/>
</g>
<!-- Node3 -->
<g id="node4" class="node"><title>Node3</title>
<a xlink:href="classobject.html" target="_top" xlink:title="{object\n||}">
<polygon fill="white" stroke="black" points="82.5,-226.5 82.5,-289.5 125.5,-289.5 125.5,-226.5 82.5,-226.5"/>
<text text-anchor="middle" x="104" y="-276.5" font-family="Helvetica,sans-Serif" font-size="10.00">object</text>
<polyline fill="none" stroke="black" points="82.5,-268.5 125.5,-268.5 "/>
<text text-anchor="middle" x="104" y="-255.5" font-family="Helvetica,sans-Serif" font-size="10.00"> </text>
<polyline fill="none" stroke="black" points="82.5,-247.5 125.5,-247.5 "/>
<text text-anchor="middle" x="104" y="-234.5" font-family="Helvetica,sans-Serif" font-size="10.00"> </text>
</a>
</g>
<!-- Node3&#45;&gt;Node2 -->
<g id="edge4" class="edge"><title>Node3&#45;&gt;Node2</title>
<path fill="none" stroke="midnightblue" d="M104,-216.015C104,-207.403 104,-198.307 104,-189.606"/>
<polygon fill="none" stroke="midnightblue" points="100.5,-216.222 104,-226.222 107.5,-216.223 100.5,-216.222"/>
</g>
</g>
</svg>
