<?xml version="1.0" encoding="UTF-8" standalone="no"?>
<!DOCTYPE svg PUBLIC "-//W3C//DTD SVG 1.1//EN"
 "http://www.w3.org/Graphics/SVG/1.1/DTD/svg11.dtd">
<!-- Generated by graphviz version 2.26.3 (20100126.1600)
 -->
<!-- Title: G Pages: 1 -->
<svg width="192pt" height="364pt"
 viewBox="0.00 0.00 192.00 364.00" xmlns="http://www.w3.org/2000/svg" xmlns:xlink="http://www.w3.org/1999/xlink">
<g id="graph1" class="graph" transform="scale(1 1) rotate(0) translate(4 360)">
<title>G</title>
<polygon fill="white" stroke="white" points="-4,5 -4,-360 189,-360 189,5 -4,5"/>
<!-- Node1 -->
<g id="node1" class="node"><title>Node1</title>
<polygon fill="#bfbfbf" stroke="black" points="2.5,-1 2.5,-129 181.5,-129 181.5,-1 2.5,-1"/>
<text text-anchor="middle" x="92" y="-116" font-family="Helvetica,sans-Serif" font-size="10.00">GeneticAlgorithm.GraphLibrary.Graph</text>
<polyline fill="none" stroke="black" points="2.5,-108 181.5,-108 "/>
<text text-anchor="start" x="10.5" y="-95" font-family="Helvetica,sans-Serif" font-size="10.00">+ V</text>
<text text-anchor="start" x="10.5" y="-82" font-family="Helvetica,sans-Serif" font-size="10.00">+ W</text>
<polyline fill="none" stroke="black" points="2.5,-74 181.5,-74 "/>
<text text-anchor="start" x="10.5" y="-61" font-family="Helvetica,sans-Serif" font-size="10.00">+ __init__()</text>
<text text-anchor="start" x="10.5" y="-48" font-family="Helvetica,sans-Serif" font-size="10.00">+ __str__()</text>
<text text-anchor="start" x="10.5" y="-35" font-family="Helvetica,sans-Serif" font-size="10.00">+ __setattr__()</text>
<text text-anchor="start" x="10.5" y="-22" font-family="Helvetica,sans-Serif" font-size="10.00">+ randomize()</text>
<text text-anchor="start" x="10.5" y="-9" font-family="Helvetica,sans-Serif" font-size="10.00">+ plot()</text>
</g>
<!-- Node2 -->
<g id="node2" class="node"><title>Node2</title>
<a xlink:href="classGeneticAlgorithm_1_1Core_1_1GABaseObject.html" target="_top" xlink:title="The base object provides the functions repr and str.">
<polygon fill="white" stroke="black" points="0,-166.5 0,-255.5 184,-255.5 184,-166.5 0,-166.5"/>
<text text-anchor="middle" x="92" y="-242.5" font-family="Helvetica,sans-Serif" font-size="10.00">GeneticAlgorithm.Core.GABaseObject</text>
<polyline fill="none" stroke="black" points="0,-234.5 184,-234.5 "/>
<text text-anchor="middle" x="92" y="-221.5" font-family="Helvetica,sans-Serif" font-size="10.00"> </text>
<polyline fill="none" stroke="black" points="0,-213.5 184,-213.5 "/>
<text text-anchor="start" x="8" y="-200.5" font-family="Helvetica,sans-Serif" font-size="10.00">+ __init__()</text>
<text text-anchor="start" x="8" y="-187.5" font-family="Helvetica,sans-Serif" font-size="10.00">+ __repr__()</text>
<text text-anchor="start" x="8" y="-174.5" font-family="Helvetica,sans-Serif" font-size="10.00">+ __str__()</text>
</a>
</g>
<!-- Node2&#45;&gt;Node1 -->
<g id="edge2" class="edge"><title>Node2&#45;&gt;Node1</title>
<path fill="none" stroke="midnightblue" d="M92,-156.254C92,-147.432 92,-138.231 92,-129.21"/>
<polygon fill="none" stroke="midnightblue" points="88.5001,-156.402 92,-166.402 95.5001,-156.402 88.5001,-156.402"/>
</g>
<!-- Node3 -->
<g id="node4" class="node"><title>Node3</title>
<a xlink:href="classobject.html" target="_top" xlink:title="{object\n||}">
<polygon fill="white" stroke="black" points="70.5,-292.5 70.5,-355.5 113.5,-355.5 113.5,-292.5 70.5,-292.5"/>
<text text-anchor="middle" x="92" y="-342.5" font-family="Helvetica,sans-Serif" font-size="10.00">object</text>
<polyline fill="none" stroke="black" points="70.5,-334.5 113.5,-334.5 "/>
<text text-anchor="middle" x="92" y="-321.5" font-family="Helvetica,sans-Serif" font-size="10.00"> </text>
<polyline fill="none" stroke="black" points="70.5,-313.5 113.5,-313.5 "/>
<text text-anchor="middle" x="92" y="-300.5" font-family="Helvetica,sans-Serif" font-size="10.00"> </text>
</a>
</g>
<!-- Node3&#45;&gt;Node2 -->
<g id="edge4" class="edge"><title>Node3&#45;&gt;Node2</title>
<path fill="none" stroke="midnightblue" d="M92,-282.015C92,-273.403 92,-264.307 92,-255.606"/>
<polygon fill="none" stroke="midnightblue" points="88.5001,-282.222 92,-292.222 95.5001,-282.223 88.5001,-282.222"/>
</g>
</g>
</svg>
