<?xml version="1.0" encoding="UTF-8" standalone="no"?>
<!DOCTYPE svg PUBLIC "-//W3C//DTD SVG 1.1//EN"
 "http://www.w3.org/Graphics/SVG/1.1/DTD/svg11.dtd">
<!-- Generated by graphviz version 2.26.3 (20100126.1600)
 -->
<!-- Title: G Pages: 1 -->
<!--zoomable 490 -->
<svg id="main" version="1.1" xmlns="http://www.w3.org/2000/svg" xmlns:xlink="http://www.w3.org/1999/xlink" xml:space="preserve" onload="init(evt)">
        <defs>
                <circle id="rim" cx="0" cy="0" r="7"/>
                <circle id="rim2" cx="0" cy="0" r="3.5"/>
                <g id="zoomPlus">
                        <use xlink:href="#rim" fill="#404040">
                                <set attributeName="fill" to="#808080" begin="zoomplus.mouseover" end="zoomplus.mouseout"/>
                        </use>
                        <path d="M-4,0h8M0,-4v8" fill="none" stroke="white" stroke-width="1.5" pointer-events="none"/>
                </g>
                <g id="zoomMin">
                        <use xlink:href="#rim" fill="#404040">
                                <set attributeName="fill" to="#808080" begin="zoomminus.mouseover" end="zoomminus.mouseout"/>
                        </use>
                        <path d="M-4,0h8" fill="none" stroke="white" stroke-width="1.5" pointer-events="none"/>
                </g>
                <g id="dirArrow">
                        <path fill="none" stroke="white" stroke-width="1.5" d="M0,-3.0v7 M-2.5,-0.5L0,-3.0L2.5,-0.5"/>
                </g>
               <g id="resetDef">
                       <use xlink:href="#rim2" fill="#404040">
                               <set attributeName="fill" to="#808080" begin="reset.mouseover" end="reset.mouseout"/>
                       </use>
               </g>
        </defs>

<script type="text/javascript">
var viewWidth = 1212;
var viewHeight = 490;
var sectionId = 'dynsection-0';
</script>
<script xlink:href="svgpan.js"/>
<svg id="graph" class="graph">
<g id="viewport">
<title>G</title>
<polygon fill="white" stroke="white" points="-4,5 -4,-486 1209,-486 1209,5 -4,5"/>
<!-- Node1 -->
<g id="node1" class="node"><title>Node1</title>
<polygon fill="#bfbfbf" stroke="black" points="443,-166.5 443,-255.5 633,-255.5 633,-166.5 443,-166.5"/>
<text text-anchor="middle" x="538" y="-242.5" font-family="Helvetica,sans-Serif" font-size="10.00">GeneticAlgorithm.Core.GeneticOperator</text>
<polyline fill="none" stroke="black" points="443,-234.5 633,-234.5 "/>
<text text-anchor="middle" x="538" y="-221.5" font-family="Helvetica,sans-Serif" font-size="10.00"> </text>
<polyline fill="none" stroke="black" points="443,-213.5 633,-213.5 "/>
<text text-anchor="start" x="451" y="-200.5" font-family="Helvetica,sans-Serif" font-size="10.00">+ initialize()</text>
<text text-anchor="start" x="451" y="-187.5" font-family="Helvetica,sans-Serif" font-size="10.00">+ iterate()</text>
<text text-anchor="start" x="451" y="-174.5" font-family="Helvetica,sans-Serif" font-size="10.00">+ finalize()</text>
</g>
<!-- Node4 -->
<g id="node7" class="node"><title>Node4</title>
<a xlink:href="classGeneticAlgorithm_1_1Core_1_1Crossover.html" target="_top" xlink:title="Crossover two individuals from population.matingPool with probability population.crossoverProbability...">
<polygon fill="white" stroke="black" points="0,-33.5 0,-96.5 164,-96.5 164,-33.5 0,-33.5"/>
<text text-anchor="middle" x="82" y="-83.5" font-family="Helvetica,sans-Serif" font-size="10.00">GeneticAlgorithm.Core.Crossover</text>
<polyline fill="none" stroke="black" points="0,-75.5 164,-75.5 "/>
<text text-anchor="start" x="8" y="-62.5" font-family="Helvetica,sans-Serif" font-size="10.00">+ iterate</text>
<polyline fill="none" stroke="black" points="0,-54.5 164,-54.5 "/>
<text text-anchor="start" x="8" y="-41.5" font-family="Helvetica,sans-Serif" font-size="10.00">+ cross()</text>
</a>
</g>
<!-- Node1&#45;&gt;Node4 -->
<g id="edge6" class="edge"><title>Node1&#45;&gt;Node4</title>
<path fill="none" stroke="midnightblue" d="M432.926,-199.074C358.025,-187.886 256.264,-167.115 173,-130 154.026,-121.542 135.015,-108.799 119.314,-96.8308"/>
<polygon fill="none" stroke="midnightblue" points="432.448,-202.542 442.849,-200.524 433.46,-195.615 432.448,-202.542"/>
</g>
<!-- Node5 -->
<g id="node9" class="node"><title>Node5</title>
<a xlink:href="classGeneticAlgorithm_1_1Core_1_1Mutate.html" target="_top" xlink:title="Mutate an individual.">
<polygon fill="white" stroke="black" points="181.5,-33.5 181.5,-96.5 330.5,-96.5 330.5,-33.5 181.5,-33.5"/>
<text text-anchor="middle" x="256" y="-83.5" font-family="Helvetica,sans-Serif" font-size="10.00">GeneticAlgorithm.Core.Mutate</text>
<polyline fill="none" stroke="black" points="181.5,-75.5 330.5,-75.5 "/>
<text text-anchor="start" x="189.5" y="-62.5" font-family="Helvetica,sans-Serif" font-size="10.00">+ iterate</text>
<polyline fill="none" stroke="black" points="181.5,-54.5 330.5,-54.5 "/>
<text text-anchor="start" x="189.5" y="-41.5" font-family="Helvetica,sans-Serif" font-size="10.00">+ mutate()</text>
</a>
</g>
<!-- Node1&#45;&gt;Node5 -->
<g id="edge8" class="edge"><title>Node1&#45;&gt;Node5</title>
<path fill="none" stroke="midnightblue" d="M433.235,-174.68C402.056,-162.21 368.39,-147.041 339,-130 322.692,-120.544 306.07,-108.175 292.028,-96.7673"/>
<polygon fill="none" stroke="midnightblue" points="432.238,-178.049 442.824,-178.463 434.806,-171.538 432.238,-178.049"/>
</g>
<!-- Node6 -->
<g id="node11" class="node"><title>Node6</title>
<a xlink:href="classGeneticAlgorithm_1_1LogGenerations.html" target="_top" xlink:title="{GeneticAlgorithm.LogGenerations\n|+ generationLog\l+ numEvaluations\l+ generationCounter\l+ saveFrequency\l|+ __init__()\l+ iterate()\l+ finalize()\l}">
<polygon fill="white" stroke="black" points="347.5,-1 347.5,-129 510.5,-129 510.5,-1 347.5,-1"/>
<text text-anchor="middle" x="429" y="-116" font-family="Helvetica,sans-Serif" font-size="10.00">GeneticAlgorithm.LogGenerations</text>
<polyline fill="none" stroke="black" points="347.5,-108 510.5,-108 "/>
<text text-anchor="start" x="355.5" y="-95" font-family="Helvetica,sans-Serif" font-size="10.00">+ generationLog</text>
<text text-anchor="start" x="355.5" y="-82" font-family="Helvetica,sans-Serif" font-size="10.00">+ numEvaluations</text>
<text text-anchor="start" x="355.5" y="-69" font-family="Helvetica,sans-Serif" font-size="10.00">+ generationCounter</text>
<text text-anchor="start" x="355.5" y="-56" font-family="Helvetica,sans-Serif" font-size="10.00">+ saveFrequency</text>
<polyline fill="none" stroke="black" points="347.5,-48 510.5,-48 "/>
<text text-anchor="start" x="355.5" y="-35" font-family="Helvetica,sans-Serif" font-size="10.00">+ __init__()</text>
<text text-anchor="start" x="355.5" y="-22" font-family="Helvetica,sans-Serif" font-size="10.00">+ iterate()</text>
<text text-anchor="start" x="355.5" y="-9" font-family="Helvetica,sans-Serif" font-size="10.00">+ finalize()</text>
</a>
</g>
<!-- Node1&#45;&gt;Node6 -->
<g id="edge10" class="edge"><title>Node1&#45;&gt;Node6</title>
<path fill="none" stroke="midnightblue" d="M498.626,-158.261C491.588,-148.834 484.184,-138.917 476.938,-129.21"/>
<polygon fill="none" stroke="midnightblue" points="495.917,-160.483 504.704,-166.402 501.526,-156.295 495.917,-160.483"/>
</g>
<!-- Node7 -->
<g id="node13" class="node"><title>Node7</title>
<a xlink:href="classGeneticAlgorithm_1_1SelectionOperators_1_1SelectLethals.html" target="_top" xlink:title="{GeneticAlgorithm.SelectionOperators.SelectLethals\n|+ iterate\l|+ select()\l}">
<polygon fill="white" stroke="black" points="528,-33.5 528,-96.5 768,-96.5 768,-33.5 528,-33.5"/>
<text text-anchor="middle" x="648" y="-83.5" font-family="Helvetica,sans-Serif" font-size="10.00">GeneticAlgorithm.SelectionOperators.SelectLethals</text>
<polyline fill="none" stroke="black" points="528,-75.5 768,-75.5 "/>
<text text-anchor="start" x="536" y="-62.5" font-family="Helvetica,sans-Serif" font-size="10.00">+ iterate</text>
<polyline fill="none" stroke="black" points="528,-54.5 768,-54.5 "/>
<text text-anchor="start" x="536" y="-41.5" font-family="Helvetica,sans-Serif" font-size="10.00">+ select()</text>
</a>
</g>
<!-- Node1&#45;&gt;Node7 -->
<g id="edge12" class="edge"><title>Node1&#45;&gt;Node7</title>
<path fill="none" stroke="midnightblue" d="M577.673,-158.343C593.188,-137.75 610.471,-114.811 624.021,-96.8261"/>
<polygon fill="none" stroke="midnightblue" points="574.823,-156.309 571.601,-166.402 580.414,-160.521 574.823,-156.309"/>
</g>
<!-- Node8 -->
<g id="node15" class="node"><title>Node8</title>
<a xlink:href="classGeneticAlgorithm_1_1SelectionOperators_1_1SUSSelection.html" target="_top" xlink:title="This operator performs stochastic uniform selection over the population, updating the field matingPoo...">
<polygon fill="white" stroke="black" points="786,-33.5 786,-96.5 1028,-96.5 1028,-33.5 786,-33.5"/>
<text text-anchor="middle" x="907" y="-83.5" font-family="Helvetica,sans-Serif" font-size="10.00">GeneticAlgorithm.SelectionOperators.SUSSelection</text>
<polyline fill="none" stroke="black" points="786,-75.5 1028,-75.5 "/>
<text text-anchor="start" x="794" y="-62.5" font-family="Helvetica,sans-Serif" font-size="10.00">+ iterate</text>
<polyline fill="none" stroke="black" points="786,-54.5 1028,-54.5 "/>
<text text-anchor="start" x="794" y="-41.5" font-family="Helvetica,sans-Serif" font-size="10.00">+ select()</text>
</a>
</g>
<!-- Node1&#45;&gt;Node8 -->
<g id="edge14" class="edge"><title>Node1&#45;&gt;Node8</title>
<path fill="none" stroke="midnightblue" d="M642.768,-178.934C684.956,-165.134 733.767,-148.035 777,-130 800.754,-120.091 826.217,-107.759 848.256,-96.5085"/>
<polygon fill="none" stroke="midnightblue" points="641.464,-175.678 633.036,-182.098 643.628,-182.335 641.464,-175.678"/>
</g>
<!-- Node9 -->
<g id="node17" class="node"><title>Node9</title>
<a xlink:href="classGeneticAlgorithm_1_1SumSegments.html" target="_top" xlink:title="This class implements a Genetic operator that simply sums the genotype value of every individual and ...">
<polygon fill="white" stroke="black" points="1045.5,-20.5 1045.5,-109.5 1204.5,-109.5 1204.5,-20.5 1045.5,-20.5"/>
<text text-anchor="middle" x="1125" y="-96.5" font-family="Helvetica,sans-Serif" font-size="10.00">GeneticAlgorithm.SumSegments</text>
<polyline fill="none" stroke="black" points="1045.5,-88.5 1204.5,-88.5 "/>
<text text-anchor="start" x="1053.5" y="-75.5" font-family="Helvetica,sans-Serif" font-size="10.00">+ initialize</text>
<text text-anchor="start" x="1053.5" y="-62.5" font-family="Helvetica,sans-Serif" font-size="10.00">+ iterate</text>
<text text-anchor="start" x="1053.5" y="-49.5" font-family="Helvetica,sans-Serif" font-size="10.00">+ finalize</text>
<polyline fill="none" stroke="black" points="1045.5,-41.5 1204.5,-41.5 "/>
<text text-anchor="start" x="1053.5" y="-28.5" font-family="Helvetica,sans-Serif" font-size="10.00">+ sumSegments()</text>
</a>
</g>
<!-- Node1&#45;&gt;Node9 -->
<g id="edge16" class="edge"><title>Node1&#45;&gt;Node9</title>
<path fill="none" stroke="midnightblue" d="M643.112,-199.832C767.875,-185.553 967.745,-159.162 1037,-130 1049.43,-124.766 1061.73,-117.436 1073.02,-109.575"/>
<polygon fill="none" stroke="midnightblue" points="642.686,-196.357 633.145,-200.965 643.476,-203.313 642.686,-196.357"/>
</g>
<!-- Node2 -->
<g id="node2" class="node"><title>Node2</title>
<a xlink:href="classGeneticAlgorithm_1_1Core_1_1GABaseObject.html" target="_top" xlink:title="The base object provides the functions repr and str.">
<polygon fill="white" stroke="black" points="446,-292.5 446,-381.5 630,-381.5 630,-292.5 446,-292.5"/>
<text text-anchor="middle" x="538" y="-368.5" font-family="Helvetica,sans-Serif" font-size="10.00">GeneticAlgorithm.Core.GABaseObject</text>
<polyline fill="none" stroke="black" points="446,-360.5 630,-360.5 "/>
<text text-anchor="middle" x="538" y="-347.5" font-family="Helvetica,sans-Serif" font-size="10.00"> </text>
<polyline fill="none" stroke="black" points="446,-339.5 630,-339.5 "/>
<text text-anchor="start" x="454" y="-326.5" font-family="Helvetica,sans-Serif" font-size="10.00">+ __init__()</text>
<text text-anchor="start" x="454" y="-313.5" font-family="Helvetica,sans-Serif" font-size="10.00">+ __repr__()</text>
<text text-anchor="start" x="454" y="-300.5" font-family="Helvetica,sans-Serif" font-size="10.00">+ __str__()</text>
</a>
</g>
<!-- Node2&#45;&gt;Node1 -->
<g id="edge2" class="edge"><title>Node2&#45;&gt;Node1</title>
<path fill="none" stroke="midnightblue" d="M538,-282.013C538,-273.198 538,-264.169 538,-255.633"/>
<polygon fill="none" stroke="midnightblue" points="534.5,-282.222 538,-292.222 541.5,-282.222 534.5,-282.222"/>
</g>
<!-- Node3 -->
<g id="node4" class="node"><title>Node3</title>
<a xlink:href="classobject.html" target="_top" xlink:title="{object\n||}">
<polygon fill="white" stroke="black" points="516.5,-418.5 516.5,-481.5 559.5,-481.5 559.5,-418.5 516.5,-418.5"/>
<text text-anchor="middle" x="538" y="-468.5" font-family="Helvetica,sans-Serif" font-size="10.00">object</text>
<polyline fill="none" stroke="black" points="516.5,-460.5 559.5,-460.5 "/>
<text text-anchor="middle" x="538" y="-447.5" font-family="Helvetica,sans-Serif" font-size="10.00"> </text>
<polyline fill="none" stroke="black" points="516.5,-439.5 559.5,-439.5 "/>
<text text-anchor="middle" x="538" y="-426.5" font-family="Helvetica,sans-Serif" font-size="10.00"> </text>
</a>
</g>
<!-- Node3&#45;&gt;Node2 -->
<g id="edge4" class="edge"><title>Node3&#45;&gt;Node2</title>
<path fill="none" stroke="midnightblue" d="M538,-408.015C538,-399.403 538,-390.307 538,-381.606"/>
<polygon fill="none" stroke="midnightblue" points="534.5,-408.222 538,-418.222 541.5,-408.223 534.5,-408.222"/>
</g>
</g>
</svg>
        <g id="navigator" transform="translate(0 0)" fill="#404254">
                <rect fill="#f2f5e9" fill-opacity="0.5" stroke="#606060" stroke-width=".5" x="0" y="0" width="60" height="60"/>
                <use id="zoomplus" xlink:href="#zoomPlus" x="17" y="9" onmousedown="handleZoom(evt,'in')"/>
                <use id="zoomminus" xlink:href="#zoomMin" x="42" y="9" onmousedown="handleZoom(evt,'out')"/>
                <use id="reset" xlink:href="#resetDef" x="30" y="36" onmousedown="handleReset()"/>
                <g id="arrowUp" xlink:href="#dirArrow" transform="translate(30 24)" onmousedown="handlePan(0,-1)">
                  <use xlink:href="#rim" fill="#404040">
                        <set attributeName="fill" to="#808080" begin="arrowUp.mouseover" end="arrowUp.mouseout"/>
                  </use>
                  <path fill="none" stroke="white" stroke-width="1.5" d="M0,-3.0v7 M-2.5,-0.5L0,-3.0L2.5,-0.5"/>
                </g>
                <g id="arrowRight" xlink:href="#dirArrow" transform="rotate(90) translate(36 -43)" onmousedown="handlePan(1,0)">
                  <use xlink:href="#rim" fill="#404040">
                        <set attributeName="fill" to="#808080" begin="arrowRight.mouseover" end="arrowRight.mouseout"/>
                  </use>
                  <path fill="none" stroke="white" stroke-width="1.5" d="M0,-3.0v7 M-2.5,-0.5L0,-3.0L2.5,-0.5"/>
                </g>
                <g id="arrowDown" xlink:href="#dirArrow" transform="rotate(180) translate(-30 -48)" onmousedown="handlePan(0,1)">
                  <use xlink:href="#rim" fill="#404040">
                        <set attributeName="fill" to="#808080" begin="arrowDown.mouseover" end="arrowDown.mouseout"/>
                  </use>
                  <path fill="none" stroke="white" stroke-width="1.5" d="M0,-3.0v7 M-2.5,-0.5L0,-3.0L2.5,-0.5"/>
                </g>
                <g id="arrowLeft" xlink:href="#dirArrow" transform="rotate(270) translate(-36 17)" onmousedown="handlePan(-1,0)">
                  <use xlink:href="#rim" fill="#404040">
                        <set attributeName="fill" to="#808080" begin="arrowLeft.mouseover" end="arrowLeft.mouseout"/>
                  </use>
                  <path fill="none" stroke="white" stroke-width="1.5" d="M0,-3.0v7 M-2.5,-0.5L0,-3.0L2.5,-0.5"/>
                </g>
        </g>
</svg>
