<?xml version="1.0" encoding="UTF-8" standalone="no"?>
<!DOCTYPE svg PUBLIC "-//W3C//DTD SVG 1.1//EN"
 "http://www.w3.org/Graphics/SVG/1.1/DTD/svg11.dtd">
<!-- Generated by graphviz version 2.26.3 (20100126.1600)
 -->
<!-- Title: G Pages: 1 -->
<!--zoomable 1064 -->
<svg id="main" version="1.1" xmlns="http://www.w3.org/2000/svg" xmlns:xlink="http://www.w3.org/1999/xlink" xml:space="preserve" onload="init(evt)">
        <defs>
                <circle id="rim" cx="0" cy="0" r="7"/>
                <circle id="rim2" cx="0" cy="0" r="3.5"/>
                <g id="zoomPlus">
                        <use xlink:href="#rim" fill="#404040">
                                <set attributeName="fill" to="#808080" begin="zoomplus.mouseover" end="zoomplus.mouseout"/>
                        </use>
                        <path d="M-4,0h8M0,-4v8" fill="none" stroke="white" stroke-width="1.5" pointer-events="none"/>
                </g>
                <g id="zoomMin">
                        <use xlink:href="#rim" fill="#404040">
                                <set attributeName="fill" to="#808080" begin="zoomminus.mouseover" end="zoomminus.mouseout"/>
                        </use>
                        <path d="M-4,0h8" fill="none" stroke="white" stroke-width="1.5" pointer-events="none"/>
                </g>
                <g id="dirArrow">
                        <path fill="none" stroke="white" stroke-width="1.5" d="M0,-3.0v7 M-2.5,-0.5L0,-3.0L2.5,-0.5"/>
                </g>
               <g id="resetDef">
                       <use xlink:href="#rim2" fill="#404040">
                               <set attributeName="fill" to="#808080" begin="reset.mouseover" end="reset.mouseout"/>
                       </use>
               </g>
        </defs>

<script type="text/javascript">
var viewWidth = 1779;
var viewHeight = 1064;
var sectionId = 'dynsection-0';
</script>
<script xlink:href="svgpan.js"/>
<svg id="graph" class="graph">
<g id="viewport">
<title>G</title>
<polygon fill="white" stroke="white" points="-4,5 -4,-1060 1776,-1060 1776,5 -4,5"/>
<!-- Node1 -->
<g id="node1" class="node"><title>Node1</title>
<polygon fill="#bfbfbf" stroke="black" points="756,-740.5 756,-829.5 946,-829.5 946,-740.5 756,-740.5"/>
<text text-anchor="middle" x="851" y="-816.5" font-family="Helvetica,sans-Serif" font-size="10.00">GeneticAlgorithm.Core.GeneticOperator</text>
<polyline fill="none" stroke="black" points="756,-808.5 946,-808.5 "/>
<text text-anchor="middle" x="851" y="-795.5" font-family="Helvetica,sans-Serif" font-size="10.00"> </text>
<polyline fill="none" stroke="black" points="756,-787.5 946,-787.5 "/>
<text text-anchor="start" x="764" y="-774.5" font-family="Helvetica,sans-Serif" font-size="10.00">+ initialize()</text>
<text text-anchor="start" x="764" y="-761.5" font-family="Helvetica,sans-Serif" font-size="10.00">+ iterate()</text>
<text text-anchor="start" x="764" y="-748.5" font-family="Helvetica,sans-Serif" font-size="10.00">+ finalize()</text>
</g>
<!-- Node4 -->
<g id="node7" class="node"><title>Node4</title>
<a xlink:href="classGeneticAlgorithm_1_1Core_1_1BasePeriodicOperator.html" target="_top" xlink:title="A class that serves as a base for all periodic operators.">
<polygon fill="white" stroke="black" points="125,-562.5 125,-703.5 339,-703.5 339,-562.5 125,-562.5"/>
<text text-anchor="middle" x="232" y="-690.5" font-family="Helvetica,sans-Serif" font-size="10.00">GeneticAlgorithm.Core.BasePeriodicOperator</text>
<polyline fill="none" stroke="black" points="125,-682.5 339,-682.5 "/>
<text text-anchor="start" x="133" y="-669.5" font-family="Helvetica,sans-Serif" font-size="10.00">+ iterationCounter</text>
<text text-anchor="start" x="133" y="-656.5" font-family="Helvetica,sans-Serif" font-size="10.00">+ evaluationCounter</text>
<text text-anchor="start" x="133" y="-643.5" font-family="Helvetica,sans-Serif" font-size="10.00">+ iterationFrequency</text>
<text text-anchor="start" x="133" y="-630.5" font-family="Helvetica,sans-Serif" font-size="10.00">+ evaluationFrequency</text>
<polyline fill="none" stroke="black" points="125,-622.5 339,-622.5 "/>
<text text-anchor="start" x="133" y="-609.5" font-family="Helvetica,sans-Serif" font-size="10.00">+ __init__()</text>
<text text-anchor="start" x="133" y="-596.5" font-family="Helvetica,sans-Serif" font-size="10.00">+ iterationCallback()</text>
<text text-anchor="start" x="133" y="-583.5" font-family="Helvetica,sans-Serif" font-size="10.00">+ evaluationCallback()</text>
<text text-anchor="start" x="133" y="-570.5" font-family="Helvetica,sans-Serif" font-size="10.00">+ iterate()</text>
</a>
</g>
<!-- Node1&#45;&gt;Node4 -->
<g id="edge6" class="edge"><title>Node1&#45;&gt;Node4</title>
<path fill="none" stroke="midnightblue" d="M745.803,-779.943C641.9,-772.226 479.859,-752.799 348,-704 345.011,-702.894 342.014,-701.707 339.019,-700.45"/>
<polygon fill="none" stroke="midnightblue" points="745.76,-783.449 755.986,-780.675 746.263,-776.467 745.76,-783.449"/>
</g>
<!-- Node9 -->
<g id="node17" class="node"><title>Node9</title>
<a xlink:href="classGeneticAlgorithm_1_1Core_1_1Crossover.html" target="_top" xlink:title="Crossover two individuals from population.matingPool with probability population.crossoverProbability...">
<polygon fill="white" stroke="black" points="357,-601.5 357,-664.5 521,-664.5 521,-601.5 357,-601.5"/>
<text text-anchor="middle" x="439" y="-651.5" font-family="Helvetica,sans-Serif" font-size="10.00">GeneticAlgorithm.Core.Crossover</text>
<polyline fill="none" stroke="black" points="357,-643.5 521,-643.5 "/>
<text text-anchor="start" x="365" y="-630.5" font-family="Helvetica,sans-Serif" font-size="10.00">+ iterate</text>
<polyline fill="none" stroke="black" points="357,-622.5 521,-622.5 "/>
<text text-anchor="start" x="365" y="-609.5" font-family="Helvetica,sans-Serif" font-size="10.00">+ cross()</text>
</a>
</g>
<!-- Node1&#45;&gt;Node9 -->
<g id="edge16" class="edge"><title>Node1&#45;&gt;Node9</title>
<path fill="none" stroke="midnightblue" d="M745.557,-769.778C680.995,-757.734 598.001,-737.258 530,-704 509.299,-693.876 488.833,-678.52 472.568,-664.676"/>
<polygon fill="none" stroke="midnightblue" points="745.289,-773.287 755.755,-771.639 746.546,-766.401 745.289,-773.287"/>
</g>
<!-- Node10 -->
<g id="node19" class="node"><title>Node10</title>
<a xlink:href="classGeneticAlgorithm_1_1Core_1_1Mutate.html" target="_top" xlink:title="Mutate an individual.">
<polygon fill="white" stroke="black" points="538.5,-601.5 538.5,-664.5 687.5,-664.5 687.5,-601.5 538.5,-601.5"/>
<text text-anchor="middle" x="613" y="-651.5" font-family="Helvetica,sans-Serif" font-size="10.00">GeneticAlgorithm.Core.Mutate</text>
<polyline fill="none" stroke="black" points="538.5,-643.5 687.5,-643.5 "/>
<text text-anchor="start" x="546.5" y="-630.5" font-family="Helvetica,sans-Serif" font-size="10.00">+ iterate</text>
<polyline fill="none" stroke="black" points="538.5,-622.5 687.5,-622.5 "/>
<text text-anchor="start" x="546.5" y="-609.5" font-family="Helvetica,sans-Serif" font-size="10.00">+ mutate()</text>
</a>
</g>
<!-- Node1&#45;&gt;Node10 -->
<g id="edge18" class="edge"><title>Node1&#45;&gt;Node10</title>
<path fill="none" stroke="midnightblue" d="M747.974,-735.349C730.232,-725.626 712.278,-715.008 696,-704 678.721,-692.315 660.967,-677.564 646.336,-664.538"/>
<polygon fill="none" stroke="midnightblue" points="746.761,-738.673 757.222,-740.35 750.09,-732.515 746.761,-738.673"/>
</g>
<!-- Node11 -->
<g id="node21" class="node"><title>Node11</title>
<a xlink:href="classGeneticAlgorithm_1_1EvaluationOperators_1_1BaseEvaluationOperator.html" target="_top" xlink:title="This class provides an easy way of developing evaluation operators that only evaluate recently replac...">
<polygon fill="white" stroke="black" points="705,-582 705,-684 997,-684 997,-582 705,-582"/>
<text text-anchor="middle" x="851" y="-671" font-family="Helvetica,sans-Serif" font-size="10.00">GeneticAlgorithm.EvaluationOperators.BaseEvaluationOperator</text>
<polyline fill="none" stroke="black" points="705,-663 997,-663 "/>
<text text-anchor="start" x="713" y="-650" font-family="Helvetica,sans-Serif" font-size="10.00">+ initialize</text>
<text text-anchor="start" x="713" y="-637" font-family="Helvetica,sans-Serif" font-size="10.00">+ iterate</text>
<text text-anchor="start" x="713" y="-624" font-family="Helvetica,sans-Serif" font-size="10.00">+ finalize</text>
<polyline fill="none" stroke="black" points="705,-616 997,-616 "/>
<text text-anchor="start" x="713" y="-603" font-family="Helvetica,sans-Serif" font-size="10.00">+ evaluateIndividual()</text>
<text text-anchor="start" x="713" y="-590" font-family="Helvetica,sans-Serif" font-size="10.00">+ evaluate()</text>
</a>
</g>
<!-- Node1&#45;&gt;Node11 -->
<g id="edge20" class="edge"><title>Node1&#45;&gt;Node11</title>
<path fill="none" stroke="midnightblue" d="M851,-730.063C851,-715.076 851,-698.902 851,-684.136"/>
<polygon fill="none" stroke="midnightblue" points="847.5,-730.217 851,-740.217 854.5,-730.217 847.5,-730.217"/>
</g>
<!-- Node16 -->
<g id="node31" class="node"><title>Node16</title>
<a xlink:href="classGeneticAlgorithm_1_1SelectionOperators_1_1KTournament.html" target="_top" xlink:title="A selection operator that implements the k&#45;tournament algorithm.">
<polygon fill="white" stroke="black" points="1014.5,-582 1014.5,-684 1253.5,-684 1253.5,-582 1014.5,-582"/>
<text text-anchor="middle" x="1134" y="-671" font-family="Helvetica,sans-Serif" font-size="10.00">GeneticAlgorithm.SelectionOperators.KTournament</text>
<polyline fill="none" stroke="black" points="1014.5,-663 1253.5,-663 "/>
<text text-anchor="start" x="1022.5" y="-650" font-family="Helvetica,sans-Serif" font-size="10.00">+ k</text>
<text text-anchor="start" x="1022.5" y="-637" font-family="Helvetica,sans-Serif" font-size="10.00">+ iterate</text>
<polyline fill="none" stroke="black" points="1014.5,-629 1253.5,-629 "/>
<text text-anchor="start" x="1022.5" y="-616" font-family="Helvetica,sans-Serif" font-size="10.00">+ __init__()</text>
<text text-anchor="start" x="1022.5" y="-603" font-family="Helvetica,sans-Serif" font-size="10.00">+ selectBest()</text>
<text text-anchor="start" x="1022.5" y="-590" font-family="Helvetica,sans-Serif" font-size="10.00">+ select()</text>
</a>
</g>
<!-- Node1&#45;&gt;Node16 -->
<g id="edge30" class="edge"><title>Node1&#45;&gt;Node16</title>
<path fill="none" stroke="midnightblue" d="M946.304,-735.672C966.084,-725.3 986.759,-714.362 1006,-704 1017.86,-697.614 1030.29,-690.829 1042.56,-684.084"/>
<polygon fill="none" stroke="midnightblue" points="944.522,-732.654 937.287,-740.393 947.769,-738.855 944.522,-732.654"/>
</g>
<!-- Node17 -->
<g id="node33" class="node"><title>Node17</title>
<a xlink:href="classGeneticAlgorithm_1_1SelectionOperators_1_1SelectLethals.html" target="_top" xlink:title="Select the individuals to replace based on the population.maximize flag and the population.genSize property.">
<polygon fill="white" stroke="black" points="1271,-601.5 1271,-664.5 1511,-664.5 1511,-601.5 1271,-601.5"/>
<text text-anchor="middle" x="1391" y="-651.5" font-family="Helvetica,sans-Serif" font-size="10.00">GeneticAlgorithm.SelectionOperators.SelectLethals</text>
<polyline fill="none" stroke="black" points="1271,-643.5 1511,-643.5 "/>
<text text-anchor="start" x="1279" y="-630.5" font-family="Helvetica,sans-Serif" font-size="10.00">+ iterate</text>
<polyline fill="none" stroke="black" points="1271,-622.5 1511,-622.5 "/>
<text text-anchor="start" x="1279" y="-609.5" font-family="Helvetica,sans-Serif" font-size="10.00">+ select()</text>
</a>
</g>
<!-- Node1&#45;&gt;Node17 -->
<g id="edge32" class="edge"><title>Node1&#45;&gt;Node17</title>
<path fill="none" stroke="midnightblue" d="M956.398,-773.332C1040.89,-761.835 1161.52,-740.55 1262,-704 1289.75,-693.907 1318.72,-678.469 1342.16,-664.563"/>
<polygon fill="none" stroke="midnightblue" points="955.725,-769.891 946.277,-774.686 956.653,-776.829 955.725,-769.891"/>
</g>
<!-- Node18 -->
<g id="node35" class="node"><title>Node18</title>
<a xlink:href="classGeneticAlgorithm_1_1SelectionOperators_1_1SUSSelection.html" target="_top" xlink:title="This operator performs stochastic uniform selection over the population, updating the field matingPoo...">
<polygon fill="white" stroke="black" points="1529,-601.5 1529,-664.5 1771,-664.5 1771,-601.5 1529,-601.5"/>
<text text-anchor="middle" x="1650" y="-651.5" font-family="Helvetica,sans-Serif" font-size="10.00">GeneticAlgorithm.SelectionOperators.SUSSelection</text>
<polyline fill="none" stroke="black" points="1529,-643.5 1771,-643.5 "/>
<text text-anchor="start" x="1537" y="-630.5" font-family="Helvetica,sans-Serif" font-size="10.00">+ iterate</text>
<polyline fill="none" stroke="black" points="1529,-622.5 1771,-622.5 "/>
<text text-anchor="start" x="1537" y="-609.5" font-family="Helvetica,sans-Serif" font-size="10.00">+ select()</text>
</a>
</g>
<!-- Node1&#45;&gt;Node18 -->
<g id="edge34" class="edge"><title>Node1&#45;&gt;Node18</title>
<path fill="none" stroke="midnightblue" d="M956.735,-777.094C1118.06,-764.204 1417.73,-736.782 1520,-704 1548.9,-694.738 1578.77,-678.929 1602.59,-664.577"/>
<polygon fill="none" stroke="midnightblue" points="956.004,-773.64 946.312,-777.921 956.558,-780.619 956.004,-773.64"/>
</g>
<!-- Node2 -->
<g id="node2" class="node"><title>Node2</title>
<a xlink:href="classGeneticAlgorithm_1_1Core_1_1GABaseObject.html" target="_top" xlink:title="The base object provides the functions repr and str.">
<polygon fill="white" stroke="black" points="759,-866.5 759,-955.5 943,-955.5 943,-866.5 759,-866.5"/>
<text text-anchor="middle" x="851" y="-942.5" font-family="Helvetica,sans-Serif" font-size="10.00">GeneticAlgorithm.Core.GABaseObject</text>
<polyline fill="none" stroke="black" points="759,-934.5 943,-934.5 "/>
<text text-anchor="middle" x="851" y="-921.5" font-family="Helvetica,sans-Serif" font-size="10.00"> </text>
<polyline fill="none" stroke="black" points="759,-913.5 943,-913.5 "/>
<text text-anchor="start" x="767" y="-900.5" font-family="Helvetica,sans-Serif" font-size="10.00">+ __init__()</text>
<text text-anchor="start" x="767" y="-887.5" font-family="Helvetica,sans-Serif" font-size="10.00">+ __repr__()</text>
<text text-anchor="start" x="767" y="-874.5" font-family="Helvetica,sans-Serif" font-size="10.00">+ __str__()</text>
</a>
</g>
<!-- Node2&#45;&gt;Node1 -->
<g id="edge2" class="edge"><title>Node2&#45;&gt;Node1</title>
<path fill="none" stroke="midnightblue" d="M851,-856.013C851,-847.198 851,-838.169 851,-829.633"/>
<polygon fill="none" stroke="midnightblue" points="847.5,-856.222 851,-866.222 854.5,-856.222 847.5,-856.222"/>
</g>
<!-- Node3 -->
<g id="node4" class="node"><title>Node3</title>
<a xlink:href="classobject.html" target="_top" xlink:title="{object\n||}">
<polygon fill="white" stroke="black" points="829.5,-992.5 829.5,-1055.5 872.5,-1055.5 872.5,-992.5 829.5,-992.5"/>
<text text-anchor="middle" x="851" y="-1042.5" font-family="Helvetica,sans-Serif" font-size="10.00">object</text>
<polyline fill="none" stroke="black" points="829.5,-1034.5 872.5,-1034.5 "/>
<text text-anchor="middle" x="851" y="-1021.5" font-family="Helvetica,sans-Serif" font-size="10.00"> </text>
<polyline fill="none" stroke="black" points="829.5,-1013.5 872.5,-1013.5 "/>
<text text-anchor="middle" x="851" y="-1000.5" font-family="Helvetica,sans-Serif" font-size="10.00"> </text>
</a>
</g>
<!-- Node3&#45;&gt;Node2 -->
<g id="edge4" class="edge"><title>Node3&#45;&gt;Node2</title>
<path fill="none" stroke="midnightblue" d="M851,-982.015C851,-973.403 851,-964.307 851,-955.606"/>
<polygon fill="none" stroke="midnightblue" points="847.5,-982.222 851,-992.222 854.5,-982.223 847.5,-982.222"/>
</g>
<!-- Node5 -->
<g id="node9" class="node"><title>Node5</title>
<a xlink:href="classGeneticAlgorithm_1_1LoggingOperators_1_1BestLogger.html" target="_top" xlink:title="This class stores the best individual of the population, if it is better than the last individual fou...">
<polygon fill="white" stroke="black" points="8,-332.5 8,-525.5 232,-525.5 232,-332.5 8,-332.5"/>
<text text-anchor="middle" x="120" y="-512.5" font-family="Helvetica,sans-Serif" font-size="10.00">GeneticAlgorithm.LoggingOperators.BestLogger</text>
<polyline fill="none" stroke="black" points="8,-504.5 232,-504.5 "/>
<text text-anchor="start" x="16" y="-491.5" font-family="Helvetica,sans-Serif" font-size="10.00">+ bestLog</text>
<text text-anchor="start" x="16" y="-478.5" font-family="Helvetica,sans-Serif" font-size="10.00">+ numEvaluations</text>
<text text-anchor="start" x="16" y="-465.5" font-family="Helvetica,sans-Serif" font-size="10.00">+ criterion</text>
<text text-anchor="start" x="16" y="-452.5" font-family="Helvetica,sans-Serif" font-size="10.00">+ maximize</text>
<text text-anchor="start" x="16" y="-439.5" font-family="Helvetica,sans-Serif" font-size="10.00">+ iterationFrequency</text>
<text text-anchor="start" x="16" y="-426.5" font-family="Helvetica,sans-Serif" font-size="10.00">+ iterationCallback</text>
<text text-anchor="start" x="16" y="-413.5" font-family="Helvetica,sans-Serif" font-size="10.00">+ evaluationCallback</text>
<polyline fill="none" stroke="black" points="8,-405.5 232,-405.5 "/>
<text text-anchor="start" x="16" y="-392.5" font-family="Helvetica,sans-Serif" font-size="10.00">+ __init__()</text>
<text text-anchor="start" x="16" y="-379.5" font-family="Helvetica,sans-Serif" font-size="10.00">+ logCallback()</text>
<text text-anchor="start" x="16" y="-366.5" font-family="Helvetica,sans-Serif" font-size="10.00">+ addToLog()</text>
<text text-anchor="start" x="16" y="-353.5" font-family="Helvetica,sans-Serif" font-size="10.00">+ getBest()</text>
<text text-anchor="start" x="16" y="-340.5" font-family="Helvetica,sans-Serif" font-size="10.00">+ finalize()</text>
</a>
</g>
<!-- Node4&#45;&gt;Node5 -->
<g id="edge8" class="edge"><title>Node4&#45;&gt;Node5</title>
<path fill="none" stroke="midnightblue" d="M188.204,-553.228C183.214,-544.139 178.088,-534.803 172.995,-525.527"/>
<polygon fill="none" stroke="midnightblue" points="185.261,-555.142 193.142,-562.223 191.398,-551.773 185.261,-555.142"/>
</g>
<!-- Node8 -->
<g id="node15" class="node"><title>Node8</title>
<a xlink:href="classGeneticAlgorithm_1_1LoggingOperators_1_1LogGenerations.html" target="_top" xlink:title="Log the full population of a GA.">
<polygon fill="white" stroke="black" points="250,-365 250,-493 492,-493 492,-365 250,-365"/>
<text text-anchor="middle" x="371" y="-480" font-family="Helvetica,sans-Serif" font-size="10.00">GeneticAlgorithm.LoggingOperators.LogGenerations</text>
<polyline fill="none" stroke="black" points="250,-472 492,-472 "/>
<text text-anchor="start" x="258" y="-459" font-family="Helvetica,sans-Serif" font-size="10.00">+ generationLog</text>
<text text-anchor="start" x="258" y="-446" font-family="Helvetica,sans-Serif" font-size="10.00">+ numEvaluations</text>
<text text-anchor="start" x="258" y="-433" font-family="Helvetica,sans-Serif" font-size="10.00">+ iterationCallback</text>
<text text-anchor="start" x="258" y="-420" font-family="Helvetica,sans-Serif" font-size="10.00">+ evaluationCallback</text>
<polyline fill="none" stroke="black" points="250,-412 492,-412 "/>
<text text-anchor="start" x="258" y="-399" font-family="Helvetica,sans-Serif" font-size="10.00">+ __init__()</text>
<text text-anchor="start" x="258" y="-386" font-family="Helvetica,sans-Serif" font-size="10.00">+ logPopulation()</text>
<text text-anchor="start" x="258" y="-373" font-family="Helvetica,sans-Serif" font-size="10.00">+ finalize()</text>
</a>
</g>
<!-- Node4&#45;&gt;Node8 -->
<g id="edge14" class="edge"><title>Node4&#45;&gt;Node8</title>
<path fill="none" stroke="midnightblue" d="M286.024,-553.713C299.689,-533.658 314.195,-512.368 327.281,-493.163"/>
<polygon fill="none" stroke="midnightblue" points="282.964,-551.988 280.225,-562.223 288.749,-555.93 282.964,-551.988"/>
</g>
<!-- Node6 -->
<g id="node11" class="node"><title>Node6</title>
<a xlink:href="classGeneticAlgorithm_1_1PlottingOperators_1_1PlotBestLogger.html" target="_top" xlink:title="A BestLogger specialization that plots the historic progression of the best criterion with each tick...">
<polygon fill="white" stroke="black" points="0,-167 0,-295 240,-295 240,-167 0,-167"/>
<text text-anchor="middle" x="120" y="-282" font-family="Helvetica,sans-Serif" font-size="10.00">GeneticAlgorithm.PlottingOperators.PlotBestLogger</text>
<polyline fill="none" stroke="black" points="0,-274 240,-274 "/>
<text text-anchor="start" x="8" y="-261" font-family="Helvetica,sans-Serif" font-size="10.00">+ criterionAxis</text>
<text text-anchor="start" x="8" y="-248" font-family="Helvetica,sans-Serif" font-size="10.00">+ figure</text>
<text text-anchor="start" x="8" y="-235" font-family="Helvetica,sans-Serif" font-size="10.00">+ iterationCallback</text>
<text text-anchor="start" x="8" y="-222" font-family="Helvetica,sans-Serif" font-size="10.00">+ evaluationCallback</text>
<polyline fill="none" stroke="black" points="0,-214 240,-214 "/>
<text text-anchor="start" x="8" y="-201" font-family="Helvetica,sans-Serif" font-size="10.00">+ __init__()</text>
<text text-anchor="start" x="8" y="-188" font-family="Helvetica,sans-Serif" font-size="10.00">+ plotCallback()</text>
<text text-anchor="start" x="8" y="-175" font-family="Helvetica,sans-Serif" font-size="10.00">+ finalize()</text>
</a>
</g>
<!-- Node5&#45;&gt;Node6 -->
<g id="edge10" class="edge"><title>Node5&#45;&gt;Node6</title>
<path fill="none" stroke="midnightblue" d="M120,-322.234C120,-312.957 120,-303.772 120,-295.007"/>
<polygon fill="none" stroke="midnightblue" points="116.5,-322.32 120,-332.32 123.5,-322.32 116.5,-322.32"/>
</g>
<!-- Node7 -->
<g id="node13" class="node"><title>Node7</title>
<a xlink:href="classGeneticAlgorithm_1_1GraphLibrary_1_1BestPathPlotLogger.html" target="_top" xlink:title="This class extends the PlottingOperators::PlotBestLogger to display the best tour found so far...">
<polygon fill="white" stroke="black" points="0,-1 0,-129 240,-129 240,-1 0,-1"/>
<text text-anchor="middle" x="120" y="-116" font-family="Helvetica,sans-Serif" font-size="10.00">GeneticAlgorithm.GraphLibrary.BestPathPlotLogger</text>
<polyline fill="none" stroke="black" points="0,-108 240,-108 "/>
<text text-anchor="start" x="8" y="-95" font-family="Helvetica,sans-Serif" font-size="10.00">+ graph</text>
<text text-anchor="start" x="8" y="-82" font-family="Helvetica,sans-Serif" font-size="10.00">+ graphAxis</text>
<text text-anchor="start" x="8" y="-69" font-family="Helvetica,sans-Serif" font-size="10.00">+ maximize</text>
<text text-anchor="start" x="8" y="-56" font-family="Helvetica,sans-Serif" font-size="10.00">+ iterationCallback</text>
<text text-anchor="start" x="8" y="-43" font-family="Helvetica,sans-Serif" font-size="10.00">+ evaluationCallback</text>
<polyline fill="none" stroke="black" points="0,-35 240,-35 "/>
<text text-anchor="start" x="8" y="-22" font-family="Helvetica,sans-Serif" font-size="10.00">+ __init__()</text>
<text text-anchor="start" x="8" y="-9" font-family="Helvetica,sans-Serif" font-size="10.00">+ plotGraphCallback()</text>
</a>
</g>
<!-- Node6&#45;&gt;Node7 -->
<g id="edge12" class="edge"><title>Node6&#45;&gt;Node7</title>
<path fill="none" stroke="midnightblue" d="M120,-156.533C120,-147.347 120,-138.02 120,-129.009"/>
<polygon fill="none" stroke="midnightblue" points="116.5,-156.82 120,-166.82 123.5,-156.82 116.5,-156.82"/>
</g>
<!-- Node12 -->
<g id="node23" class="node"><title>Node12</title>
<a xlink:href="classGADemo_1_1NumOnes.html" target="_top" xlink:title="An evaluation operator that computes the number of ones in a segment whose data can be converted to b...">
<polygon fill="white" stroke="black" points="569,-391 569,-467 679,-467 679,-391 569,-391"/>
<text text-anchor="middle" x="624" y="-454" font-family="Helvetica,sans-Serif" font-size="10.00">GADemo.NumOnes</text>
<polyline fill="none" stroke="black" points="569,-446 679,-446 "/>
<text text-anchor="middle" x="624" y="-433" font-family="Helvetica,sans-Serif" font-size="10.00"> </text>
<polyline fill="none" stroke="black" points="569,-425 679,-425 "/>
<text text-anchor="start" x="577" y="-412" font-family="Helvetica,sans-Serif" font-size="10.00">+ segmentOnes()</text>
<text text-anchor="start" x="577" y="-399" font-family="Helvetica,sans-Serif" font-size="10.00">+ evaluateIndividual()</text>
</a>
</g>
<!-- Node11&#45;&gt;Node12 -->
<g id="edge22" class="edge"><title>Node11&#45;&gt;Node12</title>
<path fill="none" stroke="midnightblue" d="M750.556,-576.302C728.634,-561.488 706.487,-544.444 688,-526 670.718,-508.758 655.475,-486.145 644.204,-467.09"/>
<polygon fill="none" stroke="midnightblue" points="748.673,-579.252 758.939,-581.869 752.545,-573.421 748.673,-579.252"/>
</g>
<!-- Node13 -->
<g id="node25" class="node"><title>Node13</title>
<a xlink:href="classGeneticAlgorithm_1_1GraphLibrary_1_1Ordonez.html" target="_top" xlink:title="A GeneticAlgorithm::Core::GeneticOperator derivate that decodes a binary genotype as a permutation of...">
<polygon fill="white" stroke="black" points="697,-397.5 697,-460.5 887,-460.5 887,-397.5 697,-397.5"/>
<text text-anchor="middle" x="792" y="-447.5" font-family="Helvetica,sans-Serif" font-size="10.00">GeneticAlgorithm.GraphLibrary.Ordonez</text>
<polyline fill="none" stroke="black" points="697,-439.5 887,-439.5 "/>
<text text-anchor="middle" x="792" y="-426.5" font-family="Helvetica,sans-Serif" font-size="10.00"> </text>
<polyline fill="none" stroke="black" points="697,-418.5 887,-418.5 "/>
<text text-anchor="start" x="705" y="-405.5" font-family="Helvetica,sans-Serif" font-size="10.00">+ evaluateIndividual()</text>
</a>
</g>
<!-- Node11&#45;&gt;Node13 -->
<g id="edge24" class="edge"><title>Node11&#45;&gt;Node13</title>
<path fill="none" stroke="midnightblue" d="M833.405,-572.165C822.787,-535.449 809.695,-490.182 801.111,-460.503"/>
<polygon fill="none" stroke="midnightblue" points="830.047,-573.152 836.188,-581.786 836.772,-571.207 830.047,-573.152"/>
</g>
<!-- Node14 -->
<g id="node27" class="node"><title>Node14</title>
<a xlink:href="classGeneticAlgorithm_1_1GraphLibrary_1_1PathLengthFitness.html" target="_top" xlink:title="A GeneticAlgorithm::Core::GeneticOperator derivate that uses.">
<polygon fill="white" stroke="black" points="904.5,-391 904.5,-467 1139.5,-467 1139.5,-391 904.5,-391"/>
<text text-anchor="middle" x="1022" y="-454" font-family="Helvetica,sans-Serif" font-size="10.00">GeneticAlgorithm.GraphLibrary.PathLengthFitness</text>
<polyline fill="none" stroke="black" points="904.5,-446 1139.5,-446 "/>
<text text-anchor="start" x="912.5" y="-433" font-family="Helvetica,sans-Serif" font-size="10.00">+ graph</text>
<polyline fill="none" stroke="black" points="904.5,-425 1139.5,-425 "/>
<text text-anchor="start" x="912.5" y="-412" font-family="Helvetica,sans-Serif" font-size="10.00">+ __init__()</text>
<text text-anchor="start" x="912.5" y="-399" font-family="Helvetica,sans-Serif" font-size="10.00">+ evaluateIndividual()</text>
</a>
</g>
<!-- Node11&#45;&gt;Node14 -->
<g id="edge26" class="edge"><title>Node11&#45;&gt;Node14</title>
<path fill="none" stroke="midnightblue" d="M900.363,-574.111C929.259,-539.639 964.903,-497.115 990.117,-467.035"/>
<polygon fill="none" stroke="midnightblue" points="897.672,-571.873 893.93,-581.786 903.036,-576.37 897.672,-571.873"/>
</g>
<!-- Node15 -->
<g id="node29" class="node"><title>Node15</title>
<a xlink:href="classKnapsackDemo_1_1Knapsack.html" target="_top" xlink:title="An evaluation operator that computes the relaxed version of the objective function used to solve a kn...">
<polygon fill="white" stroke="black" points="1156.5,-371.5 1156.5,-486.5 1289.5,-486.5 1289.5,-371.5 1156.5,-371.5"/>
<text text-anchor="middle" x="1223" y="-473.5" font-family="Helvetica,sans-Serif" font-size="10.00">KnapsackDemo.Knapsack</text>
<polyline fill="none" stroke="black" points="1156.5,-465.5 1289.5,-465.5 "/>
<text text-anchor="start" x="1164.5" y="-452.5" font-family="Helvetica,sans-Serif" font-size="10.00">+ maxVolume</text>
<text text-anchor="start" x="1164.5" y="-439.5" font-family="Helvetica,sans-Serif" font-size="10.00">+ objectVolumes</text>
<text text-anchor="start" x="1164.5" y="-426.5" font-family="Helvetica,sans-Serif" font-size="10.00">+ objectCosts</text>
<text text-anchor="start" x="1164.5" y="-413.5" font-family="Helvetica,sans-Serif" font-size="10.00">+ volumeLambda</text>
<polyline fill="none" stroke="black" points="1156.5,-405.5 1289.5,-405.5 "/>
<text text-anchor="start" x="1164.5" y="-392.5" font-family="Helvetica,sans-Serif" font-size="10.00">+ __init__()</text>
<text text-anchor="start" x="1164.5" y="-379.5" font-family="Helvetica,sans-Serif" font-size="10.00">+ evaluateIndividual()</text>
</a>
</g>
<!-- Node11&#45;&gt;Node15 -->
<g id="edge28" class="edge"><title>Node11&#45;&gt;Node15</title>
<path fill="none" stroke="midnightblue" d="M965.212,-577.884C978.813,-572.157 992.618,-566.717 1006,-562 1067.4,-540.354 1093.56,-561.705 1148,-526 1163.49,-515.844 1177.11,-501.388 1188.35,-486.727"/>
<polygon fill="none" stroke="midnightblue" points="963.658,-574.742 955.837,-581.89 966.408,-581.18 963.658,-574.742"/>
</g>
</g>
</svg>
        <g id="navigator" transform="translate(0 0)" fill="#404254">
                <rect fill="#f2f5e9" fill-opacity="0.5" stroke="#606060" stroke-width=".5" x="0" y="0" width="60" height="60"/>
                <use id="zoomplus" xlink:href="#zoomPlus" x="17" y="9" onmousedown="handleZoom(evt,'in')"/>
                <use id="zoomminus" xlink:href="#zoomMin" x="42" y="9" onmousedown="handleZoom(evt,'out')"/>
                <use id="reset" xlink:href="#resetDef" x="30" y="36" onmousedown="handleReset()"/>
                <g id="arrowUp" xlink:href="#dirArrow" transform="translate(30 24)" onmousedown="handlePan(0,-1)">
                  <use xlink:href="#rim" fill="#404040">
                        <set attributeName="fill" to="#808080" begin="arrowUp.mouseover" end="arrowUp.mouseout"/>
                  </use>
                  <path fill="none" stroke="white" stroke-width="1.5" d="M0,-3.0v7 M-2.5,-0.5L0,-3.0L2.5,-0.5"/>
                </g>
                <g id="arrowRight" xlink:href="#dirArrow" transform="rotate(90) translate(36 -43)" onmousedown="handlePan(1,0)">
                  <use xlink:href="#rim" fill="#404040">
                        <set attributeName="fill" to="#808080" begin="arrowRight.mouseover" end="arrowRight.mouseout"/>
                  </use>
                  <path fill="none" stroke="white" stroke-width="1.5" d="M0,-3.0v7 M-2.5,-0.5L0,-3.0L2.5,-0.5"/>
                </g>
                <g id="arrowDown" xlink:href="#dirArrow" transform="rotate(180) translate(-30 -48)" onmousedown="handlePan(0,1)">
                  <use xlink:href="#rim" fill="#404040">
                        <set attributeName="fill" to="#808080" begin="arrowDown.mouseover" end="arrowDown.mouseout"/>
                  </use>
                  <path fill="none" stroke="white" stroke-width="1.5" d="M0,-3.0v7 M-2.5,-0.5L0,-3.0L2.5,-0.5"/>
                </g>
                <g id="arrowLeft" xlink:href="#dirArrow" transform="rotate(270) translate(-36 17)" onmousedown="handlePan(-1,0)">
                  <use xlink:href="#rim" fill="#404040">
                        <set attributeName="fill" to="#808080" begin="arrowLeft.mouseover" end="arrowLeft.mouseout"/>
                  </use>
                  <path fill="none" stroke="white" stroke-width="1.5" d="M0,-3.0v7 M-2.5,-0.5L0,-3.0L2.5,-0.5"/>
                </g>
        </g>
</svg>
