<?xml version="1.0" encoding="UTF-8" standalone="no"?>
<!DOCTYPE svg PUBLIC "-//W3C//DTD SVG 1.1//EN"
 "http://www.w3.org/Graphics/SVG/1.1/DTD/svg11.dtd">
<!-- Generated by graphviz version 2.26.3 (20100126.1600)
 -->
<!-- Title: G Pages: 1 -->
<!--zoomable 1130 -->
<svg id="main" version="1.1" xmlns="http://www.w3.org/2000/svg" xmlns:xlink="http://www.w3.org/1999/xlink" xml:space="preserve" onload="init(evt)">
        <defs>
                <circle id="rim" cx="0" cy="0" r="7"/>
                <circle id="rim2" cx="0" cy="0" r="3.5"/>
                <g id="zoomPlus">
                        <use xlink:href="#rim" fill="#404040">
                                <set attributeName="fill" to="#808080" begin="zoomplus.mouseover" end="zoomplus.mouseout"/>
                        </use>
                        <path d="M-4,0h8M0,-4v8" fill="none" stroke="white" stroke-width="1.5" pointer-events="none"/>
                </g>
                <g id="zoomMin">
                        <use xlink:href="#rim" fill="#404040">
                                <set attributeName="fill" to="#808080" begin="zoomminus.mouseover" end="zoomminus.mouseout"/>
                        </use>
                        <path d="M-4,0h8" fill="none" stroke="white" stroke-width="1.5" pointer-events="none"/>
                </g>
                <g id="dirArrow">
                        <path fill="none" stroke="white" stroke-width="1.5" d="M0,-3.0v7 M-2.5,-0.5L0,-3.0L2.5,-0.5"/>
                </g>
               <g id="resetDef">
                       <use xlink:href="#rim2" fill="#404040">
                               <set attributeName="fill" to="#808080" begin="reset.mouseover" end="reset.mouseout"/>
                       </use>
               </g>
        </defs>

<script type="text/javascript">
var viewWidth = 1966;
var viewHeight = 1130;
var sectionId = 'dynsection-0';
</script>
<script xlink:href="svgpan.js"/>
<svg id="graph" class="graph">
<g id="viewport">
<title>G</title>
<polygon fill="white" stroke="white" points="-4,5 -4,-1126 1963,-1126 1963,5 -4,5"/>
<!-- Node1 -->
<g id="node1" class="node"><title>Node1</title>
<polygon fill="#bfbfbf" stroke="black" points="1179.5,-1058.5 1179.5,-1121.5 1222.5,-1121.5 1222.5,-1058.5 1179.5,-1058.5"/>
<text text-anchor="middle" x="1201" y="-1108.5" font-family="Helvetica,sans-Serif" font-size="10.00">object</text>
<polyline fill="none" stroke="black" points="1179.5,-1100.5 1222.5,-1100.5 "/>
<text text-anchor="middle" x="1201" y="-1087.5" font-family="Helvetica,sans-Serif" font-size="10.00"> </text>
<polyline fill="none" stroke="black" points="1179.5,-1079.5 1222.5,-1079.5 "/>
<text text-anchor="middle" x="1201" y="-1066.5" font-family="Helvetica,sans-Serif" font-size="10.00"> </text>
</g>
<!-- Node2 -->
<g id="node3" class="node"><title>Node2</title>
<a xlink:href="classGeneticAlgorithm_1_1Core_1_1GABaseObject.html" target="_top" xlink:title="The base object provides the functions repr and str.">
<polygon fill="white" stroke="black" points="1109,-932.5 1109,-1021.5 1293,-1021.5 1293,-932.5 1109,-932.5"/>
<text text-anchor="middle" x="1201" y="-1008.5" font-family="Helvetica,sans-Serif" font-size="10.00">GeneticAlgorithm.Core.GABaseObject</text>
<polyline fill="none" stroke="black" points="1109,-1000.5 1293,-1000.5 "/>
<text text-anchor="middle" x="1201" y="-987.5" font-family="Helvetica,sans-Serif" font-size="10.00"> </text>
<polyline fill="none" stroke="black" points="1109,-979.5 1293,-979.5 "/>
<text text-anchor="start" x="1117" y="-966.5" font-family="Helvetica,sans-Serif" font-size="10.00">+ __init__()</text>
<text text-anchor="start" x="1117" y="-953.5" font-family="Helvetica,sans-Serif" font-size="10.00">+ __repr__()</text>
<text text-anchor="start" x="1117" y="-940.5" font-family="Helvetica,sans-Serif" font-size="10.00">+ __str__()</text>
</a>
</g>
<!-- Node1&#45;&gt;Node2 -->
<g id="edge2" class="edge"><title>Node1&#45;&gt;Node2</title>
<path fill="none" stroke="midnightblue" d="M1201,-1048.02C1201,-1039.4 1201,-1030.31 1201,-1021.61"/>
<polygon fill="none" stroke="midnightblue" points="1197.5,-1048.22 1201,-1058.22 1204.5,-1048.22 1197.5,-1048.22"/>
</g>
<!-- Node3 -->
<g id="node5" class="node"><title>Node3</title>
<a xlink:href="classGABaseObject-demo_1_1GeneticExampleClass.html" target="_top" xlink:title="{GABaseObject&#45;demo.GeneticExampleClass\n||}">
<polygon fill="white" stroke="black" points="341.5,-786.5 341.5,-849.5 550.5,-849.5 550.5,-786.5 341.5,-786.5"/>
<text text-anchor="middle" x="446" y="-836.5" font-family="Helvetica,sans-Serif" font-size="10.00">GABaseObject&#45;demo.GeneticExampleClass</text>
<polyline fill="none" stroke="black" points="341.5,-828.5 550.5,-828.5 "/>
<text text-anchor="middle" x="446" y="-815.5" font-family="Helvetica,sans-Serif" font-size="10.00"> </text>
<polyline fill="none" stroke="black" points="341.5,-807.5 550.5,-807.5 "/>
<text text-anchor="middle" x="446" y="-794.5" font-family="Helvetica,sans-Serif" font-size="10.00"> </text>
</a>
</g>
<!-- Node2&#45;&gt;Node3 -->
<g id="edge4" class="edge"><title>Node2&#45;&gt;Node3</title>
<path fill="none" stroke="midnightblue" d="M1098.79,-970.034C943.308,-958.44 655.275,-932.77 559,-896 530.941,-885.283 503.129,-866.221 482.117,-849.623"/>
<polygon fill="none" stroke="midnightblue" points="1098.6,-973.529 1108.83,-970.777 1099.12,-966.548 1098.6,-973.529"/>
</g>
<!-- Node4 -->
<g id="node7" class="node"><title>Node4</title>
<a xlink:href="classGeneticAlgorithm_1_1Core_1_1BaseChromosomeSegment.html" target="_top" xlink:title="This class defines the minimal expression of a chromosome segment.">
<polygon fill="white" stroke="black" points="567.5,-767 567.5,-869 806.5,-869 806.5,-767 567.5,-767"/>
<text text-anchor="middle" x="687" y="-856" font-family="Helvetica,sans-Serif" font-size="10.00">GeneticAlgorithm.Core.BaseChromosomeSegment</text>
<polyline fill="none" stroke="black" points="567.5,-848 806.5,-848 "/>
<text text-anchor="start" x="575.5" y="-835" font-family="Helvetica,sans-Serif" font-size="10.00">+ data</text>
<polyline fill="none" stroke="black" points="567.5,-827 806.5,-827 "/>
<text text-anchor="start" x="575.5" y="-814" font-family="Helvetica,sans-Serif" font-size="10.00">+ __init__()</text>
<text text-anchor="start" x="575.5" y="-801" font-family="Helvetica,sans-Serif" font-size="10.00">+ randomize()</text>
<text text-anchor="start" x="575.5" y="-788" font-family="Helvetica,sans-Serif" font-size="10.00">+ crossover()</text>
<text text-anchor="start" x="575.5" y="-775" font-family="Helvetica,sans-Serif" font-size="10.00">+ mutate()</text>
</a>
</g>
<!-- Node2&#45;&gt;Node4 -->
<g id="edge6" class="edge"><title>Node2&#45;&gt;Node4</title>
<path fill="none" stroke="midnightblue" d="M1098.76,-965.207C1019.33,-953.771 907.494,-932.629 815,-896 796.854,-888.814 778.354,-879.144 761.265,-869.061"/>
<polygon fill="none" stroke="midnightblue" points="1098.38,-968.688 1108.77,-966.621 1099.36,-961.757 1098.38,-968.688"/>
</g>
<!-- Node6 -->
<g id="node11" class="node"><title>Node6</title>
<a xlink:href="classGeneticAlgorithm_1_1Core_1_1GeneticOperator.html" target="_top" xlink:title="GeneticOperator is the base class that should be used to implement selection, crossover and mutation...">
<polygon fill="white" stroke="black" points="824,-773.5 824,-862.5 1014,-862.5 1014,-773.5 824,-773.5"/>
<text text-anchor="middle" x="919" y="-849.5" font-family="Helvetica,sans-Serif" font-size="10.00">GeneticAlgorithm.Core.GeneticOperator</text>
<polyline fill="none" stroke="black" points="824,-841.5 1014,-841.5 "/>
<text text-anchor="middle" x="919" y="-828.5" font-family="Helvetica,sans-Serif" font-size="10.00"> </text>
<polyline fill="none" stroke="black" points="824,-820.5 1014,-820.5 "/>
<text text-anchor="start" x="832" y="-807.5" font-family="Helvetica,sans-Serif" font-size="10.00">+ initialize()</text>
<text text-anchor="start" x="832" y="-794.5" font-family="Helvetica,sans-Serif" font-size="10.00">+ iterate()</text>
<text text-anchor="start" x="832" y="-781.5" font-family="Helvetica,sans-Serif" font-size="10.00">+ finalize()</text>
</a>
</g>
<!-- Node2&#45;&gt;Node6 -->
<g id="edge10" class="edge"><title>Node2&#45;&gt;Node6</title>
<path fill="none" stroke="midnightblue" d="M1099.63,-935.453C1074.07,-923.74 1047.06,-910.267 1023,-896 1006.4,-886.157 989.29,-874.188 973.86,-862.612"/>
<polygon fill="none" stroke="midnightblue" points="1098.43,-938.748 1108.98,-939.686 1101.31,-932.372 1098.43,-938.748"/>
</g>
<!-- Node22 -->
<g id="node43" class="node"><title>Node22</title>
<a xlink:href="classGeneticAlgorithm_1_1Core_1_1Genotype.html" target="_top" xlink:title="The base Genotype class from which all chromosomes must derived.">
<polygon fill="white" stroke="black" points="1031.5,-747.5 1031.5,-888.5 1192.5,-888.5 1192.5,-747.5 1031.5,-747.5"/>
<text text-anchor="middle" x="1112" y="-875.5" font-family="Helvetica,sans-Serif" font-size="10.00">GeneticAlgorithm.Core.Genotype</text>
<polyline fill="none" stroke="black" points="1031.5,-867.5 1192.5,-867.5 "/>
<text text-anchor="start" x="1039.5" y="-854.5" font-family="Helvetica,sans-Serif" font-size="10.00">+ segments</text>
<polyline fill="none" stroke="black" points="1031.5,-846.5 1192.5,-846.5 "/>
<text text-anchor="start" x="1039.5" y="-833.5" font-family="Helvetica,sans-Serif" font-size="10.00">+ __init__()</text>
<text text-anchor="start" x="1039.5" y="-820.5" font-family="Helvetica,sans-Serif" font-size="10.00">+ __setattr__()</text>
<text text-anchor="start" x="1039.5" y="-807.5" font-family="Helvetica,sans-Serif" font-size="10.00">+ randomize()</text>
<text text-anchor="start" x="1039.5" y="-794.5" font-family="Helvetica,sans-Serif" font-size="10.00">+ addSegment()</text>
<text text-anchor="start" x="1039.5" y="-781.5" font-family="Helvetica,sans-Serif" font-size="10.00">+ crossover()</text>
<text text-anchor="start" x="1039.5" y="-768.5" font-family="Helvetica,sans-Serif" font-size="10.00">+ mutate()</text>
<text text-anchor="start" x="1039.5" y="-755.5" font-family="Helvetica,sans-Serif" font-size="10.00">+ __str__()</text>
</a>
</g>
<!-- Node2&#45;&gt;Node22 -->
<g id="edge42" class="edge"><title>Node2&#45;&gt;Node22</title>
<path fill="none" stroke="midnightblue" d="M1171.04,-923.478C1164.76,-912.263 1158.05,-900.273 1151.49,-888.546"/>
<polygon fill="none" stroke="midnightblue" points="1168.03,-925.27 1175.97,-932.287 1174.14,-921.851 1168.03,-925.27"/>
</g>
<!-- Node23 -->
<g id="node45" class="node"><title>Node23</title>
<a xlink:href="classGeneticAlgorithm_1_1Core_1_1Individual.html" target="_top" xlink:title="This class is a container intended to store all information relevant to an individual.">
<polygon fill="white" stroke="black" points="1210,-747.5 1210,-888.5 1370,-888.5 1370,-747.5 1210,-747.5"/>
<text text-anchor="middle" x="1290" y="-875.5" font-family="Helvetica,sans-Serif" font-size="10.00">GeneticAlgorithm.Core.Individual</text>
<polyline fill="none" stroke="black" points="1210,-867.5 1370,-867.5 "/>
<text text-anchor="middle" x="1290" y="-854.5" font-family="Helvetica,sans-Serif" font-size="10.00"> </text>
<polyline fill="none" stroke="black" points="1210,-846.5 1370,-846.5 "/>
<text text-anchor="start" x="1218" y="-833.5" font-family="Helvetica,sans-Serif" font-size="10.00">+ __init__()</text>
<text text-anchor="start" x="1218" y="-820.5" font-family="Helvetica,sans-Serif" font-size="10.00">+ randomize()</text>
<text text-anchor="start" x="1218" y="-807.5" font-family="Helvetica,sans-Serif" font-size="10.00">+ valuesToStr()</text>
<text text-anchor="start" x="1218" y="-794.5" font-family="Helvetica,sans-Serif" font-size="10.00">+ propertiesToStr()</text>
<text text-anchor="start" x="1218" y="-781.5" font-family="Helvetica,sans-Serif" font-size="10.00">+ __str__()</text>
<text text-anchor="start" x="1218" y="-768.5" font-family="Helvetica,sans-Serif" font-size="10.00">+ crossover()</text>
<text text-anchor="start" x="1218" y="-755.5" font-family="Helvetica,sans-Serif" font-size="10.00">+ mutate()</text>
</a>
</g>
<!-- Node2&#45;&gt;Node23 -->
<g id="edge44" class="edge"><title>Node2&#45;&gt;Node23</title>
<path fill="none" stroke="midnightblue" d="M1230.96,-923.478C1237.24,-912.263 1243.95,-900.273 1250.51,-888.546"/>
<polygon fill="none" stroke="midnightblue" points="1227.86,-921.851 1226.03,-932.287 1233.97,-925.27 1227.86,-921.851"/>
</g>
<!-- Node24 -->
<g id="node47" class="node"><title>Node24</title>
<a xlink:href="classGeneticAlgorithm_1_1Core_1_1Population.html" target="_top" xlink:title="This class is a container, intended to store references to individuals and all their.">
<polygon fill="white" stroke="black" points="1388,-767 1388,-869 1552,-869 1552,-767 1388,-767"/>
<text text-anchor="middle" x="1470" y="-856" font-family="Helvetica,sans-Serif" font-size="10.00">GeneticAlgorithm.Core.Population</text>
<polyline fill="none" stroke="black" points="1388,-848 1552,-848 "/>
<text text-anchor="start" x="1396" y="-835" font-family="Helvetica,sans-Serif" font-size="10.00">+ individuals</text>
<polyline fill="none" stroke="black" points="1388,-827 1552,-827 "/>
<text text-anchor="start" x="1396" y="-814" font-family="Helvetica,sans-Serif" font-size="10.00">+ __init__()</text>
<text text-anchor="start" x="1396" y="-801" font-family="Helvetica,sans-Serif" font-size="10.00">+ __str__()</text>
<text text-anchor="start" x="1396" y="-788" font-family="Helvetica,sans-Serif" font-size="10.00">+ populate()</text>
<text text-anchor="start" x="1396" y="-775" font-family="Helvetica,sans-Serif" font-size="10.00">+ randomize()</text>
</a>
</g>
<!-- Node2&#45;&gt;Node24 -->
<g id="edge46" class="edge"><title>Node2&#45;&gt;Node24</title>
<path fill="none" stroke="midnightblue" d="M1302.61,-936.713C1328.29,-924.941 1355.29,-911.124 1379,-896 1391.28,-888.166 1403.65,-878.785 1415.14,-869.288"/>
<polygon fill="none" stroke="midnightblue" points="1300.89,-933.65 1293.22,-940.956 1303.77,-940.029 1300.89,-933.65"/>
</g>
<!-- Node25 -->
<g id="node49" class="node"><title>Node25</title>
<a xlink:href="classGeneticAlgorithm_1_1Core_1_1Scheduler.html" target="_top" xlink:title="A class that encapsulates a Population and a list of GeneticOperator.">
<polygon fill="white" stroke="black" points="1570,-754 1570,-882 1732,-882 1732,-754 1570,-754"/>
<text text-anchor="middle" x="1651" y="-869" font-family="Helvetica,sans-Serif" font-size="10.00">GeneticAlgorithm.Core.Scheduler</text>
<polyline fill="none" stroke="black" points="1570,-861 1732,-861 "/>
<text text-anchor="middle" x="1651" y="-848" font-family="Helvetica,sans-Serif" font-size="10.00"> </text>
<polyline fill="none" stroke="black" points="1570,-840 1732,-840 "/>
<text text-anchor="start" x="1578" y="-827" font-family="Helvetica,sans-Serif" font-size="10.00">+ __init__()</text>
<text text-anchor="start" x="1578" y="-814" font-family="Helvetica,sans-Serif" font-size="10.00">+ __str__()</text>
<text text-anchor="start" x="1578" y="-801" font-family="Helvetica,sans-Serif" font-size="10.00">+ initialize()</text>
<text text-anchor="start" x="1578" y="-788" font-family="Helvetica,sans-Serif" font-size="10.00">+ iterate()</text>
<text text-anchor="start" x="1578" y="-775" font-family="Helvetica,sans-Serif" font-size="10.00">+ finalize()</text>
<text text-anchor="start" x="1578" y="-762" font-family="Helvetica,sans-Serif" font-size="10.00">+ runGA()</text>
</a>
</g>
<!-- Node2&#45;&gt;Node25 -->
<g id="edge48" class="edge"><title>Node2&#45;&gt;Node25</title>
<path fill="none" stroke="midnightblue" d="M1303.55,-967.48C1378.16,-957.399 1479.9,-936.963 1561,-896 1568.75,-892.085 1576.38,-887.355 1583.72,-882.183"/>
<polygon fill="none" stroke="midnightblue" points="1302.67,-964.066 1293.21,-968.835 1303.58,-971.006 1302.67,-964.066"/>
</g>
<!-- Node26 -->
<g id="node51" class="node"><title>Node26</title>
<a xlink:href="classGeneticAlgorithm_1_1GraphLibrary_1_1Graph.html" target="_top" xlink:title="This class.">
<polygon fill="white" stroke="black" points="1749.5,-741 1749.5,-895 1928.5,-895 1928.5,-741 1749.5,-741"/>
<text text-anchor="middle" x="1839" y="-882" font-family="Helvetica,sans-Serif" font-size="10.00">GeneticAlgorithm.GraphLibrary.Graph</text>
<polyline fill="none" stroke="black" points="1749.5,-874 1928.5,-874 "/>
<text text-anchor="start" x="1757.5" y="-861" font-family="Helvetica,sans-Serif" font-size="10.00">+ V</text>
<text text-anchor="start" x="1757.5" y="-848" font-family="Helvetica,sans-Serif" font-size="10.00">+ W</text>
<polyline fill="none" stroke="black" points="1749.5,-840 1928.5,-840 "/>
<text text-anchor="start" x="1757.5" y="-827" font-family="Helvetica,sans-Serif" font-size="10.00">+ __init__()</text>
<text text-anchor="start" x="1757.5" y="-814" font-family="Helvetica,sans-Serif" font-size="10.00">+ updateW()</text>
<text text-anchor="start" x="1757.5" y="-801" font-family="Helvetica,sans-Serif" font-size="10.00">+ pathLength()</text>
<text text-anchor="start" x="1757.5" y="-788" font-family="Helvetica,sans-Serif" font-size="10.00">+ __str__()</text>
<text text-anchor="start" x="1757.5" y="-775" font-family="Helvetica,sans-Serif" font-size="10.00">+ __setattr__()</text>
<text text-anchor="start" x="1757.5" y="-762" font-family="Helvetica,sans-Serif" font-size="10.00">+ randomizeNodePositions()</text>
<text text-anchor="start" x="1757.5" y="-749" font-family="Helvetica,sans-Serif" font-size="10.00">+ plot()</text>
</a>
</g>
<!-- Node2&#45;&gt;Node26 -->
<g id="edge50" class="edge"><title>Node2&#45;&gt;Node26</title>
<path fill="none" stroke="midnightblue" d="M1303.47,-968.003C1437.55,-955.143 1664.44,-929.327 1741,-896 1743.79,-894.785 1746.57,-893.469 1749.33,-892.068"/>
<polygon fill="none" stroke="midnightblue" points="1302.81,-964.551 1293.18,-968.982 1303.47,-971.519 1302.81,-964.551"/>
</g>
<!-- Node5 -->
<g id="node9" class="node"><title>Node5</title>
<a xlink:href="classGeneticAlgorithm_1_1GenotypeLibrary_1_1BinaryChromosomeSegment.html" target="_top" xlink:title="This class implements an integer variable encoded by a fixed number of bits.">
<polygon fill="white" stroke="black" points="0,-562.5 0,-703.5 294,-703.5 294,-562.5 0,-562.5"/>
<text text-anchor="middle" x="147" y="-690.5" font-family="Helvetica,sans-Serif" font-size="10.00">GeneticAlgorithm.GenotypeLibrary.BinaryChromosomeSegment</text>
<polyline fill="none" stroke="black" points="0,-682.5 294,-682.5 "/>
<text text-anchor="start" x="8" y="-669.5" font-family="Helvetica,sans-Serif" font-size="10.00">+ data</text>
<polyline fill="none" stroke="black" points="0,-661.5 294,-661.5 "/>
<text text-anchor="start" x="8" y="-648.5" font-family="Helvetica,sans-Serif" font-size="10.00">+ __init__()</text>
<text text-anchor="start" x="8" y="-635.5" font-family="Helvetica,sans-Serif" font-size="10.00">+ __str__()</text>
<text text-anchor="start" x="8" y="-622.5" font-family="Helvetica,sans-Serif" font-size="10.00">+ maxValue()</text>
<text text-anchor="start" x="8" y="-609.5" font-family="Helvetica,sans-Serif" font-size="10.00">+ randomize()</text>
<text text-anchor="start" x="8" y="-596.5" font-family="Helvetica,sans-Serif" font-size="10.00">+ __setattr__()</text>
<text text-anchor="start" x="8" y="-583.5" font-family="Helvetica,sans-Serif" font-size="10.00">+ crossover()</text>
<text text-anchor="start" x="8" y="-570.5" font-family="Helvetica,sans-Serif" font-size="10.00">+ mutate()</text>
</a>
</g>
<!-- Node4&#45;&gt;Node5 -->
<g id="edge8" class="edge"><title>Node4&#45;&gt;Node5</title>
<path fill="none" stroke="midnightblue" d="M605.72,-761.797C590.705,-753.377 574.772,-745.641 559,-740 450.815,-701.305 413.314,-736.129 303,-704 300.143,-703.168 297.271,-702.293 294.39,-701.378"/>
<polygon fill="none" stroke="midnightblue" points="604.035,-764.865 614.447,-766.823 607.528,-758.799 604.035,-764.865"/>
</g>
<!-- Node7 -->
<g id="node13" class="node"><title>Node7</title>
<a xlink:href="classGeneticAlgorithm_1_1Core_1_1BasePeriodicOperator.html" target="_top" xlink:title="A class that serves as a base for all periodic operators.">
<polygon fill="white" stroke="black" points="312,-562.5 312,-703.5 526,-703.5 526,-562.5 312,-562.5"/>
<text text-anchor="middle" x="419" y="-690.5" font-family="Helvetica,sans-Serif" font-size="10.00">GeneticAlgorithm.Core.BasePeriodicOperator</text>
<polyline fill="none" stroke="black" points="312,-682.5 526,-682.5 "/>
<text text-anchor="start" x="320" y="-669.5" font-family="Helvetica,sans-Serif" font-size="10.00">+ iterationCounter</text>
<text text-anchor="start" x="320" y="-656.5" font-family="Helvetica,sans-Serif" font-size="10.00">+ evaluationCounter</text>
<text text-anchor="start" x="320" y="-643.5" font-family="Helvetica,sans-Serif" font-size="10.00">+ iterationFrequency</text>
<text text-anchor="start" x="320" y="-630.5" font-family="Helvetica,sans-Serif" font-size="10.00">+ evaluationFrequency</text>
<polyline fill="none" stroke="black" points="312,-622.5 526,-622.5 "/>
<text text-anchor="start" x="320" y="-609.5" font-family="Helvetica,sans-Serif" font-size="10.00">+ __init__()</text>
<text text-anchor="start" x="320" y="-596.5" font-family="Helvetica,sans-Serif" font-size="10.00">+ iterationCallback()</text>
<text text-anchor="start" x="320" y="-583.5" font-family="Helvetica,sans-Serif" font-size="10.00">+ evaluationCallback()</text>
<text text-anchor="start" x="320" y="-570.5" font-family="Helvetica,sans-Serif" font-size="10.00">+ iterate()</text>
</a>
</g>
<!-- Node6&#45;&gt;Node7 -->
<g id="edge12" class="edge"><title>Node6&#45;&gt;Node7</title>
<path fill="none" stroke="midnightblue" d="M862.058,-767.149C847.575,-756.596 831.432,-746.672 815,-740 698.748,-692.799 653.347,-745.672 535,-704 532.105,-702.981 529.204,-701.882 526.307,-700.714"/>
<polygon fill="none" stroke="midnightblue" points="860.289,-770.198 870.383,-773.414 864.498,-764.605 860.289,-770.198"/>
</g>
<!-- Node12 -->
<g id="node23" class="node"><title>Node12</title>
<a xlink:href="classGeneticAlgorithm_1_1Core_1_1Crossover.html" target="_top" xlink:title="Crossover two individuals from population.matingPool with probability population.crossoverProbability...">
<polygon fill="white" stroke="black" points="544,-601.5 544,-664.5 708,-664.5 708,-601.5 544,-601.5"/>
<text text-anchor="middle" x="626" y="-651.5" font-family="Helvetica,sans-Serif" font-size="10.00">GeneticAlgorithm.Core.Crossover</text>
<polyline fill="none" stroke="black" points="544,-643.5 708,-643.5 "/>
<text text-anchor="start" x="552" y="-630.5" font-family="Helvetica,sans-Serif" font-size="10.00">+ iterate</text>
<polyline fill="none" stroke="black" points="544,-622.5 708,-622.5 "/>
<text text-anchor="start" x="552" y="-609.5" font-family="Helvetica,sans-Serif" font-size="10.00">+ cross()</text>
</a>
</g>
<!-- Node6&#45;&gt;Node12 -->
<g id="edge22" class="edge"><title>Node6&#45;&gt;Node12</title>
<path fill="none" stroke="midnightblue" d="M857.438,-767.251C843.937,-757.446 829.369,-747.809 815,-740 774.23,-717.845 757.557,-726.543 717,-704 697.384,-693.097 677.514,-678.144 661.367,-664.772"/>
<polygon fill="none" stroke="midnightblue" points="855.576,-770.227 865.696,-773.363 859.74,-764.6 855.576,-770.227"/>
</g>
<!-- Node13 -->
<g id="node25" class="node"><title>Node13</title>
<a xlink:href="classGeneticAlgorithm_1_1Core_1_1Mutate.html" target="_top" xlink:title="Mutate an individual.">
<polygon fill="white" stroke="black" points="725.5,-601.5 725.5,-664.5 874.5,-664.5 874.5,-601.5 725.5,-601.5"/>
<text text-anchor="middle" x="800" y="-651.5" font-family="Helvetica,sans-Serif" font-size="10.00">GeneticAlgorithm.Core.Mutate</text>
<polyline fill="none" stroke="black" points="725.5,-643.5 874.5,-643.5 "/>
<text text-anchor="start" x="733.5" y="-630.5" font-family="Helvetica,sans-Serif" font-size="10.00">+ iterate</text>
<polyline fill="none" stroke="black" points="725.5,-622.5 874.5,-622.5 "/>
<text text-anchor="start" x="733.5" y="-609.5" font-family="Helvetica,sans-Serif" font-size="10.00">+ mutate()</text>
</a>
</g>
<!-- Node6&#45;&gt;Node13 -->
<g id="edge24" class="edge"><title>Node6&#45;&gt;Node13</title>
<path fill="none" stroke="midnightblue" d="M884.738,-764.735C863.898,-732.337 837.988,-692.057 820.343,-664.625"/>
<polygon fill="none" stroke="midnightblue" points="881.84,-766.7 890.193,-773.217 887.727,-762.913 881.84,-766.7"/>
</g>
<!-- Node14 -->
<g id="node27" class="node"><title>Node14</title>
<a xlink:href="classGeneticAlgorithm_1_1EvaluationOperators_1_1BaseEvaluationOperator.html" target="_top" xlink:title="This class provides an easy way of developing evaluation operators that only evaluate recently replac...">
<polygon fill="white" stroke="black" points="892,-582 892,-684 1184,-684 1184,-582 892,-582"/>
<text text-anchor="middle" x="1038" y="-671" font-family="Helvetica,sans-Serif" font-size="10.00">GeneticAlgorithm.EvaluationOperators.BaseEvaluationOperator</text>
<polyline fill="none" stroke="black" points="892,-663 1184,-663 "/>
<text text-anchor="start" x="900" y="-650" font-family="Helvetica,sans-Serif" font-size="10.00">+ initialize</text>
<text text-anchor="start" x="900" y="-637" font-family="Helvetica,sans-Serif" font-size="10.00">+ iterate</text>
<text text-anchor="start" x="900" y="-624" font-family="Helvetica,sans-Serif" font-size="10.00">+ finalize</text>
<polyline fill="none" stroke="black" points="892,-616 1184,-616 "/>
<text text-anchor="start" x="900" y="-603" font-family="Helvetica,sans-Serif" font-size="10.00">+ evaluateIndividual()</text>
<text text-anchor="start" x="900" y="-590" font-family="Helvetica,sans-Serif" font-size="10.00">+ evaluate()</text>
</a>
</g>
<!-- Node6&#45;&gt;Node14 -->
<g id="edge26" class="edge"><title>Node6&#45;&gt;Node14</title>
<path fill="none" stroke="midnightblue" d="M953.418,-764.494C969.67,-739.227 988.979,-709.209 1005.04,-684.237"/>
<polygon fill="none" stroke="midnightblue" points="950.273,-762.913 947.807,-773.217 956.16,-766.7 950.273,-762.913"/>
</g>
<!-- Node19 -->
<g id="node37" class="node"><title>Node19</title>
<a xlink:href="classGeneticAlgorithm_1_1SelectionOperators_1_1KTournament.html" target="_top" xlink:title="A selection operator that implements the k&#45;tournament algorithm.">
<polygon fill="white" stroke="black" points="1201.5,-582 1201.5,-684 1440.5,-684 1440.5,-582 1201.5,-582"/>
<text text-anchor="middle" x="1321" y="-671" font-family="Helvetica,sans-Serif" font-size="10.00">GeneticAlgorithm.SelectionOperators.KTournament</text>
<polyline fill="none" stroke="black" points="1201.5,-663 1440.5,-663 "/>
<text text-anchor="start" x="1209.5" y="-650" font-family="Helvetica,sans-Serif" font-size="10.00">+ k</text>
<text text-anchor="start" x="1209.5" y="-637" font-family="Helvetica,sans-Serif" font-size="10.00">+ iterate</text>
<polyline fill="none" stroke="black" points="1201.5,-629 1440.5,-629 "/>
<text text-anchor="start" x="1209.5" y="-616" font-family="Helvetica,sans-Serif" font-size="10.00">+ __init__()</text>
<text text-anchor="start" x="1209.5" y="-603" font-family="Helvetica,sans-Serif" font-size="10.00">+ selectBest()</text>
<text text-anchor="start" x="1209.5" y="-590" font-family="Helvetica,sans-Serif" font-size="10.00">+ select()</text>
</a>
</g>
<!-- Node6&#45;&gt;Node19 -->
<g id="edge36" class="edge"><title>Node6&#45;&gt;Node19</title>
<path fill="none" stroke="midnightblue" d="M977.507,-767.254C991.67,-756.97 1007.28,-747.135 1023,-740 1093.33,-708.079 1120.65,-731.03 1193,-704 1207.76,-698.486 1222.88,-691.478 1237.31,-684.024"/>
<polygon fill="none" stroke="midnightblue" points="975.267,-764.558 969.346,-773.343 979.454,-770.168 975.267,-764.558"/>
</g>
<!-- Node20 -->
<g id="node39" class="node"><title>Node20</title>
<a xlink:href="classGeneticAlgorithm_1_1SelectionOperators_1_1SelectLethals.html" target="_top" xlink:title="Select the individuals to replace based on the population.maximize flag and the population.genSize property.">
<polygon fill="white" stroke="black" points="1458,-601.5 1458,-664.5 1698,-664.5 1698,-601.5 1458,-601.5"/>
<text text-anchor="middle" x="1578" y="-651.5" font-family="Helvetica,sans-Serif" font-size="10.00">GeneticAlgorithm.SelectionOperators.SelectLethals</text>
<polyline fill="none" stroke="black" points="1458,-643.5 1698,-643.5 "/>
<text text-anchor="start" x="1466" y="-630.5" font-family="Helvetica,sans-Serif" font-size="10.00">+ iterate</text>
<polyline fill="none" stroke="black" points="1458,-622.5 1698,-622.5 "/>
<text text-anchor="start" x="1466" y="-609.5" font-family="Helvetica,sans-Serif" font-size="10.00">+ select()</text>
</a>
</g>
<!-- Node6&#45;&gt;Node20 -->
<g id="edge38" class="edge"><title>Node6&#45;&gt;Node20</title>
<path fill="none" stroke="midnightblue" d="M974.867,-767.266C989.579,-756.493 1006.09,-746.439 1023,-740 1200.57,-672.371 1267.13,-759.011 1449,-704 1478.12,-695.193 1508.04,-679.232 1531.73,-664.671"/>
<polygon fill="none" stroke="midnightblue" points="972.748,-764.48 966.889,-773.307 976.974,-770.061 972.748,-764.48"/>
</g>
<!-- Node21 -->
<g id="node41" class="node"><title>Node21</title>
<a xlink:href="classGeneticAlgorithm_1_1SelectionOperators_1_1SUSSelection.html" target="_top" xlink:title="This operator performs stochastic uniform selection over the population, updating the field matingPoo...">
<polygon fill="white" stroke="black" points="1716,-601.5 1716,-664.5 1958,-664.5 1958,-601.5 1716,-601.5"/>
<text text-anchor="middle" x="1837" y="-651.5" font-family="Helvetica,sans-Serif" font-size="10.00">GeneticAlgorithm.SelectionOperators.SUSSelection</text>
<polyline fill="none" stroke="black" points="1716,-643.5 1958,-643.5 "/>
<text text-anchor="start" x="1724" y="-630.5" font-family="Helvetica,sans-Serif" font-size="10.00">+ iterate</text>
<polyline fill="none" stroke="black" points="1716,-622.5 1958,-622.5 "/>
<text text-anchor="start" x="1724" y="-609.5" font-family="Helvetica,sans-Serif" font-size="10.00">+ select()</text>
</a>
</g>
<!-- Node6&#45;&gt;Node21 -->
<g id="edge40" class="edge"><title>Node6&#45;&gt;Node21</title>
<path fill="none" stroke="midnightblue" d="M974.262,-767.226C989.093,-756.333 1005.81,-746.235 1023,-740 1166.08,-688.087 1560.56,-745.513 1707,-704 1736.81,-695.549 1767.36,-679.322 1791.35,-664.513"/>
<polygon fill="none" stroke="midnightblue" points="972.065,-764.499 966.225,-773.339 976.303,-770.07 972.065,-764.499"/>
</g>
<!-- Node8 -->
<g id="node15" class="node"><title>Node8</title>
<a xlink:href="classGeneticAlgorithm_1_1LoggingOperators_1_1BestLogger.html" target="_top" xlink:title="This class stores the best individual of the population, if it is better than the last individual fou...">
<polygon fill="white" stroke="black" points="185,-332.5 185,-525.5 409,-525.5 409,-332.5 185,-332.5"/>
<text text-anchor="middle" x="297" y="-512.5" font-family="Helvetica,sans-Serif" font-size="10.00">GeneticAlgorithm.LoggingOperators.BestLogger</text>
<polyline fill="none" stroke="black" points="185,-504.5 409,-504.5 "/>
<text text-anchor="start" x="193" y="-491.5" font-family="Helvetica,sans-Serif" font-size="10.00">+ bestLog</text>
<text text-anchor="start" x="193" y="-478.5" font-family="Helvetica,sans-Serif" font-size="10.00">+ numEvaluations</text>
<text text-anchor="start" x="193" y="-465.5" font-family="Helvetica,sans-Serif" font-size="10.00">+ criterion</text>
<text text-anchor="start" x="193" y="-452.5" font-family="Helvetica,sans-Serif" font-size="10.00">+ maximize</text>
<text text-anchor="start" x="193" y="-439.5" font-family="Helvetica,sans-Serif" font-size="10.00">+ iterationFrequency</text>
<text text-anchor="start" x="193" y="-426.5" font-family="Helvetica,sans-Serif" font-size="10.00">+ iterationCallback</text>
<text text-anchor="start" x="193" y="-413.5" font-family="Helvetica,sans-Serif" font-size="10.00">+ evaluationCallback</text>
<polyline fill="none" stroke="black" points="185,-405.5 409,-405.5 "/>
<text text-anchor="start" x="193" y="-392.5" font-family="Helvetica,sans-Serif" font-size="10.00">+ __init__()</text>
<text text-anchor="start" x="193" y="-379.5" font-family="Helvetica,sans-Serif" font-size="10.00">+ logCallback()</text>
<text text-anchor="start" x="193" y="-366.5" font-family="Helvetica,sans-Serif" font-size="10.00">+ addToLog()</text>
<text text-anchor="start" x="193" y="-353.5" font-family="Helvetica,sans-Serif" font-size="10.00">+ getBest()</text>
<text text-anchor="start" x="193" y="-340.5" font-family="Helvetica,sans-Serif" font-size="10.00">+ finalize()</text>
</a>
</g>
<!-- Node7&#45;&gt;Node8 -->
<g id="edge14" class="edge"><title>Node7&#45;&gt;Node8</title>
<path fill="none" stroke="midnightblue" d="M371.463,-553.512C365.974,-544.334 360.332,-534.899 354.727,-525.527"/>
<polygon fill="none" stroke="midnightblue" points="368.536,-555.437 376.673,-562.223 374.544,-551.844 368.536,-555.437"/>
</g>
<!-- Node11 -->
<g id="node21" class="node"><title>Node11</title>
<a xlink:href="classGeneticAlgorithm_1_1LoggingOperators_1_1LogGenerations.html" target="_top" xlink:title="Log the full population of a GA.">
<polygon fill="white" stroke="black" points="427,-365 427,-493 669,-493 669,-365 427,-365"/>
<text text-anchor="middle" x="548" y="-480" font-family="Helvetica,sans-Serif" font-size="10.00">GeneticAlgorithm.LoggingOperators.LogGenerations</text>
<polyline fill="none" stroke="black" points="427,-472 669,-472 "/>
<text text-anchor="start" x="435" y="-459" font-family="Helvetica,sans-Serif" font-size="10.00">+ generationLog</text>
<text text-anchor="start" x="435" y="-446" font-family="Helvetica,sans-Serif" font-size="10.00">+ numEvaluations</text>
<text text-anchor="start" x="435" y="-433" font-family="Helvetica,sans-Serif" font-size="10.00">+ iterationCallback</text>
<text text-anchor="start" x="435" y="-420" font-family="Helvetica,sans-Serif" font-size="10.00">+ evaluationCallback</text>
<polyline fill="none" stroke="black" points="427,-412 669,-412 "/>
<text text-anchor="start" x="435" y="-399" font-family="Helvetica,sans-Serif" font-size="10.00">+ __init__()</text>
<text text-anchor="start" x="435" y="-386" font-family="Helvetica,sans-Serif" font-size="10.00">+ logPopulation()</text>
<text text-anchor="start" x="435" y="-373" font-family="Helvetica,sans-Serif" font-size="10.00">+ finalize()</text>
</a>
</g>
<!-- Node7&#45;&gt;Node11 -->
<g id="edge20" class="edge"><title>Node7&#45;&gt;Node11</title>
<path fill="none" stroke="midnightblue" d="M469.137,-553.713C481.819,-533.658 495.282,-512.368 507.426,-493.163"/>
<polygon fill="none" stroke="midnightblue" points="466.142,-551.901 463.756,-562.223 472.059,-555.642 466.142,-551.901"/>
</g>
<!-- Node9 -->
<g id="node17" class="node"><title>Node9</title>
<a xlink:href="classGeneticAlgorithm_1_1PlottingOperators_1_1PlotBestLogger.html" target="_top" xlink:title="A BestLogger specialization that plots the historic progression of the best criterion with each tick...">
<polygon fill="white" stroke="black" points="177,-167 177,-295 417,-295 417,-167 177,-167"/>
<text text-anchor="middle" x="297" y="-282" font-family="Helvetica,sans-Serif" font-size="10.00">GeneticAlgorithm.PlottingOperators.PlotBestLogger</text>
<polyline fill="none" stroke="black" points="177,-274 417,-274 "/>
<text text-anchor="start" x="185" y="-261" font-family="Helvetica,sans-Serif" font-size="10.00">+ criterionAxis</text>
<text text-anchor="start" x="185" y="-248" font-family="Helvetica,sans-Serif" font-size="10.00">+ figure</text>
<text text-anchor="start" x="185" y="-235" font-family="Helvetica,sans-Serif" font-size="10.00">+ iterationCallback</text>
<text text-anchor="start" x="185" y="-222" font-family="Helvetica,sans-Serif" font-size="10.00">+ evaluationCallback</text>
<polyline fill="none" stroke="black" points="177,-214 417,-214 "/>
<text text-anchor="start" x="185" y="-201" font-family="Helvetica,sans-Serif" font-size="10.00">+ __init__()</text>
<text text-anchor="start" x="185" y="-188" font-family="Helvetica,sans-Serif" font-size="10.00">+ plotCallback()</text>
<text text-anchor="start" x="185" y="-175" font-family="Helvetica,sans-Serif" font-size="10.00">+ finalize()</text>
</a>
</g>
<!-- Node8&#45;&gt;Node9 -->
<g id="edge16" class="edge"><title>Node8&#45;&gt;Node9</title>
<path fill="none" stroke="midnightblue" d="M297,-322.234C297,-312.957 297,-303.772 297,-295.007"/>
<polygon fill="none" stroke="midnightblue" points="293.5,-322.32 297,-332.32 300.5,-322.32 293.5,-322.32"/>
</g>
<!-- Node10 -->
<g id="node19" class="node"><title>Node10</title>
<a xlink:href="classGeneticAlgorithm_1_1GraphLibrary_1_1BestPathPlotLogger.html" target="_top" xlink:title="This class extends the PlottingOperators::PlotBestLogger to display the best tour found so far...">
<polygon fill="white" stroke="black" points="177,-1 177,-129 417,-129 417,-1 177,-1"/>
<text text-anchor="middle" x="297" y="-116" font-family="Helvetica,sans-Serif" font-size="10.00">GeneticAlgorithm.GraphLibrary.BestPathPlotLogger</text>
<polyline fill="none" stroke="black" points="177,-108 417,-108 "/>
<text text-anchor="start" x="185" y="-95" font-family="Helvetica,sans-Serif" font-size="10.00">+ graph</text>
<text text-anchor="start" x="185" y="-82" font-family="Helvetica,sans-Serif" font-size="10.00">+ graphAxis</text>
<text text-anchor="start" x="185" y="-69" font-family="Helvetica,sans-Serif" font-size="10.00">+ maximize</text>
<text text-anchor="start" x="185" y="-56" font-family="Helvetica,sans-Serif" font-size="10.00">+ iterationCallback</text>
<text text-anchor="start" x="185" y="-43" font-family="Helvetica,sans-Serif" font-size="10.00">+ evaluationCallback</text>
<polyline fill="none" stroke="black" points="177,-35 417,-35 "/>
<text text-anchor="start" x="185" y="-22" font-family="Helvetica,sans-Serif" font-size="10.00">+ __init__()</text>
<text text-anchor="start" x="185" y="-9" font-family="Helvetica,sans-Serif" font-size="10.00">+ plotGraphCallback()</text>
</a>
</g>
<!-- Node9&#45;&gt;Node10 -->
<g id="edge18" class="edge"><title>Node9&#45;&gt;Node10</title>
<path fill="none" stroke="midnightblue" d="M297,-156.533C297,-147.347 297,-138.02 297,-129.009"/>
<polygon fill="none" stroke="midnightblue" points="293.5,-156.82 297,-166.82 300.5,-156.82 293.5,-156.82"/>
</g>
<!-- Node15 -->
<g id="node29" class="node"><title>Node15</title>
<a xlink:href="classGADemo_1_1NumOnes.html" target="_top" xlink:title="An evaluation operator that computes the number of ones in a segment whose data can be converted to b...">
<polygon fill="white" stroke="black" points="700,-391 700,-467 810,-467 810,-391 700,-391"/>
<text text-anchor="middle" x="755" y="-454" font-family="Helvetica,sans-Serif" font-size="10.00">GADemo.NumOnes</text>
<polyline fill="none" stroke="black" points="700,-446 810,-446 "/>
<text text-anchor="middle" x="755" y="-433" font-family="Helvetica,sans-Serif" font-size="10.00"> </text>
<polyline fill="none" stroke="black" points="700,-425 810,-425 "/>
<text text-anchor="start" x="708" y="-412" font-family="Helvetica,sans-Serif" font-size="10.00">+ segmentOnes()</text>
<text text-anchor="start" x="708" y="-399" font-family="Helvetica,sans-Serif" font-size="10.00">+ evaluateIndividual()</text>
</a>
</g>
<!-- Node14&#45;&gt;Node15 -->
<g id="edge28" class="edge"><title>Node14&#45;&gt;Node15</title>
<path fill="none" stroke="midnightblue" d="M917.707,-577.508C871.677,-555.652 827.977,-533.889 819,-526 800.36,-509.618 784.857,-486.585 773.781,-467.075"/>
<polygon fill="none" stroke="midnightblue" points="916.399,-580.761 926.935,-581.876 919.394,-574.434 916.399,-580.761"/>
</g>
<!-- Node16 -->
<g id="node31" class="node"><title>Node16</title>
<a xlink:href="classGeneticAlgorithm_1_1GraphLibrary_1_1Ordonez.html" target="_top" xlink:title="A GeneticAlgorithm::Core::GeneticOperator derivate that decodes a binary genotype as a permutation of...">
<polygon fill="white" stroke="black" points="828,-397.5 828,-460.5 1018,-460.5 1018,-397.5 828,-397.5"/>
<text text-anchor="middle" x="923" y="-447.5" font-family="Helvetica,sans-Serif" font-size="10.00">GeneticAlgorithm.GraphLibrary.Ordonez</text>
<polyline fill="none" stroke="black" points="828,-439.5 1018,-439.5 "/>
<text text-anchor="middle" x="923" y="-426.5" font-family="Helvetica,sans-Serif" font-size="10.00"> </text>
<polyline fill="none" stroke="black" points="828,-418.5 1018,-418.5 "/>
<text text-anchor="start" x="836" y="-405.5" font-family="Helvetica,sans-Serif" font-size="10.00">+ evaluateIndividual()</text>
</a>
</g>
<!-- Node14&#45;&gt;Node16 -->
<g id="edge30" class="edge"><title>Node14&#45;&gt;Node16</title>
<path fill="none" stroke="midnightblue" d="M1003.97,-572.633C983.225,-535.834 957.561,-490.309 940.759,-460.503"/>
<polygon fill="none" stroke="midnightblue" points="1001.17,-574.793 1009.13,-581.786 1007.27,-571.356 1001.17,-574.793"/>
</g>
<!-- Node17 -->
<g id="node33" class="node"><title>Node17</title>
<a xlink:href="classGeneticAlgorithm_1_1GraphLibrary_1_1PathLengthFitness.html" target="_top" xlink:title="A GeneticAlgorithm::Core::GeneticOperator derivate that uses.">
<polygon fill="white" stroke="black" points="1035.5,-391 1035.5,-467 1270.5,-467 1270.5,-391 1035.5,-391"/>
<text text-anchor="middle" x="1153" y="-454" font-family="Helvetica,sans-Serif" font-size="10.00">GeneticAlgorithm.GraphLibrary.PathLengthFitness</text>
<polyline fill="none" stroke="black" points="1035.5,-446 1270.5,-446 "/>
<text text-anchor="start" x="1043.5" y="-433" font-family="Helvetica,sans-Serif" font-size="10.00">+ graph</text>
<polyline fill="none" stroke="black" points="1035.5,-425 1270.5,-425 "/>
<text text-anchor="start" x="1043.5" y="-412" font-family="Helvetica,sans-Serif" font-size="10.00">+ __init__()</text>
<text text-anchor="start" x="1043.5" y="-399" font-family="Helvetica,sans-Serif" font-size="10.00">+ evaluateIndividual()</text>
</a>
</g>
<!-- Node14&#45;&gt;Node17 -->
<g id="edge32" class="edge"><title>Node14&#45;&gt;Node17</title>
<path fill="none" stroke="midnightblue" d="M1071.93,-572.804C1091.23,-538.569 1114.82,-496.736 1131.56,-467.035"/>
<polygon fill="none" stroke="midnightblue" points="1068.73,-571.356 1066.87,-581.786 1074.83,-574.793 1068.73,-571.356"/>
</g>
<!-- Node18 -->
<g id="node35" class="node"><title>Node18</title>
<a xlink:href="classKnapsackDemo_1_1Knapsack.html" target="_top" xlink:title="An evaluation operator that computes the relaxed version of the objective function used to solve a kn...">
<polygon fill="white" stroke="black" points="1287.5,-371.5 1287.5,-486.5 1420.5,-486.5 1420.5,-371.5 1287.5,-371.5"/>
<text text-anchor="middle" x="1354" y="-473.5" font-family="Helvetica,sans-Serif" font-size="10.00">KnapsackDemo.Knapsack</text>
<polyline fill="none" stroke="black" points="1287.5,-465.5 1420.5,-465.5 "/>
<text text-anchor="start" x="1295.5" y="-452.5" font-family="Helvetica,sans-Serif" font-size="10.00">+ maxVolume</text>
<text text-anchor="start" x="1295.5" y="-439.5" font-family="Helvetica,sans-Serif" font-size="10.00">+ objectVolumes</text>
<text text-anchor="start" x="1295.5" y="-426.5" font-family="Helvetica,sans-Serif" font-size="10.00">+ objectCosts</text>
<text text-anchor="start" x="1295.5" y="-413.5" font-family="Helvetica,sans-Serif" font-size="10.00">+ volumeLambda</text>
<polyline fill="none" stroke="black" points="1287.5,-405.5 1420.5,-405.5 "/>
<text text-anchor="start" x="1295.5" y="-392.5" font-family="Helvetica,sans-Serif" font-size="10.00">+ __init__()</text>
<text text-anchor="start" x="1295.5" y="-379.5" font-family="Helvetica,sans-Serif" font-size="10.00">+ evaluateIndividual()</text>
</a>
</g>
<!-- Node14&#45;&gt;Node18 -->
<g id="edge34" class="edge"><title>Node14&#45;&gt;Node18</title>
<path fill="none" stroke="midnightblue" d="M1157.45,-577.806C1169.44,-572.411 1181.44,-567.065 1193,-562 1230.95,-545.37 1246.13,-551.226 1279,-526 1293.27,-515.049 1306.29,-500.76 1317.33,-486.528"/>
<polygon fill="none" stroke="midnightblue" points="1155.97,-574.633 1148.3,-581.937 1158.85,-581.014 1155.97,-574.633"/>
</g>
</g>
</svg>
        <g id="navigator" transform="translate(0 0)" fill="#404254">
                <rect fill="#f2f5e9" fill-opacity="0.5" stroke="#606060" stroke-width=".5" x="0" y="0" width="60" height="60"/>
                <use id="zoomplus" xlink:href="#zoomPlus" x="17" y="9" onmousedown="handleZoom(evt,'in')"/>
                <use id="zoomminus" xlink:href="#zoomMin" x="42" y="9" onmousedown="handleZoom(evt,'out')"/>
                <use id="reset" xlink:href="#resetDef" x="30" y="36" onmousedown="handleReset()"/>
                <g id="arrowUp" xlink:href="#dirArrow" transform="translate(30 24)" onmousedown="handlePan(0,-1)">
                  <use xlink:href="#rim" fill="#404040">
                        <set attributeName="fill" to="#808080" begin="arrowUp.mouseover" end="arrowUp.mouseout"/>
                  </use>
                  <path fill="none" stroke="white" stroke-width="1.5" d="M0,-3.0v7 M-2.5,-0.5L0,-3.0L2.5,-0.5"/>
                </g>
                <g id="arrowRight" xlink:href="#dirArrow" transform="rotate(90) translate(36 -43)" onmousedown="handlePan(1,0)">
                  <use xlink:href="#rim" fill="#404040">
                        <set attributeName="fill" to="#808080" begin="arrowRight.mouseover" end="arrowRight.mouseout"/>
                  </use>
                  <path fill="none" stroke="white" stroke-width="1.5" d="M0,-3.0v7 M-2.5,-0.5L0,-3.0L2.5,-0.5"/>
                </g>
                <g id="arrowDown" xlink:href="#dirArrow" transform="rotate(180) translate(-30 -48)" onmousedown="handlePan(0,1)">
                  <use xlink:href="#rim" fill="#404040">
                        <set attributeName="fill" to="#808080" begin="arrowDown.mouseover" end="arrowDown.mouseout"/>
                  </use>
                  <path fill="none" stroke="white" stroke-width="1.5" d="M0,-3.0v7 M-2.5,-0.5L0,-3.0L2.5,-0.5"/>
                </g>
                <g id="arrowLeft" xlink:href="#dirArrow" transform="rotate(270) translate(-36 17)" onmousedown="handlePan(-1,0)">
                  <use xlink:href="#rim" fill="#404040">
                        <set attributeName="fill" to="#808080" begin="arrowLeft.mouseover" end="arrowLeft.mouseout"/>
                  </use>
                  <path fill="none" stroke="white" stroke-width="1.5" d="M0,-3.0v7 M-2.5,-0.5L0,-3.0L2.5,-0.5"/>
                </g>
        </g>
</svg>
