<?xml version="1.0" encoding="UTF-8" standalone="no"?>
<!DOCTYPE svg PUBLIC "-//W3C//DTD SVG 1.1//EN"
 "http://www.w3.org/Graphics/SVG/1.1/DTD/svg11.dtd">
<!-- Generated by graphviz version 2.26.3 (20100126.1600)
 -->
<!-- Title: G Pages: 1 -->
<svg width="466pt" height="310pt"
 viewBox="0.00 0.00 466.00 310.00" xmlns="http://www.w3.org/2000/svg" xmlns:xlink="http://www.w3.org/1999/xlink">
<g id="graph1" class="graph" transform="scale(1 1) rotate(0) translate(4 306)">
<title>G</title>
<polygon fill="white" stroke="white" points="-4,5 -4,-306 463,-306 463,5 -4,5"/>
<!-- Node1 -->
<g id="node1" class="node"><title>Node1</title>
<polygon fill="#bfbfbf" stroke="black" points="0.5,-140.5 0.5,-161.5 193.5,-161.5 193.5,-140.5 0.5,-140.5"/>
<text text-anchor="middle" x="97" y="-148.5" font-family="Helvetica,sans-Serif" font-size="10.00">GeneticAlgorithm.Core.Scheduler.runGA</text>
</g>
<!-- Node2 -->
<g id="node3" class="node"><title>Node2</title>
<a xlink:href="classGeneticAlgorithm_1_1LogGenerations.html#a056f308a3f5d547771a54116694987b1" target="_top" xlink:title="This function is called once at the end of the algorithm run.">
<polygon fill="white" stroke="black" points="245.5,-280.5 245.5,-301.5 442.5,-301.5 442.5,-280.5 245.5,-280.5"/>
<text text-anchor="middle" x="344" y="-288.5" font-family="Helvetica,sans-Serif" font-size="10.00">GeneticAlgorithm.LogGenerations.finalize</text>
</a>
</g>
<!-- Node1&#45;&gt;Node2 -->
<g id="edge2" class="edge"><title>Node1&#45;&gt;Node2</title>
<path fill="none" stroke="midnightblue" d="M105.283,-161.799C124.366,-185.827 174.098,-243.729 230,-271 234.91,-273.395 240.063,-275.507 245.352,-277.369"/>
<polygon fill="midnightblue" stroke="midnightblue" points="244.404,-280.741 254.995,-280.458 246.539,-274.074 244.404,-280.741"/>
</g>
<!-- Node3 -->
<g id="node5" class="node"><title>Node3</title>
<a xlink:href="classGeneticAlgorithm_1_1Core_1_1GeneticOperator.html#a90706b8d7851eb63cca447a36a2a6206" target="_top" xlink:title="This function is called once at the end of the algorithm run.">
<polygon fill="white" stroke="black" points="232,-240.5 232,-261.5 456,-261.5 456,-240.5 232,-240.5"/>
<text text-anchor="middle" x="344" y="-248.5" font-family="Helvetica,sans-Serif" font-size="10.00">GeneticAlgorithm.Core.GeneticOperator.finalize</text>
</a>
</g>
<!-- Node1&#45;&gt;Node3 -->
<g id="edge4" class="edge"><title>Node1&#45;&gt;Node3</title>
<path fill="none" stroke="midnightblue" d="M110.864,-161.738C134.115,-179.175 183.052,-213.457 230,-231 237.213,-233.695 244.821,-236.032 252.544,-238.056"/>
<polygon fill="midnightblue" stroke="midnightblue" points="251.822,-241.483 262.367,-240.458 253.484,-234.683 251.822,-241.483"/>
</g>
<!-- Node4 -->
<g id="node7" class="node"><title>Node4</title>
<a xlink:href="classGeneticAlgorithm_1_1Core_1_1Scheduler.html#ac908478a7dd8d6f3924b9ddbc43c53d2" target="_top" xlink:title="This function is called once at the end of the runGA method.">
<polygon fill="white" stroke="black" points="246,-200.5 246,-221.5 442,-221.5 442,-200.5 246,-200.5"/>
<text text-anchor="middle" x="344" y="-208.5" font-family="Helvetica,sans-Serif" font-size="10.00">GeneticAlgorithm.Core.Scheduler.finalize</text>
</a>
</g>
<!-- Node1&#45;&gt;Node4 -->
<g id="edge6" class="edge"><title>Node1&#45;&gt;Node4</title>
<path fill="none" stroke="midnightblue" d="M128.157,-161.513C154.931,-170.272 194.691,-182.624 230,-191 241.609,-193.754 253.965,-196.306 266.097,-198.602"/>
<polygon fill="midnightblue" stroke="midnightblue" points="265.746,-202.096 276.215,-200.469 267.016,-195.212 265.746,-202.096"/>
</g>
<!-- Node5 -->
<g id="node9" class="node"><title>Node5</title>
<a xlink:href="classGeneticAlgorithm_1_1Core_1_1GeneticOperator.html#adb54985e7880c5b826d0fcc42b900289" target="_top" xlink:title="This function is called once, during the startup phase of the algorithm.">
<polygon fill="white" stroke="black" points="230,-160.5 230,-181.5 458,-181.5 458,-160.5 230,-160.5"/>
<text text-anchor="middle" x="344" y="-168.5" font-family="Helvetica,sans-Serif" font-size="10.00">GeneticAlgorithm.Core.GeneticOperator.initialize</text>
</a>
</g>
<!-- Node1&#45;&gt;Node5 -->
<g id="edge8" class="edge"><title>Node1&#45;&gt;Node5</title>
<path fill="none" stroke="midnightblue" d="M193.558,-158.818C202.209,-159.519 211.045,-160.234 219.886,-160.95"/>
<polygon fill="midnightblue" stroke="midnightblue" points="219.61,-164.439 229.86,-161.758 220.175,-157.462 219.61,-164.439"/>
</g>
<!-- Node6 -->
<g id="node11" class="node"><title>Node6</title>
<a xlink:href="classGeneticAlgorithm_1_1Core_1_1Scheduler.html#ab5b32dc413792c0e00d27cf954fc8bf6" target="_top" xlink:title="This function is called at the begining of the runGA method.">
<polygon fill="white" stroke="black" points="244,-120.5 244,-141.5 444,-141.5 444,-120.5 244,-120.5"/>
<text text-anchor="middle" x="344" y="-128.5" font-family="Helvetica,sans-Serif" font-size="10.00">GeneticAlgorithm.Core.Scheduler.initialize</text>
</a>
</g>
<!-- Node1&#45;&gt;Node6 -->
<g id="edge10" class="edge"><title>Node1&#45;&gt;Node6</title>
<path fill="none" stroke="midnightblue" d="M193.558,-143.182C206.712,-142.116 220.295,-141.017 233.669,-139.934"/>
<polygon fill="midnightblue" stroke="midnightblue" points="234.161,-143.405 243.846,-139.11 233.596,-136.428 234.161,-143.405"/>
</g>
<!-- Node7 -->
<g id="node13" class="node"><title>Node7</title>
<a xlink:href="classGeneticAlgorithm_1_1LogGenerations.html#aac4af32dc33f64464d834d329ad10d2c" target="_top" xlink:title="This function is called once every iteration.">
<polygon fill="white" stroke="black" points="247.5,-80.5 247.5,-101.5 440.5,-101.5 440.5,-80.5 247.5,-80.5"/>
<text text-anchor="middle" x="344" y="-88.5" font-family="Helvetica,sans-Serif" font-size="10.00">GeneticAlgorithm.LogGenerations.iterate</text>
</a>
</g>
<!-- Node1&#45;&gt;Node7 -->
<g id="edge12" class="edge"><title>Node1&#45;&gt;Node7</title>
<path fill="none" stroke="midnightblue" d="M128.157,-140.487C154.931,-131.728 194.691,-119.376 230,-111 241.609,-108.246 253.965,-105.694 266.097,-103.398"/>
<polygon fill="midnightblue" stroke="midnightblue" points="267.016,-106.788 276.215,-101.531 265.746,-99.9039 267.016,-106.788"/>
</g>
<!-- Node8 -->
<g id="node15" class="node"><title>Node8</title>
<a xlink:href="classGeneticAlgorithm_1_1Core_1_1GeneticOperator.html#a534b2db8f48295f6502771d288b959cb" target="_top" xlink:title="This function is called once every iteration.">
<polygon fill="white" stroke="black" points="234,-40.5 234,-61.5 454,-61.5 454,-40.5 234,-40.5"/>
<text text-anchor="middle" x="344" y="-48.5" font-family="Helvetica,sans-Serif" font-size="10.00">GeneticAlgorithm.Core.GeneticOperator.iterate</text>
</a>
</g>
<!-- Node1&#45;&gt;Node8 -->
<g id="edge14" class="edge"><title>Node1&#45;&gt;Node8</title>
<path fill="none" stroke="midnightblue" d="M110.864,-140.262C134.115,-122.825 183.052,-88.5428 230,-71 237.213,-68.3048 244.821,-65.9683 252.544,-63.9436"/>
<polygon fill="midnightblue" stroke="midnightblue" points="253.484,-67.3169 262.367,-61.5421 251.822,-60.5171 253.484,-67.3169"/>
</g>
<!-- Node9 -->
<g id="node17" class="node"><title>Node9</title>
<a xlink:href="classGeneticAlgorithm_1_1Core_1_1Scheduler.html#a050ad156c72382e3ab3760763a5ca873" target="_top" xlink:title="This function is called every iteration of the runGA method.">
<polygon fill="white" stroke="black" points="248,-0.5 248,-21.5 440,-21.5 440,-0.5 248,-0.5"/>
<text text-anchor="middle" x="344" y="-8.5" font-family="Helvetica,sans-Serif" font-size="10.00">GeneticAlgorithm.Core.Scheduler.iterate</text>
</a>
</g>
<!-- Node1&#45;&gt;Node9 -->
<g id="edge16" class="edge"><title>Node1&#45;&gt;Node9</title>
<path fill="none" stroke="midnightblue" d="M105.283,-140.201C124.366,-116.173 174.098,-58.2709 230,-31 234.91,-28.6048 240.063,-26.4927 245.352,-24.6307"/>
<polygon fill="midnightblue" stroke="midnightblue" points="246.539,-27.9255 254.995,-21.542 244.404,-21.2591 246.539,-27.9255"/>
</g>
</g>
</svg>
