<?xml version="1.0" encoding="UTF-8" standalone="no"?>
<!DOCTYPE svg PUBLIC "-//W3C//DTD SVG 1.1//EN"
 "http://www.w3.org/Graphics/SVG/1.1/DTD/svg11.dtd">
<!-- Generated by graphviz version 2.26.3 (20100126.1600)
 -->
<!-- Title: G Pages: 1 -->
<!--zoomable 554 -->
<svg id="main" version="1.1" xmlns="http://www.w3.org/2000/svg" xmlns:xlink="http://www.w3.org/1999/xlink" xml:space="preserve" onload="init(evt)">
        <defs>
                <circle id="rim" cx="0" cy="0" r="7"/>
                <circle id="rim2" cx="0" cy="0" r="3.5"/>
                <g id="zoomPlus">
                        <use xlink:href="#rim" fill="#404040">
                                <set attributeName="fill" to="#808080" begin="zoomplus.mouseover" end="zoomplus.mouseout"/>
                        </use>
                        <path d="M-4,0h8M0,-4v8" fill="none" stroke="white" stroke-width="1.5" pointer-events="none"/>
                </g>
                <g id="zoomMin">
                        <use xlink:href="#rim" fill="#404040">
                                <set attributeName="fill" to="#808080" begin="zoomminus.mouseover" end="zoomminus.mouseout"/>
                        </use>
                        <path d="M-4,0h8" fill="none" stroke="white" stroke-width="1.5" pointer-events="none"/>
                </g>
                <g id="dirArrow">
                        <path fill="none" stroke="white" stroke-width="1.5" d="M0,-3.0v7 M-2.5,-0.5L0,-3.0L2.5,-0.5"/>
                </g>
               <g id="resetDef">
                       <use xlink:href="#rim2" fill="#404040">
                               <set attributeName="fill" to="#808080" begin="reset.mouseover" end="reset.mouseout"/>
                       </use>
               </g>
        </defs>

<script type="text/javascript">
var viewWidth = 1562;
var viewHeight = 554;
var sectionId = 'dynsection-0';
</script>
<script xlink:href="svgpan.js"/>
<svg id="graph" class="graph">
<g id="viewport">
<title>G</title>
<polygon fill="white" stroke="white" points="-4,5 -4,-550 1559,-550 1559,5 -4,5"/>
<!-- Node1 -->
<g id="node1" class="node"><title>Node1</title>
<polygon fill="#bfbfbf" stroke="black" points="1001.5,-482.5 1001.5,-545.5 1044.5,-545.5 1044.5,-482.5 1001.5,-482.5"/>
<text text-anchor="middle" x="1023" y="-532.5" font-family="Helvetica,sans-Serif" font-size="10.00">object</text>
<polyline fill="none" stroke="black" points="1001.5,-524.5 1044.5,-524.5 "/>
<text text-anchor="middle" x="1023" y="-511.5" font-family="Helvetica,sans-Serif" font-size="10.00"> </text>
<polyline fill="none" stroke="black" points="1001.5,-503.5 1044.5,-503.5 "/>
<text text-anchor="middle" x="1023" y="-490.5" font-family="Helvetica,sans-Serif" font-size="10.00"> </text>
</g>
<!-- Node2 -->
<g id="node3" class="node"><title>Node2</title>
<a xlink:href="classGeneticAlgorithm_1_1Core_1_1GABaseObject.html" target="_top" xlink:title="The base object provides the functions repr and str.">
<polygon fill="white" stroke="black" points="931,-356.5 931,-445.5 1115,-445.5 1115,-356.5 931,-356.5"/>
<text text-anchor="middle" x="1023" y="-432.5" font-family="Helvetica,sans-Serif" font-size="10.00">GeneticAlgorithm.Core.GABaseObject</text>
<polyline fill="none" stroke="black" points="931,-424.5 1115,-424.5 "/>
<text text-anchor="middle" x="1023" y="-411.5" font-family="Helvetica,sans-Serif" font-size="10.00"> </text>
<polyline fill="none" stroke="black" points="931,-403.5 1115,-403.5 "/>
<text text-anchor="start" x="939" y="-390.5" font-family="Helvetica,sans-Serif" font-size="10.00">+ __init__()</text>
<text text-anchor="start" x="939" y="-377.5" font-family="Helvetica,sans-Serif" font-size="10.00">+ __repr__()</text>
<text text-anchor="start" x="939" y="-364.5" font-family="Helvetica,sans-Serif" font-size="10.00">+ __str__()</text>
</a>
</g>
<!-- Node1&#45;&gt;Node2 -->
<g id="edge2" class="edge"><title>Node1&#45;&gt;Node2</title>
<path fill="none" stroke="midnightblue" d="M1023,-472.015C1023,-463.403 1023,-454.307 1023,-445.606"/>
<polygon fill="none" stroke="midnightblue" points="1019.5,-472.222 1023,-482.222 1026.5,-472.223 1019.5,-472.222"/>
</g>
<!-- Node3 -->
<g id="node5" class="node"><title>Node3</title>
<a xlink:href="classGeneticAlgorithm_1_1Core_1_1BaseChromosomeSegment.html" target="_top" xlink:title="This class defines the minimal expression of a chromosome segment.">
<polygon fill="white" stroke="black" points="208.5,-198 208.5,-300 447.5,-300 447.5,-198 208.5,-198"/>
<text text-anchor="middle" x="328" y="-287" font-family="Helvetica,sans-Serif" font-size="10.00">GeneticAlgorithm.Core.BaseChromosomeSegment</text>
<polyline fill="none" stroke="black" points="208.5,-279 447.5,-279 "/>
<text text-anchor="start" x="216.5" y="-266" font-family="Helvetica,sans-Serif" font-size="10.00">+ data</text>
<polyline fill="none" stroke="black" points="208.5,-258 447.5,-258 "/>
<text text-anchor="start" x="216.5" y="-245" font-family="Helvetica,sans-Serif" font-size="10.00">+ __init__()</text>
<text text-anchor="start" x="216.5" y="-232" font-family="Helvetica,sans-Serif" font-size="10.00">+ randomize()</text>
<text text-anchor="start" x="216.5" y="-219" font-family="Helvetica,sans-Serif" font-size="10.00">+ crossover()</text>
<text text-anchor="start" x="216.5" y="-206" font-family="Helvetica,sans-Serif" font-size="10.00">+ mutate()</text>
</a>
</g>
<!-- Node2&#45;&gt;Node3 -->
<g id="edge4" class="edge"><title>Node2&#45;&gt;Node3</title>
<path fill="none" stroke="midnightblue" d="M921.051,-380.157C843.165,-364.101 733.201,-341.144 637,-320 574.503,-306.264 505.048,-290.362 447.841,-277.094"/>
<polygon fill="none" stroke="midnightblue" points="920.364,-383.589 930.865,-382.179 921.776,-376.733 920.364,-383.589"/>
</g>
<!-- Node5 -->
<g id="node9" class="node"><title>Node5</title>
<a xlink:href="classGeneticAlgorithm_1_1Core_1_1GeneticOperator.html" target="_top" xlink:title="GeneticOperator is the base class that should be used to implement selection, crossover and mutation...">
<polygon fill="white" stroke="black" points="646,-204.5 646,-293.5 836,-293.5 836,-204.5 646,-204.5"/>
<text text-anchor="middle" x="741" y="-280.5" font-family="Helvetica,sans-Serif" font-size="10.00">GeneticAlgorithm.Core.GeneticOperator</text>
<polyline fill="none" stroke="black" points="646,-272.5 836,-272.5 "/>
<text text-anchor="middle" x="741" y="-259.5" font-family="Helvetica,sans-Serif" font-size="10.00"> </text>
<polyline fill="none" stroke="black" points="646,-251.5 836,-251.5 "/>
<text text-anchor="start" x="654" y="-238.5" font-family="Helvetica,sans-Serif" font-size="10.00">+ initialize()</text>
<text text-anchor="start" x="654" y="-225.5" font-family="Helvetica,sans-Serif" font-size="10.00">+ iterate()</text>
<text text-anchor="start" x="654" y="-212.5" font-family="Helvetica,sans-Serif" font-size="10.00">+ finalize()</text>
</a>
</g>
<!-- Node2&#45;&gt;Node5 -->
<g id="edge8" class="edge"><title>Node2&#45;&gt;Node5</title>
<path fill="none" stroke="midnightblue" d="M921.648,-358.52C896.195,-346.866 869.238,-333.654 845,-320 830.905,-312.06 816.269,-302.777 802.582,-293.592"/>
<polygon fill="none" stroke="midnightblue" points="920.397,-361.795 930.95,-362.74 923.29,-355.421 920.397,-361.795"/>
</g>
<!-- Node12 -->
<g id="node23" class="node"><title>Node12</title>
<a xlink:href="classGeneticAlgorithm_1_1Core_1_1Genotype.html" target="_top" xlink:title="The base Genotype class from which all chromosomes must derived.">
<polygon fill="white" stroke="black" points="853.5,-178.5 853.5,-319.5 1014.5,-319.5 1014.5,-178.5 853.5,-178.5"/>
<text text-anchor="middle" x="934" y="-306.5" font-family="Helvetica,sans-Serif" font-size="10.00">GeneticAlgorithm.Core.Genotype</text>
<polyline fill="none" stroke="black" points="853.5,-298.5 1014.5,-298.5 "/>
<text text-anchor="start" x="861.5" y="-285.5" font-family="Helvetica,sans-Serif" font-size="10.00">+ segments</text>
<polyline fill="none" stroke="black" points="853.5,-277.5 1014.5,-277.5 "/>
<text text-anchor="start" x="861.5" y="-264.5" font-family="Helvetica,sans-Serif" font-size="10.00">+ __init__()</text>
<text text-anchor="start" x="861.5" y="-251.5" font-family="Helvetica,sans-Serif" font-size="10.00">+ __setattr__()</text>
<text text-anchor="start" x="861.5" y="-238.5" font-family="Helvetica,sans-Serif" font-size="10.00">+ randomize()</text>
<text text-anchor="start" x="861.5" y="-225.5" font-family="Helvetica,sans-Serif" font-size="10.00">+ addSegment()</text>
<text text-anchor="start" x="861.5" y="-212.5" font-family="Helvetica,sans-Serif" font-size="10.00">+ crossover()</text>
<text text-anchor="start" x="861.5" y="-199.5" font-family="Helvetica,sans-Serif" font-size="10.00">+ mutate()</text>
<text text-anchor="start" x="861.5" y="-186.5" font-family="Helvetica,sans-Serif" font-size="10.00">+ __str__()</text>
</a>
</g>
<!-- Node2&#45;&gt;Node12 -->
<g id="edge22" class="edge"><title>Node2&#45;&gt;Node12</title>
<path fill="none" stroke="midnightblue" d="M991.627,-347.419C986.374,-338.447 980.852,-329.017 975.394,-319.695"/>
<polygon fill="none" stroke="midnightblue" points="988.705,-349.356 996.778,-356.217 994.746,-345.819 988.705,-349.356"/>
</g>
<!-- Node13 -->
<g id="node25" class="node"><title>Node13</title>
<a xlink:href="classGeneticAlgorithm_1_1Core_1_1Individual.html" target="_top" xlink:title="This class is a container intended to store all information relevant to an individual.">
<polygon fill="white" stroke="black" points="1032,-178.5 1032,-319.5 1192,-319.5 1192,-178.5 1032,-178.5"/>
<text text-anchor="middle" x="1112" y="-306.5" font-family="Helvetica,sans-Serif" font-size="10.00">GeneticAlgorithm.Core.Individual</text>
<polyline fill="none" stroke="black" points="1032,-298.5 1192,-298.5 "/>
<text text-anchor="middle" x="1112" y="-285.5" font-family="Helvetica,sans-Serif" font-size="10.00"> </text>
<polyline fill="none" stroke="black" points="1032,-277.5 1192,-277.5 "/>
<text text-anchor="start" x="1040" y="-264.5" font-family="Helvetica,sans-Serif" font-size="10.00">+ __init__()</text>
<text text-anchor="start" x="1040" y="-251.5" font-family="Helvetica,sans-Serif" font-size="10.00">+ randomize()</text>
<text text-anchor="start" x="1040" y="-238.5" font-family="Helvetica,sans-Serif" font-size="10.00">+ valuesToStr()</text>
<text text-anchor="start" x="1040" y="-225.5" font-family="Helvetica,sans-Serif" font-size="10.00">+ propertiesToStr()</text>
<text text-anchor="start" x="1040" y="-212.5" font-family="Helvetica,sans-Serif" font-size="10.00">+ __str__()</text>
<text text-anchor="start" x="1040" y="-199.5" font-family="Helvetica,sans-Serif" font-size="10.00">+ crossover()</text>
<text text-anchor="start" x="1040" y="-186.5" font-family="Helvetica,sans-Serif" font-size="10.00">+ mutate()</text>
</a>
</g>
<!-- Node2&#45;&gt;Node13 -->
<g id="edge24" class="edge"><title>Node2&#45;&gt;Node13</title>
<path fill="none" stroke="midnightblue" d="M1054.37,-347.419C1059.63,-338.447 1065.15,-329.017 1070.61,-319.695"/>
<polygon fill="none" stroke="midnightblue" points="1051.25,-345.819 1049.22,-356.217 1057.29,-349.356 1051.25,-345.819"/>
</g>
<!-- Node14 -->
<g id="node27" class="node"><title>Node14</title>
<a xlink:href="classGeneticAlgorithm_1_1Core_1_1Population.html" target="_top" xlink:title="This class is a container, intended to store references to individuals and all their.">
<polygon fill="white" stroke="black" points="1210,-198 1210,-300 1374,-300 1374,-198 1210,-198"/>
<text text-anchor="middle" x="1292" y="-287" font-family="Helvetica,sans-Serif" font-size="10.00">GeneticAlgorithm.Core.Population</text>
<polyline fill="none" stroke="black" points="1210,-279 1374,-279 "/>
<text text-anchor="start" x="1218" y="-266" font-family="Helvetica,sans-Serif" font-size="10.00">+ individuals</text>
<polyline fill="none" stroke="black" points="1210,-258 1374,-258 "/>
<text text-anchor="start" x="1218" y="-245" font-family="Helvetica,sans-Serif" font-size="10.00">+ __init__()</text>
<text text-anchor="start" x="1218" y="-232" font-family="Helvetica,sans-Serif" font-size="10.00">+ __str__()</text>
<text text-anchor="start" x="1218" y="-219" font-family="Helvetica,sans-Serif" font-size="10.00">+ populate()</text>
<text text-anchor="start" x="1218" y="-206" font-family="Helvetica,sans-Serif" font-size="10.00">+ randomize()</text>
</a>
</g>
<!-- Node2&#45;&gt;Node14 -->
<g id="edge26" class="edge"><title>Node2&#45;&gt;Node14</title>
<path fill="none" stroke="midnightblue" d="M1124.56,-359.768C1150.12,-348.05 1177.08,-334.496 1201,-320 1210.85,-314.029 1220.87,-307.158 1230.48,-300.093"/>
<polygon fill="none" stroke="midnightblue" points="1122.87,-356.687 1115.21,-364 1125.76,-363.064 1122.87,-356.687"/>
</g>
<!-- Node15 -->
<g id="node29" class="node"><title>Node15</title>
<a xlink:href="classGeneticAlgorithm_1_1Core_1_1Scheduler.html" target="_top" xlink:title="A class that encapsulates a Population and a list of GeneticOperator.">
<polygon fill="white" stroke="black" points="1392,-185 1392,-313 1554,-313 1554,-185 1392,-185"/>
<text text-anchor="middle" x="1473" y="-300" font-family="Helvetica,sans-Serif" font-size="10.00">GeneticAlgorithm.Core.Scheduler</text>
<polyline fill="none" stroke="black" points="1392,-292 1554,-292 "/>
<text text-anchor="middle" x="1473" y="-279" font-family="Helvetica,sans-Serif" font-size="10.00"> </text>
<polyline fill="none" stroke="black" points="1392,-271 1554,-271 "/>
<text text-anchor="start" x="1400" y="-258" font-family="Helvetica,sans-Serif" font-size="10.00">+ __init__()</text>
<text text-anchor="start" x="1400" y="-245" font-family="Helvetica,sans-Serif" font-size="10.00">+ __str__()</text>
<text text-anchor="start" x="1400" y="-232" font-family="Helvetica,sans-Serif" font-size="10.00">+ initialize()</text>
<text text-anchor="start" x="1400" y="-219" font-family="Helvetica,sans-Serif" font-size="10.00">+ iterate()</text>
<text text-anchor="start" x="1400" y="-206" font-family="Helvetica,sans-Serif" font-size="10.00">+ finalize()</text>
<text text-anchor="start" x="1400" y="-193" font-family="Helvetica,sans-Serif" font-size="10.00">+ runGA()</text>
</a>
</g>
<!-- Node2&#45;&gt;Node15 -->
<g id="edge28" class="edge"><title>Node2&#45;&gt;Node15</title>
<path fill="none" stroke="midnightblue" d="M1125.37,-390.303C1199.68,-379.65 1301.11,-359.014 1383,-320 1387.4,-317.903 1391.79,-315.557 1396.11,-313.029"/>
<polygon fill="none" stroke="midnightblue" points="1124.49,-386.892 1115.07,-391.741 1125.46,-393.825 1124.49,-386.892"/>
</g>
<!-- Node4 -->
<g id="node7" class="node"><title>Node4</title>
<a xlink:href="classGeneticAlgorithm_1_1GenotypeLibrary_1_1BinaryChromosomeSegment.html" target="_top" xlink:title="This class implements an integer variable encoded by a fixed number of bits.">
<polygon fill="white" stroke="black" points="0,-0.5 0,-141.5 294,-141.5 294,-0.5 0,-0.5"/>
<text text-anchor="middle" x="147" y="-128.5" font-family="Helvetica,sans-Serif" font-size="10.00">GeneticAlgorithm.GenotypeLibrary.BinaryChromosomeSegment</text>
<polyline fill="none" stroke="black" points="0,-120.5 294,-120.5 "/>
<text text-anchor="start" x="8" y="-107.5" font-family="Helvetica,sans-Serif" font-size="10.00">+ data</text>
<polyline fill="none" stroke="black" points="0,-99.5 294,-99.5 "/>
<text text-anchor="start" x="8" y="-86.5" font-family="Helvetica,sans-Serif" font-size="10.00">+ __init__()</text>
<text text-anchor="start" x="8" y="-73.5" font-family="Helvetica,sans-Serif" font-size="10.00">+ __str__()</text>
<text text-anchor="start" x="8" y="-60.5" font-family="Helvetica,sans-Serif" font-size="10.00">+ maxValue()</text>
<text text-anchor="start" x="8" y="-47.5" font-family="Helvetica,sans-Serif" font-size="10.00">+ randomize()</text>
<text text-anchor="start" x="8" y="-34.5" font-family="Helvetica,sans-Serif" font-size="10.00">+ __setattr__()</text>
<text text-anchor="start" x="8" y="-21.5" font-family="Helvetica,sans-Serif" font-size="10.00">+ crossover()</text>
<text text-anchor="start" x="8" y="-8.5" font-family="Helvetica,sans-Serif" font-size="10.00">+ mutate()</text>
</a>
</g>
<!-- Node3&#45;&gt;Node4 -->
<g id="edge6" class="edge"><title>Node3&#45;&gt;Node4</title>
<path fill="none" stroke="midnightblue" d="M268.893,-190.873C252.889,-175.133 235.389,-157.924 218.771,-141.581"/>
<polygon fill="none" stroke="midnightblue" points="266.549,-193.476 276.133,-197.992 271.457,-188.485 266.549,-193.476"/>
</g>
<!-- Node6 -->
<g id="node11" class="node"><title>Node6</title>
<a xlink:href="classGeneticAlgorithm_1_1Core_1_1Crossover.html" target="_top" xlink:title="Crossover two individuals from population.matingPool with probability population.crossoverProbability...">
<polygon fill="white" stroke="black" points="312,-39.5 312,-102.5 476,-102.5 476,-39.5 312,-39.5"/>
<text text-anchor="middle" x="394" y="-89.5" font-family="Helvetica,sans-Serif" font-size="10.00">GeneticAlgorithm.Core.Crossover</text>
<polyline fill="none" stroke="black" points="312,-81.5 476,-81.5 "/>
<text text-anchor="start" x="320" y="-68.5" font-family="Helvetica,sans-Serif" font-size="10.00">+ iterate</text>
<polyline fill="none" stroke="black" points="312,-60.5 476,-60.5 "/>
<text text-anchor="start" x="320" y="-47.5" font-family="Helvetica,sans-Serif" font-size="10.00">+ cross()</text>
</a>
</g>
<!-- Node5&#45;&gt;Node6 -->
<g id="edge10" class="edge"><title>Node5&#45;&gt;Node6</title>
<path fill="none" stroke="midnightblue" d="M636.306,-212.53C588.72,-194.135 532.558,-169.816 485,-142 465.8,-130.77 446.142,-115.931 430.032,-102.723"/>
<polygon fill="none" stroke="midnightblue" points="635.113,-215.821 645.703,-216.129 637.616,-209.284 635.113,-215.821"/>
</g>
<!-- Node7 -->
<g id="node13" class="node"><title>Node7</title>
<a xlink:href="classGeneticAlgorithm_1_1Core_1_1Mutate.html" target="_top" xlink:title="Mutate an individual.">
<polygon fill="white" stroke="black" points="493.5,-39.5 493.5,-102.5 642.5,-102.5 642.5,-39.5 493.5,-39.5"/>
<text text-anchor="middle" x="568" y="-89.5" font-family="Helvetica,sans-Serif" font-size="10.00">GeneticAlgorithm.Core.Mutate</text>
<polyline fill="none" stroke="black" points="493.5,-81.5 642.5,-81.5 "/>
<text text-anchor="start" x="501.5" y="-68.5" font-family="Helvetica,sans-Serif" font-size="10.00">+ iterate</text>
<polyline fill="none" stroke="black" points="493.5,-60.5 642.5,-60.5 "/>
<text text-anchor="start" x="501.5" y="-47.5" font-family="Helvetica,sans-Serif" font-size="10.00">+ mutate()</text>
</a>
</g>
<!-- Node5&#45;&gt;Node7 -->
<g id="edge12" class="edge"><title>Node5&#45;&gt;Node7</title>
<path fill="none" stroke="midnightblue" d="M690.352,-196.889C660.692,-166.371 624.199,-128.823 598.823,-102.714"/>
<polygon fill="none" stroke="midnightblue" points="687.865,-199.351 697.345,-204.083 692.885,-194.473 687.865,-199.351"/>
</g>
<!-- Node8 -->
<g id="node15" class="node"><title>Node8</title>
<a xlink:href="classGeneticAlgorithm_1_1LogGenerations.html" target="_top" xlink:title="{GeneticAlgorithm.LogGenerations\n|+ generationLog\l+ numEvaluations\l+ generationCounter\l+ saveFrequency\l|+ __init__()\l+ iterate()\l+ finalize()\l}">
<polygon fill="white" stroke="black" points="659.5,-7 659.5,-135 822.5,-135 822.5,-7 659.5,-7"/>
<text text-anchor="middle" x="741" y="-122" font-family="Helvetica,sans-Serif" font-size="10.00">GeneticAlgorithm.LogGenerations</text>
<polyline fill="none" stroke="black" points="659.5,-114 822.5,-114 "/>
<text text-anchor="start" x="667.5" y="-101" font-family="Helvetica,sans-Serif" font-size="10.00">+ generationLog</text>
<text text-anchor="start" x="667.5" y="-88" font-family="Helvetica,sans-Serif" font-size="10.00">+ numEvaluations</text>
<text text-anchor="start" x="667.5" y="-75" font-family="Helvetica,sans-Serif" font-size="10.00">+ generationCounter</text>
<text text-anchor="start" x="667.5" y="-62" font-family="Helvetica,sans-Serif" font-size="10.00">+ saveFrequency</text>
<polyline fill="none" stroke="black" points="659.5,-54 822.5,-54 "/>
<text text-anchor="start" x="667.5" y="-41" font-family="Helvetica,sans-Serif" font-size="10.00">+ __init__()</text>
<text text-anchor="start" x="667.5" y="-28" font-family="Helvetica,sans-Serif" font-size="10.00">+ iterate()</text>
<text text-anchor="start" x="667.5" y="-15" font-family="Helvetica,sans-Serif" font-size="10.00">+ finalize()</text>
</a>
</g>
<!-- Node5&#45;&gt;Node8 -->
<g id="edge14" class="edge"><title>Node5&#45;&gt;Node8</title>
<path fill="none" stroke="midnightblue" d="M741,-193.991C741,-175.344 741,-154.355 741,-135.066"/>
<polygon fill="none" stroke="midnightblue" points="737.5,-194.083 741,-204.083 744.5,-194.083 737.5,-194.083"/>
</g>
<!-- Node9 -->
<g id="node17" class="node"><title>Node9</title>
<a xlink:href="classGeneticAlgorithm_1_1SelectionOperators_1_1SelectLethals.html" target="_top" xlink:title="{GeneticAlgorithm.SelectionOperators.SelectLethals\n|+ iterate\l|+ select()\l}">
<polygon fill="white" stroke="black" points="840,-39.5 840,-102.5 1080,-102.5 1080,-39.5 840,-39.5"/>
<text text-anchor="middle" x="960" y="-89.5" font-family="Helvetica,sans-Serif" font-size="10.00">GeneticAlgorithm.SelectionOperators.SelectLethals</text>
<polyline fill="none" stroke="black" points="840,-81.5 1080,-81.5 "/>
<text text-anchor="start" x="848" y="-68.5" font-family="Helvetica,sans-Serif" font-size="10.00">+ iterate</text>
<polyline fill="none" stroke="black" points="840,-60.5 1080,-60.5 "/>
<text text-anchor="start" x="848" y="-47.5" font-family="Helvetica,sans-Serif" font-size="10.00">+ select()</text>
</a>
</g>
<!-- Node5&#45;&gt;Node9 -->
<g id="edge16" class="edge"><title>Node5&#45;&gt;Node9</title>
<path fill="none" stroke="midnightblue" d="M803.91,-197.867C841.762,-167.102 888.743,-128.917 921.22,-102.52"/>
<polygon fill="none" stroke="midnightblue" points="801.533,-195.29 795.98,-204.313 805.948,-200.722 801.533,-195.29"/>
</g>
<!-- Node10 -->
<g id="node19" class="node"><title>Node10</title>
<a xlink:href="classGeneticAlgorithm_1_1SelectionOperators_1_1SUSSelection.html" target="_top" xlink:title="This operator performs stochastic uniform selection over the population, updating the field matingPoo...">
<polygon fill="white" stroke="black" points="1098,-39.5 1098,-102.5 1340,-102.5 1340,-39.5 1098,-39.5"/>
<text text-anchor="middle" x="1219" y="-89.5" font-family="Helvetica,sans-Serif" font-size="10.00">GeneticAlgorithm.SelectionOperators.SUSSelection</text>
<polyline fill="none" stroke="black" points="1098,-81.5 1340,-81.5 "/>
<text text-anchor="start" x="1106" y="-68.5" font-family="Helvetica,sans-Serif" font-size="10.00">+ iterate</text>
<polyline fill="none" stroke="black" points="1098,-60.5 1340,-60.5 "/>
<text text-anchor="start" x="1106" y="-47.5" font-family="Helvetica,sans-Serif" font-size="10.00">+ select()</text>
</a>
</g>
<!-- Node5&#45;&gt;Node10 -->
<g id="edge18" class="edge"><title>Node5&#45;&gt;Node10</title>
<path fill="none" stroke="midnightblue" d="M805.034,-198.778C817.721,-190.747 831.352,-183.337 845,-178 947.091,-138.079 985.057,-176.814 1089,-142 1117.53,-132.444 1147.14,-116.793 1170.88,-102.614"/>
<polygon fill="none" stroke="midnightblue" points="802.863,-196.015 796.412,-204.42 806.696,-201.873 802.863,-196.015"/>
</g>
<!-- Node11 -->
<g id="node21" class="node"><title>Node11</title>
<a xlink:href="classGeneticAlgorithm_1_1SumSegments.html" target="_top" xlink:title="This class implements a Genetic operator that simply sums the genotype value of every individual and ...">
<polygon fill="white" stroke="black" points="1357.5,-26.5 1357.5,-115.5 1516.5,-115.5 1516.5,-26.5 1357.5,-26.5"/>
<text text-anchor="middle" x="1437" y="-102.5" font-family="Helvetica,sans-Serif" font-size="10.00">GeneticAlgorithm.SumSegments</text>
<polyline fill="none" stroke="black" points="1357.5,-94.5 1516.5,-94.5 "/>
<text text-anchor="start" x="1365.5" y="-81.5" font-family="Helvetica,sans-Serif" font-size="10.00">+ initialize</text>
<text text-anchor="start" x="1365.5" y="-68.5" font-family="Helvetica,sans-Serif" font-size="10.00">+ iterate</text>
<text text-anchor="start" x="1365.5" y="-55.5" font-family="Helvetica,sans-Serif" font-size="10.00">+ finalize</text>
<polyline fill="none" stroke="black" points="1357.5,-47.5 1516.5,-47.5 "/>
<text text-anchor="start" x="1365.5" y="-34.5" font-family="Helvetica,sans-Serif" font-size="10.00">+ sumSegments()</text>
</a>
</g>
<!-- Node5&#45;&gt;Node11 -->
<g id="edge20" class="edge"><title>Node5&#45;&gt;Node11</title>
<path fill="none" stroke="midnightblue" d="M803.192,-198.896C816.336,-190.564 830.605,-183.014 845,-178 1057.07,-104.134 1140.04,-224.274 1349,-142 1364.53,-135.887 1379.44,-126.006 1392.44,-115.533"/>
<polygon fill="none" stroke="midnightblue" points="801.158,-196.045 794.728,-204.466 805.005,-201.893 801.158,-196.045"/>
</g>
</g>
</svg>
        <g id="navigator" transform="translate(0 0)" fill="#404254">
                <rect fill="#f2f5e9" fill-opacity="0.5" stroke="#606060" stroke-width=".5" x="0" y="0" width="60" height="60"/>
                <use id="zoomplus" xlink:href="#zoomPlus" x="17" y="9" onmousedown="handleZoom(evt,'in')"/>
                <use id="zoomminus" xlink:href="#zoomMin" x="42" y="9" onmousedown="handleZoom(evt,'out')"/>
                <use id="reset" xlink:href="#resetDef" x="30" y="36" onmousedown="handleReset()"/>
                <g id="arrowUp" xlink:href="#dirArrow" transform="translate(30 24)" onmousedown="handlePan(0,-1)">
                  <use xlink:href="#rim" fill="#404040">
                        <set attributeName="fill" to="#808080" begin="arrowUp.mouseover" end="arrowUp.mouseout"/>
                  </use>
                  <path fill="none" stroke="white" stroke-width="1.5" d="M0,-3.0v7 M-2.5,-0.5L0,-3.0L2.5,-0.5"/>
                </g>
                <g id="arrowRight" xlink:href="#dirArrow" transform="rotate(90) translate(36 -43)" onmousedown="handlePan(1,0)">
                  <use xlink:href="#rim" fill="#404040">
                        <set attributeName="fill" to="#808080" begin="arrowRight.mouseover" end="arrowRight.mouseout"/>
                  </use>
                  <path fill="none" stroke="white" stroke-width="1.5" d="M0,-3.0v7 M-2.5,-0.5L0,-3.0L2.5,-0.5"/>
                </g>
                <g id="arrowDown" xlink:href="#dirArrow" transform="rotate(180) translate(-30 -48)" onmousedown="handlePan(0,1)">
                  <use xlink:href="#rim" fill="#404040">
                        <set attributeName="fill" to="#808080" begin="arrowDown.mouseover" end="arrowDown.mouseout"/>
                  </use>
                  <path fill="none" stroke="white" stroke-width="1.5" d="M0,-3.0v7 M-2.5,-0.5L0,-3.0L2.5,-0.5"/>
                </g>
                <g id="arrowLeft" xlink:href="#dirArrow" transform="rotate(270) translate(-36 17)" onmousedown="handlePan(-1,0)">
                  <use xlink:href="#rim" fill="#404040">
                        <set attributeName="fill" to="#808080" begin="arrowLeft.mouseover" end="arrowLeft.mouseout"/>
                  </use>
                  <path fill="none" stroke="white" stroke-width="1.5" d="M0,-3.0v7 M-2.5,-0.5L0,-3.0L2.5,-0.5"/>
                </g>
        </g>
</svg>
