<?xml version="1.0" encoding="UTF-8" standalone="no"?>
<!DOCTYPE svg PUBLIC "-//W3C//DTD SVG 1.1//EN"
 "http://www.w3.org/Graphics/SVG/1.1/DTD/svg11.dtd">
<!-- Generated by graphviz version 2.26.3 (20100126.1600)
 -->
<!-- Title: G Pages: 1 -->
<svg width="198pt" height="450pt"
 viewBox="0.00 0.00 198.00 450.00" xmlns="http://www.w3.org/2000/svg" xmlns:xlink="http://www.w3.org/1999/xlink">
<g id="graph1" class="graph" transform="scale(1 1) rotate(0) translate(4 446)">
<title>G</title>
<polygon fill="white" stroke="white" points="-4,5 -4,-446 195,-446 195,5 -4,5"/>
<!-- Node1 -->
<g id="node1" class="node"><title>Node1</title>
<polygon fill="#bfbfbf" stroke="black" points="32.5,-0.5 32.5,-89.5 157.5,-89.5 157.5,-0.5 32.5,-0.5"/>
<text text-anchor="middle" x="95" y="-76.5" font-family="Helvetica,sans-Serif" font-size="10.00">GADemo.SumSegments</text>
<polyline fill="none" stroke="black" points="32.5,-68.5 157.5,-68.5 "/>
<text text-anchor="start" x="40.5" y="-55.5" font-family="Helvetica,sans-Serif" font-size="10.00">+ initialize</text>
<text text-anchor="start" x="40.5" y="-42.5" font-family="Helvetica,sans-Serif" font-size="10.00">+ iterate</text>
<text text-anchor="start" x="40.5" y="-29.5" font-family="Helvetica,sans-Serif" font-size="10.00">+ finalize</text>
<polyline fill="none" stroke="black" points="32.5,-21.5 157.5,-21.5 "/>
<text text-anchor="start" x="40.5" y="-8.5" font-family="Helvetica,sans-Serif" font-size="10.00">+ sumSegments()</text>
</g>
<!-- Node2 -->
<g id="node2" class="node"><title>Node2</title>
<a xlink:href="classGeneticAlgorithm_1_1Core_1_1GeneticOperator.html" target="_top" xlink:title="GeneticOperator is the base class that should be used to implement selection, crossover and mutation...">
<polygon fill="white" stroke="black" points="0,-126.5 0,-215.5 190,-215.5 190,-126.5 0,-126.5"/>
<text text-anchor="middle" x="95" y="-202.5" font-family="Helvetica,sans-Serif" font-size="10.00">GeneticAlgorithm.Core.GeneticOperator</text>
<polyline fill="none" stroke="black" points="0,-194.5 190,-194.5 "/>
<text text-anchor="middle" x="95" y="-181.5" font-family="Helvetica,sans-Serif" font-size="10.00"> </text>
<polyline fill="none" stroke="black" points="0,-173.5 190,-173.5 "/>
<text text-anchor="start" x="8" y="-160.5" font-family="Helvetica,sans-Serif" font-size="10.00">+ initialize()</text>
<text text-anchor="start" x="8" y="-147.5" font-family="Helvetica,sans-Serif" font-size="10.00">+ iterate()</text>
<text text-anchor="start" x="8" y="-134.5" font-family="Helvetica,sans-Serif" font-size="10.00">+ finalize()</text>
</a>
</g>
<!-- Node2&#45;&gt;Node1 -->
<g id="edge2" class="edge"><title>Node2&#45;&gt;Node1</title>
<path fill="none" stroke="midnightblue" d="M95,-116.013C95,-107.198 95,-98.1691 95,-89.6335"/>
<polygon fill="none" stroke="midnightblue" points="91.5001,-116.222 95,-126.222 98.5001,-116.222 91.5001,-116.222"/>
</g>
<!-- Node3 -->
<g id="node4" class="node"><title>Node3</title>
<a xlink:href="classGeneticAlgorithm_1_1Core_1_1GABaseObject.html" target="_top" xlink:title="The base object provides the functions repr and str.">
<polygon fill="white" stroke="black" points="3,-252.5 3,-341.5 187,-341.5 187,-252.5 3,-252.5"/>
<text text-anchor="middle" x="95" y="-328.5" font-family="Helvetica,sans-Serif" font-size="10.00">GeneticAlgorithm.Core.GABaseObject</text>
<polyline fill="none" stroke="black" points="3,-320.5 187,-320.5 "/>
<text text-anchor="middle" x="95" y="-307.5" font-family="Helvetica,sans-Serif" font-size="10.00"> </text>
<polyline fill="none" stroke="black" points="3,-299.5 187,-299.5 "/>
<text text-anchor="start" x="11" y="-286.5" font-family="Helvetica,sans-Serif" font-size="10.00">+ __init__()</text>
<text text-anchor="start" x="11" y="-273.5" font-family="Helvetica,sans-Serif" font-size="10.00">+ __repr__()</text>
<text text-anchor="start" x="11" y="-260.5" font-family="Helvetica,sans-Serif" font-size="10.00">+ __str__()</text>
</a>
</g>
<!-- Node3&#45;&gt;Node2 -->
<g id="edge4" class="edge"><title>Node3&#45;&gt;Node2</title>
<path fill="none" stroke="midnightblue" d="M95,-242.013C95,-233.198 95,-224.169 95,-215.633"/>
<polygon fill="none" stroke="midnightblue" points="91.5001,-242.222 95,-252.222 98.5001,-242.222 91.5001,-242.222"/>
</g>
<!-- Node4 -->
<g id="node6" class="node"><title>Node4</title>
<a xlink:href="classobject.html" target="_top" xlink:title="{object\n||}">
<polygon fill="white" stroke="black" points="73.5,-378.5 73.5,-441.5 116.5,-441.5 116.5,-378.5 73.5,-378.5"/>
<text text-anchor="middle" x="95" y="-428.5" font-family="Helvetica,sans-Serif" font-size="10.00">object</text>
<polyline fill="none" stroke="black" points="73.5,-420.5 116.5,-420.5 "/>
<text text-anchor="middle" x="95" y="-407.5" font-family="Helvetica,sans-Serif" font-size="10.00"> </text>
<polyline fill="none" stroke="black" points="73.5,-399.5 116.5,-399.5 "/>
<text text-anchor="middle" x="95" y="-386.5" font-family="Helvetica,sans-Serif" font-size="10.00"> </text>
</a>
</g>
<!-- Node4&#45;&gt;Node3 -->
<g id="edge6" class="edge"><title>Node4&#45;&gt;Node3</title>
<path fill="none" stroke="midnightblue" d="M95,-368.015C95,-359.403 95,-350.307 95,-341.606"/>
<polygon fill="none" stroke="midnightblue" points="91.5001,-368.222 95,-378.222 98.5001,-368.223 91.5001,-368.222"/>
</g>
</g>
</svg>
