<?xml version="1.0" encoding="UTF-8" standalone="no"?>
<!DOCTYPE svg PUBLIC "-//W3C//DTD SVG 1.1//EN"
 "http://www.w3.org/Graphics/SVG/1.1/DTD/svg11.dtd">
<!-- Generated by graphviz version 2.26.3 (20100126.1600)
 -->
<!-- Title: G Pages: 1 -->
<!--zoomable 616 -->
<svg id="main" version="1.1" xmlns="http://www.w3.org/2000/svg" xmlns:xlink="http://www.w3.org/1999/xlink" xml:space="preserve" onload="init(evt)">
        <defs>
                <circle id="rim" cx="0" cy="0" r="7"/>
                <circle id="rim2" cx="0" cy="0" r="3.5"/>
                <g id="zoomPlus">
                        <use xlink:href="#rim" fill="#404040">
                                <set attributeName="fill" to="#808080" begin="zoomplus.mouseover" end="zoomplus.mouseout"/>
                        </use>
                        <path d="M-4,0h8M0,-4v8" fill="none" stroke="white" stroke-width="1.5" pointer-events="none"/>
                </g>
                <g id="zoomMin">
                        <use xlink:href="#rim" fill="#404040">
                                <set attributeName="fill" to="#808080" begin="zoomminus.mouseover" end="zoomminus.mouseout"/>
                        </use>
                        <path d="M-4,0h8" fill="none" stroke="white" stroke-width="1.5" pointer-events="none"/>
                </g>
                <g id="dirArrow">
                        <path fill="none" stroke="white" stroke-width="1.5" d="M0,-3.0v7 M-2.5,-0.5L0,-3.0L2.5,-0.5"/>
                </g>
               <g id="resetDef">
                       <use xlink:href="#rim2" fill="#404040">
                               <set attributeName="fill" to="#808080" begin="reset.mouseover" end="reset.mouseout"/>
                       </use>
               </g>
        </defs>

<script type="text/javascript">
var viewWidth = 300;
var viewHeight = 616;
var sectionId = 'dynsection-0';
</script>
<script xlink:href="svgpan.js"/>
<svg id="graph" class="graph">
<g id="viewport">
<title>G</title>
<polygon fill="white" stroke="white" points="-4,5 -4,-612 297,-612 297,5 -4,5"/>
<!-- Node1 -->
<g id="node1" class="node"><title>Node1</title>
<polygon fill="#bfbfbf" stroke="black" points="79.5,-0.5 79.5,-115.5 212.5,-115.5 212.5,-0.5 79.5,-0.5"/>
<text text-anchor="middle" x="146" y="-102.5" font-family="Helvetica,sans-Serif" font-size="10.00">KnapsackDemo.Knapsack</text>
<polyline fill="none" stroke="black" points="79.5,-94.5 212.5,-94.5 "/>
<text text-anchor="start" x="87.5" y="-81.5" font-family="Helvetica,sans-Serif" font-size="10.00">+ maxVolume</text>
<text text-anchor="start" x="87.5" y="-68.5" font-family="Helvetica,sans-Serif" font-size="10.00">+ objectVolumes</text>
<text text-anchor="start" x="87.5" y="-55.5" font-family="Helvetica,sans-Serif" font-size="10.00">+ objectCosts</text>
<text text-anchor="start" x="87.5" y="-42.5" font-family="Helvetica,sans-Serif" font-size="10.00">+ volumeLambda</text>
<polyline fill="none" stroke="black" points="79.5,-34.5 212.5,-34.5 "/>
<text text-anchor="start" x="87.5" y="-21.5" font-family="Helvetica,sans-Serif" font-size="10.00">+ __init__()</text>
<text text-anchor="start" x="87.5" y="-8.5" font-family="Helvetica,sans-Serif" font-size="10.00">+ evaluateIndividual()</text>
</g>
<!-- Node2 -->
<g id="node2" class="node"><title>Node2</title>
<a xlink:href="classGeneticAlgorithm_1_1EvaluationOperators_1_1BaseEvaluationOperator.html" target="_top" xlink:title="This class provides an easy way of developing evaluation operators that only evaluate recently replac...">
<polygon fill="white" stroke="black" points="0,-153 0,-255 292,-255 292,-153 0,-153"/>
<text text-anchor="middle" x="146" y="-242" font-family="Helvetica,sans-Serif" font-size="10.00">GeneticAlgorithm.EvaluationOperators.BaseEvaluationOperator</text>
<polyline fill="none" stroke="black" points="0,-234 292,-234 "/>
<text text-anchor="start" x="8" y="-221" font-family="Helvetica,sans-Serif" font-size="10.00">+ initialize</text>
<text text-anchor="start" x="8" y="-208" font-family="Helvetica,sans-Serif" font-size="10.00">+ iterate</text>
<text text-anchor="start" x="8" y="-195" font-family="Helvetica,sans-Serif" font-size="10.00">+ finalize</text>
<polyline fill="none" stroke="black" points="0,-187 292,-187 "/>
<text text-anchor="start" x="8" y="-174" font-family="Helvetica,sans-Serif" font-size="10.00">+ evaluateIndividual()</text>
<text text-anchor="start" x="8" y="-161" font-family="Helvetica,sans-Serif" font-size="10.00">+ evaluate()</text>
</a>
</g>
<!-- Node2&#45;&gt;Node1 -->
<g id="edge2" class="edge"><title>Node2&#45;&gt;Node1</title>
<path fill="none" stroke="midnightblue" d="M146,-142.853C146,-133.8 146,-124.498 146,-115.523"/>
<polygon fill="none" stroke="midnightblue" points="142.5,-142.936 146,-152.936 149.5,-142.936 142.5,-142.936"/>
</g>
<!-- Node3 -->
<g id="node4" class="node"><title>Node3</title>
<a xlink:href="classGeneticAlgorithm_1_1Core_1_1GeneticOperator.html" target="_top" xlink:title="GeneticOperator is the base class that should be used to implement selection, crossover and mutation...">
<polygon fill="white" stroke="black" points="51,-292.5 51,-381.5 241,-381.5 241,-292.5 51,-292.5"/>
<text text-anchor="middle" x="146" y="-368.5" font-family="Helvetica,sans-Serif" font-size="10.00">GeneticAlgorithm.Core.GeneticOperator</text>
<polyline fill="none" stroke="black" points="51,-360.5 241,-360.5 "/>
<text text-anchor="middle" x="146" y="-347.5" font-family="Helvetica,sans-Serif" font-size="10.00"> </text>
<polyline fill="none" stroke="black" points="51,-339.5 241,-339.5 "/>
<text text-anchor="start" x="59" y="-326.5" font-family="Helvetica,sans-Serif" font-size="10.00">+ initialize()</text>
<text text-anchor="start" x="59" y="-313.5" font-family="Helvetica,sans-Serif" font-size="10.00">+ iterate()</text>
<text text-anchor="start" x="59" y="-300.5" font-family="Helvetica,sans-Serif" font-size="10.00">+ finalize()</text>
</a>
</g>
<!-- Node3&#45;&gt;Node2 -->
<g id="edge4" class="edge"><title>Node3&#45;&gt;Node2</title>
<path fill="none" stroke="midnightblue" d="M146,-282.072C146,-273.178 146,-263.998 146,-255.197"/>
<polygon fill="none" stroke="midnightblue" points="142.5,-282.343 146,-292.343 149.5,-282.343 142.5,-282.343"/>
</g>
<!-- Node4 -->
<g id="node6" class="node"><title>Node4</title>
<a xlink:href="classGeneticAlgorithm_1_1Core_1_1GABaseObject.html" target="_top" xlink:title="The base object provides the functions repr and str.">
<polygon fill="white" stroke="black" points="54,-418.5 54,-507.5 238,-507.5 238,-418.5 54,-418.5"/>
<text text-anchor="middle" x="146" y="-494.5" font-family="Helvetica,sans-Serif" font-size="10.00">GeneticAlgorithm.Core.GABaseObject</text>
<polyline fill="none" stroke="black" points="54,-486.5 238,-486.5 "/>
<text text-anchor="middle" x="146" y="-473.5" font-family="Helvetica,sans-Serif" font-size="10.00"> </text>
<polyline fill="none" stroke="black" points="54,-465.5 238,-465.5 "/>
<text text-anchor="start" x="62" y="-452.5" font-family="Helvetica,sans-Serif" font-size="10.00">+ __init__()</text>
<text text-anchor="start" x="62" y="-439.5" font-family="Helvetica,sans-Serif" font-size="10.00">+ __repr__()</text>
<text text-anchor="start" x="62" y="-426.5" font-family="Helvetica,sans-Serif" font-size="10.00">+ __str__()</text>
</a>
</g>
<!-- Node4&#45;&gt;Node3 -->
<g id="edge6" class="edge"><title>Node4&#45;&gt;Node3</title>
<path fill="none" stroke="midnightblue" d="M146,-408.013C146,-399.198 146,-390.169 146,-381.633"/>
<polygon fill="none" stroke="midnightblue" points="142.5,-408.222 146,-418.222 149.5,-408.222 142.5,-408.222"/>
</g>
<!-- Node5 -->
<g id="node8" class="node"><title>Node5</title>
<a xlink:href="classobject.html" target="_top" xlink:title="{object\n||}">
<polygon fill="white" stroke="black" points="124.5,-544.5 124.5,-607.5 167.5,-607.5 167.5,-544.5 124.5,-544.5"/>
<text text-anchor="middle" x="146" y="-594.5" font-family="Helvetica,sans-Serif" font-size="10.00">object</text>
<polyline fill="none" stroke="black" points="124.5,-586.5 167.5,-586.5 "/>
<text text-anchor="middle" x="146" y="-573.5" font-family="Helvetica,sans-Serif" font-size="10.00"> </text>
<polyline fill="none" stroke="black" points="124.5,-565.5 167.5,-565.5 "/>
<text text-anchor="middle" x="146" y="-552.5" font-family="Helvetica,sans-Serif" font-size="10.00"> </text>
</a>
</g>
<!-- Node5&#45;&gt;Node4 -->
<g id="edge8" class="edge"><title>Node5&#45;&gt;Node4</title>
<path fill="none" stroke="midnightblue" d="M146,-534.015C146,-525.403 146,-516.307 146,-507.606"/>
<polygon fill="none" stroke="midnightblue" points="142.5,-534.222 146,-544.222 149.5,-534.223 142.5,-534.222"/>
</g>
</g>
</svg>
        <g id="navigator" transform="translate(0 0)" fill="#404254">
                <rect fill="#f2f5e9" fill-opacity="0.5" stroke="#606060" stroke-width=".5" x="0" y="0" width="60" height="60"/>
                <use id="zoomplus" xlink:href="#zoomPlus" x="17" y="9" onmousedown="handleZoom(evt,'in')"/>
                <use id="zoomminus" xlink:href="#zoomMin" x="42" y="9" onmousedown="handleZoom(evt,'out')"/>
                <use id="reset" xlink:href="#resetDef" x="30" y="36" onmousedown="handleReset()"/>
                <g id="arrowUp" xlink:href="#dirArrow" transform="translate(30 24)" onmousedown="handlePan(0,-1)">
                  <use xlink:href="#rim" fill="#404040">
                        <set attributeName="fill" to="#808080" begin="arrowUp.mouseover" end="arrowUp.mouseout"/>
                  </use>
                  <path fill="none" stroke="white" stroke-width="1.5" d="M0,-3.0v7 M-2.5,-0.5L0,-3.0L2.5,-0.5"/>
                </g>
                <g id="arrowRight" xlink:href="#dirArrow" transform="rotate(90) translate(36 -43)" onmousedown="handlePan(1,0)">
                  <use xlink:href="#rim" fill="#404040">
                        <set attributeName="fill" to="#808080" begin="arrowRight.mouseover" end="arrowRight.mouseout"/>
                  </use>
                  <path fill="none" stroke="white" stroke-width="1.5" d="M0,-3.0v7 M-2.5,-0.5L0,-3.0L2.5,-0.5"/>
                </g>
                <g id="arrowDown" xlink:href="#dirArrow" transform="rotate(180) translate(-30 -48)" onmousedown="handlePan(0,1)">
                  <use xlink:href="#rim" fill="#404040">
                        <set attributeName="fill" to="#808080" begin="arrowDown.mouseover" end="arrowDown.mouseout"/>
                  </use>
                  <path fill="none" stroke="white" stroke-width="1.5" d="M0,-3.0v7 M-2.5,-0.5L0,-3.0L2.5,-0.5"/>
                </g>
                <g id="arrowLeft" xlink:href="#dirArrow" transform="rotate(270) translate(-36 17)" onmousedown="handlePan(-1,0)">
                  <use xlink:href="#rim" fill="#404040">
                        <set attributeName="fill" to="#808080" begin="arrowLeft.mouseover" end="arrowLeft.mouseout"/>
                  </use>
                  <path fill="none" stroke="white" stroke-width="1.5" d="M0,-3.0v7 M-2.5,-0.5L0,-3.0L2.5,-0.5"/>
                </g>
        </g>
</svg>
