<?xml version="1.0" encoding="UTF-8" standalone="no"?>
<!DOCTYPE svg PUBLIC "-//W3C//DTD SVG 1.1//EN"
 "http://www.w3.org/Graphics/SVG/1.1/DTD/svg11.dtd">
<!-- Generated by graphviz version 2.26.3 (20100126.1600)
 -->
<!-- Title: G Pages: 1 -->
<!--zoomable 924 -->
<svg id="main" version="1.1" xmlns="http://www.w3.org/2000/svg" xmlns:xlink="http://www.w3.org/1999/xlink" xml:space="preserve" onload="init(evt)">
        <defs>
                <circle id="rim" cx="0" cy="0" r="7"/>
                <circle id="rim2" cx="0" cy="0" r="3.5"/>
                <g id="zoomPlus">
                        <use xlink:href="#rim" fill="#404040">
                                <set attributeName="fill" to="#808080" begin="zoomplus.mouseover" end="zoomplus.mouseout"/>
                        </use>
                        <path d="M-4,0h8M0,-4v8" fill="none" stroke="white" stroke-width="1.5" pointer-events="none"/>
                </g>
                <g id="zoomMin">
                        <use xlink:href="#rim" fill="#404040">
                                <set attributeName="fill" to="#808080" begin="zoomminus.mouseover" end="zoomminus.mouseout"/>
                        </use>
                        <path d="M-4,0h8" fill="none" stroke="white" stroke-width="1.5" pointer-events="none"/>
                </g>
                <g id="dirArrow">
                        <path fill="none" stroke="white" stroke-width="1.5" d="M0,-3.0v7 M-2.5,-0.5L0,-3.0L2.5,-0.5"/>
                </g>
               <g id="resetDef">
                       <use xlink:href="#rim2" fill="#404040">
                               <set attributeName="fill" to="#808080" begin="reset.mouseover" end="reset.mouseout"/>
                       </use>
               </g>
        </defs>

<script type="text/javascript">
var viewWidth = 1936;
var viewHeight = 924;
var sectionId = 'dynsection-0';
</script>
<script xlink:href="svgpan.js"/>
<svg id="graph" class="graph">
<g id="viewport">
<title>G</title>
<polygon fill="white" stroke="white" points="-4,5 -4,-920 1933,-920 1933,5 -4,5"/>
<!-- Node1 -->
<g id="node1" class="node"><title>Node1</title>
<polygon fill="#bfbfbf" stroke="black" points="1179.5,-852.5 1179.5,-915.5 1222.5,-915.5 1222.5,-852.5 1179.5,-852.5"/>
<text text-anchor="middle" x="1201" y="-902.5" font-family="Helvetica,sans-Serif" font-size="10.00">object</text>
<polyline fill="none" stroke="black" points="1179.5,-894.5 1222.5,-894.5 "/>
<text text-anchor="middle" x="1201" y="-881.5" font-family="Helvetica,sans-Serif" font-size="10.00"> </text>
<polyline fill="none" stroke="black" points="1179.5,-873.5 1222.5,-873.5 "/>
<text text-anchor="middle" x="1201" y="-860.5" font-family="Helvetica,sans-Serif" font-size="10.00"> </text>
</g>
<!-- Node2 -->
<g id="node3" class="node"><title>Node2</title>
<a xlink:href="classGeneticAlgorithm_1_1Core_1_1GABaseObject.html" target="_top" xlink:title="The base object provides the functions repr and str.">
<polygon fill="white" stroke="black" points="1109,-726.5 1109,-815.5 1293,-815.5 1293,-726.5 1109,-726.5"/>
<text text-anchor="middle" x="1201" y="-802.5" font-family="Helvetica,sans-Serif" font-size="10.00">GeneticAlgorithm.Core.GABaseObject</text>
<polyline fill="none" stroke="black" points="1109,-794.5 1293,-794.5 "/>
<text text-anchor="middle" x="1201" y="-781.5" font-family="Helvetica,sans-Serif" font-size="10.00"> </text>
<polyline fill="none" stroke="black" points="1109,-773.5 1293,-773.5 "/>
<text text-anchor="start" x="1117" y="-760.5" font-family="Helvetica,sans-Serif" font-size="10.00">+ __init__()</text>
<text text-anchor="start" x="1117" y="-747.5" font-family="Helvetica,sans-Serif" font-size="10.00">+ __repr__()</text>
<text text-anchor="start" x="1117" y="-734.5" font-family="Helvetica,sans-Serif" font-size="10.00">+ __str__()</text>
</a>
</g>
<!-- Node1&#45;&gt;Node2 -->
<g id="edge2" class="edge"><title>Node1&#45;&gt;Node2</title>
<path fill="none" stroke="midnightblue" d="M1201,-842.015C1201,-833.403 1201,-824.307 1201,-815.606"/>
<polygon fill="none" stroke="midnightblue" points="1197.5,-842.222 1201,-852.222 1204.5,-842.223 1197.5,-842.222"/>
</g>
<!-- Node3 -->
<g id="node5" class="node"><title>Node3</title>
<a xlink:href="classGABaseObject-demo_1_1GeneticExampleClass.html" target="_top" xlink:title="{GABaseObject&#45;demo.GeneticExampleClass\n||}">
<polygon fill="white" stroke="black" points="341.5,-587.5 341.5,-650.5 550.5,-650.5 550.5,-587.5 341.5,-587.5"/>
<text text-anchor="middle" x="446" y="-637.5" font-family="Helvetica,sans-Serif" font-size="10.00">GABaseObject&#45;demo.GeneticExampleClass</text>
<polyline fill="none" stroke="black" points="341.5,-629.5 550.5,-629.5 "/>
<text text-anchor="middle" x="446" y="-616.5" font-family="Helvetica,sans-Serif" font-size="10.00"> </text>
<polyline fill="none" stroke="black" points="341.5,-608.5 550.5,-608.5 "/>
<text text-anchor="middle" x="446" y="-595.5" font-family="Helvetica,sans-Serif" font-size="10.00"> </text>
</a>
</g>
<!-- Node2&#45;&gt;Node3 -->
<g id="edge4" class="edge"><title>Node2&#45;&gt;Node3</title>
<path fill="none" stroke="midnightblue" d="M1098.66,-763.506C943.362,-751.222 655.982,-724.66 559,-690 533.255,-680.799 507.236,-664.995 486.664,-650.631"/>
<polygon fill="none" stroke="midnightblue" points="1098.46,-767.001 1108.7,-764.295 1099,-760.022 1098.46,-767.001"/>
</g>
<!-- Node4 -->
<g id="node7" class="node"><title>Node4</title>
<a xlink:href="classGeneticAlgorithm_1_1Core_1_1BaseChromosomeSegment.html" target="_top" xlink:title="This class defines the minimal expression of a chromosome segment.">
<polygon fill="white" stroke="black" points="567.5,-568 567.5,-670 806.5,-670 806.5,-568 567.5,-568"/>
<text text-anchor="middle" x="687" y="-657" font-family="Helvetica,sans-Serif" font-size="10.00">GeneticAlgorithm.Core.BaseChromosomeSegment</text>
<polyline fill="none" stroke="black" points="567.5,-649 806.5,-649 "/>
<text text-anchor="start" x="575.5" y="-636" font-family="Helvetica,sans-Serif" font-size="10.00">+ data</text>
<polyline fill="none" stroke="black" points="567.5,-628 806.5,-628 "/>
<text text-anchor="start" x="575.5" y="-615" font-family="Helvetica,sans-Serif" font-size="10.00">+ __init__()</text>
<text text-anchor="start" x="575.5" y="-602" font-family="Helvetica,sans-Serif" font-size="10.00">+ randomize()</text>
<text text-anchor="start" x="575.5" y="-589" font-family="Helvetica,sans-Serif" font-size="10.00">+ crossover()</text>
<text text-anchor="start" x="575.5" y="-576" font-family="Helvetica,sans-Serif" font-size="10.00">+ mutate()</text>
</a>
</g>
<!-- Node2&#45;&gt;Node4 -->
<g id="edge6" class="edge"><title>Node2&#45;&gt;Node4</title>
<path fill="none" stroke="midnightblue" d="M1098.77,-758.083C1019.59,-746.06 908.069,-724.675 815,-690 800.236,-684.499 785.115,-677.499 770.677,-670.047"/>
<polygon fill="none" stroke="midnightblue" points="1098.35,-761.558 1108.75,-759.575 1099.38,-754.635 1098.35,-761.558"/>
</g>
<!-- Node6 -->
<g id="node11" class="node"><title>Node6</title>
<a xlink:href="classGeneticAlgorithm_1_1Core_1_1GeneticOperator.html" target="_top" xlink:title="GeneticOperator is the base class that should be used to implement selection, crossover and mutation...">
<polygon fill="white" stroke="black" points="824,-574.5 824,-663.5 1014,-663.5 1014,-574.5 824,-574.5"/>
<text text-anchor="middle" x="919" y="-650.5" font-family="Helvetica,sans-Serif" font-size="10.00">GeneticAlgorithm.Core.GeneticOperator</text>
<polyline fill="none" stroke="black" points="824,-642.5 1014,-642.5 "/>
<text text-anchor="middle" x="919" y="-629.5" font-family="Helvetica,sans-Serif" font-size="10.00"> </text>
<polyline fill="none" stroke="black" points="824,-621.5 1014,-621.5 "/>
<text text-anchor="start" x="832" y="-608.5" font-family="Helvetica,sans-Serif" font-size="10.00">+ initialize()</text>
<text text-anchor="start" x="832" y="-595.5" font-family="Helvetica,sans-Serif" font-size="10.00">+ iterate()</text>
<text text-anchor="start" x="832" y="-582.5" font-family="Helvetica,sans-Serif" font-size="10.00">+ finalize()</text>
</a>
</g>
<!-- Node2&#45;&gt;Node6 -->
<g id="edge10" class="edge"><title>Node2&#45;&gt;Node6</title>
<path fill="none" stroke="midnightblue" d="M1099.65,-728.52C1074.2,-716.866 1047.24,-703.654 1023,-690 1008.9,-682.06 994.269,-672.777 980.582,-663.592"/>
<polygon fill="none" stroke="midnightblue" points="1098.4,-731.795 1108.95,-732.74 1101.29,-725.421 1098.4,-731.795"/>
</g>
<!-- Node18 -->
<g id="node35" class="node"><title>Node18</title>
<a xlink:href="classGeneticAlgorithm_1_1Core_1_1Genotype.html" target="_top" xlink:title="The base Genotype class from which all chromosomes must derived.">
<polygon fill="white" stroke="black" points="1031.5,-548.5 1031.5,-689.5 1192.5,-689.5 1192.5,-548.5 1031.5,-548.5"/>
<text text-anchor="middle" x="1112" y="-676.5" font-family="Helvetica,sans-Serif" font-size="10.00">GeneticAlgorithm.Core.Genotype</text>
<polyline fill="none" stroke="black" points="1031.5,-668.5 1192.5,-668.5 "/>
<text text-anchor="start" x="1039.5" y="-655.5" font-family="Helvetica,sans-Serif" font-size="10.00">+ segments</text>
<polyline fill="none" stroke="black" points="1031.5,-647.5 1192.5,-647.5 "/>
<text text-anchor="start" x="1039.5" y="-634.5" font-family="Helvetica,sans-Serif" font-size="10.00">+ __init__()</text>
<text text-anchor="start" x="1039.5" y="-621.5" font-family="Helvetica,sans-Serif" font-size="10.00">+ __setattr__()</text>
<text text-anchor="start" x="1039.5" y="-608.5" font-family="Helvetica,sans-Serif" font-size="10.00">+ randomize()</text>
<text text-anchor="start" x="1039.5" y="-595.5" font-family="Helvetica,sans-Serif" font-size="10.00">+ addSegment()</text>
<text text-anchor="start" x="1039.5" y="-582.5" font-family="Helvetica,sans-Serif" font-size="10.00">+ crossover()</text>
<text text-anchor="start" x="1039.5" y="-569.5" font-family="Helvetica,sans-Serif" font-size="10.00">+ mutate()</text>
<text text-anchor="start" x="1039.5" y="-556.5" font-family="Helvetica,sans-Serif" font-size="10.00">+ __str__()</text>
</a>
</g>
<!-- Node2&#45;&gt;Node18 -->
<g id="edge34" class="edge"><title>Node2&#45;&gt;Node18</title>
<path fill="none" stroke="midnightblue" d="M1169.63,-717.419C1164.37,-708.447 1158.85,-699.017 1153.39,-689.695"/>
<polygon fill="none" stroke="midnightblue" points="1166.71,-719.356 1174.78,-726.217 1172.75,-715.819 1166.71,-719.356"/>
</g>
<!-- Node19 -->
<g id="node37" class="node"><title>Node19</title>
<a xlink:href="classGeneticAlgorithm_1_1Core_1_1Individual.html" target="_top" xlink:title="This class is a container intended to store all information relevant to an individual.">
<polygon fill="white" stroke="black" points="1210,-548.5 1210,-689.5 1370,-689.5 1370,-548.5 1210,-548.5"/>
<text text-anchor="middle" x="1290" y="-676.5" font-family="Helvetica,sans-Serif" font-size="10.00">GeneticAlgorithm.Core.Individual</text>
<polyline fill="none" stroke="black" points="1210,-668.5 1370,-668.5 "/>
<text text-anchor="middle" x="1290" y="-655.5" font-family="Helvetica,sans-Serif" font-size="10.00"> </text>
<polyline fill="none" stroke="black" points="1210,-647.5 1370,-647.5 "/>
<text text-anchor="start" x="1218" y="-634.5" font-family="Helvetica,sans-Serif" font-size="10.00">+ __init__()</text>
<text text-anchor="start" x="1218" y="-621.5" font-family="Helvetica,sans-Serif" font-size="10.00">+ randomize()</text>
<text text-anchor="start" x="1218" y="-608.5" font-family="Helvetica,sans-Serif" font-size="10.00">+ valuesToStr()</text>
<text text-anchor="start" x="1218" y="-595.5" font-family="Helvetica,sans-Serif" font-size="10.00">+ propertiesToStr()</text>
<text text-anchor="start" x="1218" y="-582.5" font-family="Helvetica,sans-Serif" font-size="10.00">+ __str__()</text>
<text text-anchor="start" x="1218" y="-569.5" font-family="Helvetica,sans-Serif" font-size="10.00">+ crossover()</text>
<text text-anchor="start" x="1218" y="-556.5" font-family="Helvetica,sans-Serif" font-size="10.00">+ mutate()</text>
</a>
</g>
<!-- Node2&#45;&gt;Node19 -->
<g id="edge36" class="edge"><title>Node2&#45;&gt;Node19</title>
<path fill="none" stroke="midnightblue" d="M1232.37,-717.419C1237.63,-708.447 1243.15,-699.017 1248.61,-689.695"/>
<polygon fill="none" stroke="midnightblue" points="1229.25,-715.819 1227.22,-726.217 1235.29,-719.356 1229.25,-715.819"/>
</g>
<!-- Node20 -->
<g id="node39" class="node"><title>Node20</title>
<a xlink:href="classGeneticAlgorithm_1_1Core_1_1Population.html" target="_top" xlink:title="This class is a container, intended to store references to individuals and all their.">
<polygon fill="white" stroke="black" points="1388,-568 1388,-670 1552,-670 1552,-568 1388,-568"/>
<text text-anchor="middle" x="1470" y="-657" font-family="Helvetica,sans-Serif" font-size="10.00">GeneticAlgorithm.Core.Population</text>
<polyline fill="none" stroke="black" points="1388,-649 1552,-649 "/>
<text text-anchor="start" x="1396" y="-636" font-family="Helvetica,sans-Serif" font-size="10.00">+ individuals</text>
<polyline fill="none" stroke="black" points="1388,-628 1552,-628 "/>
<text text-anchor="start" x="1396" y="-615" font-family="Helvetica,sans-Serif" font-size="10.00">+ __init__()</text>
<text text-anchor="start" x="1396" y="-602" font-family="Helvetica,sans-Serif" font-size="10.00">+ __str__()</text>
<text text-anchor="start" x="1396" y="-589" font-family="Helvetica,sans-Serif" font-size="10.00">+ populate()</text>
<text text-anchor="start" x="1396" y="-576" font-family="Helvetica,sans-Serif" font-size="10.00">+ randomize()</text>
</a>
</g>
<!-- Node2&#45;&gt;Node20 -->
<g id="edge38" class="edge"><title>Node2&#45;&gt;Node20</title>
<path fill="none" stroke="midnightblue" d="M1302.56,-729.768C1328.12,-718.05 1355.08,-704.496 1379,-690 1388.85,-684.029 1398.87,-677.158 1408.48,-670.093"/>
<polygon fill="none" stroke="midnightblue" points="1300.87,-726.687 1293.21,-734 1303.76,-733.064 1300.87,-726.687"/>
</g>
<!-- Node21 -->
<g id="node41" class="node"><title>Node21</title>
<a xlink:href="classGeneticAlgorithm_1_1Core_1_1Scheduler.html" target="_top" xlink:title="A class that encapsulates a Population and a list of GeneticOperator.">
<polygon fill="white" stroke="black" points="1570,-555 1570,-683 1732,-683 1732,-555 1570,-555"/>
<text text-anchor="middle" x="1651" y="-670" font-family="Helvetica,sans-Serif" font-size="10.00">GeneticAlgorithm.Core.Scheduler</text>
<polyline fill="none" stroke="black" points="1570,-662 1732,-662 "/>
<text text-anchor="middle" x="1651" y="-649" font-family="Helvetica,sans-Serif" font-size="10.00"> </text>
<polyline fill="none" stroke="black" points="1570,-641 1732,-641 "/>
<text text-anchor="start" x="1578" y="-628" font-family="Helvetica,sans-Serif" font-size="10.00">+ __init__()</text>
<text text-anchor="start" x="1578" y="-615" font-family="Helvetica,sans-Serif" font-size="10.00">+ __str__()</text>
<text text-anchor="start" x="1578" y="-602" font-family="Helvetica,sans-Serif" font-size="10.00">+ initialize()</text>
<text text-anchor="start" x="1578" y="-589" font-family="Helvetica,sans-Serif" font-size="10.00">+ iterate()</text>
<text text-anchor="start" x="1578" y="-576" font-family="Helvetica,sans-Serif" font-size="10.00">+ finalize()</text>
<text text-anchor="start" x="1578" y="-563" font-family="Helvetica,sans-Serif" font-size="10.00">+ runGA()</text>
</a>
</g>
<!-- Node2&#45;&gt;Node21 -->
<g id="edge40" class="edge"><title>Node2&#45;&gt;Node21</title>
<path fill="none" stroke="midnightblue" d="M1303.37,-760.303C1377.68,-749.65 1479.11,-729.014 1561,-690 1565.4,-687.903 1569.79,-685.557 1574.11,-683.029"/>
<polygon fill="none" stroke="midnightblue" points="1302.49,-756.892 1293.07,-761.741 1303.46,-763.825 1302.49,-756.892"/>
</g>
<!-- Node22 -->
<g id="node43" class="node"><title>Node22</title>
<a xlink:href="classGeneticAlgorithm_1_1GraphLibrary_1_1Graph.html" target="_top" xlink:title="This class.">
<polygon fill="white" stroke="black" points="1749.5,-555 1749.5,-683 1928.5,-683 1928.5,-555 1749.5,-555"/>
<text text-anchor="middle" x="1839" y="-670" font-family="Helvetica,sans-Serif" font-size="10.00">GeneticAlgorithm.GraphLibrary.Graph</text>
<polyline fill="none" stroke="black" points="1749.5,-662 1928.5,-662 "/>
<text text-anchor="start" x="1757.5" y="-649" font-family="Helvetica,sans-Serif" font-size="10.00">+ V</text>
<text text-anchor="start" x="1757.5" y="-636" font-family="Helvetica,sans-Serif" font-size="10.00">+ W</text>
<polyline fill="none" stroke="black" points="1749.5,-628 1928.5,-628 "/>
<text text-anchor="start" x="1757.5" y="-615" font-family="Helvetica,sans-Serif" font-size="10.00">+ __init__()</text>
<text text-anchor="start" x="1757.5" y="-602" font-family="Helvetica,sans-Serif" font-size="10.00">+ __str__()</text>
<text text-anchor="start" x="1757.5" y="-589" font-family="Helvetica,sans-Serif" font-size="10.00">+ __setattr__()</text>
<text text-anchor="start" x="1757.5" y="-576" font-family="Helvetica,sans-Serif" font-size="10.00">+ randomize()</text>
<text text-anchor="start" x="1757.5" y="-563" font-family="Helvetica,sans-Serif" font-size="10.00">+ plot()</text>
</a>
</g>
<!-- Node2&#45;&gt;Node22 -->
<g id="edge42" class="edge"><title>Node2&#45;&gt;Node22</title>
<path fill="none" stroke="midnightblue" d="M1303.53,-761.467C1437.4,-748.02 1663.76,-721.564 1741,-690 1745.96,-687.973 1750.9,-685.646 1755.79,-683.098"/>
<polygon fill="none" stroke="midnightblue" points="1302.86,-758.016 1293.26,-762.492 1303.56,-764.982 1302.86,-758.016"/>
</g>
<!-- Node5 -->
<g id="node9" class="node"><title>Node5</title>
<a xlink:href="classGeneticAlgorithm_1_1GenotypeLibrary_1_1BinaryChromosomeSegment.html" target="_top" xlink:title="This class implements an integer variable encoded by a fixed number of bits.">
<polygon fill="white" stroke="black" points="0,-370.5 0,-511.5 294,-511.5 294,-370.5 0,-370.5"/>
<text text-anchor="middle" x="147" y="-498.5" font-family="Helvetica,sans-Serif" font-size="10.00">GeneticAlgorithm.GenotypeLibrary.BinaryChromosomeSegment</text>
<polyline fill="none" stroke="black" points="0,-490.5 294,-490.5 "/>
<text text-anchor="start" x="8" y="-477.5" font-family="Helvetica,sans-Serif" font-size="10.00">+ data</text>
<polyline fill="none" stroke="black" points="0,-469.5 294,-469.5 "/>
<text text-anchor="start" x="8" y="-456.5" font-family="Helvetica,sans-Serif" font-size="10.00">+ __init__()</text>
<text text-anchor="start" x="8" y="-443.5" font-family="Helvetica,sans-Serif" font-size="10.00">+ __str__()</text>
<text text-anchor="start" x="8" y="-430.5" font-family="Helvetica,sans-Serif" font-size="10.00">+ maxValue()</text>
<text text-anchor="start" x="8" y="-417.5" font-family="Helvetica,sans-Serif" font-size="10.00">+ randomize()</text>
<text text-anchor="start" x="8" y="-404.5" font-family="Helvetica,sans-Serif" font-size="10.00">+ __setattr__()</text>
<text text-anchor="start" x="8" y="-391.5" font-family="Helvetica,sans-Serif" font-size="10.00">+ crossover()</text>
<text text-anchor="start" x="8" y="-378.5" font-family="Helvetica,sans-Serif" font-size="10.00">+ mutate()</text>
</a>
</g>
<!-- Node4&#45;&gt;Node5 -->
<g id="edge8" class="edge"><title>Node4&#45;&gt;Node5</title>
<path fill="none" stroke="midnightblue" d="M596.142,-563.383C583.958,-557.49 571.386,-552.147 559,-548 450.047,-511.522 413.314,-544.129 303,-512 300.143,-511.168 297.271,-510.293 294.39,-509.378"/>
<polygon fill="none" stroke="midnightblue" points="594.863,-566.656 605.374,-567.986 597.986,-560.392 594.863,-566.656"/>
</g>
<!-- Node7 -->
<g id="node13" class="node"><title>Node7</title>
<a xlink:href="classGeneticAlgorithm_1_1Core_1_1BasePeriodicOperator.html" target="_top" xlink:title="A class that serves as a base for all periodic operators.">
<polygon fill="white" stroke="black" points="312,-370.5 312,-511.5 526,-511.5 526,-370.5 312,-370.5"/>
<text text-anchor="middle" x="419" y="-498.5" font-family="Helvetica,sans-Serif" font-size="10.00">GeneticAlgorithm.Core.BasePeriodicOperator</text>
<polyline fill="none" stroke="black" points="312,-490.5 526,-490.5 "/>
<text text-anchor="start" x="320" y="-477.5" font-family="Helvetica,sans-Serif" font-size="10.00">+ iterationCounter</text>
<text text-anchor="start" x="320" y="-464.5" font-family="Helvetica,sans-Serif" font-size="10.00">+ evaluationCounter</text>
<text text-anchor="start" x="320" y="-451.5" font-family="Helvetica,sans-Serif" font-size="10.00">+ iterationFrequency</text>
<text text-anchor="start" x="320" y="-438.5" font-family="Helvetica,sans-Serif" font-size="10.00">+ evaluationFrequency</text>
<polyline fill="none" stroke="black" points="312,-430.5 526,-430.5 "/>
<text text-anchor="start" x="320" y="-417.5" font-family="Helvetica,sans-Serif" font-size="10.00">+ __init__()</text>
<text text-anchor="start" x="320" y="-404.5" font-family="Helvetica,sans-Serif" font-size="10.00">+ iterationCallback()</text>
<text text-anchor="start" x="320" y="-391.5" font-family="Helvetica,sans-Serif" font-size="10.00">+ evaluationCallback()</text>
<text text-anchor="start" x="320" y="-378.5" font-family="Helvetica,sans-Serif" font-size="10.00">+ iterate()</text>
</a>
</g>
<!-- Node6&#45;&gt;Node7 -->
<g id="edge12" class="edge"><title>Node6&#45;&gt;Node7</title>
<path fill="none" stroke="midnightblue" d="M855.277,-568.716C842.517,-560.648 828.78,-553.241 815,-548 697.727,-503.397 653.347,-553.672 535,-512 532.105,-510.981 529.204,-509.882 526.307,-508.714"/>
<polygon fill="none" stroke="midnightblue" points="853.66,-571.84 863.944,-574.388 857.494,-565.983 853.66,-571.84"/>
</g>
<!-- Node11 -->
<g id="node21" class="node"><title>Node11</title>
<a xlink:href="classGeneticAlgorithm_1_1Core_1_1Crossover.html" target="_top" xlink:title="Crossover two individuals from population.matingPool with probability population.crossoverProbability...">
<polygon fill="white" stroke="black" points="544,-409.5 544,-472.5 708,-472.5 708,-409.5 544,-409.5"/>
<text text-anchor="middle" x="626" y="-459.5" font-family="Helvetica,sans-Serif" font-size="10.00">GeneticAlgorithm.Core.Crossover</text>
<polyline fill="none" stroke="black" points="544,-451.5 708,-451.5 "/>
<text text-anchor="start" x="552" y="-438.5" font-family="Helvetica,sans-Serif" font-size="10.00">+ iterate</text>
<polyline fill="none" stroke="black" points="544,-430.5 708,-430.5 "/>
<text text-anchor="start" x="552" y="-417.5" font-family="Helvetica,sans-Serif" font-size="10.00">+ cross()</text>
</a>
</g>
<!-- Node6&#45;&gt;Node11 -->
<g id="edge20" class="edge"><title>Node6&#45;&gt;Node11</title>
<path fill="none" stroke="midnightblue" d="M850.289,-568.639C838.793,-561.229 826.771,-554.061 815,-548 773.747,-526.757 757.557,-534.543 717,-512 697.384,-501.097 677.514,-486.144 661.367,-472.772"/>
<polygon fill="none" stroke="midnightblue" points="848.685,-571.773 858.964,-574.339 852.529,-565.923 848.685,-571.773"/>
</g>
<!-- Node12 -->
<g id="node23" class="node"><title>Node12</title>
<a xlink:href="classGeneticAlgorithm_1_1Core_1_1Mutate.html" target="_top" xlink:title="Mutate an individual.">
<polygon fill="white" stroke="black" points="725.5,-409.5 725.5,-472.5 874.5,-472.5 874.5,-409.5 725.5,-409.5"/>
<text text-anchor="middle" x="800" y="-459.5" font-family="Helvetica,sans-Serif" font-size="10.00">GeneticAlgorithm.Core.Mutate</text>
<polyline fill="none" stroke="black" points="725.5,-451.5 874.5,-451.5 "/>
<text text-anchor="start" x="733.5" y="-438.5" font-family="Helvetica,sans-Serif" font-size="10.00">+ iterate</text>
<polyline fill="none" stroke="black" points="725.5,-430.5 874.5,-430.5 "/>
<text text-anchor="start" x="733.5" y="-417.5" font-family="Helvetica,sans-Serif" font-size="10.00">+ mutate()</text>
</a>
</g>
<!-- Node6&#45;&gt;Node12 -->
<g id="edge22" class="edge"><title>Node6&#45;&gt;Node12</title>
<path fill="none" stroke="midnightblue" d="M883.384,-565.726C863.125,-535.422 838.436,-498.493 821.202,-472.714"/>
<polygon fill="none" stroke="midnightblue" points="880.504,-567.715 888.971,-574.083 886.323,-563.825 880.504,-567.715"/>
</g>
<!-- Node13 -->
<g id="node25" class="node"><title>Node13</title>
<a xlink:href="classGeneticAlgorithm_1_1EvaluationOperators_1_1BaseEvaluationOperator.html" target="_top" xlink:title="This class provides an easy way of developing evaluation operators that only evaluate recently replac...">
<polygon fill="white" stroke="black" points="892,-390 892,-492 1184,-492 1184,-390 892,-390"/>
<text text-anchor="middle" x="1038" y="-479" font-family="Helvetica,sans-Serif" font-size="10.00">GeneticAlgorithm.EvaluationOperators.BaseEvaluationOperator</text>
<polyline fill="none" stroke="black" points="892,-471 1184,-471 "/>
<text text-anchor="start" x="900" y="-458" font-family="Helvetica,sans-Serif" font-size="10.00">+ initialize</text>
<text text-anchor="start" x="900" y="-445" font-family="Helvetica,sans-Serif" font-size="10.00">+ iterate</text>
<text text-anchor="start" x="900" y="-432" font-family="Helvetica,sans-Serif" font-size="10.00">+ finalize</text>
<polyline fill="none" stroke="black" points="892,-424 1184,-424 "/>
<text text-anchor="start" x="900" y="-411" font-family="Helvetica,sans-Serif" font-size="10.00">+ evaluateIndividual()</text>
<text text-anchor="start" x="900" y="-398" font-family="Helvetica,sans-Serif" font-size="10.00">+ evaluate()</text>
</a>
</g>
<!-- Node6&#45;&gt;Node13 -->
<g id="edge24" class="edge"><title>Node6&#45;&gt;Node13</title>
<path fill="none" stroke="midnightblue" d="M954.634,-565.698C970.197,-542.42 988.37,-515.236 1003.77,-492.201"/>
<polygon fill="none" stroke="midnightblue" points="951.677,-563.825 949.029,-574.083 957.496,-567.715 951.677,-563.825"/>
</g>
<!-- Node15 -->
<g id="node29" class="node"><title>Node15</title>
<a xlink:href="classGeneticAlgorithm_1_1GraphLibrary_1_1Ordonez.html" target="_top" xlink:title="{GeneticAlgorithm.GraphLibrary.Ordonez\n|+ initialize\l+ iterate\l+ finalize\l|+ decode()\l}">
<polygon fill="white" stroke="black" points="1202,-396.5 1202,-485.5 1392,-485.5 1392,-396.5 1202,-396.5"/>
<text text-anchor="middle" x="1297" y="-472.5" font-family="Helvetica,sans-Serif" font-size="10.00">GeneticAlgorithm.GraphLibrary.Ordonez</text>
<polyline fill="none" stroke="black" points="1202,-464.5 1392,-464.5 "/>
<text text-anchor="start" x="1210" y="-451.5" font-family="Helvetica,sans-Serif" font-size="10.00">+ initialize</text>
<text text-anchor="start" x="1210" y="-438.5" font-family="Helvetica,sans-Serif" font-size="10.00">+ iterate</text>
<text text-anchor="start" x="1210" y="-425.5" font-family="Helvetica,sans-Serif" font-size="10.00">+ finalize</text>
<polyline fill="none" stroke="black" points="1202,-417.5 1392,-417.5 "/>
<text text-anchor="start" x="1210" y="-404.5" font-family="Helvetica,sans-Serif" font-size="10.00">+ decode()</text>
</a>
</g>
<!-- Node6&#45;&gt;Node15 -->
<g id="edge28" class="edge"><title>Node6&#45;&gt;Node15</title>
<path fill="none" stroke="midnightblue" d="M984.238,-568.879C996.633,-561.001 1009.85,-553.619 1023,-548 1094.02,-517.651 1121.98,-542.349 1193,-512 1209.18,-505.084 1225.47,-495.497 1240.2,-485.603"/>
<polygon fill="none" stroke="midnightblue" points="982.254,-565.995 975.8,-574.397 986.085,-571.854 982.254,-565.995"/>
</g>
<!-- Node16 -->
<g id="node31" class="node"><title>Node16</title>
<a xlink:href="classGeneticAlgorithm_1_1SelectionOperators_1_1SelectLethals.html" target="_top" xlink:title="Select the individuals to replace based on the population.maximize flag and the population.genSize property.">
<polygon fill="white" stroke="black" points="1410,-409.5 1410,-472.5 1650,-472.5 1650,-409.5 1410,-409.5"/>
<text text-anchor="middle" x="1530" y="-459.5" font-family="Helvetica,sans-Serif" font-size="10.00">GeneticAlgorithm.SelectionOperators.SelectLethals</text>
<polyline fill="none" stroke="black" points="1410,-451.5 1650,-451.5 "/>
<text text-anchor="start" x="1418" y="-438.5" font-family="Helvetica,sans-Serif" font-size="10.00">+ iterate</text>
<polyline fill="none" stroke="black" points="1410,-430.5 1650,-430.5 "/>
<text text-anchor="start" x="1418" y="-417.5" font-family="Helvetica,sans-Serif" font-size="10.00">+ select()</text>
</a>
</g>
<!-- Node6&#45;&gt;Node16 -->
<g id="edge30" class="edge"><title>Node6&#45;&gt;Node16</title>
<path fill="none" stroke="midnightblue" d="M981.752,-568.871C994.759,-560.632 1008.83,-553.123 1023,-548 1181.7,-490.611 1239.73,-561.718 1401,-512 1430.07,-503.038 1459.99,-487.066 1483.69,-472.538"/>
<polygon fill="none" stroke="midnightblue" points="979.809,-565.96 973.369,-574.373 983.65,-571.812 979.809,-565.96"/>
</g>
<!-- Node17 -->
<g id="node33" class="node"><title>Node17</title>
<a xlink:href="classGeneticAlgorithm_1_1SelectionOperators_1_1SUSSelection.html" target="_top" xlink:title="This operator performs stochastic uniform selection over the population, updating the field matingPoo...">
<polygon fill="white" stroke="black" points="1668,-409.5 1668,-472.5 1910,-472.5 1910,-409.5 1668,-409.5"/>
<text text-anchor="middle" x="1789" y="-459.5" font-family="Helvetica,sans-Serif" font-size="10.00">GeneticAlgorithm.SelectionOperators.SUSSelection</text>
<polyline fill="none" stroke="black" points="1668,-451.5 1910,-451.5 "/>
<text text-anchor="start" x="1676" y="-438.5" font-family="Helvetica,sans-Serif" font-size="10.00">+ iterate</text>
<polyline fill="none" stroke="black" points="1668,-430.5 1910,-430.5 "/>
<text text-anchor="start" x="1676" y="-417.5" font-family="Helvetica,sans-Serif" font-size="10.00">+ select()</text>
</a>
</g>
<!-- Node6&#45;&gt;Node17 -->
<g id="edge32" class="edge"><title>Node6&#45;&gt;Node17</title>
<path fill="none" stroke="midnightblue" d="M980.902,-568.874C994.114,-560.497 1008.48,-552.936 1023,-548 1291.05,-456.852 1386.77,-589.756 1659,-512 1688.67,-503.525 1719.09,-487.395 1743.04,-472.648"/>
<polygon fill="none" stroke="midnightblue" points="978.822,-566.053 972.397,-574.477 982.673,-571.898 978.822,-566.053"/>
</g>
<!-- Node8 -->
<g id="node15" class="node"><title>Node8</title>
<a xlink:href="classGeneticAlgorithm_1_1LoggingOperators_1_1BestLogger.html" target="_top" xlink:title="This class stores the best individual of the population, if it is better than the last individual fou...">
<polygon fill="white" stroke="black" points="181,-140.5 181,-333.5 405,-333.5 405,-140.5 181,-140.5"/>
<text text-anchor="middle" x="293" y="-320.5" font-family="Helvetica,sans-Serif" font-size="10.00">GeneticAlgorithm.LoggingOperators.BestLogger</text>
<polyline fill="none" stroke="black" points="181,-312.5 405,-312.5 "/>
<text text-anchor="start" x="189" y="-299.5" font-family="Helvetica,sans-Serif" font-size="10.00">+ bestLog</text>
<text text-anchor="start" x="189" y="-286.5" font-family="Helvetica,sans-Serif" font-size="10.00">+ numEvaluations</text>
<text text-anchor="start" x="189" y="-273.5" font-family="Helvetica,sans-Serif" font-size="10.00">+ criterion</text>
<text text-anchor="start" x="189" y="-260.5" font-family="Helvetica,sans-Serif" font-size="10.00">+ maximize</text>
<text text-anchor="start" x="189" y="-247.5" font-family="Helvetica,sans-Serif" font-size="10.00">+ iterationFrequency</text>
<text text-anchor="start" x="189" y="-234.5" font-family="Helvetica,sans-Serif" font-size="10.00">+ iterationCallback</text>
<text text-anchor="start" x="189" y="-221.5" font-family="Helvetica,sans-Serif" font-size="10.00">+ evaluationCallback</text>
<polyline fill="none" stroke="black" points="181,-213.5 405,-213.5 "/>
<text text-anchor="start" x="189" y="-200.5" font-family="Helvetica,sans-Serif" font-size="10.00">+ __init__()</text>
<text text-anchor="start" x="189" y="-187.5" font-family="Helvetica,sans-Serif" font-size="10.00">+ logCallback()</text>
<text text-anchor="start" x="189" y="-174.5" font-family="Helvetica,sans-Serif" font-size="10.00">+ addToLog()</text>
<text text-anchor="start" x="189" y="-161.5" font-family="Helvetica,sans-Serif" font-size="10.00">+ getBest()</text>
<text text-anchor="start" x="189" y="-148.5" font-family="Helvetica,sans-Serif" font-size="10.00">+ finalize()</text>
</a>
</g>
<!-- Node7&#45;&gt;Node8 -->
<g id="edge14" class="edge"><title>Node7&#45;&gt;Node8</title>
<path fill="none" stroke="midnightblue" d="M369.905,-361.512C364.235,-352.334 358.408,-342.899 352.619,-333.527"/>
<polygon fill="none" stroke="midnightblue" points="367.052,-363.554 375.285,-370.223 373.008,-359.876 367.052,-363.554"/>
</g>
<!-- Node10 -->
<g id="node19" class="node"><title>Node10</title>
<a xlink:href="classGeneticAlgorithm_1_1LoggingOperators_1_1LogGenerations.html" target="_top" xlink:title="Log the full population of a GA.">
<polygon fill="white" stroke="black" points="423,-173 423,-301 665,-301 665,-173 423,-173"/>
<text text-anchor="middle" x="544" y="-288" font-family="Helvetica,sans-Serif" font-size="10.00">GeneticAlgorithm.LoggingOperators.LogGenerations</text>
<polyline fill="none" stroke="black" points="423,-280 665,-280 "/>
<text text-anchor="start" x="431" y="-267" font-family="Helvetica,sans-Serif" font-size="10.00">+ generationLog</text>
<text text-anchor="start" x="431" y="-254" font-family="Helvetica,sans-Serif" font-size="10.00">+ numEvaluations</text>
<text text-anchor="start" x="431" y="-241" font-family="Helvetica,sans-Serif" font-size="10.00">+ iterationCallback</text>
<text text-anchor="start" x="431" y="-228" font-family="Helvetica,sans-Serif" font-size="10.00">+ evaluationCallback</text>
<polyline fill="none" stroke="black" points="423,-220 665,-220 "/>
<text text-anchor="start" x="431" y="-207" font-family="Helvetica,sans-Serif" font-size="10.00">+ __init__()</text>
<text text-anchor="start" x="431" y="-194" font-family="Helvetica,sans-Serif" font-size="10.00">+ logPopulation()</text>
<text text-anchor="start" x="431" y="-181" font-family="Helvetica,sans-Serif" font-size="10.00">+ finalize()</text>
</a>
</g>
<!-- Node7&#45;&gt;Node10 -->
<g id="edge18" class="edge"><title>Node7&#45;&gt;Node10</title>
<path fill="none" stroke="midnightblue" d="M467.747,-361.445C479.988,-341.468 492.969,-320.282 504.684,-301.163"/>
<polygon fill="none" stroke="midnightblue" points="464.608,-359.868 462.368,-370.223 470.577,-363.525 464.608,-359.868"/>
</g>
<!-- Node9 -->
<g id="node17" class="node"><title>Node9</title>
<a xlink:href="classGeneticAlgorithm_1_1PlottingOperators_1_1PlotBestLogger.html" target="_top" xlink:title="{GeneticAlgorithm.PlottingOperators.PlotBestLogger\n|+ iterationCallback\l+ evaluationCallback\l|+ __init__()\l+ plotCallback()\l+ finalize()\l}">
<polygon fill="white" stroke="black" points="173,-1 173,-103 413,-103 413,-1 173,-1"/>
<text text-anchor="middle" x="293" y="-90" font-family="Helvetica,sans-Serif" font-size="10.00">GeneticAlgorithm.PlottingOperators.PlotBestLogger</text>
<polyline fill="none" stroke="black" points="173,-82 413,-82 "/>
<text text-anchor="start" x="181" y="-69" font-family="Helvetica,sans-Serif" font-size="10.00">+ iterationCallback</text>
<text text-anchor="start" x="181" y="-56" font-family="Helvetica,sans-Serif" font-size="10.00">+ evaluationCallback</text>
<polyline fill="none" stroke="black" points="173,-48 413,-48 "/>
<text text-anchor="start" x="181" y="-35" font-family="Helvetica,sans-Serif" font-size="10.00">+ __init__()</text>
<text text-anchor="start" x="181" y="-22" font-family="Helvetica,sans-Serif" font-size="10.00">+ plotCallback()</text>
<text text-anchor="start" x="181" y="-9" font-family="Helvetica,sans-Serif" font-size="10.00">+ finalize()</text>
</a>
</g>
<!-- Node8&#45;&gt;Node9 -->
<g id="edge16" class="edge"><title>Node8&#45;&gt;Node9</title>
<path fill="none" stroke="midnightblue" d="M293,-130.284C293,-120.982 293,-111.876 293,-103.355"/>
<polygon fill="none" stroke="midnightblue" points="289.5,-130.436 293,-140.436 296.5,-130.436 289.5,-130.436"/>
</g>
<!-- Node14 -->
<g id="node27" class="node"><title>Node14</title>
<a xlink:href="classGADemo_1_1NumOnes.html" target="_top" xlink:title="An evaluation operator that computes the number of ones in a segment whose data can be converted to b...">
<polygon fill="white" stroke="black" points="983,-199 983,-275 1093,-275 1093,-199 983,-199"/>
<text text-anchor="middle" x="1038" y="-262" font-family="Helvetica,sans-Serif" font-size="10.00">GADemo.NumOnes</text>
<polyline fill="none" stroke="black" points="983,-254 1093,-254 "/>
<text text-anchor="middle" x="1038" y="-241" font-family="Helvetica,sans-Serif" font-size="10.00"> </text>
<polyline fill="none" stroke="black" points="983,-233 1093,-233 "/>
<text text-anchor="start" x="991" y="-220" font-family="Helvetica,sans-Serif" font-size="10.00">+ segmentOnes()</text>
<text text-anchor="start" x="991" y="-207" font-family="Helvetica,sans-Serif" font-size="10.00">+ evaluateIndividual()</text>
</a>
</g>
<!-- Node13&#45;&gt;Node14 -->
<g id="edge26" class="edge"><title>Node13&#45;&gt;Node14</title>
<path fill="none" stroke="midnightblue" d="M1038,-379.489C1038,-345.503 1038,-304.357 1038,-275.035"/>
<polygon fill="none" stroke="midnightblue" points="1034.5,-379.785 1038,-389.786 1041.5,-379.786 1034.5,-379.785"/>
</g>
</g>
</svg>
        <g id="navigator" transform="translate(0 0)" fill="#404254">
                <rect fill="#f2f5e9" fill-opacity="0.5" stroke="#606060" stroke-width=".5" x="0" y="0" width="60" height="60"/>
                <use id="zoomplus" xlink:href="#zoomPlus" x="17" y="9" onmousedown="handleZoom(evt,'in')"/>
                <use id="zoomminus" xlink:href="#zoomMin" x="42" y="9" onmousedown="handleZoom(evt,'out')"/>
                <use id="reset" xlink:href="#resetDef" x="30" y="36" onmousedown="handleReset()"/>
                <g id="arrowUp" xlink:href="#dirArrow" transform="translate(30 24)" onmousedown="handlePan(0,-1)">
                  <use xlink:href="#rim" fill="#404040">
                        <set attributeName="fill" to="#808080" begin="arrowUp.mouseover" end="arrowUp.mouseout"/>
                  </use>
                  <path fill="none" stroke="white" stroke-width="1.5" d="M0,-3.0v7 M-2.5,-0.5L0,-3.0L2.5,-0.5"/>
                </g>
                <g id="arrowRight" xlink:href="#dirArrow" transform="rotate(90) translate(36 -43)" onmousedown="handlePan(1,0)">
                  <use xlink:href="#rim" fill="#404040">
                        <set attributeName="fill" to="#808080" begin="arrowRight.mouseover" end="arrowRight.mouseout"/>
                  </use>
                  <path fill="none" stroke="white" stroke-width="1.5" d="M0,-3.0v7 M-2.5,-0.5L0,-3.0L2.5,-0.5"/>
                </g>
                <g id="arrowDown" xlink:href="#dirArrow" transform="rotate(180) translate(-30 -48)" onmousedown="handlePan(0,1)">
                  <use xlink:href="#rim" fill="#404040">
                        <set attributeName="fill" to="#808080" begin="arrowDown.mouseover" end="arrowDown.mouseout"/>
                  </use>
                  <path fill="none" stroke="white" stroke-width="1.5" d="M0,-3.0v7 M-2.5,-0.5L0,-3.0L2.5,-0.5"/>
                </g>
                <g id="arrowLeft" xlink:href="#dirArrow" transform="rotate(270) translate(-36 17)" onmousedown="handlePan(-1,0)">
                  <use xlink:href="#rim" fill="#404040">
                        <set attributeName="fill" to="#808080" begin="arrowLeft.mouseover" end="arrowLeft.mouseout"/>
                  </use>
                  <path fill="none" stroke="white" stroke-width="1.5" d="M0,-3.0v7 M-2.5,-0.5L0,-3.0L2.5,-0.5"/>
                </g>
        </g>
</svg>
