<?xml version="1.0" encoding="UTF-8" standalone="no"?>
<!DOCTYPE svg PUBLIC "-//W3C//DTD SVG 1.1//EN"
 "http://www.w3.org/Graphics/SVG/1.1/DTD/svg11.dtd">
<!-- Generated by graphviz version 2.26.3 (20100126.1600)
 -->
<!-- Title: G Pages: 1 -->
<!--zoomable 1116 -->
<svg id="main" version="1.1" xmlns="http://www.w3.org/2000/svg" xmlns:xlink="http://www.w3.org/1999/xlink" xml:space="preserve" onload="init(evt)">
        <defs>
                <circle id="rim" cx="0" cy="0" r="7"/>
                <circle id="rim2" cx="0" cy="0" r="3.5"/>
                <g id="zoomPlus">
                        <use xlink:href="#rim" fill="#404040">
                                <set attributeName="fill" to="#808080" begin="zoomplus.mouseover" end="zoomplus.mouseout"/>
                        </use>
                        <path d="M-4,0h8M0,-4v8" fill="none" stroke="white" stroke-width="1.5" pointer-events="none"/>
                </g>
                <g id="zoomMin">
                        <use xlink:href="#rim" fill="#404040">
                                <set attributeName="fill" to="#808080" begin="zoomminus.mouseover" end="zoomminus.mouseout"/>
                        </use>
                        <path d="M-4,0h8" fill="none" stroke="white" stroke-width="1.5" pointer-events="none"/>
                </g>
                <g id="dirArrow">
                        <path fill="none" stroke="white" stroke-width="1.5" d="M0,-3.0v7 M-2.5,-0.5L0,-3.0L2.5,-0.5"/>
                </g>
               <g id="resetDef">
                       <use xlink:href="#rim2" fill="#404040">
                               <set attributeName="fill" to="#808080" begin="reset.mouseover" end="reset.mouseout"/>
                       </use>
               </g>
        </defs>

<script type="text/javascript">
var viewWidth = 1817;
var viewHeight = 1116;
var sectionId = 'dynsection-0';
</script>
<script xlink:href="svgpan.js"/>
<svg id="graph" class="graph">
<g id="viewport">
<title>G</title>
<polygon fill="white" stroke="white" points="-4,5 -4,-1112 1814,-1112 1814,5 -4,5"/>
<!-- Node1 -->
<g id="node1" class="node"><title>Node1</title>
<polygon fill="#bfbfbf" stroke="black" points="990,-918.5 990,-1007.5 1174,-1007.5 1174,-918.5 990,-918.5"/>
<text text-anchor="middle" x="1082" y="-994.5" font-family="Helvetica,sans-Serif" font-size="10.00">GeneticAlgorithm.Core.GABaseObject</text>
<polyline fill="none" stroke="black" points="990,-986.5 1174,-986.5 "/>
<text text-anchor="middle" x="1082" y="-973.5" font-family="Helvetica,sans-Serif" font-size="10.00"> </text>
<polyline fill="none" stroke="black" points="990,-965.5 1174,-965.5 "/>
<text text-anchor="start" x="998" y="-952.5" font-family="Helvetica,sans-Serif" font-size="10.00">+ __init__()</text>
<text text-anchor="start" x="998" y="-939.5" font-family="Helvetica,sans-Serif" font-size="10.00">+ __repr__()</text>
<text text-anchor="start" x="998" y="-926.5" font-family="Helvetica,sans-Serif" font-size="10.00">+ __str__()</text>
</g>
<!-- Node3 -->
<g id="node5" class="node"><title>Node3</title>
<a xlink:href="classGABaseObject-demo_1_1GeneticExampleClass.html" target="_top" xlink:title="{GABaseObject&#45;demo.GeneticExampleClass\n||}">
<polygon fill="white" stroke="black" points="222.5,-772.5 222.5,-835.5 431.5,-835.5 431.5,-772.5 222.5,-772.5"/>
<text text-anchor="middle" x="327" y="-822.5" font-family="Helvetica,sans-Serif" font-size="10.00">GABaseObject&#45;demo.GeneticExampleClass</text>
<polyline fill="none" stroke="black" points="222.5,-814.5 431.5,-814.5 "/>
<text text-anchor="middle" x="327" y="-801.5" font-family="Helvetica,sans-Serif" font-size="10.00"> </text>
<polyline fill="none" stroke="black" points="222.5,-793.5 431.5,-793.5 "/>
<text text-anchor="middle" x="327" y="-780.5" font-family="Helvetica,sans-Serif" font-size="10.00"> </text>
</a>
</g>
<!-- Node1&#45;&gt;Node3 -->
<g id="edge4" class="edge"><title>Node1&#45;&gt;Node3</title>
<path fill="none" stroke="midnightblue" d="M979.788,-956.034C824.308,-944.44 536.275,-918.77 440,-882 411.941,-871.283 384.129,-852.221 363.117,-835.623"/>
<polygon fill="none" stroke="midnightblue" points="979.603,-959.529 989.834,-956.777 980.12,-952.548 979.603,-959.529"/>
</g>
<!-- Node4 -->
<g id="node7" class="node"><title>Node4</title>
<a xlink:href="classGeneticAlgorithm_1_1Core_1_1BaseChromosomeSegment.html" target="_top" xlink:title="This class defines the minimal expression of a chromosome segment.">
<polygon fill="white" stroke="black" points="448.5,-753 448.5,-855 687.5,-855 687.5,-753 448.5,-753"/>
<text text-anchor="middle" x="568" y="-842" font-family="Helvetica,sans-Serif" font-size="10.00">GeneticAlgorithm.Core.BaseChromosomeSegment</text>
<polyline fill="none" stroke="black" points="448.5,-834 687.5,-834 "/>
<text text-anchor="start" x="456.5" y="-821" font-family="Helvetica,sans-Serif" font-size="10.00">+ data</text>
<polyline fill="none" stroke="black" points="448.5,-813 687.5,-813 "/>
<text text-anchor="start" x="456.5" y="-800" font-family="Helvetica,sans-Serif" font-size="10.00">+ __init__()</text>
<text text-anchor="start" x="456.5" y="-787" font-family="Helvetica,sans-Serif" font-size="10.00">+ randomize()</text>
<text text-anchor="start" x="456.5" y="-774" font-family="Helvetica,sans-Serif" font-size="10.00">+ crossover()</text>
<text text-anchor="start" x="456.5" y="-761" font-family="Helvetica,sans-Serif" font-size="10.00">+ mutate()</text>
</a>
</g>
<!-- Node1&#45;&gt;Node4 -->
<g id="edge6" class="edge"><title>Node1&#45;&gt;Node4</title>
<path fill="none" stroke="midnightblue" d="M979.758,-951.207C900.327,-939.771 788.494,-918.629 696,-882 677.854,-874.814 659.354,-865.144 642.265,-855.061"/>
<polygon fill="none" stroke="midnightblue" points="979.376,-954.688 989.767,-952.621 980.356,-947.757 979.376,-954.688"/>
</g>
<!-- Node6 -->
<g id="node11" class="node"><title>Node6</title>
<a xlink:href="classGeneticAlgorithm_1_1Core_1_1GeneticOperator.html" target="_top" xlink:title="GeneticOperator is the base class that should be used to implement selection, crossover and mutation...">
<polygon fill="white" stroke="black" points="705,-759.5 705,-848.5 895,-848.5 895,-759.5 705,-759.5"/>
<text text-anchor="middle" x="800" y="-835.5" font-family="Helvetica,sans-Serif" font-size="10.00">GeneticAlgorithm.Core.GeneticOperator</text>
<polyline fill="none" stroke="black" points="705,-827.5 895,-827.5 "/>
<text text-anchor="middle" x="800" y="-814.5" font-family="Helvetica,sans-Serif" font-size="10.00"> </text>
<polyline fill="none" stroke="black" points="705,-806.5 895,-806.5 "/>
<text text-anchor="start" x="713" y="-793.5" font-family="Helvetica,sans-Serif" font-size="10.00">+ initialize()</text>
<text text-anchor="start" x="713" y="-780.5" font-family="Helvetica,sans-Serif" font-size="10.00">+ iterate()</text>
<text text-anchor="start" x="713" y="-767.5" font-family="Helvetica,sans-Serif" font-size="10.00">+ finalize()</text>
</a>
</g>
<!-- Node1&#45;&gt;Node6 -->
<g id="edge10" class="edge"><title>Node1&#45;&gt;Node6</title>
<path fill="none" stroke="midnightblue" d="M980.633,-921.453C955.066,-909.74 928.058,-896.267 904,-882 887.402,-872.157 870.29,-860.188 854.86,-848.612"/>
<polygon fill="none" stroke="midnightblue" points="979.426,-924.748 989.98,-925.686 982.315,-918.372 979.426,-924.748"/>
</g>
<!-- Node20 -->
<g id="node39" class="node"><title>Node20</title>
<a xlink:href="classGeneticAlgorithm_1_1Core_1_1Genotype.html" target="_top" xlink:title="The base Genotype class from which all chromosomes must derived.">
<polygon fill="white" stroke="black" points="912.5,-733.5 912.5,-874.5 1073.5,-874.5 1073.5,-733.5 912.5,-733.5"/>
<text text-anchor="middle" x="993" y="-861.5" font-family="Helvetica,sans-Serif" font-size="10.00">GeneticAlgorithm.Core.Genotype</text>
<polyline fill="none" stroke="black" points="912.5,-853.5 1073.5,-853.5 "/>
<text text-anchor="start" x="920.5" y="-840.5" font-family="Helvetica,sans-Serif" font-size="10.00">+ segments</text>
<polyline fill="none" stroke="black" points="912.5,-832.5 1073.5,-832.5 "/>
<text text-anchor="start" x="920.5" y="-819.5" font-family="Helvetica,sans-Serif" font-size="10.00">+ __init__()</text>
<text text-anchor="start" x="920.5" y="-806.5" font-family="Helvetica,sans-Serif" font-size="10.00">+ __setattr__()</text>
<text text-anchor="start" x="920.5" y="-793.5" font-family="Helvetica,sans-Serif" font-size="10.00">+ randomize()</text>
<text text-anchor="start" x="920.5" y="-780.5" font-family="Helvetica,sans-Serif" font-size="10.00">+ addSegment()</text>
<text text-anchor="start" x="920.5" y="-767.5" font-family="Helvetica,sans-Serif" font-size="10.00">+ crossover()</text>
<text text-anchor="start" x="920.5" y="-754.5" font-family="Helvetica,sans-Serif" font-size="10.00">+ mutate()</text>
<text text-anchor="start" x="920.5" y="-741.5" font-family="Helvetica,sans-Serif" font-size="10.00">+ __str__()</text>
</a>
</g>
<!-- Node1&#45;&gt;Node20 -->
<g id="edge38" class="edge"><title>Node1&#45;&gt;Node20</title>
<path fill="none" stroke="midnightblue" d="M1052.04,-909.478C1045.76,-898.263 1039.05,-886.273 1032.49,-874.546"/>
<polygon fill="none" stroke="midnightblue" points="1049.03,-911.27 1056.97,-918.287 1055.14,-907.851 1049.03,-911.27"/>
</g>
<!-- Node21 -->
<g id="node41" class="node"><title>Node21</title>
<a xlink:href="classGeneticAlgorithm_1_1Core_1_1Individual.html" target="_top" xlink:title="This class is a container intended to store all information relevant to an individual.">
<polygon fill="white" stroke="black" points="1091,-733.5 1091,-874.5 1251,-874.5 1251,-733.5 1091,-733.5"/>
<text text-anchor="middle" x="1171" y="-861.5" font-family="Helvetica,sans-Serif" font-size="10.00">GeneticAlgorithm.Core.Individual</text>
<polyline fill="none" stroke="black" points="1091,-853.5 1251,-853.5 "/>
<text text-anchor="middle" x="1171" y="-840.5" font-family="Helvetica,sans-Serif" font-size="10.00"> </text>
<polyline fill="none" stroke="black" points="1091,-832.5 1251,-832.5 "/>
<text text-anchor="start" x="1099" y="-819.5" font-family="Helvetica,sans-Serif" font-size="10.00">+ __init__()</text>
<text text-anchor="start" x="1099" y="-806.5" font-family="Helvetica,sans-Serif" font-size="10.00">+ randomize()</text>
<text text-anchor="start" x="1099" y="-793.5" font-family="Helvetica,sans-Serif" font-size="10.00">+ valuesToStr()</text>
<text text-anchor="start" x="1099" y="-780.5" font-family="Helvetica,sans-Serif" font-size="10.00">+ propertiesToStr()</text>
<text text-anchor="start" x="1099" y="-767.5" font-family="Helvetica,sans-Serif" font-size="10.00">+ __str__()</text>
<text text-anchor="start" x="1099" y="-754.5" font-family="Helvetica,sans-Serif" font-size="10.00">+ crossover()</text>
<text text-anchor="start" x="1099" y="-741.5" font-family="Helvetica,sans-Serif" font-size="10.00">+ mutate()</text>
</a>
</g>
<!-- Node1&#45;&gt;Node21 -->
<g id="edge40" class="edge"><title>Node1&#45;&gt;Node21</title>
<path fill="none" stroke="midnightblue" d="M1111.96,-909.478C1118.24,-898.263 1124.95,-886.273 1131.51,-874.546"/>
<polygon fill="none" stroke="midnightblue" points="1108.86,-907.851 1107.03,-918.287 1114.97,-911.27 1108.86,-907.851"/>
</g>
<!-- Node22 -->
<g id="node43" class="node"><title>Node22</title>
<a xlink:href="classGeneticAlgorithm_1_1Core_1_1Population.html" target="_top" xlink:title="This class is a container, intended to store references to individuals and all their.">
<polygon fill="white" stroke="black" points="1269,-753 1269,-855 1433,-855 1433,-753 1269,-753"/>
<text text-anchor="middle" x="1351" y="-842" font-family="Helvetica,sans-Serif" font-size="10.00">GeneticAlgorithm.Core.Population</text>
<polyline fill="none" stroke="black" points="1269,-834 1433,-834 "/>
<text text-anchor="start" x="1277" y="-821" font-family="Helvetica,sans-Serif" font-size="10.00">+ individuals</text>
<polyline fill="none" stroke="black" points="1269,-813 1433,-813 "/>
<text text-anchor="start" x="1277" y="-800" font-family="Helvetica,sans-Serif" font-size="10.00">+ __init__()</text>
<text text-anchor="start" x="1277" y="-787" font-family="Helvetica,sans-Serif" font-size="10.00">+ __str__()</text>
<text text-anchor="start" x="1277" y="-774" font-family="Helvetica,sans-Serif" font-size="10.00">+ populate()</text>
<text text-anchor="start" x="1277" y="-761" font-family="Helvetica,sans-Serif" font-size="10.00">+ randomize()</text>
</a>
</g>
<!-- Node1&#45;&gt;Node22 -->
<g id="edge42" class="edge"><title>Node1&#45;&gt;Node22</title>
<path fill="none" stroke="midnightblue" d="M1183.61,-922.713C1209.29,-910.941 1236.29,-897.124 1260,-882 1272.28,-874.166 1284.65,-864.785 1296.14,-855.288"/>
<polygon fill="none" stroke="midnightblue" points="1181.89,-919.65 1174.22,-926.956 1184.77,-926.029 1181.89,-919.65"/>
</g>
<!-- Node23 -->
<g id="node45" class="node"><title>Node23</title>
<a xlink:href="classGeneticAlgorithm_1_1Core_1_1Scheduler.html" target="_top" xlink:title="A class that encapsulates a Population and a list of GeneticOperator.">
<polygon fill="white" stroke="black" points="1451,-740 1451,-868 1613,-868 1613,-740 1451,-740"/>
<text text-anchor="middle" x="1532" y="-855" font-family="Helvetica,sans-Serif" font-size="10.00">GeneticAlgorithm.Core.Scheduler</text>
<polyline fill="none" stroke="black" points="1451,-847 1613,-847 "/>
<text text-anchor="middle" x="1532" y="-834" font-family="Helvetica,sans-Serif" font-size="10.00"> </text>
<polyline fill="none" stroke="black" points="1451,-826 1613,-826 "/>
<text text-anchor="start" x="1459" y="-813" font-family="Helvetica,sans-Serif" font-size="10.00">+ __init__()</text>
<text text-anchor="start" x="1459" y="-800" font-family="Helvetica,sans-Serif" font-size="10.00">+ __str__()</text>
<text text-anchor="start" x="1459" y="-787" font-family="Helvetica,sans-Serif" font-size="10.00">+ initialize()</text>
<text text-anchor="start" x="1459" y="-774" font-family="Helvetica,sans-Serif" font-size="10.00">+ iterate()</text>
<text text-anchor="start" x="1459" y="-761" font-family="Helvetica,sans-Serif" font-size="10.00">+ finalize()</text>
<text text-anchor="start" x="1459" y="-748" font-family="Helvetica,sans-Serif" font-size="10.00">+ runGA()</text>
</a>
</g>
<!-- Node1&#45;&gt;Node23 -->
<g id="edge44" class="edge"><title>Node1&#45;&gt;Node23</title>
<path fill="none" stroke="midnightblue" d="M1184.55,-953.48C1259.16,-943.399 1360.9,-922.963 1442,-882 1449.75,-878.085 1457.38,-873.355 1464.72,-868.183"/>
<polygon fill="none" stroke="midnightblue" points="1183.67,-950.066 1174.21,-954.835 1184.58,-957.006 1183.67,-950.066"/>
</g>
<!-- Node24 -->
<g id="node47" class="node"><title>Node24</title>
<a xlink:href="classGeneticAlgorithm_1_1GraphLibrary_1_1Graph.html" target="_top" xlink:title="This class.">
<polygon fill="white" stroke="black" points="1630.5,-727 1630.5,-881 1809.5,-881 1809.5,-727 1630.5,-727"/>
<text text-anchor="middle" x="1720" y="-868" font-family="Helvetica,sans-Serif" font-size="10.00">GeneticAlgorithm.GraphLibrary.Graph</text>
<polyline fill="none" stroke="black" points="1630.5,-860 1809.5,-860 "/>
<text text-anchor="start" x="1638.5" y="-847" font-family="Helvetica,sans-Serif" font-size="10.00">+ V</text>
<text text-anchor="start" x="1638.5" y="-834" font-family="Helvetica,sans-Serif" font-size="10.00">+ W</text>
<polyline fill="none" stroke="black" points="1630.5,-826 1809.5,-826 "/>
<text text-anchor="start" x="1638.5" y="-813" font-family="Helvetica,sans-Serif" font-size="10.00">+ __init__()</text>
<text text-anchor="start" x="1638.5" y="-800" font-family="Helvetica,sans-Serif" font-size="10.00">+ updateW()</text>
<text text-anchor="start" x="1638.5" y="-787" font-family="Helvetica,sans-Serif" font-size="10.00">+ pathLength()</text>
<text text-anchor="start" x="1638.5" y="-774" font-family="Helvetica,sans-Serif" font-size="10.00">+ __str__()</text>
<text text-anchor="start" x="1638.5" y="-761" font-family="Helvetica,sans-Serif" font-size="10.00">+ __setattr__()</text>
<text text-anchor="start" x="1638.5" y="-748" font-family="Helvetica,sans-Serif" font-size="10.00">+ randomizeNodePositions()</text>
<text text-anchor="start" x="1638.5" y="-735" font-family="Helvetica,sans-Serif" font-size="10.00">+ plot()</text>
</a>
</g>
<!-- Node1&#45;&gt;Node24 -->
<g id="edge46" class="edge"><title>Node1&#45;&gt;Node24</title>
<path fill="none" stroke="midnightblue" d="M1184.47,-954.003C1318.55,-941.143 1545.44,-915.327 1622,-882 1624.79,-880.785 1627.57,-879.469 1630.33,-878.068"/>
<polygon fill="none" stroke="midnightblue" points="1183.81,-950.551 1174.18,-954.982 1184.47,-957.519 1183.81,-950.551"/>
</g>
<!-- Node2 -->
<g id="node2" class="node"><title>Node2</title>
<a xlink:href="classobject.html" target="_top" xlink:title="{object\n||}">
<polygon fill="white" stroke="black" points="1060.5,-1044.5 1060.5,-1107.5 1103.5,-1107.5 1103.5,-1044.5 1060.5,-1044.5"/>
<text text-anchor="middle" x="1082" y="-1094.5" font-family="Helvetica,sans-Serif" font-size="10.00">object</text>
<polyline fill="none" stroke="black" points="1060.5,-1086.5 1103.5,-1086.5 "/>
<text text-anchor="middle" x="1082" y="-1073.5" font-family="Helvetica,sans-Serif" font-size="10.00"> </text>
<polyline fill="none" stroke="black" points="1060.5,-1065.5 1103.5,-1065.5 "/>
<text text-anchor="middle" x="1082" y="-1052.5" font-family="Helvetica,sans-Serif" font-size="10.00"> </text>
</a>
</g>
<!-- Node2&#45;&gt;Node1 -->
<g id="edge2" class="edge"><title>Node2&#45;&gt;Node1</title>
<path fill="none" stroke="midnightblue" d="M1082,-1034.02C1082,-1025.4 1082,-1016.31 1082,-1007.61"/>
<polygon fill="none" stroke="midnightblue" points="1078.5,-1034.22 1082,-1044.22 1085.5,-1034.22 1078.5,-1034.22"/>
</g>
<!-- Node5 -->
<g id="node9" class="node"><title>Node5</title>
<a xlink:href="classGeneticAlgorithm_1_1GenotypeLibrary_1_1BinaryChromosomeSegment.html" target="_top" xlink:title="This class implements an integer variable encoded by a fixed number of bits.">
<polygon fill="white" stroke="black" points="0,-548.5 0,-689.5 294,-689.5 294,-548.5 0,-548.5"/>
<text text-anchor="middle" x="147" y="-676.5" font-family="Helvetica,sans-Serif" font-size="10.00">GeneticAlgorithm.GenotypeLibrary.BinaryChromosomeSegment</text>
<polyline fill="none" stroke="black" points="0,-668.5 294,-668.5 "/>
<text text-anchor="start" x="8" y="-655.5" font-family="Helvetica,sans-Serif" font-size="10.00">+ data</text>
<polyline fill="none" stroke="black" points="0,-647.5 294,-647.5 "/>
<text text-anchor="start" x="8" y="-634.5" font-family="Helvetica,sans-Serif" font-size="10.00">+ __init__()</text>
<text text-anchor="start" x="8" y="-621.5" font-family="Helvetica,sans-Serif" font-size="10.00">+ __str__()</text>
<text text-anchor="start" x="8" y="-608.5" font-family="Helvetica,sans-Serif" font-size="10.00">+ maxValue()</text>
<text text-anchor="start" x="8" y="-595.5" font-family="Helvetica,sans-Serif" font-size="10.00">+ randomize()</text>
<text text-anchor="start" x="8" y="-582.5" font-family="Helvetica,sans-Serif" font-size="10.00">+ __setattr__()</text>
<text text-anchor="start" x="8" y="-569.5" font-family="Helvetica,sans-Serif" font-size="10.00">+ crossover()</text>
<text text-anchor="start" x="8" y="-556.5" font-family="Helvetica,sans-Serif" font-size="10.00">+ mutate()</text>
</a>
</g>
<!-- Node4&#45;&gt;Node5 -->
<g id="edge8" class="edge"><title>Node4&#45;&gt;Node5</title>
<path fill="none" stroke="midnightblue" d="M483.383,-747.772C469.254,-739.756 454.477,-732.157 440,-726 382.066,-701.361 362.309,-711.116 303,-690 300.057,-688.952 297.092,-687.871 294.113,-686.76"/>
<polygon fill="none" stroke="midnightblue" points="481.679,-750.83 492.088,-752.808 485.185,-744.771 481.679,-750.83"/>
</g>
<!-- Node7 -->
<g id="node13" class="node"><title>Node7</title>
<a xlink:href="classGeneticAlgorithm_1_1Core_1_1BasePeriodicOperator.html" target="_top" xlink:title="A class that serves as a base for all periodic operators.">
<polygon fill="white" stroke="black" points="312,-548.5 312,-689.5 526,-689.5 526,-548.5 312,-548.5"/>
<text text-anchor="middle" x="419" y="-676.5" font-family="Helvetica,sans-Serif" font-size="10.00">GeneticAlgorithm.Core.BasePeriodicOperator</text>
<polyline fill="none" stroke="black" points="312,-668.5 526,-668.5 "/>
<text text-anchor="start" x="320" y="-655.5" font-family="Helvetica,sans-Serif" font-size="10.00">+ iterationCounter</text>
<text text-anchor="start" x="320" y="-642.5" font-family="Helvetica,sans-Serif" font-size="10.00">+ evaluationCounter</text>
<text text-anchor="start" x="320" y="-629.5" font-family="Helvetica,sans-Serif" font-size="10.00">+ iterationFrequency</text>
<text text-anchor="start" x="320" y="-616.5" font-family="Helvetica,sans-Serif" font-size="10.00">+ evaluationFrequency</text>
<polyline fill="none" stroke="black" points="312,-608.5 526,-608.5 "/>
<text text-anchor="start" x="320" y="-595.5" font-family="Helvetica,sans-Serif" font-size="10.00">+ __init__()</text>
<text text-anchor="start" x="320" y="-582.5" font-family="Helvetica,sans-Serif" font-size="10.00">+ iterationCallback()</text>
<text text-anchor="start" x="320" y="-569.5" font-family="Helvetica,sans-Serif" font-size="10.00">+ evaluationCallback()</text>
<text text-anchor="start" x="320" y="-556.5" font-family="Helvetica,sans-Serif" font-size="10.00">+ iterate()</text>
</a>
</g>
<!-- Node6&#45;&gt;Node7 -->
<g id="edge12" class="edge"><title>Node6&#45;&gt;Node7</title>
<path fill="none" stroke="midnightblue" d="M741.433,-753.384C727.273,-743.094 711.679,-733.224 696,-726 629.406,-695.318 602.966,-717.511 535,-690 532.045,-688.804 529.08,-687.537 526.112,-686.209"/>
<polygon fill="none" stroke="midnightblue" points="739.487,-756.299 749.594,-759.475 743.673,-750.689 739.487,-756.299"/>
</g>
<!-- Node12 -->
<g id="node23" class="node"><title>Node12</title>
<a xlink:href="classGeneticAlgorithm_1_1Core_1_1Crossover.html" target="_top" xlink:title="Crossover two individuals from population.matingPool with probability population.crossoverProbability...">
<polygon fill="white" stroke="black" points="544,-587.5 544,-650.5 708,-650.5 708,-587.5 544,-587.5"/>
<text text-anchor="middle" x="626" y="-637.5" font-family="Helvetica,sans-Serif" font-size="10.00">GeneticAlgorithm.Core.Crossover</text>
<polyline fill="none" stroke="black" points="544,-629.5 708,-629.5 "/>
<text text-anchor="start" x="552" y="-616.5" font-family="Helvetica,sans-Serif" font-size="10.00">+ iterate</text>
<polyline fill="none" stroke="black" points="544,-608.5 708,-608.5 "/>
<text text-anchor="start" x="552" y="-595.5" font-family="Helvetica,sans-Serif" font-size="10.00">+ cross()</text>
</a>
</g>
<!-- Node6&#45;&gt;Node12 -->
<g id="edge22" class="edge"><title>Node6&#45;&gt;Node12</title>
<path fill="none" stroke="midnightblue" d="M750.678,-751.56C720.076,-719.024 681.765,-678.291 655.745,-650.625"/>
<polygon fill="none" stroke="midnightblue" points="748.479,-754.33 757.879,-759.217 753.578,-749.534 748.479,-754.33"/>
</g>
<!-- Node13 -->
<g id="node25" class="node"><title>Node13</title>
<a xlink:href="classGeneticAlgorithm_1_1Core_1_1Mutate.html" target="_top" xlink:title="Mutate an individual.">
<polygon fill="white" stroke="black" points="725.5,-587.5 725.5,-650.5 874.5,-650.5 874.5,-587.5 725.5,-587.5"/>
<text text-anchor="middle" x="800" y="-637.5" font-family="Helvetica,sans-Serif" font-size="10.00">GeneticAlgorithm.Core.Mutate</text>
<polyline fill="none" stroke="black" points="725.5,-629.5 874.5,-629.5 "/>
<text text-anchor="start" x="733.5" y="-616.5" font-family="Helvetica,sans-Serif" font-size="10.00">+ iterate</text>
<polyline fill="none" stroke="black" points="725.5,-608.5 874.5,-608.5 "/>
<text text-anchor="start" x="733.5" y="-595.5" font-family="Helvetica,sans-Serif" font-size="10.00">+ mutate()</text>
</a>
</g>
<!-- Node6&#45;&gt;Node13 -->
<g id="edge24" class="edge"><title>Node6&#45;&gt;Node13</title>
<path fill="none" stroke="midnightblue" d="M800,-749.074C800,-716.97 800,-677.59 800,-650.625"/>
<polygon fill="none" stroke="midnightblue" points="796.5,-749.217 800,-759.217 803.5,-749.217 796.5,-749.217"/>
</g>
<!-- Node14 -->
<g id="node27" class="node"><title>Node14</title>
<a xlink:href="classGeneticAlgorithm_1_1EvaluationOperators_1_1BaseEvaluationOperator.html" target="_top" xlink:title="This class provides an easy way of developing evaluation operators that only evaluate recently replac...">
<polygon fill="white" stroke="black" points="892,-568 892,-670 1184,-670 1184,-568 892,-568"/>
<text text-anchor="middle" x="1038" y="-657" font-family="Helvetica,sans-Serif" font-size="10.00">GeneticAlgorithm.EvaluationOperators.BaseEvaluationOperator</text>
<polyline fill="none" stroke="black" points="892,-649 1184,-649 "/>
<text text-anchor="start" x="900" y="-636" font-family="Helvetica,sans-Serif" font-size="10.00">+ initialize</text>
<text text-anchor="start" x="900" y="-623" font-family="Helvetica,sans-Serif" font-size="10.00">+ iterate</text>
<text text-anchor="start" x="900" y="-610" font-family="Helvetica,sans-Serif" font-size="10.00">+ finalize</text>
<polyline fill="none" stroke="black" points="892,-602 1184,-602 "/>
<text text-anchor="start" x="900" y="-589" font-family="Helvetica,sans-Serif" font-size="10.00">+ evaluateIndividual()</text>
<text text-anchor="start" x="900" y="-576" font-family="Helvetica,sans-Serif" font-size="10.00">+ evaluate()</text>
</a>
</g>
<!-- Node6&#45;&gt;Node14 -->
<g id="edge26" class="edge"><title>Node6&#45;&gt;Node14</title>
<path fill="none" stroke="midnightblue" d="M865.602,-753.007C898.845,-727.167 939.103,-695.874 972.353,-670.028"/>
<polygon fill="none" stroke="midnightblue" points="863.057,-750.552 857.31,-759.452 867.353,-756.079 863.057,-750.552"/>
</g>
<!-- Node18 -->
<g id="node35" class="node"><title>Node18</title>
<a xlink:href="classGeneticAlgorithm_1_1SelectionOperators_1_1SelectLethals.html" target="_top" xlink:title="Select the individuals to replace based on the population.maximize flag and the population.genSize property.">
<polygon fill="white" stroke="black" points="1202,-587.5 1202,-650.5 1442,-650.5 1442,-587.5 1202,-587.5"/>
<text text-anchor="middle" x="1322" y="-637.5" font-family="Helvetica,sans-Serif" font-size="10.00">GeneticAlgorithm.SelectionOperators.SelectLethals</text>
<polyline fill="none" stroke="black" points="1202,-629.5 1442,-629.5 "/>
<text text-anchor="start" x="1210" y="-616.5" font-family="Helvetica,sans-Serif" font-size="10.00">+ iterate</text>
<polyline fill="none" stroke="black" points="1202,-608.5 1442,-608.5 "/>
<text text-anchor="start" x="1210" y="-595.5" font-family="Helvetica,sans-Serif" font-size="10.00">+ select()</text>
</a>
</g>
<!-- Node6&#45;&gt;Node18 -->
<g id="edge34" class="edge"><title>Node6&#45;&gt;Node18</title>
<path fill="none" stroke="midnightblue" d="M856.923,-753.102C871.407,-742.552 887.555,-732.639 904,-726 1024.02,-677.543 1069.87,-729.921 1193,-690 1221.69,-680.696 1251.34,-664.885 1274.97,-650.541"/>
<polygon fill="none" stroke="midnightblue" points="854.483,-750.558 848.598,-759.368 858.692,-756.151 854.483,-750.558"/>
</g>
<!-- Node19 -->
<g id="node37" class="node"><title>Node19</title>
<a xlink:href="classGeneticAlgorithm_1_1SelectionOperators_1_1SUSSelection.html" target="_top" xlink:title="This operator performs stochastic uniform selection over the population, updating the field matingPoo...">
<polygon fill="white" stroke="black" points="1460,-587.5 1460,-650.5 1702,-650.5 1702,-587.5 1460,-587.5"/>
<text text-anchor="middle" x="1581" y="-637.5" font-family="Helvetica,sans-Serif" font-size="10.00">GeneticAlgorithm.SelectionOperators.SUSSelection</text>
<polyline fill="none" stroke="black" points="1460,-629.5 1702,-629.5 "/>
<text text-anchor="start" x="1468" y="-616.5" font-family="Helvetica,sans-Serif" font-size="10.00">+ iterate</text>
<polyline fill="none" stroke="black" points="1460,-608.5 1702,-608.5 "/>
<text text-anchor="start" x="1468" y="-595.5" font-family="Helvetica,sans-Serif" font-size="10.00">+ select()</text>
</a>
</g>
<!-- Node6&#45;&gt;Node19 -->
<g id="edge36" class="edge"><title>Node6&#45;&gt;Node19</title>
<path fill="none" stroke="midnightblue" d="M855.319,-753.384C870.149,-742.487 886.856,-732.348 904,-726 1132.48,-641.403 1217.04,-757.986 1451,-690 1480.63,-681.389 1511.05,-665.25 1535,-650.533"/>
<polygon fill="none" stroke="midnightblue" points="853.124,-750.656 847.283,-759.496 857.361,-756.228 853.124,-750.656"/>
</g>
<!-- Node8 -->
<g id="node15" class="node"><title>Node8</title>
<a xlink:href="classGeneticAlgorithm_1_1LoggingOperators_1_1BestLogger.html" target="_top" xlink:title="This class stores the best individual of the population, if it is better than the last individual fou...">
<polygon fill="white" stroke="black" points="182,-318.5 182,-511.5 406,-511.5 406,-318.5 182,-318.5"/>
<text text-anchor="middle" x="294" y="-498.5" font-family="Helvetica,sans-Serif" font-size="10.00">GeneticAlgorithm.LoggingOperators.BestLogger</text>
<polyline fill="none" stroke="black" points="182,-490.5 406,-490.5 "/>
<text text-anchor="start" x="190" y="-477.5" font-family="Helvetica,sans-Serif" font-size="10.00">+ bestLog</text>
<text text-anchor="start" x="190" y="-464.5" font-family="Helvetica,sans-Serif" font-size="10.00">+ numEvaluations</text>
<text text-anchor="start" x="190" y="-451.5" font-family="Helvetica,sans-Serif" font-size="10.00">+ criterion</text>
<text text-anchor="start" x="190" y="-438.5" font-family="Helvetica,sans-Serif" font-size="10.00">+ maximize</text>
<text text-anchor="start" x="190" y="-425.5" font-family="Helvetica,sans-Serif" font-size="10.00">+ iterationFrequency</text>
<text text-anchor="start" x="190" y="-412.5" font-family="Helvetica,sans-Serif" font-size="10.00">+ iterationCallback</text>
<text text-anchor="start" x="190" y="-399.5" font-family="Helvetica,sans-Serif" font-size="10.00">+ evaluationCallback</text>
<polyline fill="none" stroke="black" points="182,-391.5 406,-391.5 "/>
<text text-anchor="start" x="190" y="-378.5" font-family="Helvetica,sans-Serif" font-size="10.00">+ __init__()</text>
<text text-anchor="start" x="190" y="-365.5" font-family="Helvetica,sans-Serif" font-size="10.00">+ logCallback()</text>
<text text-anchor="start" x="190" y="-352.5" font-family="Helvetica,sans-Serif" font-size="10.00">+ addToLog()</text>
<text text-anchor="start" x="190" y="-339.5" font-family="Helvetica,sans-Serif" font-size="10.00">+ getBest()</text>
<text text-anchor="start" x="190" y="-326.5" font-family="Helvetica,sans-Serif" font-size="10.00">+ finalize()</text>
</a>
</g>
<!-- Node7&#45;&gt;Node8 -->
<g id="edge14" class="edge"><title>Node7&#45;&gt;Node8</title>
<path fill="none" stroke="midnightblue" d="M370.294,-539.512C364.67,-530.334 358.889,-520.899 353.146,-511.527"/>
<polygon fill="none" stroke="midnightblue" points="367.423,-541.525 375.632,-548.223 373.392,-537.868 367.423,-541.525"/>
</g>
<!-- Node11 -->
<g id="node21" class="node"><title>Node11</title>
<a xlink:href="classGeneticAlgorithm_1_1LoggingOperators_1_1LogGenerations.html" target="_top" xlink:title="Log the full population of a GA.">
<polygon fill="white" stroke="black" points="424,-351 424,-479 666,-479 666,-351 424,-351"/>
<text text-anchor="middle" x="545" y="-466" font-family="Helvetica,sans-Serif" font-size="10.00">GeneticAlgorithm.LoggingOperators.LogGenerations</text>
<polyline fill="none" stroke="black" points="424,-458 666,-458 "/>
<text text-anchor="start" x="432" y="-445" font-family="Helvetica,sans-Serif" font-size="10.00">+ generationLog</text>
<text text-anchor="start" x="432" y="-432" font-family="Helvetica,sans-Serif" font-size="10.00">+ numEvaluations</text>
<text text-anchor="start" x="432" y="-419" font-family="Helvetica,sans-Serif" font-size="10.00">+ iterationCallback</text>
<text text-anchor="start" x="432" y="-406" font-family="Helvetica,sans-Serif" font-size="10.00">+ evaluationCallback</text>
<polyline fill="none" stroke="black" points="424,-398 666,-398 "/>
<text text-anchor="start" x="432" y="-385" font-family="Helvetica,sans-Serif" font-size="10.00">+ __init__()</text>
<text text-anchor="start" x="432" y="-372" font-family="Helvetica,sans-Serif" font-size="10.00">+ logPopulation()</text>
<text text-anchor="start" x="432" y="-359" font-family="Helvetica,sans-Serif" font-size="10.00">+ finalize()</text>
</a>
</g>
<!-- Node7&#45;&gt;Node11 -->
<g id="edge20" class="edge"><title>Node7&#45;&gt;Node11</title>
<path fill="none" stroke="midnightblue" d="M467.971,-539.713C480.359,-519.658 493.508,-498.368 505.37,-479.163"/>
<polygon fill="none" stroke="midnightblue" points="464.992,-537.876 462.715,-548.223 470.948,-541.554 464.992,-537.876"/>
</g>
<!-- Node9 -->
<g id="node17" class="node"><title>Node9</title>
<a xlink:href="classGeneticAlgorithm_1_1PlottingOperators_1_1PlotBestLogger.html" target="_top" xlink:title="A BestLogger specialization that plots the historic progression of the best criterion with each tick...">
<polygon fill="white" stroke="black" points="174,-153 174,-281 414,-281 414,-153 174,-153"/>
<text text-anchor="middle" x="294" y="-268" font-family="Helvetica,sans-Serif" font-size="10.00">GeneticAlgorithm.PlottingOperators.PlotBestLogger</text>
<polyline fill="none" stroke="black" points="174,-260 414,-260 "/>
<text text-anchor="start" x="182" y="-247" font-family="Helvetica,sans-Serif" font-size="10.00">+ criterionAxis</text>
<text text-anchor="start" x="182" y="-234" font-family="Helvetica,sans-Serif" font-size="10.00">+ figure</text>
<text text-anchor="start" x="182" y="-221" font-family="Helvetica,sans-Serif" font-size="10.00">+ iterationCallback</text>
<text text-anchor="start" x="182" y="-208" font-family="Helvetica,sans-Serif" font-size="10.00">+ evaluationCallback</text>
<polyline fill="none" stroke="black" points="174,-200 414,-200 "/>
<text text-anchor="start" x="182" y="-187" font-family="Helvetica,sans-Serif" font-size="10.00">+ __init__()</text>
<text text-anchor="start" x="182" y="-174" font-family="Helvetica,sans-Serif" font-size="10.00">+ plotCallback()</text>
<text text-anchor="start" x="182" y="-161" font-family="Helvetica,sans-Serif" font-size="10.00">+ finalize()</text>
</a>
</g>
<!-- Node8&#45;&gt;Node9 -->
<g id="edge16" class="edge"><title>Node8&#45;&gt;Node9</title>
<path fill="none" stroke="midnightblue" d="M294,-308.234C294,-298.957 294,-289.772 294,-281.007"/>
<polygon fill="none" stroke="midnightblue" points="290.5,-308.32 294,-318.32 297.5,-308.32 290.5,-308.32"/>
</g>
<!-- Node10 -->
<g id="node19" class="node"><title>Node10</title>
<a xlink:href="classGeneticAlgorithm_1_1GraphLibrary_1_1BestPathPlotLogger.html" target="_top" xlink:title="This class extends the PlottingOperators::PlotBestLogger to display the best tour found so far...">
<polygon fill="white" stroke="black" points="174,-0.5 174,-115.5 414,-115.5 414,-0.5 174,-0.5"/>
<text text-anchor="middle" x="294" y="-102.5" font-family="Helvetica,sans-Serif" font-size="10.00">GeneticAlgorithm.GraphLibrary.BestPathPlotLogger</text>
<polyline fill="none" stroke="black" points="174,-94.5 414,-94.5 "/>
<text text-anchor="start" x="182" y="-81.5" font-family="Helvetica,sans-Serif" font-size="10.00">+ graph</text>
<text text-anchor="start" x="182" y="-68.5" font-family="Helvetica,sans-Serif" font-size="10.00">+ graphAxis</text>
<text text-anchor="start" x="182" y="-55.5" font-family="Helvetica,sans-Serif" font-size="10.00">+ iterationCallback</text>
<text text-anchor="start" x="182" y="-42.5" font-family="Helvetica,sans-Serif" font-size="10.00">+ evaluationCallback</text>
<polyline fill="none" stroke="black" points="174,-34.5 414,-34.5 "/>
<text text-anchor="start" x="182" y="-21.5" font-family="Helvetica,sans-Serif" font-size="10.00">+ __init__()</text>
<text text-anchor="start" x="182" y="-8.5" font-family="Helvetica,sans-Serif" font-size="10.00">+ plotGraphCallback()</text>
</a>
</g>
<!-- Node9&#45;&gt;Node10 -->
<g id="edge18" class="edge"><title>Node9&#45;&gt;Node10</title>
<path fill="none" stroke="midnightblue" d="M294,-142.588C294,-133.498 294,-124.32 294,-115.53"/>
<polygon fill="none" stroke="midnightblue" points="290.5,-142.787 294,-152.787 297.5,-142.787 290.5,-142.787"/>
</g>
<!-- Node15 -->
<g id="node29" class="node"><title>Node15</title>
<a xlink:href="classGADemo_1_1NumOnes.html" target="_top" xlink:title="An evaluation operator that computes the number of ones in a segment whose data can be converted to b...">
<polygon fill="white" stroke="black" points="815,-377 815,-453 925,-453 925,-377 815,-377"/>
<text text-anchor="middle" x="870" y="-440" font-family="Helvetica,sans-Serif" font-size="10.00">GADemo.NumOnes</text>
<polyline fill="none" stroke="black" points="815,-432 925,-432 "/>
<text text-anchor="middle" x="870" y="-419" font-family="Helvetica,sans-Serif" font-size="10.00"> </text>
<polyline fill="none" stroke="black" points="815,-411 925,-411 "/>
<text text-anchor="start" x="823" y="-398" font-family="Helvetica,sans-Serif" font-size="10.00">+ segmentOnes()</text>
<text text-anchor="start" x="823" y="-385" font-family="Helvetica,sans-Serif" font-size="10.00">+ evaluateIndividual()</text>
</a>
</g>
<!-- Node14&#45;&gt;Node15 -->
<g id="edge28" class="edge"><title>Node14&#45;&gt;Node15</title>
<path fill="none" stroke="midnightblue" d="M977.194,-560.401C962.468,-545.157 947.183,-528.395 934,-512 919.208,-493.604 904.569,-471.762 893.033,-453.466"/>
<polygon fill="none" stroke="midnightblue" points="974.879,-563.041 984.367,-567.755 979.89,-558.153 974.879,-563.041"/>
</g>
<!-- Node16 -->
<g id="node31" class="node"><title>Node16</title>
<a xlink:href="classGeneticAlgorithm_1_1GraphLibrary_1_1Ordonez.html" target="_top" xlink:title="A GeneticAlgorithm::Core::GeneticOperator derivate that decodes a binary genotype as a permutation of...">
<polygon fill="white" stroke="black" points="943,-383.5 943,-446.5 1133,-446.5 1133,-383.5 943,-383.5"/>
<text text-anchor="middle" x="1038" y="-433.5" font-family="Helvetica,sans-Serif" font-size="10.00">GeneticAlgorithm.GraphLibrary.Ordonez</text>
<polyline fill="none" stroke="black" points="943,-425.5 1133,-425.5 "/>
<text text-anchor="middle" x="1038" y="-412.5" font-family="Helvetica,sans-Serif" font-size="10.00"> </text>
<polyline fill="none" stroke="black" points="943,-404.5 1133,-404.5 "/>
<text text-anchor="start" x="951" y="-391.5" font-family="Helvetica,sans-Serif" font-size="10.00">+ evaluateIndividual()</text>
</a>
</g>
<!-- Node14&#45;&gt;Node16 -->
<g id="edge30" class="edge"><title>Node14&#45;&gt;Node16</title>
<path fill="none" stroke="midnightblue" d="M1038,-557.695C1038,-521.064 1038,-476.056 1038,-446.503"/>
<polygon fill="none" stroke="midnightblue" points="1034.5,-557.785 1038,-567.786 1041.5,-557.786 1034.5,-557.785"/>
</g>
<!-- Node17 -->
<g id="node33" class="node"><title>Node17</title>
<a xlink:href="classGeneticAlgorithm_1_1GraphLibrary_1_1PathLengthFitness.html" target="_top" xlink:title="A GeneticAlgorithm::Core::GeneticOperator derivate that uses.">
<polygon fill="white" stroke="black" points="1150.5,-377 1150.5,-453 1385.5,-453 1385.5,-377 1150.5,-377"/>
<text text-anchor="middle" x="1268" y="-440" font-family="Helvetica,sans-Serif" font-size="10.00">GeneticAlgorithm.GraphLibrary.PathLengthFitness</text>
<polyline fill="none" stroke="black" points="1150.5,-432 1385.5,-432 "/>
<text text-anchor="start" x="1158.5" y="-419" font-family="Helvetica,sans-Serif" font-size="10.00">+ graph</text>
<polyline fill="none" stroke="black" points="1150.5,-411 1385.5,-411 "/>
<text text-anchor="start" x="1158.5" y="-398" font-family="Helvetica,sans-Serif" font-size="10.00">+ __init__()</text>
<text text-anchor="start" x="1158.5" y="-385" font-family="Helvetica,sans-Serif" font-size="10.00">+ evaluateIndividual()</text>
</a>
</g>
<!-- Node14&#45;&gt;Node17 -->
<g id="edge32" class="edge"><title>Node14&#45;&gt;Node17</title>
<path fill="none" stroke="midnightblue" d="M1103.42,-560.978C1142.45,-526.354 1190.92,-483.368 1225.12,-453.035"/>
<polygon fill="none" stroke="midnightblue" points="1100.9,-558.531 1095.74,-567.786 1105.55,-563.768 1100.9,-558.531"/>
</g>
</g>
</svg>
        <g id="navigator" transform="translate(0 0)" fill="#404254">
                <rect fill="#f2f5e9" fill-opacity="0.5" stroke="#606060" stroke-width=".5" x="0" y="0" width="60" height="60"/>
                <use id="zoomplus" xlink:href="#zoomPlus" x="17" y="9" onmousedown="handleZoom(evt,'in')"/>
                <use id="zoomminus" xlink:href="#zoomMin" x="42" y="9" onmousedown="handleZoom(evt,'out')"/>
                <use id="reset" xlink:href="#resetDef" x="30" y="36" onmousedown="handleReset()"/>
                <g id="arrowUp" xlink:href="#dirArrow" transform="translate(30 24)" onmousedown="handlePan(0,-1)">
                  <use xlink:href="#rim" fill="#404040">
                        <set attributeName="fill" to="#808080" begin="arrowUp.mouseover" end="arrowUp.mouseout"/>
                  </use>
                  <path fill="none" stroke="white" stroke-width="1.5" d="M0,-3.0v7 M-2.5,-0.5L0,-3.0L2.5,-0.5"/>
                </g>
                <g id="arrowRight" xlink:href="#dirArrow" transform="rotate(90) translate(36 -43)" onmousedown="handlePan(1,0)">
                  <use xlink:href="#rim" fill="#404040">
                        <set attributeName="fill" to="#808080" begin="arrowRight.mouseover" end="arrowRight.mouseout"/>
                  </use>
                  <path fill="none" stroke="white" stroke-width="1.5" d="M0,-3.0v7 M-2.5,-0.5L0,-3.0L2.5,-0.5"/>
                </g>
                <g id="arrowDown" xlink:href="#dirArrow" transform="rotate(180) translate(-30 -48)" onmousedown="handlePan(0,1)">
                  <use xlink:href="#rim" fill="#404040">
                        <set attributeName="fill" to="#808080" begin="arrowDown.mouseover" end="arrowDown.mouseout"/>
                  </use>
                  <path fill="none" stroke="white" stroke-width="1.5" d="M0,-3.0v7 M-2.5,-0.5L0,-3.0L2.5,-0.5"/>
                </g>
                <g id="arrowLeft" xlink:href="#dirArrow" transform="rotate(270) translate(-36 17)" onmousedown="handlePan(-1,0)">
                  <use xlink:href="#rim" fill="#404040">
                        <set attributeName="fill" to="#808080" begin="arrowLeft.mouseover" end="arrowLeft.mouseout"/>
                  </use>
                  <path fill="none" stroke="white" stroke-width="1.5" d="M0,-3.0v7 M-2.5,-0.5L0,-3.0L2.5,-0.5"/>
                </g>
        </g>
</svg>
