<?xml version="1.0" encoding="UTF-8" standalone="no"?>
<!DOCTYPE svg PUBLIC "-//W3C//DTD SVG 1.1//EN"
 "http://www.w3.org/Graphics/SVG/1.1/DTD/svg11.dtd">
<!-- Generated by graphviz version 2.26.3 (20100126.1600)
 -->
<!-- Title: G Pages: 1 -->
<svg width="150pt" height="264pt"
 viewBox="0.00 0.00 150.00 264.00" xmlns="http://www.w3.org/2000/svg" xmlns:xlink="http://www.w3.org/1999/xlink">
<g id="graph1" class="graph" transform="scale(1 1) rotate(0) translate(4 260)">
<title>G</title>
<polygon fill="white" stroke="white" points="-4,5 -4,-260 147,-260 147,5 -4,5"/>
<!-- Node1 -->
<g id="node1" class="node"><title>Node1</title>
<polygon fill="#bfbfbf" stroke="black" points="-0.5,-1 -0.5,-155 142.5,-155 142.5,-1 -0.5,-1"/>
<text text-anchor="middle" x="71" y="-142" font-family="Helvetica,sans-Serif" font-size="10.00">KapsackSearch.SearchNode</text>
<polyline fill="none" stroke="black" points="-0.5,-134 142.5,-134 "/>
<text text-anchor="start" x="7.5" y="-121" font-family="Helvetica,sans-Serif" font-size="10.00">+ solution</text>
<text text-anchor="start" x="7.5" y="-108" font-family="Helvetica,sans-Serif" font-size="10.00">+ cost</text>
<text text-anchor="start" x="7.5" y="-95" font-family="Helvetica,sans-Serif" font-size="10.00">+ volume</text>
<polyline fill="none" stroke="black" points="-0.5,-87 142.5,-87 "/>
<text text-anchor="start" x="7.5" y="-74" font-family="Helvetica,sans-Serif" font-size="10.00">+ __init__()</text>
<text text-anchor="start" x="7.5" y="-61" font-family="Helvetica,sans-Serif" font-size="10.00">+ neighbors()</text>
<text text-anchor="start" x="7.5" y="-48" font-family="Helvetica,sans-Serif" font-size="10.00">+ exceedsVolume()</text>
<text text-anchor="start" x="7.5" y="-35" font-family="Helvetica,sans-Serif" font-size="10.00">+ solutionCost()</text>
<text text-anchor="start" x="7.5" y="-22" font-family="Helvetica,sans-Serif" font-size="10.00">+ solutionVolume()</text>
<text text-anchor="start" x="7.5" y="-9" font-family="Helvetica,sans-Serif" font-size="10.00">+ __eq__()</text>
</g>
<!-- Node2 -->
<g id="node2" class="node"><title>Node2</title>
<a xlink:href="classBaseObject.html" target="_top" xlink:title="{BaseObject\n||}">
<polygon fill="white" stroke="black" points="37,-192.5 37,-255.5 105,-255.5 105,-192.5 37,-192.5"/>
<text text-anchor="middle" x="71" y="-242.5" font-family="Helvetica,sans-Serif" font-size="10.00">BaseObject</text>
<polyline fill="none" stroke="black" points="37,-234.5 105,-234.5 "/>
<text text-anchor="middle" x="71" y="-221.5" font-family="Helvetica,sans-Serif" font-size="10.00"> </text>
<polyline fill="none" stroke="black" points="37,-213.5 105,-213.5 "/>
<text text-anchor="middle" x="71" y="-200.5" font-family="Helvetica,sans-Serif" font-size="10.00"> </text>
</a>
</g>
<!-- Node2&#45;&gt;Node1 -->
<g id="edge2" class="edge"><title>Node2&#45;&gt;Node1</title>
<path fill="none" stroke="midnightblue" d="M71,-182.288C71,-173.742 71,-164.491 71,-155.148"/>
<polygon fill="none" stroke="midnightblue" points="67.5001,-182.32 71,-192.32 74.5001,-182.32 67.5001,-182.32"/>
</g>
</g>
</svg>
