<?xml version="1.0" encoding="UTF-8" standalone="no"?>
<!DOCTYPE svg PUBLIC "-//W3C//DTD SVG 1.1//EN"
 "http://www.w3.org/Graphics/SVG/1.1/DTD/svg11.dtd">
<!-- Generated by graphviz version 2.26.3 (20100126.1600)
 -->
<!-- Title: G Pages: 1 -->
<svg width="192pt" height="390pt"
 viewBox="0.00 0.00 192.00 390.00" xmlns="http://www.w3.org/2000/svg" xmlns:xlink="http://www.w3.org/1999/xlink">
<g id="graph1" class="graph" transform="scale(1 1) rotate(0) translate(4 386)">
<title>G</title>
<polygon fill="white" stroke="white" points="-4,5 -4,-386 189,-386 189,5 -4,5"/>
<!-- Node1 -->
<g id="node1" class="node"><title>Node1</title>
<polygon fill="#bfbfbf" stroke="black" points="2.5,-1 2.5,-155 181.5,-155 181.5,-1 2.5,-1"/>
<text text-anchor="middle" x="92" y="-142" font-family="Helvetica,sans-Serif" font-size="10.00">GeneticAlgorithm.GraphLibrary.Graph</text>
<polyline fill="none" stroke="black" points="2.5,-134 181.5,-134 "/>
<text text-anchor="start" x="10.5" y="-121" font-family="Helvetica,sans-Serif" font-size="10.00">+ V</text>
<text text-anchor="start" x="10.5" y="-108" font-family="Helvetica,sans-Serif" font-size="10.00">+ W</text>
<polyline fill="none" stroke="black" points="2.5,-100 181.5,-100 "/>
<text text-anchor="start" x="10.5" y="-87" font-family="Helvetica,sans-Serif" font-size="10.00">+ __init__()</text>
<text text-anchor="start" x="10.5" y="-74" font-family="Helvetica,sans-Serif" font-size="10.00">+ updateW()</text>
<text text-anchor="start" x="10.5" y="-61" font-family="Helvetica,sans-Serif" font-size="10.00">+ pathLength()</text>
<text text-anchor="start" x="10.5" y="-48" font-family="Helvetica,sans-Serif" font-size="10.00">+ __str__()</text>
<text text-anchor="start" x="10.5" y="-35" font-family="Helvetica,sans-Serif" font-size="10.00">+ __setattr__()</text>
<text text-anchor="start" x="10.5" y="-22" font-family="Helvetica,sans-Serif" font-size="10.00">+ randomizeNodePositions()</text>
<text text-anchor="start" x="10.5" y="-9" font-family="Helvetica,sans-Serif" font-size="10.00">+ plot()</text>
</g>
<!-- Node2 -->
<g id="node2" class="node"><title>Node2</title>
<a xlink:href="classGeneticAlgorithm_1_1Core_1_1GABaseObject.html" target="_top" xlink:title="The base object provides the functions repr and str.">
<polygon fill="white" stroke="black" points="0,-192.5 0,-281.5 184,-281.5 184,-192.5 0,-192.5"/>
<text text-anchor="middle" x="92" y="-268.5" font-family="Helvetica,sans-Serif" font-size="10.00">GeneticAlgorithm.Core.GABaseObject</text>
<polyline fill="none" stroke="black" points="0,-260.5 184,-260.5 "/>
<text text-anchor="middle" x="92" y="-247.5" font-family="Helvetica,sans-Serif" font-size="10.00"> </text>
<polyline fill="none" stroke="black" points="0,-239.5 184,-239.5 "/>
<text text-anchor="start" x="8" y="-226.5" font-family="Helvetica,sans-Serif" font-size="10.00">+ __init__()</text>
<text text-anchor="start" x="8" y="-213.5" font-family="Helvetica,sans-Serif" font-size="10.00">+ __repr__()</text>
<text text-anchor="start" x="8" y="-200.5" font-family="Helvetica,sans-Serif" font-size="10.00">+ __str__()</text>
</a>
</g>
<!-- Node2&#45;&gt;Node1 -->
<g id="edge2" class="edge"><title>Node2&#45;&gt;Node1</title>
<path fill="none" stroke="midnightblue" d="M92,-182.26C92,-173.52 92,-164.337 92,-155.195"/>
<polygon fill="none" stroke="midnightblue" points="88.5001,-182.286 92,-192.287 95.5001,-182.287 88.5001,-182.286"/>
</g>
<!-- Node3 -->
<g id="node4" class="node"><title>Node3</title>
<a xlink:href="classobject.html" target="_top" xlink:title="{object\n||}">
<polygon fill="white" stroke="black" points="70.5,-318.5 70.5,-381.5 113.5,-381.5 113.5,-318.5 70.5,-318.5"/>
<text text-anchor="middle" x="92" y="-368.5" font-family="Helvetica,sans-Serif" font-size="10.00">object</text>
<polyline fill="none" stroke="black" points="70.5,-360.5 113.5,-360.5 "/>
<text text-anchor="middle" x="92" y="-347.5" font-family="Helvetica,sans-Serif" font-size="10.00"> </text>
<polyline fill="none" stroke="black" points="70.5,-339.5 113.5,-339.5 "/>
<text text-anchor="middle" x="92" y="-326.5" font-family="Helvetica,sans-Serif" font-size="10.00"> </text>
</a>
</g>
<!-- Node3&#45;&gt;Node2 -->
<g id="edge4" class="edge"><title>Node3&#45;&gt;Node2</title>
<path fill="none" stroke="midnightblue" d="M92,-308.015C92,-299.403 92,-290.307 92,-281.606"/>
<polygon fill="none" stroke="midnightblue" points="88.5001,-308.222 92,-318.222 95.5001,-308.223 88.5001,-308.222"/>
</g>
</g>
</svg>
