<?xml version="1.0" encoding="UTF-8" standalone="no"?>
<!DOCTYPE svg PUBLIC "-//W3C//DTD SVG 1.1//EN"
 "http://www.w3.org/Graphics/SVG/1.1/DTD/svg11.dtd">
<!-- Generated by graphviz version 2.26.3 (20100126.1600)
 -->
<!-- Title: G Pages: 1 -->
<!--zoomable 872 -->
<svg id="main" version="1.1" xmlns="http://www.w3.org/2000/svg" xmlns:xlink="http://www.w3.org/1999/xlink" xml:space="preserve" onload="init(evt)">
        <defs>
                <circle id="rim" cx="0" cy="0" r="7"/>
                <circle id="rim2" cx="0" cy="0" r="3.5"/>
                <g id="zoomPlus">
                        <use xlink:href="#rim" fill="#404040">
                                <set attributeName="fill" to="#808080" begin="zoomplus.mouseover" end="zoomplus.mouseout"/>
                        </use>
                        <path d="M-4,0h8M0,-4v8" fill="none" stroke="white" stroke-width="1.5" pointer-events="none"/>
                </g>
                <g id="zoomMin">
                        <use xlink:href="#rim" fill="#404040">
                                <set attributeName="fill" to="#808080" begin="zoomminus.mouseover" end="zoomminus.mouseout"/>
                        </use>
                        <path d="M-4,0h8" fill="none" stroke="white" stroke-width="1.5" pointer-events="none"/>
                </g>
                <g id="dirArrow">
                        <path fill="none" stroke="white" stroke-width="1.5" d="M0,-3.0v7 M-2.5,-0.5L0,-3.0L2.5,-0.5"/>
                </g>
               <g id="resetDef">
                       <use xlink:href="#rim2" fill="#404040">
                               <set attributeName="fill" to="#808080" begin="reset.mouseover" end="reset.mouseout"/>
                       </use>
               </g>
        </defs>

<script type="text/javascript">
var viewWidth = 500;
var viewHeight = 872;
var sectionId = 'dynsection-0';
</script>
<script xlink:href="svgpan.js"/>
<svg id="graph" class="graph">
<g id="viewport">
<title>G</title>
<polygon fill="white" stroke="white" points="-4,5 -4,-868 497,-868 497,5 -4,5"/>
<!-- Node1 -->
<g id="node1" class="node"><title>Node1</title>
<polygon fill="#bfbfbf" stroke="black" points="138,-370.5 138,-511.5 352,-511.5 352,-370.5 138,-370.5"/>
<text text-anchor="middle" x="245" y="-498.5" font-family="Helvetica,sans-Serif" font-size="10.00">GeneticAlgorithm.Core.BasePeriodicOperator</text>
<polyline fill="none" stroke="black" points="138,-490.5 352,-490.5 "/>
<text text-anchor="start" x="146" y="-477.5" font-family="Helvetica,sans-Serif" font-size="10.00">+ iterationCounter</text>
<text text-anchor="start" x="146" y="-464.5" font-family="Helvetica,sans-Serif" font-size="10.00">+ evaluationCounter</text>
<text text-anchor="start" x="146" y="-451.5" font-family="Helvetica,sans-Serif" font-size="10.00">+ iterationFrequency</text>
<text text-anchor="start" x="146" y="-438.5" font-family="Helvetica,sans-Serif" font-size="10.00">+ evaluationFrequency</text>
<polyline fill="none" stroke="black" points="138,-430.5 352,-430.5 "/>
<text text-anchor="start" x="146" y="-417.5" font-family="Helvetica,sans-Serif" font-size="10.00">+ __init__()</text>
<text text-anchor="start" x="146" y="-404.5" font-family="Helvetica,sans-Serif" font-size="10.00">+ iterationCallback()</text>
<text text-anchor="start" x="146" y="-391.5" font-family="Helvetica,sans-Serif" font-size="10.00">+ evaluationCallback()</text>
<text text-anchor="start" x="146" y="-378.5" font-family="Helvetica,sans-Serif" font-size="10.00">+ iterate()</text>
</g>
<!-- Node5 -->
<g id="node9" class="node"><title>Node5</title>
<a xlink:href="classGeneticAlgorithm_1_1LoggingOperators_1_1BestLogger.html" target="_top" xlink:title="This class stores the best individual of the population, if it is better than the last individual fou...">
<polygon fill="white" stroke="black" points="8,-140.5 8,-333.5 232,-333.5 232,-140.5 8,-140.5"/>
<text text-anchor="middle" x="120" y="-320.5" font-family="Helvetica,sans-Serif" font-size="10.00">GeneticAlgorithm.LoggingOperators.BestLogger</text>
<polyline fill="none" stroke="black" points="8,-312.5 232,-312.5 "/>
<text text-anchor="start" x="16" y="-299.5" font-family="Helvetica,sans-Serif" font-size="10.00">+ bestLog</text>
<text text-anchor="start" x="16" y="-286.5" font-family="Helvetica,sans-Serif" font-size="10.00">+ numEvaluations</text>
<text text-anchor="start" x="16" y="-273.5" font-family="Helvetica,sans-Serif" font-size="10.00">+ criterion</text>
<text text-anchor="start" x="16" y="-260.5" font-family="Helvetica,sans-Serif" font-size="10.00">+ maximize</text>
<text text-anchor="start" x="16" y="-247.5" font-family="Helvetica,sans-Serif" font-size="10.00">+ iterationFrequency</text>
<text text-anchor="start" x="16" y="-234.5" font-family="Helvetica,sans-Serif" font-size="10.00">+ iterationCallback</text>
<text text-anchor="start" x="16" y="-221.5" font-family="Helvetica,sans-Serif" font-size="10.00">+ evaluationCallback</text>
<polyline fill="none" stroke="black" points="8,-213.5 232,-213.5 "/>
<text text-anchor="start" x="16" y="-200.5" font-family="Helvetica,sans-Serif" font-size="10.00">+ __init__()</text>
<text text-anchor="start" x="16" y="-187.5" font-family="Helvetica,sans-Serif" font-size="10.00">+ logCallback()</text>
<text text-anchor="start" x="16" y="-174.5" font-family="Helvetica,sans-Serif" font-size="10.00">+ addToLog()</text>
<text text-anchor="start" x="16" y="-161.5" font-family="Helvetica,sans-Serif" font-size="10.00">+ getBest()</text>
<text text-anchor="start" x="16" y="-148.5" font-family="Helvetica,sans-Serif" font-size="10.00">+ finalize()</text>
</a>
</g>
<!-- Node1&#45;&gt;Node5 -->
<g id="edge8" class="edge"><title>Node1&#45;&gt;Node5</title>
<path fill="none" stroke="midnightblue" d="M196.294,-361.512C190.67,-352.334 184.889,-342.899 179.146,-333.527"/>
<polygon fill="none" stroke="midnightblue" points="193.423,-363.525 201.632,-370.223 199.392,-359.868 193.423,-363.525"/>
</g>
<!-- Node7 -->
<g id="node13" class="node"><title>Node7</title>
<a xlink:href="classGeneticAlgorithm_1_1LoggingOperators_1_1LogGenerations.html" target="_top" xlink:title="Log the full population of a GA.">
<polygon fill="white" stroke="black" points="250,-173 250,-301 492,-301 492,-173 250,-173"/>
<text text-anchor="middle" x="371" y="-288" font-family="Helvetica,sans-Serif" font-size="10.00">GeneticAlgorithm.LoggingOperators.LogGenerations</text>
<polyline fill="none" stroke="black" points="250,-280 492,-280 "/>
<text text-anchor="start" x="258" y="-267" font-family="Helvetica,sans-Serif" font-size="10.00">+ generationLog</text>
<text text-anchor="start" x="258" y="-254" font-family="Helvetica,sans-Serif" font-size="10.00">+ numEvaluations</text>
<text text-anchor="start" x="258" y="-241" font-family="Helvetica,sans-Serif" font-size="10.00">+ iterationCallback</text>
<text text-anchor="start" x="258" y="-228" font-family="Helvetica,sans-Serif" font-size="10.00">+ evaluationCallback</text>
<polyline fill="none" stroke="black" points="250,-220 492,-220 "/>
<text text-anchor="start" x="258" y="-207" font-family="Helvetica,sans-Serif" font-size="10.00">+ __init__()</text>
<text text-anchor="start" x="258" y="-194" font-family="Helvetica,sans-Serif" font-size="10.00">+ logPopulation()</text>
<text text-anchor="start" x="258" y="-181" font-family="Helvetica,sans-Serif" font-size="10.00">+ finalize()</text>
</a>
</g>
<!-- Node1&#45;&gt;Node7 -->
<g id="edge12" class="edge"><title>Node1&#45;&gt;Node7</title>
<path fill="none" stroke="midnightblue" d="M293.971,-361.713C306.359,-341.658 319.508,-320.368 331.37,-301.163"/>
<polygon fill="none" stroke="midnightblue" points="290.992,-359.876 288.715,-370.223 296.948,-363.554 290.992,-359.876"/>
</g>
<!-- Node2 -->
<g id="node2" class="node"><title>Node2</title>
<a xlink:href="classGeneticAlgorithm_1_1Core_1_1GeneticOperator.html" target="_top" xlink:title="GeneticOperator is the base class that should be used to implement selection, crossover and mutation...">
<polygon fill="white" stroke="black" points="150,-548.5 150,-637.5 340,-637.5 340,-548.5 150,-548.5"/>
<text text-anchor="middle" x="245" y="-624.5" font-family="Helvetica,sans-Serif" font-size="10.00">GeneticAlgorithm.Core.GeneticOperator</text>
<polyline fill="none" stroke="black" points="150,-616.5 340,-616.5 "/>
<text text-anchor="middle" x="245" y="-603.5" font-family="Helvetica,sans-Serif" font-size="10.00"> </text>
<polyline fill="none" stroke="black" points="150,-595.5 340,-595.5 "/>
<text text-anchor="start" x="158" y="-582.5" font-family="Helvetica,sans-Serif" font-size="10.00">+ initialize()</text>
<text text-anchor="start" x="158" y="-569.5" font-family="Helvetica,sans-Serif" font-size="10.00">+ iterate()</text>
<text text-anchor="start" x="158" y="-556.5" font-family="Helvetica,sans-Serif" font-size="10.00">+ finalize()</text>
</a>
</g>
<!-- Node2&#45;&gt;Node1 -->
<g id="edge2" class="edge"><title>Node2&#45;&gt;Node1</title>
<path fill="none" stroke="midnightblue" d="M245,-538.013C245,-529.465 245,-520.532 245,-511.695"/>
<polygon fill="none" stroke="midnightblue" points="241.5,-538.217 245,-548.217 248.5,-538.217 241.5,-538.217"/>
</g>
<!-- Node3 -->
<g id="node4" class="node"><title>Node3</title>
<a xlink:href="classGeneticAlgorithm_1_1Core_1_1GABaseObject.html" target="_top" xlink:title="The base object provides the functions repr and str.">
<polygon fill="white" stroke="black" points="153,-674.5 153,-763.5 337,-763.5 337,-674.5 153,-674.5"/>
<text text-anchor="middle" x="245" y="-750.5" font-family="Helvetica,sans-Serif" font-size="10.00">GeneticAlgorithm.Core.GABaseObject</text>
<polyline fill="none" stroke="black" points="153,-742.5 337,-742.5 "/>
<text text-anchor="middle" x="245" y="-729.5" font-family="Helvetica,sans-Serif" font-size="10.00"> </text>
<polyline fill="none" stroke="black" points="153,-721.5 337,-721.5 "/>
<text text-anchor="start" x="161" y="-708.5" font-family="Helvetica,sans-Serif" font-size="10.00">+ __init__()</text>
<text text-anchor="start" x="161" y="-695.5" font-family="Helvetica,sans-Serif" font-size="10.00">+ __repr__()</text>
<text text-anchor="start" x="161" y="-682.5" font-family="Helvetica,sans-Serif" font-size="10.00">+ __str__()</text>
</a>
</g>
<!-- Node3&#45;&gt;Node2 -->
<g id="edge4" class="edge"><title>Node3&#45;&gt;Node2</title>
<path fill="none" stroke="midnightblue" d="M245,-664.013C245,-655.198 245,-646.169 245,-637.633"/>
<polygon fill="none" stroke="midnightblue" points="241.5,-664.222 245,-674.222 248.5,-664.222 241.5,-664.222"/>
</g>
<!-- Node4 -->
<g id="node6" class="node"><title>Node4</title>
<a xlink:href="classobject.html" target="_top" xlink:title="{object\n||}">
<polygon fill="white" stroke="black" points="223.5,-800.5 223.5,-863.5 266.5,-863.5 266.5,-800.5 223.5,-800.5"/>
<text text-anchor="middle" x="245" y="-850.5" font-family="Helvetica,sans-Serif" font-size="10.00">object</text>
<polyline fill="none" stroke="black" points="223.5,-842.5 266.5,-842.5 "/>
<text text-anchor="middle" x="245" y="-829.5" font-family="Helvetica,sans-Serif" font-size="10.00"> </text>
<polyline fill="none" stroke="black" points="223.5,-821.5 266.5,-821.5 "/>
<text text-anchor="middle" x="245" y="-808.5" font-family="Helvetica,sans-Serif" font-size="10.00"> </text>
</a>
</g>
<!-- Node4&#45;&gt;Node3 -->
<g id="edge6" class="edge"><title>Node4&#45;&gt;Node3</title>
<path fill="none" stroke="midnightblue" d="M245,-790.015C245,-781.403 245,-772.307 245,-763.606"/>
<polygon fill="none" stroke="midnightblue" points="241.5,-790.222 245,-800.222 248.5,-790.223 241.5,-790.222"/>
</g>
<!-- Node6 -->
<g id="node11" class="node"><title>Node6</title>
<a xlink:href="classGeneticAlgorithm_1_1PlottingOperators_1_1PlotBestLogger.html" target="_top" xlink:title="{GeneticAlgorithm.PlottingOperators.PlotBestLogger\n|+ iterationCallback\l+ evaluationCallback\l|+ __init__()\l+ plotCallback()\l+ finalize()\l}">
<polygon fill="white" stroke="black" points="0,-1 0,-103 240,-103 240,-1 0,-1"/>
<text text-anchor="middle" x="120" y="-90" font-family="Helvetica,sans-Serif" font-size="10.00">GeneticAlgorithm.PlottingOperators.PlotBestLogger</text>
<polyline fill="none" stroke="black" points="0,-82 240,-82 "/>
<text text-anchor="start" x="8" y="-69" font-family="Helvetica,sans-Serif" font-size="10.00">+ iterationCallback</text>
<text text-anchor="start" x="8" y="-56" font-family="Helvetica,sans-Serif" font-size="10.00">+ evaluationCallback</text>
<polyline fill="none" stroke="black" points="0,-48 240,-48 "/>
<text text-anchor="start" x="8" y="-35" font-family="Helvetica,sans-Serif" font-size="10.00">+ __init__()</text>
<text text-anchor="start" x="8" y="-22" font-family="Helvetica,sans-Serif" font-size="10.00">+ plotCallback()</text>
<text text-anchor="start" x="8" y="-9" font-family="Helvetica,sans-Serif" font-size="10.00">+ finalize()</text>
</a>
</g>
<!-- Node5&#45;&gt;Node6 -->
<g id="edge10" class="edge"><title>Node5&#45;&gt;Node6</title>
<path fill="none" stroke="midnightblue" d="M120,-130.284C120,-120.982 120,-111.876 120,-103.355"/>
<polygon fill="none" stroke="midnightblue" points="116.5,-130.436 120,-140.436 123.5,-130.436 116.5,-130.436"/>
</g>
</g>
</svg>
        <g id="navigator" transform="translate(0 0)" fill="#404254">
                <rect fill="#f2f5e9" fill-opacity="0.5" stroke="#606060" stroke-width=".5" x="0" y="0" width="60" height="60"/>
                <use id="zoomplus" xlink:href="#zoomPlus" x="17" y="9" onmousedown="handleZoom(evt,'in')"/>
                <use id="zoomminus" xlink:href="#zoomMin" x="42" y="9" onmousedown="handleZoom(evt,'out')"/>
                <use id="reset" xlink:href="#resetDef" x="30" y="36" onmousedown="handleReset()"/>
                <g id="arrowUp" xlink:href="#dirArrow" transform="translate(30 24)" onmousedown="handlePan(0,-1)">
                  <use xlink:href="#rim" fill="#404040">
                        <set attributeName="fill" to="#808080" begin="arrowUp.mouseover" end="arrowUp.mouseout"/>
                  </use>
                  <path fill="none" stroke="white" stroke-width="1.5" d="M0,-3.0v7 M-2.5,-0.5L0,-3.0L2.5,-0.5"/>
                </g>
                <g id="arrowRight" xlink:href="#dirArrow" transform="rotate(90) translate(36 -43)" onmousedown="handlePan(1,0)">
                  <use xlink:href="#rim" fill="#404040">
                        <set attributeName="fill" to="#808080" begin="arrowRight.mouseover" end="arrowRight.mouseout"/>
                  </use>
                  <path fill="none" stroke="white" stroke-width="1.5" d="M0,-3.0v7 M-2.5,-0.5L0,-3.0L2.5,-0.5"/>
                </g>
                <g id="arrowDown" xlink:href="#dirArrow" transform="rotate(180) translate(-30 -48)" onmousedown="handlePan(0,1)">
                  <use xlink:href="#rim" fill="#404040">
                        <set attributeName="fill" to="#808080" begin="arrowDown.mouseover" end="arrowDown.mouseout"/>
                  </use>
                  <path fill="none" stroke="white" stroke-width="1.5" d="M0,-3.0v7 M-2.5,-0.5L0,-3.0L2.5,-0.5"/>
                </g>
                <g id="arrowLeft" xlink:href="#dirArrow" transform="rotate(270) translate(-36 17)" onmousedown="handlePan(-1,0)">
                  <use xlink:href="#rim" fill="#404040">
                        <set attributeName="fill" to="#808080" begin="arrowLeft.mouseover" end="arrowLeft.mouseout"/>
                  </use>
                  <path fill="none" stroke="white" stroke-width="1.5" d="M0,-3.0v7 M-2.5,-0.5L0,-3.0L2.5,-0.5"/>
                </g>
        </g>
</svg>
