<?xml version="1.0" encoding="UTF-8" standalone="no"?>
<!DOCTYPE svg PUBLIC "-//W3C//DTD SVG 1.1//EN"
 "http://www.w3.org/Graphics/SVG/1.1/DTD/svg11.dtd">
<!-- Generated by graphviz version 2.26.3 (20100126.1600)
 -->
<!-- Title: G Pages: 1 -->
<!--zoomable 516 -->
<svg id="main" version="1.1" xmlns="http://www.w3.org/2000/svg" xmlns:xlink="http://www.w3.org/1999/xlink" xml:space="preserve" onload="init(evt)">
        <defs>
                <circle id="rim" cx="0" cy="0" r="7"/>
                <circle id="rim2" cx="0" cy="0" r="3.5"/>
                <g id="zoomPlus">
                        <use xlink:href="#rim" fill="#404040">
                                <set attributeName="fill" to="#808080" begin="zoomplus.mouseover" end="zoomplus.mouseout"/>
                        </use>
                        <path d="M-4,0h8M0,-4v8" fill="none" stroke="white" stroke-width="1.5" pointer-events="none"/>
                </g>
                <g id="zoomMin">
                        <use xlink:href="#rim" fill="#404040">
                                <set attributeName="fill" to="#808080" begin="zoomminus.mouseover" end="zoomminus.mouseout"/>
                        </use>
                        <path d="M-4,0h8" fill="none" stroke="white" stroke-width="1.5" pointer-events="none"/>
                </g>
                <g id="dirArrow">
                        <path fill="none" stroke="white" stroke-width="1.5" d="M0,-3.0v7 M-2.5,-0.5L0,-3.0L2.5,-0.5"/>
                </g>
               <g id="resetDef">
                       <use xlink:href="#rim2" fill="#404040">
                               <set attributeName="fill" to="#808080" begin="reset.mouseover" end="reset.mouseout"/>
                       </use>
               </g>
        </defs>

<script type="text/javascript">
var viewWidth = 302;
var viewHeight = 516;
var sectionId = 'dynsection-1';
</script>
<script xlink:href="svgpan.js"/>
<svg id="graph" class="graph">
<g id="viewport">
<title>G</title>
<polygon fill="white" stroke="white" points="-4,5 -4,-512 299,-512 299,5 -4,5"/>
<!-- Node1 -->
<g id="node1" class="node"><title>Node1</title>
<polygon fill="#bfbfbf" stroke="black" points="0,-0.5 0,-141.5 294,-141.5 294,-0.5 0,-0.5"/>
<text text-anchor="middle" x="147" y="-128.5" font-family="Helvetica,sans-Serif" font-size="10.00">GeneticAlgorithm.GenotypeLibrary.BinaryChromosomeSegment</text>
<polyline fill="none" stroke="black" points="0,-120.5 294,-120.5 "/>
<text text-anchor="start" x="8" y="-107.5" font-family="Helvetica,sans-Serif" font-size="10.00">+ data</text>
<polyline fill="none" stroke="black" points="0,-99.5 294,-99.5 "/>
<text text-anchor="start" x="8" y="-86.5" font-family="Helvetica,sans-Serif" font-size="10.00">+ __init__()</text>
<text text-anchor="start" x="8" y="-73.5" font-family="Helvetica,sans-Serif" font-size="10.00">+ __str__()</text>
<text text-anchor="start" x="8" y="-60.5" font-family="Helvetica,sans-Serif" font-size="10.00">+ maxValue()</text>
<text text-anchor="start" x="8" y="-47.5" font-family="Helvetica,sans-Serif" font-size="10.00">+ randomize()</text>
<text text-anchor="start" x="8" y="-34.5" font-family="Helvetica,sans-Serif" font-size="10.00">+ __setattr__()</text>
<text text-anchor="start" x="8" y="-21.5" font-family="Helvetica,sans-Serif" font-size="10.00">+ crossover()</text>
<text text-anchor="start" x="8" y="-8.5" font-family="Helvetica,sans-Serif" font-size="10.00">+ mutate()</text>
</g>
<!-- Node2 -->
<g id="node2" class="node"><title>Node2</title>
<a xlink:href="classGeneticAlgorithm_1_1Core_1_1BaseChromosomeSegment.html" target="_top" xlink:title="This class defines the minimal expression of a chromosome segment.">
<polygon fill="white" stroke="black" points="27.5,-179 27.5,-281 266.5,-281 266.5,-179 27.5,-179"/>
<text text-anchor="middle" x="147" y="-268" font-family="Helvetica,sans-Serif" font-size="10.00">GeneticAlgorithm.Core.BaseChromosomeSegment</text>
<polyline fill="none" stroke="black" points="27.5,-260 266.5,-260 "/>
<text text-anchor="start" x="35.5" y="-247" font-family="Helvetica,sans-Serif" font-size="10.00">+ data</text>
<polyline fill="none" stroke="black" points="27.5,-239 266.5,-239 "/>
<text text-anchor="start" x="35.5" y="-226" font-family="Helvetica,sans-Serif" font-size="10.00">+ __init__()</text>
<text text-anchor="start" x="35.5" y="-213" font-family="Helvetica,sans-Serif" font-size="10.00">+ randomize()</text>
<text text-anchor="start" x="35.5" y="-200" font-family="Helvetica,sans-Serif" font-size="10.00">+ crossover()</text>
<text text-anchor="start" x="35.5" y="-187" font-family="Helvetica,sans-Serif" font-size="10.00">+ mutate()</text>
</a>
</g>
<!-- Node2&#45;&gt;Node1 -->
<g id="edge2" class="edge"><title>Node2&#45;&gt;Node1</title>
<path fill="none" stroke="midnightblue" d="M147,-168.659C147,-159.86 147,-150.748 147,-141.785"/>
<polygon fill="none" stroke="midnightblue" points="143.5,-168.816 147,-178.816 150.5,-168.816 143.5,-168.816"/>
</g>
<!-- Node3 -->
<g id="node4" class="node"><title>Node3</title>
<a xlink:href="classGeneticAlgorithm_1_1Core_1_1GABaseObject.html" target="_top" xlink:title="The base object provides the functions repr and str.">
<polygon fill="white" stroke="black" points="55,-318.5 55,-407.5 239,-407.5 239,-318.5 55,-318.5"/>
<text text-anchor="middle" x="147" y="-394.5" font-family="Helvetica,sans-Serif" font-size="10.00">GeneticAlgorithm.Core.GABaseObject</text>
<polyline fill="none" stroke="black" points="55,-386.5 239,-386.5 "/>
<text text-anchor="middle" x="147" y="-373.5" font-family="Helvetica,sans-Serif" font-size="10.00"> </text>
<polyline fill="none" stroke="black" points="55,-365.5 239,-365.5 "/>
<text text-anchor="start" x="63" y="-352.5" font-family="Helvetica,sans-Serif" font-size="10.00">+ __init__()</text>
<text text-anchor="start" x="63" y="-339.5" font-family="Helvetica,sans-Serif" font-size="10.00">+ __repr__()</text>
<text text-anchor="start" x="63" y="-326.5" font-family="Helvetica,sans-Serif" font-size="10.00">+ __str__()</text>
</a>
</g>
<!-- Node3&#45;&gt;Node2 -->
<g id="edge4" class="edge"><title>Node3&#45;&gt;Node2</title>
<path fill="none" stroke="midnightblue" d="M147,-308.072C147,-299.178 147,-289.998 147,-281.197"/>
<polygon fill="none" stroke="midnightblue" points="143.5,-308.343 147,-318.343 150.5,-308.343 143.5,-308.343"/>
</g>
<!-- Node4 -->
<g id="node6" class="node"><title>Node4</title>
<a xlink:href="classobject.html" target="_top" xlink:title="{object\n||}">
<polygon fill="white" stroke="black" points="125.5,-444.5 125.5,-507.5 168.5,-507.5 168.5,-444.5 125.5,-444.5"/>
<text text-anchor="middle" x="147" y="-494.5" font-family="Helvetica,sans-Serif" font-size="10.00">object</text>
<polyline fill="none" stroke="black" points="125.5,-486.5 168.5,-486.5 "/>
<text text-anchor="middle" x="147" y="-473.5" font-family="Helvetica,sans-Serif" font-size="10.00"> </text>
<polyline fill="none" stroke="black" points="125.5,-465.5 168.5,-465.5 "/>
<text text-anchor="middle" x="147" y="-452.5" font-family="Helvetica,sans-Serif" font-size="10.00"> </text>
</a>
</g>
<!-- Node4&#45;&gt;Node3 -->
<g id="edge6" class="edge"><title>Node4&#45;&gt;Node3</title>
<path fill="none" stroke="midnightblue" d="M147,-434.015C147,-425.403 147,-416.307 147,-407.606"/>
<polygon fill="none" stroke="midnightblue" points="143.5,-434.222 147,-444.222 150.5,-434.223 143.5,-434.222"/>
</g>
</g>
</svg>
        <g id="navigator" transform="translate(0 0)" fill="#404254">
                <rect fill="#f2f5e9" fill-opacity="0.5" stroke="#606060" stroke-width=".5" x="0" y="0" width="60" height="60"/>
                <use id="zoomplus" xlink:href="#zoomPlus" x="17" y="9" onmousedown="handleZoom(evt,'in')"/>
                <use id="zoomminus" xlink:href="#zoomMin" x="42" y="9" onmousedown="handleZoom(evt,'out')"/>
                <use id="reset" xlink:href="#resetDef" x="30" y="36" onmousedown="handleReset()"/>
                <g id="arrowUp" xlink:href="#dirArrow" transform="translate(30 24)" onmousedown="handlePan(0,-1)">
                  <use xlink:href="#rim" fill="#404040">
                        <set attributeName="fill" to="#808080" begin="arrowUp.mouseover" end="arrowUp.mouseout"/>
                  </use>
                  <path fill="none" stroke="white" stroke-width="1.5" d="M0,-3.0v7 M-2.5,-0.5L0,-3.0L2.5,-0.5"/>
                </g>
                <g id="arrowRight" xlink:href="#dirArrow" transform="rotate(90) translate(36 -43)" onmousedown="handlePan(1,0)">
                  <use xlink:href="#rim" fill="#404040">
                        <set attributeName="fill" to="#808080" begin="arrowRight.mouseover" end="arrowRight.mouseout"/>
                  </use>
                  <path fill="none" stroke="white" stroke-width="1.5" d="M0,-3.0v7 M-2.5,-0.5L0,-3.0L2.5,-0.5"/>
                </g>
                <g id="arrowDown" xlink:href="#dirArrow" transform="rotate(180) translate(-30 -48)" onmousedown="handlePan(0,1)">
                  <use xlink:href="#rim" fill="#404040">
                        <set attributeName="fill" to="#808080" begin="arrowDown.mouseover" end="arrowDown.mouseout"/>
                  </use>
                  <path fill="none" stroke="white" stroke-width="1.5" d="M0,-3.0v7 M-2.5,-0.5L0,-3.0L2.5,-0.5"/>
                </g>
                <g id="arrowLeft" xlink:href="#dirArrow" transform="rotate(270) translate(-36 17)" onmousedown="handlePan(-1,0)">
                  <use xlink:href="#rim" fill="#404040">
                        <set attributeName="fill" to="#808080" begin="arrowLeft.mouseover" end="arrowLeft.mouseout"/>
                  </use>
                  <path fill="none" stroke="white" stroke-width="1.5" d="M0,-3.0v7 M-2.5,-0.5L0,-3.0L2.5,-0.5"/>
                </g>
        </g>
</svg>
