<?xml version="1.0" encoding="UTF-8" standalone="no"?>
<!DOCTYPE svg PUBLIC "-//W3C//DTD SVG 1.1//EN"
 "http://www.w3.org/Graphics/SVG/1.1/DTD/svg11.dtd">
<!-- Generated by graphviz version 2.26.3 (20100126.1600)
 -->
<!-- Title: G Pages: 1 -->
<svg width="192pt" height="376pt"
 viewBox="0.00 0.00 192.00 376.00" xmlns="http://www.w3.org/2000/svg" xmlns:xlink="http://www.w3.org/1999/xlink">
<g id="graph1" class="graph" transform="scale(1 1) rotate(0) translate(4 372)">
<title>G</title>
<polygon fill="white" stroke="white" points="-4,5 -4,-372 189,-372 189,5 -4,5"/>
<!-- Node1 -->
<g id="node1" class="node"><title>Node1</title>
<polygon fill="#bfbfbf" stroke="black" points="11.5,-0.5 11.5,-141.5 172.5,-141.5 172.5,-0.5 11.5,-0.5"/>
<text text-anchor="middle" x="92" y="-128.5" font-family="Helvetica,sans-Serif" font-size="10.00">GeneticAlgorithm.Core.Genotype</text>
<polyline fill="none" stroke="black" points="11.5,-120.5 172.5,-120.5 "/>
<text text-anchor="start" x="19.5" y="-107.5" font-family="Helvetica,sans-Serif" font-size="10.00">+ segments</text>
<polyline fill="none" stroke="black" points="11.5,-99.5 172.5,-99.5 "/>
<text text-anchor="start" x="19.5" y="-86.5" font-family="Helvetica,sans-Serif" font-size="10.00">+ __init__()</text>
<text text-anchor="start" x="19.5" y="-73.5" font-family="Helvetica,sans-Serif" font-size="10.00">+ __setattr__()</text>
<text text-anchor="start" x="19.5" y="-60.5" font-family="Helvetica,sans-Serif" font-size="10.00">+ randomize()</text>
<text text-anchor="start" x="19.5" y="-47.5" font-family="Helvetica,sans-Serif" font-size="10.00">+ addSegment()</text>
<text text-anchor="start" x="19.5" y="-34.5" font-family="Helvetica,sans-Serif" font-size="10.00">+ crossover()</text>
<text text-anchor="start" x="19.5" y="-21.5" font-family="Helvetica,sans-Serif" font-size="10.00">+ mutate()</text>
<text text-anchor="start" x="19.5" y="-8.5" font-family="Helvetica,sans-Serif" font-size="10.00">+ __str__()</text>
</g>
<!-- Node2 -->
<g id="node2" class="node"><title>Node2</title>
<a xlink:href="classGeneticAlgorithm_1_1Core_1_1GABaseObject.html" target="_top" xlink:title="The base object provides the functions repr and str.">
<polygon fill="white" stroke="black" points="0,-178.5 0,-267.5 184,-267.5 184,-178.5 0,-178.5"/>
<text text-anchor="middle" x="92" y="-254.5" font-family="Helvetica,sans-Serif" font-size="10.00">GeneticAlgorithm.Core.GABaseObject</text>
<polyline fill="none" stroke="black" points="0,-246.5 184,-246.5 "/>
<text text-anchor="middle" x="92" y="-233.5" font-family="Helvetica,sans-Serif" font-size="10.00"> </text>
<polyline fill="none" stroke="black" points="0,-225.5 184,-225.5 "/>
<text text-anchor="start" x="8" y="-212.5" font-family="Helvetica,sans-Serif" font-size="10.00">+ __init__()</text>
<text text-anchor="start" x="8" y="-199.5" font-family="Helvetica,sans-Serif" font-size="10.00">+ __repr__()</text>
<text text-anchor="start" x="8" y="-186.5" font-family="Helvetica,sans-Serif" font-size="10.00">+ __str__()</text>
</a>
</g>
<!-- Node2&#45;&gt;Node1 -->
<g id="edge2" class="edge"><title>Node2&#45;&gt;Node1</title>
<path fill="none" stroke="midnightblue" d="M92,-168.013C92,-159.465 92,-150.532 92,-141.695"/>
<polygon fill="none" stroke="midnightblue" points="88.5001,-168.217 92,-178.217 95.5001,-168.217 88.5001,-168.217"/>
</g>
<!-- Node3 -->
<g id="node4" class="node"><title>Node3</title>
<a xlink:href="classobject.html" target="_top" xlink:title="{object\n||}">
<polygon fill="white" stroke="black" points="70.5,-304.5 70.5,-367.5 113.5,-367.5 113.5,-304.5 70.5,-304.5"/>
<text text-anchor="middle" x="92" y="-354.5" font-family="Helvetica,sans-Serif" font-size="10.00">object</text>
<polyline fill="none" stroke="black" points="70.5,-346.5 113.5,-346.5 "/>
<text text-anchor="middle" x="92" y="-333.5" font-family="Helvetica,sans-Serif" font-size="10.00"> </text>
<polyline fill="none" stroke="black" points="70.5,-325.5 113.5,-325.5 "/>
<text text-anchor="middle" x="92" y="-312.5" font-family="Helvetica,sans-Serif" font-size="10.00"> </text>
</a>
</g>
<!-- Node3&#45;&gt;Node2 -->
<g id="edge4" class="edge"><title>Node3&#45;&gt;Node2</title>
<path fill="none" stroke="midnightblue" d="M92,-294.015C92,-285.403 92,-276.307 92,-267.606"/>
<polygon fill="none" stroke="midnightblue" points="88.5001,-294.222 92,-304.222 95.5001,-294.223 88.5001,-294.222"/>
</g>
</g>
</svg>
