<?xml version="1.0" encoding="UTF-8" standalone="no"?>
<!DOCTYPE svg PUBLIC "-//W3C//DTD SVG 1.1//EN"
 "http://www.w3.org/Graphics/SVG/1.1/DTD/svg11.dtd">
<!-- Generated by graphviz version 2.26.3 (20100126.1600)
 -->
<!-- Title: G Pages: 1 -->
<!--zoomable 1050 -->
<svg id="main" version="1.1" xmlns="http://www.w3.org/2000/svg" xmlns:xlink="http://www.w3.org/1999/xlink" xml:space="preserve" onload="init(evt)">
        <defs>
                <circle id="rim" cx="0" cy="0" r="7"/>
                <circle id="rim2" cx="0" cy="0" r="3.5"/>
                <g id="zoomPlus">
                        <use xlink:href="#rim" fill="#404040">
                                <set attributeName="fill" to="#808080" begin="zoomplus.mouseover" end="zoomplus.mouseout"/>
                        </use>
                        <path d="M-4,0h8M0,-4v8" fill="none" stroke="white" stroke-width="1.5" pointer-events="none"/>
                </g>
                <g id="zoomMin">
                        <use xlink:href="#rim" fill="#404040">
                                <set attributeName="fill" to="#808080" begin="zoomminus.mouseover" end="zoomminus.mouseout"/>
                        </use>
                        <path d="M-4,0h8" fill="none" stroke="white" stroke-width="1.5" pointer-events="none"/>
                </g>
                <g id="dirArrow">
                        <path fill="none" stroke="white" stroke-width="1.5" d="M0,-3.0v7 M-2.5,-0.5L0,-3.0L2.5,-0.5"/>
                </g>
               <g id="resetDef">
                       <use xlink:href="#rim2" fill="#404040">
                               <set attributeName="fill" to="#808080" begin="reset.mouseover" end="reset.mouseout"/>
                       </use>
               </g>
        </defs>

<script type="text/javascript">
var viewWidth = 500;
var viewHeight = 1050;
var sectionId = 'dynsection-0';
</script>
<script xlink:href="svgpan.js"/>
<svg id="graph" class="graph">
<g id="viewport">
<title>G</title>
<polygon fill="white" stroke="white" points="-4,5 -4,-1046 497,-1046 497,5 -4,5"/>
<!-- Node1 -->
<g id="node1" class="node"><title>Node1</title>
<polygon fill="#bfbfbf" stroke="black" points="138,-548.5 138,-689.5 352,-689.5 352,-548.5 138,-548.5"/>
<text text-anchor="middle" x="245" y="-676.5" font-family="Helvetica,sans-Serif" font-size="10.00">GeneticAlgorithm.Core.BasePeriodicOperator</text>
<polyline fill="none" stroke="black" points="138,-668.5 352,-668.5 "/>
<text text-anchor="start" x="146" y="-655.5" font-family="Helvetica,sans-Serif" font-size="10.00">+ iterationCounter</text>
<text text-anchor="start" x="146" y="-642.5" font-family="Helvetica,sans-Serif" font-size="10.00">+ evaluationCounter</text>
<text text-anchor="start" x="146" y="-629.5" font-family="Helvetica,sans-Serif" font-size="10.00">+ iterationFrequency</text>
<text text-anchor="start" x="146" y="-616.5" font-family="Helvetica,sans-Serif" font-size="10.00">+ evaluationFrequency</text>
<polyline fill="none" stroke="black" points="138,-608.5 352,-608.5 "/>
<text text-anchor="start" x="146" y="-595.5" font-family="Helvetica,sans-Serif" font-size="10.00">+ __init__()</text>
<text text-anchor="start" x="146" y="-582.5" font-family="Helvetica,sans-Serif" font-size="10.00">+ iterationCallback()</text>
<text text-anchor="start" x="146" y="-569.5" font-family="Helvetica,sans-Serif" font-size="10.00">+ evaluationCallback()</text>
<text text-anchor="start" x="146" y="-556.5" font-family="Helvetica,sans-Serif" font-size="10.00">+ iterate()</text>
</g>
<!-- Node5 -->
<g id="node9" class="node"><title>Node5</title>
<a xlink:href="classGeneticAlgorithm_1_1LoggingOperators_1_1BestLogger.html" target="_top" xlink:title="This class stores the best individual of the population, if it is better than the last individual fou...">
<polygon fill="white" stroke="black" points="8,-318.5 8,-511.5 232,-511.5 232,-318.5 8,-318.5"/>
<text text-anchor="middle" x="120" y="-498.5" font-family="Helvetica,sans-Serif" font-size="10.00">GeneticAlgorithm.LoggingOperators.BestLogger</text>
<polyline fill="none" stroke="black" points="8,-490.5 232,-490.5 "/>
<text text-anchor="start" x="16" y="-477.5" font-family="Helvetica,sans-Serif" font-size="10.00">+ bestLog</text>
<text text-anchor="start" x="16" y="-464.5" font-family="Helvetica,sans-Serif" font-size="10.00">+ numEvaluations</text>
<text text-anchor="start" x="16" y="-451.5" font-family="Helvetica,sans-Serif" font-size="10.00">+ criterion</text>
<text text-anchor="start" x="16" y="-438.5" font-family="Helvetica,sans-Serif" font-size="10.00">+ maximize</text>
<text text-anchor="start" x="16" y="-425.5" font-family="Helvetica,sans-Serif" font-size="10.00">+ iterationFrequency</text>
<text text-anchor="start" x="16" y="-412.5" font-family="Helvetica,sans-Serif" font-size="10.00">+ iterationCallback</text>
<text text-anchor="start" x="16" y="-399.5" font-family="Helvetica,sans-Serif" font-size="10.00">+ evaluationCallback</text>
<polyline fill="none" stroke="black" points="8,-391.5 232,-391.5 "/>
<text text-anchor="start" x="16" y="-378.5" font-family="Helvetica,sans-Serif" font-size="10.00">+ __init__()</text>
<text text-anchor="start" x="16" y="-365.5" font-family="Helvetica,sans-Serif" font-size="10.00">+ logCallback()</text>
<text text-anchor="start" x="16" y="-352.5" font-family="Helvetica,sans-Serif" font-size="10.00">+ addToLog()</text>
<text text-anchor="start" x="16" y="-339.5" font-family="Helvetica,sans-Serif" font-size="10.00">+ getBest()</text>
<text text-anchor="start" x="16" y="-326.5" font-family="Helvetica,sans-Serif" font-size="10.00">+ finalize()</text>
</a>
</g>
<!-- Node1&#45;&gt;Node5 -->
<g id="edge8" class="edge"><title>Node1&#45;&gt;Node5</title>
<path fill="none" stroke="midnightblue" d="M196.294,-539.512C190.67,-530.334 184.889,-520.899 179.146,-511.527"/>
<polygon fill="none" stroke="midnightblue" points="193.423,-541.525 201.632,-548.223 199.392,-537.868 193.423,-541.525"/>
</g>
<!-- Node8 -->
<g id="node15" class="node"><title>Node8</title>
<a xlink:href="classGeneticAlgorithm_1_1LoggingOperators_1_1LogGenerations.html" target="_top" xlink:title="Log the full population of a GA.">
<polygon fill="white" stroke="black" points="250,-351 250,-479 492,-479 492,-351 250,-351"/>
<text text-anchor="middle" x="371" y="-466" font-family="Helvetica,sans-Serif" font-size="10.00">GeneticAlgorithm.LoggingOperators.LogGenerations</text>
<polyline fill="none" stroke="black" points="250,-458 492,-458 "/>
<text text-anchor="start" x="258" y="-445" font-family="Helvetica,sans-Serif" font-size="10.00">+ generationLog</text>
<text text-anchor="start" x="258" y="-432" font-family="Helvetica,sans-Serif" font-size="10.00">+ numEvaluations</text>
<text text-anchor="start" x="258" y="-419" font-family="Helvetica,sans-Serif" font-size="10.00">+ iterationCallback</text>
<text text-anchor="start" x="258" y="-406" font-family="Helvetica,sans-Serif" font-size="10.00">+ evaluationCallback</text>
<polyline fill="none" stroke="black" points="250,-398 492,-398 "/>
<text text-anchor="start" x="258" y="-385" font-family="Helvetica,sans-Serif" font-size="10.00">+ __init__()</text>
<text text-anchor="start" x="258" y="-372" font-family="Helvetica,sans-Serif" font-size="10.00">+ logPopulation()</text>
<text text-anchor="start" x="258" y="-359" font-family="Helvetica,sans-Serif" font-size="10.00">+ finalize()</text>
</a>
</g>
<!-- Node1&#45;&gt;Node8 -->
<g id="edge14" class="edge"><title>Node1&#45;&gt;Node8</title>
<path fill="none" stroke="midnightblue" d="M293.971,-539.713C306.359,-519.658 319.508,-498.368 331.37,-479.163"/>
<polygon fill="none" stroke="midnightblue" points="290.992,-537.876 288.715,-548.223 296.948,-541.554 290.992,-537.876"/>
</g>
<!-- Node2 -->
<g id="node2" class="node"><title>Node2</title>
<a xlink:href="classGeneticAlgorithm_1_1Core_1_1GeneticOperator.html" target="_top" xlink:title="GeneticOperator is the base class that should be used to implement selection, crossover and mutation...">
<polygon fill="white" stroke="black" points="150,-726.5 150,-815.5 340,-815.5 340,-726.5 150,-726.5"/>
<text text-anchor="middle" x="245" y="-802.5" font-family="Helvetica,sans-Serif" font-size="10.00">GeneticAlgorithm.Core.GeneticOperator</text>
<polyline fill="none" stroke="black" points="150,-794.5 340,-794.5 "/>
<text text-anchor="middle" x="245" y="-781.5" font-family="Helvetica,sans-Serif" font-size="10.00"> </text>
<polyline fill="none" stroke="black" points="150,-773.5 340,-773.5 "/>
<text text-anchor="start" x="158" y="-760.5" font-family="Helvetica,sans-Serif" font-size="10.00">+ initialize()</text>
<text text-anchor="start" x="158" y="-747.5" font-family="Helvetica,sans-Serif" font-size="10.00">+ iterate()</text>
<text text-anchor="start" x="158" y="-734.5" font-family="Helvetica,sans-Serif" font-size="10.00">+ finalize()</text>
</a>
</g>
<!-- Node2&#45;&gt;Node1 -->
<g id="edge2" class="edge"><title>Node2&#45;&gt;Node1</title>
<path fill="none" stroke="midnightblue" d="M245,-716.013C245,-707.465 245,-698.532 245,-689.695"/>
<polygon fill="none" stroke="midnightblue" points="241.5,-716.217 245,-726.217 248.5,-716.217 241.5,-716.217"/>
</g>
<!-- Node3 -->
<g id="node4" class="node"><title>Node3</title>
<a xlink:href="classGeneticAlgorithm_1_1Core_1_1GABaseObject.html" target="_top" xlink:title="The base object provides the functions repr and str.">
<polygon fill="white" stroke="black" points="153,-852.5 153,-941.5 337,-941.5 337,-852.5 153,-852.5"/>
<text text-anchor="middle" x="245" y="-928.5" font-family="Helvetica,sans-Serif" font-size="10.00">GeneticAlgorithm.Core.GABaseObject</text>
<polyline fill="none" stroke="black" points="153,-920.5 337,-920.5 "/>
<text text-anchor="middle" x="245" y="-907.5" font-family="Helvetica,sans-Serif" font-size="10.00"> </text>
<polyline fill="none" stroke="black" points="153,-899.5 337,-899.5 "/>
<text text-anchor="start" x="161" y="-886.5" font-family="Helvetica,sans-Serif" font-size="10.00">+ __init__()</text>
<text text-anchor="start" x="161" y="-873.5" font-family="Helvetica,sans-Serif" font-size="10.00">+ __repr__()</text>
<text text-anchor="start" x="161" y="-860.5" font-family="Helvetica,sans-Serif" font-size="10.00">+ __str__()</text>
</a>
</g>
<!-- Node3&#45;&gt;Node2 -->
<g id="edge4" class="edge"><title>Node3&#45;&gt;Node2</title>
<path fill="none" stroke="midnightblue" d="M245,-842.013C245,-833.198 245,-824.169 245,-815.633"/>
<polygon fill="none" stroke="midnightblue" points="241.5,-842.222 245,-852.222 248.5,-842.222 241.5,-842.222"/>
</g>
<!-- Node4 -->
<g id="node6" class="node"><title>Node4</title>
<a xlink:href="classobject.html" target="_top" xlink:title="{object\n||}">
<polygon fill="white" stroke="black" points="223.5,-978.5 223.5,-1041.5 266.5,-1041.5 266.5,-978.5 223.5,-978.5"/>
<text text-anchor="middle" x="245" y="-1028.5" font-family="Helvetica,sans-Serif" font-size="10.00">object</text>
<polyline fill="none" stroke="black" points="223.5,-1020.5 266.5,-1020.5 "/>
<text text-anchor="middle" x="245" y="-1007.5" font-family="Helvetica,sans-Serif" font-size="10.00"> </text>
<polyline fill="none" stroke="black" points="223.5,-999.5 266.5,-999.5 "/>
<text text-anchor="middle" x="245" y="-986.5" font-family="Helvetica,sans-Serif" font-size="10.00"> </text>
</a>
</g>
<!-- Node4&#45;&gt;Node3 -->
<g id="edge6" class="edge"><title>Node4&#45;&gt;Node3</title>
<path fill="none" stroke="midnightblue" d="M245,-968.015C245,-959.403 245,-950.307 245,-941.606"/>
<polygon fill="none" stroke="midnightblue" points="241.5,-968.222 245,-978.222 248.5,-968.223 241.5,-968.222"/>
</g>
<!-- Node6 -->
<g id="node11" class="node"><title>Node6</title>
<a xlink:href="classGeneticAlgorithm_1_1PlottingOperators_1_1PlotBestLogger.html" target="_top" xlink:title="A BestLogger specialization that plots the historic progression of the best criterion with each tick...">
<polygon fill="white" stroke="black" points="0,-153 0,-281 240,-281 240,-153 0,-153"/>
<text text-anchor="middle" x="120" y="-268" font-family="Helvetica,sans-Serif" font-size="10.00">GeneticAlgorithm.PlottingOperators.PlotBestLogger</text>
<polyline fill="none" stroke="black" points="0,-260 240,-260 "/>
<text text-anchor="start" x="8" y="-247" font-family="Helvetica,sans-Serif" font-size="10.00">+ criterionAxis</text>
<text text-anchor="start" x="8" y="-234" font-family="Helvetica,sans-Serif" font-size="10.00">+ figure</text>
<text text-anchor="start" x="8" y="-221" font-family="Helvetica,sans-Serif" font-size="10.00">+ iterationCallback</text>
<text text-anchor="start" x="8" y="-208" font-family="Helvetica,sans-Serif" font-size="10.00">+ evaluationCallback</text>
<polyline fill="none" stroke="black" points="0,-200 240,-200 "/>
<text text-anchor="start" x="8" y="-187" font-family="Helvetica,sans-Serif" font-size="10.00">+ __init__()</text>
<text text-anchor="start" x="8" y="-174" font-family="Helvetica,sans-Serif" font-size="10.00">+ plotCallback()</text>
<text text-anchor="start" x="8" y="-161" font-family="Helvetica,sans-Serif" font-size="10.00">+ finalize()</text>
</a>
</g>
<!-- Node5&#45;&gt;Node6 -->
<g id="edge10" class="edge"><title>Node5&#45;&gt;Node6</title>
<path fill="none" stroke="midnightblue" d="M120,-308.234C120,-298.957 120,-289.772 120,-281.007"/>
<polygon fill="none" stroke="midnightblue" points="116.5,-308.32 120,-318.32 123.5,-308.32 116.5,-308.32"/>
</g>
<!-- Node7 -->
<g id="node13" class="node"><title>Node7</title>
<a xlink:href="classGeneticAlgorithm_1_1GraphLibrary_1_1BestPathPlotLogger.html" target="_top" xlink:title="This class extends the PlottingOperators::PlotBestLogger to display the best tour found so far...">
<polygon fill="white" stroke="black" points="0,-0.5 0,-115.5 240,-115.5 240,-0.5 0,-0.5"/>
<text text-anchor="middle" x="120" y="-102.5" font-family="Helvetica,sans-Serif" font-size="10.00">GeneticAlgorithm.GraphLibrary.BestPathPlotLogger</text>
<polyline fill="none" stroke="black" points="0,-94.5 240,-94.5 "/>
<text text-anchor="start" x="8" y="-81.5" font-family="Helvetica,sans-Serif" font-size="10.00">+ graph</text>
<text text-anchor="start" x="8" y="-68.5" font-family="Helvetica,sans-Serif" font-size="10.00">+ graphAxis</text>
<text text-anchor="start" x="8" y="-55.5" font-family="Helvetica,sans-Serif" font-size="10.00">+ iterationCallback</text>
<text text-anchor="start" x="8" y="-42.5" font-family="Helvetica,sans-Serif" font-size="10.00">+ evaluationCallback</text>
<polyline fill="none" stroke="black" points="0,-34.5 240,-34.5 "/>
<text text-anchor="start" x="8" y="-21.5" font-family="Helvetica,sans-Serif" font-size="10.00">+ __init__()</text>
<text text-anchor="start" x="8" y="-8.5" font-family="Helvetica,sans-Serif" font-size="10.00">+ plotGraphCallback()</text>
</a>
</g>
<!-- Node6&#45;&gt;Node7 -->
<g id="edge12" class="edge"><title>Node6&#45;&gt;Node7</title>
<path fill="none" stroke="midnightblue" d="M120,-142.588C120,-133.498 120,-124.32 120,-115.53"/>
<polygon fill="none" stroke="midnightblue" points="116.5,-142.787 120,-152.787 123.5,-142.787 116.5,-142.787"/>
</g>
</g>
</svg>
        <g id="navigator" transform="translate(0 0)" fill="#404254">
                <rect fill="#f2f5e9" fill-opacity="0.5" stroke="#606060" stroke-width=".5" x="0" y="0" width="60" height="60"/>
                <use id="zoomplus" xlink:href="#zoomPlus" x="17" y="9" onmousedown="handleZoom(evt,'in')"/>
                <use id="zoomminus" xlink:href="#zoomMin" x="42" y="9" onmousedown="handleZoom(evt,'out')"/>
                <use id="reset" xlink:href="#resetDef" x="30" y="36" onmousedown="handleReset()"/>
                <g id="arrowUp" xlink:href="#dirArrow" transform="translate(30 24)" onmousedown="handlePan(0,-1)">
                  <use xlink:href="#rim" fill="#404040">
                        <set attributeName="fill" to="#808080" begin="arrowUp.mouseover" end="arrowUp.mouseout"/>
                  </use>
                  <path fill="none" stroke="white" stroke-width="1.5" d="M0,-3.0v7 M-2.5,-0.5L0,-3.0L2.5,-0.5"/>
                </g>
                <g id="arrowRight" xlink:href="#dirArrow" transform="rotate(90) translate(36 -43)" onmousedown="handlePan(1,0)">
                  <use xlink:href="#rim" fill="#404040">
                        <set attributeName="fill" to="#808080" begin="arrowRight.mouseover" end="arrowRight.mouseout"/>
                  </use>
                  <path fill="none" stroke="white" stroke-width="1.5" d="M0,-3.0v7 M-2.5,-0.5L0,-3.0L2.5,-0.5"/>
                </g>
                <g id="arrowDown" xlink:href="#dirArrow" transform="rotate(180) translate(-30 -48)" onmousedown="handlePan(0,1)">
                  <use xlink:href="#rim" fill="#404040">
                        <set attributeName="fill" to="#808080" begin="arrowDown.mouseover" end="arrowDown.mouseout"/>
                  </use>
                  <path fill="none" stroke="white" stroke-width="1.5" d="M0,-3.0v7 M-2.5,-0.5L0,-3.0L2.5,-0.5"/>
                </g>
                <g id="arrowLeft" xlink:href="#dirArrow" transform="rotate(270) translate(-36 17)" onmousedown="handlePan(-1,0)">
                  <use xlink:href="#rim" fill="#404040">
                        <set attributeName="fill" to="#808080" begin="arrowLeft.mouseover" end="arrowLeft.mouseout"/>
                  </use>
                  <path fill="none" stroke="white" stroke-width="1.5" d="M0,-3.0v7 M-2.5,-0.5L0,-3.0L2.5,-0.5"/>
                </g>
        </g>
</svg>
