<?xml version="1.0" encoding="UTF-8" standalone="no"?>
<!DOCTYPE svg PUBLIC "-//W3C//DTD SVG 1.1//EN"
 "http://www.w3.org/Graphics/SVG/1.1/DTD/svg11.dtd">
<!-- Generated by graphviz version 2.26.3 (20100126.1600)
 -->
<!-- Title: G Pages: 1 -->
<!--zoomable 190 -->
<svg id="main" version="1.1" xmlns="http://www.w3.org/2000/svg" xmlns:xlink="http://www.w3.org/1999/xlink" xml:space="preserve" onload="init(evt)">
        <defs>
                <circle id="rim" cx="0" cy="0" r="7"/>
                <circle id="rim2" cx="0" cy="0" r="3.5"/>
                <g id="zoomPlus">
                        <use xlink:href="#rim" fill="#404040">
                                <set attributeName="fill" to="#808080" begin="zoomplus.mouseover" end="zoomplus.mouseout"/>
                        </use>
                        <path d="M-4,0h8M0,-4v8" fill="none" stroke="white" stroke-width="1.5" pointer-events="none"/>
                </g>
                <g id="zoomMin">
                        <use xlink:href="#rim" fill="#404040">
                                <set attributeName="fill" to="#808080" begin="zoomminus.mouseover" end="zoomminus.mouseout"/>
                        </use>
                        <path d="M-4,0h8" fill="none" stroke="white" stroke-width="1.5" pointer-events="none"/>
                </g>
                <g id="dirArrow">
                        <path fill="none" stroke="white" stroke-width="1.5" d="M0,-3.0v7 M-2.5,-0.5L0,-3.0L2.5,-0.5"/>
                </g>
               <g id="resetDef">
                       <use xlink:href="#rim2" fill="#404040">
                               <set attributeName="fill" to="#808080" begin="reset.mouseover" end="reset.mouseout"/>
                       </use>
               </g>
        </defs>

<script type="text/javascript">
var viewWidth = 534;
var viewHeight = 190;
var sectionId = 'dynsection-2';
</script>
<script xlink:href="svgpan.js"/>
<svg id="graph" class="graph">
<g id="viewport">
<title>G</title>
<polygon fill="white" stroke="white" points="-4,5 -4,-186 531,-186 531,5 -4,5"/>
<!-- Node1 -->
<g id="node1" class="node"><title>Node1</title>
<polygon fill="#bfbfbf" stroke="black" points="0.5,-80.5 0.5,-101.5 201.5,-101.5 201.5,-80.5 0.5,-80.5"/>
<text text-anchor="middle" x="101" y="-88.5" font-family="Helvetica,sans-Serif" font-size="10.00">GeneticAlgorithm.Core.Population.__init__</text>
</g>
<!-- Node2 -->
<g id="node3" class="node"><title>Node2</title>
<a xlink:href="classGeneticAlgorithm_1_1Core_1_1Population.html#a79a9cbd0daf35c1432e79dfd576710f0" target="_top" xlink:title="Generate the list of individuals by copying the schema n times.">
<polygon fill="white" stroke="black" points="280,-160.5 280,-181.5 484,-181.5 484,-160.5 280,-160.5"/>
<text text-anchor="middle" x="382" y="-168.5" font-family="Helvetica,sans-Serif" font-size="10.00">GeneticAlgorithm.Core.Population.populate</text>
</a>
</g>
<!-- Node1&#45;&gt;Node2 -->
<g id="edge2" class="edge"><title>Node1&#45;&gt;Node2</title>
<path fill="none" stroke="midnightblue" d="M120.334,-101.508C146.308,-115.143 194.272,-138.643 238,-151 248.414,-153.943 259.379,-156.461 270.418,-158.614"/>
<polygon fill="midnightblue" stroke="midnightblue" points="270.093,-162.113 280.563,-160.49 271.366,-155.23 270.093,-162.113"/>
</g>
<!-- Node3 -->
<g id="node5" class="node"><title>Node3</title>
<a xlink:href="classGeneticAlgorithm_1_1Core_1_1BaseChromosomeSegment.html#a6da4e277b89726aeeeb6dc02b4f889ad" target="_top" xlink:title="Assign a valid, random value to self.data.">
<polygon fill="white" stroke="black" points="238.5,-120.5 238.5,-141.5 525.5,-141.5 525.5,-120.5 238.5,-120.5"/>
<text text-anchor="middle" x="382" y="-128.5" font-family="Helvetica,sans-Serif" font-size="10.00">GeneticAlgorithm.Core.BaseChromosomeSegment.randomize</text>
</a>
</g>
<!-- Node1&#45;&gt;Node3 -->
<g id="edge4" class="edge"><title>Node1&#45;&gt;Node3</title>
<path fill="none" stroke="midnightblue" d="M172.446,-101.526C193.551,-104.609 216.702,-107.966 238,-111 256.533,-113.64 276.415,-116.429 295.308,-119.059"/>
<polygon fill="midnightblue" stroke="midnightblue" points="294.999,-122.549 305.385,-120.46 295.963,-115.616 294.999,-122.549"/>
</g>
<!-- Node4 -->
<g id="node7" class="node"><title>Node4</title>
<a xlink:href="classGeneticAlgorithm_1_1Core_1_1Genotype.html#a6ddf94bd47d74a3307d847fdcdc62ce7" target="_top" xlink:title="GeneticAlgorithm.Core.Genotype.randomize">
<polygon fill="white" stroke="black" points="277.5,-80.5 277.5,-101.5 486.5,-101.5 486.5,-80.5 277.5,-80.5"/>
<text text-anchor="middle" x="382" y="-88.5" font-family="Helvetica,sans-Serif" font-size="10.00">GeneticAlgorithm.Core.Genotype.randomize</text>
</a>
</g>
<!-- Node1&#45;&gt;Node4 -->
<g id="edge6" class="edge"><title>Node1&#45;&gt;Node4</title>
<path fill="none" stroke="midnightblue" d="M201.654,-91C222.862,-91 245.391,-91 267.078,-91"/>
<polygon fill="midnightblue" stroke="midnightblue" points="267.31,-94.5001 277.31,-91 267.31,-87.5001 267.31,-94.5001"/>
</g>
<!-- Node5 -->
<g id="node9" class="node"><title>Node5</title>
<a xlink:href="classGeneticAlgorithm_1_1Core_1_1Individual.html#acd35d01763e3c369b1b05cfa3b434b7b" target="_top" xlink:title="Call self.genotype.randomize()">
<polygon fill="white" stroke="black" points="278,-40.5 278,-61.5 486,-61.5 486,-40.5 278,-40.5"/>
<text text-anchor="middle" x="382" y="-48.5" font-family="Helvetica,sans-Serif" font-size="10.00">GeneticAlgorithm.Core.Individual.randomize</text>
</a>
</g>
<!-- Node1&#45;&gt;Node5 -->
<g id="edge8" class="edge"><title>Node1&#45;&gt;Node5</title>
<path fill="none" stroke="midnightblue" d="M172.446,-80.474C193.551,-77.3906 216.702,-74.0336 238,-71 256.533,-68.3602 276.415,-65.5712 295.308,-62.9411"/>
<polygon fill="midnightblue" stroke="midnightblue" points="295.963,-66.3838 305.385,-61.5401 294.999,-59.4505 295.963,-66.3838"/>
</g>
<!-- Node6 -->
<g id="node11" class="node"><title>Node6</title>
<a xlink:href="classGeneticAlgorithm_1_1Core_1_1Population.html#ad914148c978e0dc19cbcdafb009f4ac3" target="_top" xlink:title="Randomize the population by calling randomize on each individual.">
<polygon fill="white" stroke="black" points="276,-0.5 276,-21.5 488,-21.5 488,-0.5 276,-0.5"/>
<text text-anchor="middle" x="382" y="-8.5" font-family="Helvetica,sans-Serif" font-size="10.00">GeneticAlgorithm.Core.Population.randomize</text>
</a>
</g>
<!-- Node1&#45;&gt;Node6 -->
<g id="edge10" class="edge"><title>Node1&#45;&gt;Node6</title>
<path fill="none" stroke="midnightblue" d="M120.334,-80.492C146.308,-66.8574 194.272,-43.3566 238,-31 248.414,-28.0573 259.379,-25.5392 270.418,-23.3862"/>
<polygon fill="midnightblue" stroke="midnightblue" points="271.366,-26.7702 280.563,-21.5098 270.093,-19.8869 271.366,-26.7702"/>
</g>
</g>
</svg>
        <g id="navigator" transform="translate(0 0)" fill="#404254">
                <rect fill="#f2f5e9" fill-opacity="0.5" stroke="#606060" stroke-width=".5" x="0" y="0" width="60" height="60"/>
                <use id="zoomplus" xlink:href="#zoomPlus" x="17" y="9" onmousedown="handleZoom(evt,'in')"/>
                <use id="zoomminus" xlink:href="#zoomMin" x="42" y="9" onmousedown="handleZoom(evt,'out')"/>
                <use id="reset" xlink:href="#resetDef" x="30" y="36" onmousedown="handleReset()"/>
                <g id="arrowUp" xlink:href="#dirArrow" transform="translate(30 24)" onmousedown="handlePan(0,-1)">
                  <use xlink:href="#rim" fill="#404040">
                        <set attributeName="fill" to="#808080" begin="arrowUp.mouseover" end="arrowUp.mouseout"/>
                  </use>
                  <path fill="none" stroke="white" stroke-width="1.5" d="M0,-3.0v7 M-2.5,-0.5L0,-3.0L2.5,-0.5"/>
                </g>
                <g id="arrowRight" xlink:href="#dirArrow" transform="rotate(90) translate(36 -43)" onmousedown="handlePan(1,0)">
                  <use xlink:href="#rim" fill="#404040">
                        <set attributeName="fill" to="#808080" begin="arrowRight.mouseover" end="arrowRight.mouseout"/>
                  </use>
                  <path fill="none" stroke="white" stroke-width="1.5" d="M0,-3.0v7 M-2.5,-0.5L0,-3.0L2.5,-0.5"/>
                </g>
                <g id="arrowDown" xlink:href="#dirArrow" transform="rotate(180) translate(-30 -48)" onmousedown="handlePan(0,1)">
                  <use xlink:href="#rim" fill="#404040">
                        <set attributeName="fill" to="#808080" begin="arrowDown.mouseover" end="arrowDown.mouseout"/>
                  </use>
                  <path fill="none" stroke="white" stroke-width="1.5" d="M0,-3.0v7 M-2.5,-0.5L0,-3.0L2.5,-0.5"/>
                </g>
                <g id="arrowLeft" xlink:href="#dirArrow" transform="rotate(270) translate(-36 17)" onmousedown="handlePan(-1,0)">
                  <use xlink:href="#rim" fill="#404040">
                        <set attributeName="fill" to="#808080" begin="arrowLeft.mouseover" end="arrowLeft.mouseout"/>
                  </use>
                  <path fill="none" stroke="white" stroke-width="1.5" d="M0,-3.0v7 M-2.5,-0.5L0,-3.0L2.5,-0.5"/>
                </g>
        </g>
</svg>
