<?xml version="1.0" encoding="UTF-8" standalone="no"?>
<!DOCTYPE svg PUBLIC "-//W3C//DTD SVG 1.1//EN"
 "http://www.w3.org/Graphics/SVG/1.1/DTD/svg11.dtd">
<!-- Generated by graphviz version 2.26.3 (20100126.1600)
 -->
<!-- Title: G Pages: 1 -->
<!--zoomable 1064 -->
<svg id="main" version="1.1" xmlns="http://www.w3.org/2000/svg" xmlns:xlink="http://www.w3.org/1999/xlink" xml:space="preserve" onload="init(evt)">
        <defs>
                <circle id="rim" cx="0" cy="0" r="7"/>
                <circle id="rim2" cx="0" cy="0" r="3.5"/>
                <g id="zoomPlus">
                        <use xlink:href="#rim" fill="#404040">
                                <set attributeName="fill" to="#808080" begin="zoomplus.mouseover" end="zoomplus.mouseout"/>
                        </use>
                        <path d="M-4,0h8M0,-4v8" fill="none" stroke="white" stroke-width="1.5" pointer-events="none"/>
                </g>
                <g id="zoomMin">
                        <use xlink:href="#rim" fill="#404040">
                                <set attributeName="fill" to="#808080" begin="zoomminus.mouseover" end="zoomminus.mouseout"/>
                        </use>
                        <path d="M-4,0h8" fill="none" stroke="white" stroke-width="1.5" pointer-events="none"/>
                </g>
                <g id="dirArrow">
                        <path fill="none" stroke="white" stroke-width="1.5" d="M0,-3.0v7 M-2.5,-0.5L0,-3.0L2.5,-0.5"/>
                </g>
               <g id="resetDef">
                       <use xlink:href="#rim2" fill="#404040">
                               <set attributeName="fill" to="#808080" begin="reset.mouseover" end="reset.mouseout"/>
                       </use>
               </g>
        </defs>

<script type="text/javascript">
var viewWidth = 500;
var viewHeight = 1064;
var sectionId = 'dynsection-0';
</script>
<script xlink:href="svgpan.js"/>
<svg id="graph" class="graph">
<g id="viewport">
<title>G</title>
<polygon fill="white" stroke="white" points="-4,5 -4,-1060 497,-1060 497,5 -4,5"/>
<!-- Node1 -->
<g id="node1" class="node"><title>Node1</title>
<polygon fill="#bfbfbf" stroke="black" points="138,-562.5 138,-703.5 352,-703.5 352,-562.5 138,-562.5"/>
<text text-anchor="middle" x="245" y="-690.5" font-family="Helvetica,sans-Serif" font-size="10.00">GeneticAlgorithm.Core.BasePeriodicOperator</text>
<polyline fill="none" stroke="black" points="138,-682.5 352,-682.5 "/>
<text text-anchor="start" x="146" y="-669.5" font-family="Helvetica,sans-Serif" font-size="10.00">+ iterationCounter</text>
<text text-anchor="start" x="146" y="-656.5" font-family="Helvetica,sans-Serif" font-size="10.00">+ evaluationCounter</text>
<text text-anchor="start" x="146" y="-643.5" font-family="Helvetica,sans-Serif" font-size="10.00">+ iterationFrequency</text>
<text text-anchor="start" x="146" y="-630.5" font-family="Helvetica,sans-Serif" font-size="10.00">+ evaluationFrequency</text>
<polyline fill="none" stroke="black" points="138,-622.5 352,-622.5 "/>
<text text-anchor="start" x="146" y="-609.5" font-family="Helvetica,sans-Serif" font-size="10.00">+ __init__()</text>
<text text-anchor="start" x="146" y="-596.5" font-family="Helvetica,sans-Serif" font-size="10.00">+ iterationCallback()</text>
<text text-anchor="start" x="146" y="-583.5" font-family="Helvetica,sans-Serif" font-size="10.00">+ evaluationCallback()</text>
<text text-anchor="start" x="146" y="-570.5" font-family="Helvetica,sans-Serif" font-size="10.00">+ iterate()</text>
</g>
<!-- Node5 -->
<g id="node9" class="node"><title>Node5</title>
<a xlink:href="classGeneticAlgorithm_1_1LoggingOperators_1_1BestLogger.html" target="_top" xlink:title="This class stores the best individual of the population, if it is better than the last individual fou...">
<polygon fill="white" stroke="black" points="8,-332.5 8,-525.5 232,-525.5 232,-332.5 8,-332.5"/>
<text text-anchor="middle" x="120" y="-512.5" font-family="Helvetica,sans-Serif" font-size="10.00">GeneticAlgorithm.LoggingOperators.BestLogger</text>
<polyline fill="none" stroke="black" points="8,-504.5 232,-504.5 "/>
<text text-anchor="start" x="16" y="-491.5" font-family="Helvetica,sans-Serif" font-size="10.00">+ bestLog</text>
<text text-anchor="start" x="16" y="-478.5" font-family="Helvetica,sans-Serif" font-size="10.00">+ numEvaluations</text>
<text text-anchor="start" x="16" y="-465.5" font-family="Helvetica,sans-Serif" font-size="10.00">+ criterion</text>
<text text-anchor="start" x="16" y="-452.5" font-family="Helvetica,sans-Serif" font-size="10.00">+ maximize</text>
<text text-anchor="start" x="16" y="-439.5" font-family="Helvetica,sans-Serif" font-size="10.00">+ iterationFrequency</text>
<text text-anchor="start" x="16" y="-426.5" font-family="Helvetica,sans-Serif" font-size="10.00">+ iterationCallback</text>
<text text-anchor="start" x="16" y="-413.5" font-family="Helvetica,sans-Serif" font-size="10.00">+ evaluationCallback</text>
<polyline fill="none" stroke="black" points="8,-405.5 232,-405.5 "/>
<text text-anchor="start" x="16" y="-392.5" font-family="Helvetica,sans-Serif" font-size="10.00">+ __init__()</text>
<text text-anchor="start" x="16" y="-379.5" font-family="Helvetica,sans-Serif" font-size="10.00">+ logCallback()</text>
<text text-anchor="start" x="16" y="-366.5" font-family="Helvetica,sans-Serif" font-size="10.00">+ addToLog()</text>
<text text-anchor="start" x="16" y="-353.5" font-family="Helvetica,sans-Serif" font-size="10.00">+ getBest()</text>
<text text-anchor="start" x="16" y="-340.5" font-family="Helvetica,sans-Serif" font-size="10.00">+ finalize()</text>
</a>
</g>
<!-- Node1&#45;&gt;Node5 -->
<g id="edge8" class="edge"><title>Node1&#45;&gt;Node5</title>
<path fill="none" stroke="midnightblue" d="M196.294,-553.512C190.67,-544.334 184.889,-534.899 179.146,-525.527"/>
<polygon fill="none" stroke="midnightblue" points="193.423,-555.525 201.632,-562.223 199.392,-551.868 193.423,-555.525"/>
</g>
<!-- Node8 -->
<g id="node15" class="node"><title>Node8</title>
<a xlink:href="classGeneticAlgorithm_1_1LoggingOperators_1_1LogGenerations.html" target="_top" xlink:title="Log the full population of a GA.">
<polygon fill="white" stroke="black" points="250,-365 250,-493 492,-493 492,-365 250,-365"/>
<text text-anchor="middle" x="371" y="-480" font-family="Helvetica,sans-Serif" font-size="10.00">GeneticAlgorithm.LoggingOperators.LogGenerations</text>
<polyline fill="none" stroke="black" points="250,-472 492,-472 "/>
<text text-anchor="start" x="258" y="-459" font-family="Helvetica,sans-Serif" font-size="10.00">+ generationLog</text>
<text text-anchor="start" x="258" y="-446" font-family="Helvetica,sans-Serif" font-size="10.00">+ numEvaluations</text>
<text text-anchor="start" x="258" y="-433" font-family="Helvetica,sans-Serif" font-size="10.00">+ iterationCallback</text>
<text text-anchor="start" x="258" y="-420" font-family="Helvetica,sans-Serif" font-size="10.00">+ evaluationCallback</text>
<polyline fill="none" stroke="black" points="250,-412 492,-412 "/>
<text text-anchor="start" x="258" y="-399" font-family="Helvetica,sans-Serif" font-size="10.00">+ __init__()</text>
<text text-anchor="start" x="258" y="-386" font-family="Helvetica,sans-Serif" font-size="10.00">+ logPopulation()</text>
<text text-anchor="start" x="258" y="-373" font-family="Helvetica,sans-Serif" font-size="10.00">+ finalize()</text>
</a>
</g>
<!-- Node1&#45;&gt;Node8 -->
<g id="edge14" class="edge"><title>Node1&#45;&gt;Node8</title>
<path fill="none" stroke="midnightblue" d="M293.971,-553.713C306.359,-533.658 319.508,-512.368 331.37,-493.163"/>
<polygon fill="none" stroke="midnightblue" points="290.992,-551.876 288.715,-562.223 296.948,-555.554 290.992,-551.876"/>
</g>
<!-- Node2 -->
<g id="node2" class="node"><title>Node2</title>
<a xlink:href="classGeneticAlgorithm_1_1Core_1_1GeneticOperator.html" target="_top" xlink:title="GeneticOperator is the base class that should be used to implement selection, crossover and mutation...">
<polygon fill="white" stroke="black" points="150,-740.5 150,-829.5 340,-829.5 340,-740.5 150,-740.5"/>
<text text-anchor="middle" x="245" y="-816.5" font-family="Helvetica,sans-Serif" font-size="10.00">GeneticAlgorithm.Core.GeneticOperator</text>
<polyline fill="none" stroke="black" points="150,-808.5 340,-808.5 "/>
<text text-anchor="middle" x="245" y="-795.5" font-family="Helvetica,sans-Serif" font-size="10.00"> </text>
<polyline fill="none" stroke="black" points="150,-787.5 340,-787.5 "/>
<text text-anchor="start" x="158" y="-774.5" font-family="Helvetica,sans-Serif" font-size="10.00">+ initialize()</text>
<text text-anchor="start" x="158" y="-761.5" font-family="Helvetica,sans-Serif" font-size="10.00">+ iterate()</text>
<text text-anchor="start" x="158" y="-748.5" font-family="Helvetica,sans-Serif" font-size="10.00">+ finalize()</text>
</a>
</g>
<!-- Node2&#45;&gt;Node1 -->
<g id="edge2" class="edge"><title>Node2&#45;&gt;Node1</title>
<path fill="none" stroke="midnightblue" d="M245,-730.013C245,-721.465 245,-712.532 245,-703.695"/>
<polygon fill="none" stroke="midnightblue" points="241.5,-730.217 245,-740.217 248.5,-730.217 241.5,-730.217"/>
</g>
<!-- Node3 -->
<g id="node4" class="node"><title>Node3</title>
<a xlink:href="classGeneticAlgorithm_1_1Core_1_1GABaseObject.html" target="_top" xlink:title="The base object provides the functions repr and str.">
<polygon fill="white" stroke="black" points="153,-866.5 153,-955.5 337,-955.5 337,-866.5 153,-866.5"/>
<text text-anchor="middle" x="245" y="-942.5" font-family="Helvetica,sans-Serif" font-size="10.00">GeneticAlgorithm.Core.GABaseObject</text>
<polyline fill="none" stroke="black" points="153,-934.5 337,-934.5 "/>
<text text-anchor="middle" x="245" y="-921.5" font-family="Helvetica,sans-Serif" font-size="10.00"> </text>
<polyline fill="none" stroke="black" points="153,-913.5 337,-913.5 "/>
<text text-anchor="start" x="161" y="-900.5" font-family="Helvetica,sans-Serif" font-size="10.00">+ __init__()</text>
<text text-anchor="start" x="161" y="-887.5" font-family="Helvetica,sans-Serif" font-size="10.00">+ __repr__()</text>
<text text-anchor="start" x="161" y="-874.5" font-family="Helvetica,sans-Serif" font-size="10.00">+ __str__()</text>
</a>
</g>
<!-- Node3&#45;&gt;Node2 -->
<g id="edge4" class="edge"><title>Node3&#45;&gt;Node2</title>
<path fill="none" stroke="midnightblue" d="M245,-856.013C245,-847.198 245,-838.169 245,-829.633"/>
<polygon fill="none" stroke="midnightblue" points="241.5,-856.222 245,-866.222 248.5,-856.222 241.5,-856.222"/>
</g>
<!-- Node4 -->
<g id="node6" class="node"><title>Node4</title>
<a xlink:href="classobject.html" target="_top" xlink:title="{object\n||}">
<polygon fill="white" stroke="black" points="223.5,-992.5 223.5,-1055.5 266.5,-1055.5 266.5,-992.5 223.5,-992.5"/>
<text text-anchor="middle" x="245" y="-1042.5" font-family="Helvetica,sans-Serif" font-size="10.00">object</text>
<polyline fill="none" stroke="black" points="223.5,-1034.5 266.5,-1034.5 "/>
<text text-anchor="middle" x="245" y="-1021.5" font-family="Helvetica,sans-Serif" font-size="10.00"> </text>
<polyline fill="none" stroke="black" points="223.5,-1013.5 266.5,-1013.5 "/>
<text text-anchor="middle" x="245" y="-1000.5" font-family="Helvetica,sans-Serif" font-size="10.00"> </text>
</a>
</g>
<!-- Node4&#45;&gt;Node3 -->
<g id="edge6" class="edge"><title>Node4&#45;&gt;Node3</title>
<path fill="none" stroke="midnightblue" d="M245,-982.015C245,-973.403 245,-964.307 245,-955.606"/>
<polygon fill="none" stroke="midnightblue" points="241.5,-982.222 245,-992.222 248.5,-982.223 241.5,-982.222"/>
</g>
<!-- Node6 -->
<g id="node11" class="node"><title>Node6</title>
<a xlink:href="classGeneticAlgorithm_1_1PlottingOperators_1_1PlotBestLogger.html" target="_top" xlink:title="A BestLogger specialization that plots the historic progression of the best criterion with each tick...">
<polygon fill="white" stroke="black" points="0,-167 0,-295 240,-295 240,-167 0,-167"/>
<text text-anchor="middle" x="120" y="-282" font-family="Helvetica,sans-Serif" font-size="10.00">GeneticAlgorithm.PlottingOperators.PlotBestLogger</text>
<polyline fill="none" stroke="black" points="0,-274 240,-274 "/>
<text text-anchor="start" x="8" y="-261" font-family="Helvetica,sans-Serif" font-size="10.00">+ criterionAxis</text>
<text text-anchor="start" x="8" y="-248" font-family="Helvetica,sans-Serif" font-size="10.00">+ figure</text>
<text text-anchor="start" x="8" y="-235" font-family="Helvetica,sans-Serif" font-size="10.00">+ iterationCallback</text>
<text text-anchor="start" x="8" y="-222" font-family="Helvetica,sans-Serif" font-size="10.00">+ evaluationCallback</text>
<polyline fill="none" stroke="black" points="0,-214 240,-214 "/>
<text text-anchor="start" x="8" y="-201" font-family="Helvetica,sans-Serif" font-size="10.00">+ __init__()</text>
<text text-anchor="start" x="8" y="-188" font-family="Helvetica,sans-Serif" font-size="10.00">+ plotCallback()</text>
<text text-anchor="start" x="8" y="-175" font-family="Helvetica,sans-Serif" font-size="10.00">+ finalize()</text>
</a>
</g>
<!-- Node5&#45;&gt;Node6 -->
<g id="edge10" class="edge"><title>Node5&#45;&gt;Node6</title>
<path fill="none" stroke="midnightblue" d="M120,-322.234C120,-312.957 120,-303.772 120,-295.007"/>
<polygon fill="none" stroke="midnightblue" points="116.5,-322.32 120,-332.32 123.5,-322.32 116.5,-322.32"/>
</g>
<!-- Node7 -->
<g id="node13" class="node"><title>Node7</title>
<a xlink:href="classGeneticAlgorithm_1_1GraphLibrary_1_1BestPathPlotLogger.html" target="_top" xlink:title="This class extends the PlottingOperators::PlotBestLogger to display the best tour found so far...">
<polygon fill="white" stroke="black" points="0,-1 0,-129 240,-129 240,-1 0,-1"/>
<text text-anchor="middle" x="120" y="-116" font-family="Helvetica,sans-Serif" font-size="10.00">GeneticAlgorithm.GraphLibrary.BestPathPlotLogger</text>
<polyline fill="none" stroke="black" points="0,-108 240,-108 "/>
<text text-anchor="start" x="8" y="-95" font-family="Helvetica,sans-Serif" font-size="10.00">+ graph</text>
<text text-anchor="start" x="8" y="-82" font-family="Helvetica,sans-Serif" font-size="10.00">+ graphAxis</text>
<text text-anchor="start" x="8" y="-69" font-family="Helvetica,sans-Serif" font-size="10.00">+ maximize</text>
<text text-anchor="start" x="8" y="-56" font-family="Helvetica,sans-Serif" font-size="10.00">+ iterationCallback</text>
<text text-anchor="start" x="8" y="-43" font-family="Helvetica,sans-Serif" font-size="10.00">+ evaluationCallback</text>
<polyline fill="none" stroke="black" points="0,-35 240,-35 "/>
<text text-anchor="start" x="8" y="-22" font-family="Helvetica,sans-Serif" font-size="10.00">+ __init__()</text>
<text text-anchor="start" x="8" y="-9" font-family="Helvetica,sans-Serif" font-size="10.00">+ plotGraphCallback()</text>
</a>
</g>
<!-- Node6&#45;&gt;Node7 -->
<g id="edge12" class="edge"><title>Node6&#45;&gt;Node7</title>
<path fill="none" stroke="midnightblue" d="M120,-156.533C120,-147.347 120,-138.02 120,-129.009"/>
<polygon fill="none" stroke="midnightblue" points="116.5,-156.82 120,-166.82 123.5,-156.82 116.5,-156.82"/>
</g>
</g>
</svg>
        <g id="navigator" transform="translate(0 0)" fill="#404254">
                <rect fill="#f2f5e9" fill-opacity="0.5" stroke="#606060" stroke-width=".5" x="0" y="0" width="60" height="60"/>
                <use id="zoomplus" xlink:href="#zoomPlus" x="17" y="9" onmousedown="handleZoom(evt,'in')"/>
                <use id="zoomminus" xlink:href="#zoomMin" x="42" y="9" onmousedown="handleZoom(evt,'out')"/>
                <use id="reset" xlink:href="#resetDef" x="30" y="36" onmousedown="handleReset()"/>
                <g id="arrowUp" xlink:href="#dirArrow" transform="translate(30 24)" onmousedown="handlePan(0,-1)">
                  <use xlink:href="#rim" fill="#404040">
                        <set attributeName="fill" to="#808080" begin="arrowUp.mouseover" end="arrowUp.mouseout"/>
                  </use>
                  <path fill="none" stroke="white" stroke-width="1.5" d="M0,-3.0v7 M-2.5,-0.5L0,-3.0L2.5,-0.5"/>
                </g>
                <g id="arrowRight" xlink:href="#dirArrow" transform="rotate(90) translate(36 -43)" onmousedown="handlePan(1,0)">
                  <use xlink:href="#rim" fill="#404040">
                        <set attributeName="fill" to="#808080" begin="arrowRight.mouseover" end="arrowRight.mouseout"/>
                  </use>
                  <path fill="none" stroke="white" stroke-width="1.5" d="M0,-3.0v7 M-2.5,-0.5L0,-3.0L2.5,-0.5"/>
                </g>
                <g id="arrowDown" xlink:href="#dirArrow" transform="rotate(180) translate(-30 -48)" onmousedown="handlePan(0,1)">
                  <use xlink:href="#rim" fill="#404040">
                        <set attributeName="fill" to="#808080" begin="arrowDown.mouseover" end="arrowDown.mouseout"/>
                  </use>
                  <path fill="none" stroke="white" stroke-width="1.5" d="M0,-3.0v7 M-2.5,-0.5L0,-3.0L2.5,-0.5"/>
                </g>
                <g id="arrowLeft" xlink:href="#dirArrow" transform="rotate(270) translate(-36 17)" onmousedown="handlePan(-1,0)">
                  <use xlink:href="#rim" fill="#404040">
                        <set attributeName="fill" to="#808080" begin="arrowLeft.mouseover" end="arrowLeft.mouseout"/>
                  </use>
                  <path fill="none" stroke="white" stroke-width="1.5" d="M0,-3.0v7 M-2.5,-0.5L0,-3.0L2.5,-0.5"/>
                </g>
        </g>
</svg>
