<?xml version="1.0" encoding="UTF-8" standalone="no"?>
<!DOCTYPE svg PUBLIC "-//W3C//DTD SVG 1.1//EN"
 "http://www.w3.org/Graphics/SVG/1.1/DTD/svg11.dtd">
<!-- Generated by graphviz version 2.26.3 (20100126.1600)
 -->
<!-- Title: G Pages: 1 -->
<!--zoomable 502 -->
<svg id="main" version="1.1" xmlns="http://www.w3.org/2000/svg" xmlns:xlink="http://www.w3.org/1999/xlink" xml:space="preserve" onload="init(evt)">
        <defs>
                <circle id="rim" cx="0" cy="0" r="7"/>
                <circle id="rim2" cx="0" cy="0" r="3.5"/>
                <g id="zoomPlus">
                        <use xlink:href="#rim" fill="#404040">
                                <set attributeName="fill" to="#808080" begin="zoomplus.mouseover" end="zoomplus.mouseout"/>
                        </use>
                        <path d="M-4,0h8M0,-4v8" fill="none" stroke="white" stroke-width="1.5" pointer-events="none"/>
                </g>
                <g id="zoomMin">
                        <use xlink:href="#rim" fill="#404040">
                                <set attributeName="fill" to="#808080" begin="zoomminus.mouseover" end="zoomminus.mouseout"/>
                        </use>
                        <path d="M-4,0h8" fill="none" stroke="white" stroke-width="1.5" pointer-events="none"/>
                </g>
                <g id="dirArrow">
                        <path fill="none" stroke="white" stroke-width="1.5" d="M0,-3.0v7 M-2.5,-0.5L0,-3.0L2.5,-0.5"/>
                </g>
               <g id="resetDef">
                       <use xlink:href="#rim2" fill="#404040">
                               <set attributeName="fill" to="#808080" begin="reset.mouseover" end="reset.mouseout"/>
                       </use>
               </g>
        </defs>

<script type="text/javascript">
var viewWidth = 1280;
var viewHeight = 502;
var sectionId = 'dynsection-0';
</script>
<script xlink:href="svgpan.js"/>
<svg id="graph" class="graph">
<g id="viewport">
<title>G</title>
<polygon fill="white" stroke="white" points="-4,5 -4,-498 1277,-498 1277,5 -4,5"/>
<!-- Node1 -->
<g id="node1" class="node"><title>Node1</title>
<polygon fill="#bfbfbf" stroke="black" points="449,-178.5 449,-267.5 639,-267.5 639,-178.5 449,-178.5"/>
<text text-anchor="middle" x="544" y="-254.5" font-family="Helvetica,sans-Serif" font-size="10.00">GeneticAlgorithm.Core.GeneticOperator</text>
<polyline fill="none" stroke="black" points="449,-246.5 639,-246.5 "/>
<text text-anchor="middle" x="544" y="-233.5" font-family="Helvetica,sans-Serif" font-size="10.00"> </text>
<polyline fill="none" stroke="black" points="449,-225.5 639,-225.5 "/>
<text text-anchor="start" x="457" y="-212.5" font-family="Helvetica,sans-Serif" font-size="10.00">+ initialize()</text>
<text text-anchor="start" x="457" y="-199.5" font-family="Helvetica,sans-Serif" font-size="10.00">+ iterate()</text>
<text text-anchor="start" x="457" y="-186.5" font-family="Helvetica,sans-Serif" font-size="10.00">+ finalize()</text>
</g>
<!-- Node4 -->
<g id="node7" class="node"><title>Node4</title>
<a xlink:href="classGADemo_1_1LogGenerations.html" target="_top" xlink:title="{GADemo.LogGenerations\n|+ generationLog\l+ numEvaluations\l+ generationCounter\l+ saveFrequency\l+ nE\l|+ __init__()\l+ iterate()\l+ finalize()\l}">
<polygon fill="white" stroke="black" points="0,-0.5 0,-141.5 128,-141.5 128,-0.5 0,-0.5"/>
<text text-anchor="middle" x="64" y="-128.5" font-family="Helvetica,sans-Serif" font-size="10.00">GADemo.LogGenerations</text>
<polyline fill="none" stroke="black" points="0,-120.5 128,-120.5 "/>
<text text-anchor="start" x="8" y="-107.5" font-family="Helvetica,sans-Serif" font-size="10.00">+ generationLog</text>
<text text-anchor="start" x="8" y="-94.5" font-family="Helvetica,sans-Serif" font-size="10.00">+ numEvaluations</text>
<text text-anchor="start" x="8" y="-81.5" font-family="Helvetica,sans-Serif" font-size="10.00">+ generationCounter</text>
<text text-anchor="start" x="8" y="-68.5" font-family="Helvetica,sans-Serif" font-size="10.00">+ saveFrequency</text>
<text text-anchor="start" x="8" y="-55.5" font-family="Helvetica,sans-Serif" font-size="10.00">+ nE</text>
<polyline fill="none" stroke="black" points="0,-47.5 128,-47.5 "/>
<text text-anchor="start" x="8" y="-34.5" font-family="Helvetica,sans-Serif" font-size="10.00">+ __init__()</text>
<text text-anchor="start" x="8" y="-21.5" font-family="Helvetica,sans-Serif" font-size="10.00">+ iterate()</text>
<text text-anchor="start" x="8" y="-8.5" font-family="Helvetica,sans-Serif" font-size="10.00">+ finalize()</text>
</a>
</g>
<!-- Node1&#45;&gt;Node4 -->
<g id="edge6" class="edge"><title>Node1&#45;&gt;Node4</title>
<path fill="none" stroke="midnightblue" d="M438.456,-208.934C335.881,-194.033 188.301,-168.968 137,-142 134.027,-140.437 131.093,-138.715 128.208,-136.866"/>
<polygon fill="none" stroke="midnightblue" points="438.151,-212.426 448.548,-210.389 439.15,-205.498 438.151,-212.426"/>
</g>
<!-- Node5 -->
<g id="node9" class="node"><title>Node5</title>
<a xlink:href="classGADemo_1_1SumSegments.html" target="_top" xlink:title="This class implements a Genetic operator that simply sums the genotype value of every individual and ...">
<polygon fill="white" stroke="black" points="145.5,-26.5 145.5,-115.5 270.5,-115.5 270.5,-26.5 145.5,-26.5"/>
<text text-anchor="middle" x="208" y="-102.5" font-family="Helvetica,sans-Serif" font-size="10.00">GADemo.SumSegments</text>
<polyline fill="none" stroke="black" points="145.5,-94.5 270.5,-94.5 "/>
<text text-anchor="start" x="153.5" y="-81.5" font-family="Helvetica,sans-Serif" font-size="10.00">+ initialize</text>
<text text-anchor="start" x="153.5" y="-68.5" font-family="Helvetica,sans-Serif" font-size="10.00">+ iterate</text>
<text text-anchor="start" x="153.5" y="-55.5" font-family="Helvetica,sans-Serif" font-size="10.00">+ finalize</text>
<polyline fill="none" stroke="black" points="145.5,-47.5 270.5,-47.5 "/>
<text text-anchor="start" x="153.5" y="-34.5" font-family="Helvetica,sans-Serif" font-size="10.00">+ sumSegments()</text>
</a>
</g>
<!-- Node1&#45;&gt;Node5 -->
<g id="edge8" class="edge"><title>Node1&#45;&gt;Node5</title>
<path fill="none" stroke="midnightblue" d="M438.887,-203.365C388.131,-190.848 327.808,-171.325 279,-142 267.195,-134.908 255.915,-125.431 245.96,-115.718"/>
<polygon fill="none" stroke="midnightblue" points="438.363,-206.838 448.905,-205.775 440.001,-200.033 438.363,-206.838"/>
</g>
<!-- Node6 -->
<g id="node11" class="node"><title>Node6</title>
<a xlink:href="classGeneticAlgorithm_1_1Core_1_1Crossover.html" target="_top" xlink:title="Crossover two individuals from population.matingPool with probability population.crossoverProbability...">
<polygon fill="white" stroke="black" points="288,-39.5 288,-102.5 452,-102.5 452,-39.5 288,-39.5"/>
<text text-anchor="middle" x="370" y="-89.5" font-family="Helvetica,sans-Serif" font-size="10.00">GeneticAlgorithm.Core.Crossover</text>
<polyline fill="none" stroke="black" points="288,-81.5 452,-81.5 "/>
<text text-anchor="start" x="296" y="-68.5" font-family="Helvetica,sans-Serif" font-size="10.00">+ iterate</text>
<polyline fill="none" stroke="black" points="288,-60.5 452,-60.5 "/>
<text text-anchor="start" x="296" y="-47.5" font-family="Helvetica,sans-Serif" font-size="10.00">+ cross()</text>
</a>
</g>
<!-- Node1&#45;&gt;Node6 -->
<g id="edge10" class="edge"><title>Node1&#45;&gt;Node6</title>
<path fill="none" stroke="midnightblue" d="M485.119,-171.564C458.991,-148.739 429.071,-122.603 406.284,-102.696"/>
<polygon fill="none" stroke="midnightblue" points="482.902,-174.274 492.735,-178.217 487.507,-169.002 482.902,-174.274"/>
</g>
<!-- Node7 -->
<g id="node13" class="node"><title>Node7</title>
<a xlink:href="classGeneticAlgorithm_1_1Core_1_1Mutate.html" target="_top" xlink:title="Mutate an individual.">
<polygon fill="white" stroke="black" points="469.5,-39.5 469.5,-102.5 618.5,-102.5 618.5,-39.5 469.5,-39.5"/>
<text text-anchor="middle" x="544" y="-89.5" font-family="Helvetica,sans-Serif" font-size="10.00">GeneticAlgorithm.Core.Mutate</text>
<polyline fill="none" stroke="black" points="469.5,-81.5 618.5,-81.5 "/>
<text text-anchor="start" x="477.5" y="-68.5" font-family="Helvetica,sans-Serif" font-size="10.00">+ iterate</text>
<polyline fill="none" stroke="black" points="469.5,-60.5 618.5,-60.5 "/>
<text text-anchor="start" x="477.5" y="-47.5" font-family="Helvetica,sans-Serif" font-size="10.00">+ mutate()</text>
</a>
</g>
<!-- Node1&#45;&gt;Node7 -->
<g id="edge12" class="edge"><title>Node1&#45;&gt;Node7</title>
<path fill="none" stroke="midnightblue" d="M544,-168.05C544,-146.183 544,-121.793 544,-102.934"/>
<polygon fill="none" stroke="midnightblue" points="540.5,-168.217 544,-178.217 547.5,-168.217 540.5,-168.217"/>
</g>
<!-- Node8 -->
<g id="node15" class="node"><title>Node8</title>
<a xlink:href="classGeneticAlgorithm_1_1SelectionOperators_1_1SelectLethals.html" target="_top" xlink:title="{GeneticAlgorithm.SelectionOperators.SelectLethals\n|+ iterate\l|+ select()\l}">
<polygon fill="white" stroke="black" points="636,-39.5 636,-102.5 876,-102.5 876,-39.5 636,-39.5"/>
<text text-anchor="middle" x="756" y="-89.5" font-family="Helvetica,sans-Serif" font-size="10.00">GeneticAlgorithm.SelectionOperators.SelectLethals</text>
<polyline fill="none" stroke="black" points="636,-81.5 876,-81.5 "/>
<text text-anchor="start" x="644" y="-68.5" font-family="Helvetica,sans-Serif" font-size="10.00">+ iterate</text>
<polyline fill="none" stroke="black" points="636,-60.5 876,-60.5 "/>
<text text-anchor="start" x="644" y="-47.5" font-family="Helvetica,sans-Serif" font-size="10.00">+ select()</text>
</a>
</g>
<!-- Node1&#45;&gt;Node8 -->
<g id="edge14" class="edge"><title>Node1&#45;&gt;Node8</title>
<path fill="none" stroke="midnightblue" d="M614.67,-172.331C646.836,-149.268 683.903,-122.692 712.004,-102.544"/>
<polygon fill="none" stroke="midnightblue" points="612.262,-169.751 606.175,-178.422 616.341,-175.44 612.262,-169.751"/>
</g>
<!-- Node9 -->
<g id="node17" class="node"><title>Node9</title>
<a xlink:href="classGeneticAlgorithm_1_1SelectionOperators_1_1SUSSelection.html" target="_top" xlink:title="This operator performs stochastic uniform selection over the population, updating the field matingPoo...">
<polygon fill="white" stroke="black" points="894,-39.5 894,-102.5 1136,-102.5 1136,-39.5 894,-39.5"/>
<text text-anchor="middle" x="1015" y="-89.5" font-family="Helvetica,sans-Serif" font-size="10.00">GeneticAlgorithm.SelectionOperators.SUSSelection</text>
<polyline fill="none" stroke="black" points="894,-81.5 1136,-81.5 "/>
<text text-anchor="start" x="902" y="-68.5" font-family="Helvetica,sans-Serif" font-size="10.00">+ iterate</text>
<polyline fill="none" stroke="black" points="894,-60.5 1136,-60.5 "/>
<text text-anchor="start" x="902" y="-47.5" font-family="Helvetica,sans-Serif" font-size="10.00">+ select()</text>
</a>
</g>
<!-- Node1&#45;&gt;Node9 -->
<g id="edge16" class="edge"><title>Node1&#45;&gt;Node9</title>
<path fill="none" stroke="midnightblue" d="M648.969,-205.581C717.534,-192.389 808.251,-171.464 885,-142 912.369,-131.493 941.142,-116.264 964.641,-102.603"/>
<polygon fill="none" stroke="midnightblue" points="648.189,-202.167 639.018,-207.472 649.496,-209.044 648.189,-202.167"/>
</g>
<!-- Node10 -->
<g id="node19" class="node"><title>Node10</title>
<a xlink:href="classOrdonezDemo_1_1Ordonez.html" target="_top" xlink:title="{OrdonezDemo.Ordonez\n|+ initialize\l+ iterate\l+ finalize\l|+ decode()\l}">
<polygon fill="white" stroke="black" points="1153.5,-26.5 1153.5,-115.5 1272.5,-115.5 1272.5,-26.5 1153.5,-26.5"/>
<text text-anchor="middle" x="1213" y="-102.5" font-family="Helvetica,sans-Serif" font-size="10.00">OrdonezDemo.Ordonez</text>
<polyline fill="none" stroke="black" points="1153.5,-94.5 1272.5,-94.5 "/>
<text text-anchor="start" x="1161.5" y="-81.5" font-family="Helvetica,sans-Serif" font-size="10.00">+ initialize</text>
<text text-anchor="start" x="1161.5" y="-68.5" font-family="Helvetica,sans-Serif" font-size="10.00">+ iterate</text>
<text text-anchor="start" x="1161.5" y="-55.5" font-family="Helvetica,sans-Serif" font-size="10.00">+ finalize</text>
<polyline fill="none" stroke="black" points="1153.5,-47.5 1272.5,-47.5 "/>
<text text-anchor="start" x="1161.5" y="-34.5" font-family="Helvetica,sans-Serif" font-size="10.00">+ decode()</text>
</a>
</g>
<!-- Node1&#45;&gt;Node10 -->
<g id="edge18" class="edge"><title>Node1&#45;&gt;Node10</title>
<path fill="none" stroke="midnightblue" d="M649.151,-217.177C797.757,-207.546 1060.54,-184.951 1145,-142 1157.63,-135.578 1169.21,-125.857 1179.11,-115.651"/>
<polygon fill="none" stroke="midnightblue" points="648.848,-213.689 639.092,-217.821 649.295,-220.675 648.848,-213.689"/>
</g>
<!-- Node2 -->
<g id="node2" class="node"><title>Node2</title>
<a xlink:href="classGeneticAlgorithm_1_1Core_1_1GABaseObject.html" target="_top" xlink:title="The base object provides the functions repr and str.">
<polygon fill="white" stroke="black" points="452,-304.5 452,-393.5 636,-393.5 636,-304.5 452,-304.5"/>
<text text-anchor="middle" x="544" y="-380.5" font-family="Helvetica,sans-Serif" font-size="10.00">GeneticAlgorithm.Core.GABaseObject</text>
<polyline fill="none" stroke="black" points="452,-372.5 636,-372.5 "/>
<text text-anchor="middle" x="544" y="-359.5" font-family="Helvetica,sans-Serif" font-size="10.00"> </text>
<polyline fill="none" stroke="black" points="452,-351.5 636,-351.5 "/>
<text text-anchor="start" x="460" y="-338.5" font-family="Helvetica,sans-Serif" font-size="10.00">+ __init__()</text>
<text text-anchor="start" x="460" y="-325.5" font-family="Helvetica,sans-Serif" font-size="10.00">+ __repr__()</text>
<text text-anchor="start" x="460" y="-312.5" font-family="Helvetica,sans-Serif" font-size="10.00">+ __str__()</text>
</a>
</g>
<!-- Node2&#45;&gt;Node1 -->
<g id="edge2" class="edge"><title>Node2&#45;&gt;Node1</title>
<path fill="none" stroke="midnightblue" d="M544,-294.013C544,-285.198 544,-276.169 544,-267.633"/>
<polygon fill="none" stroke="midnightblue" points="540.5,-294.222 544,-304.222 547.5,-294.222 540.5,-294.222"/>
</g>
<!-- Node3 -->
<g id="node4" class="node"><title>Node3</title>
<a xlink:href="classobject.html" target="_top" xlink:title="{object\n||}">
<polygon fill="white" stroke="black" points="522.5,-430.5 522.5,-493.5 565.5,-493.5 565.5,-430.5 522.5,-430.5"/>
<text text-anchor="middle" x="544" y="-480.5" font-family="Helvetica,sans-Serif" font-size="10.00">object</text>
<polyline fill="none" stroke="black" points="522.5,-472.5 565.5,-472.5 "/>
<text text-anchor="middle" x="544" y="-459.5" font-family="Helvetica,sans-Serif" font-size="10.00"> </text>
<polyline fill="none" stroke="black" points="522.5,-451.5 565.5,-451.5 "/>
<text text-anchor="middle" x="544" y="-438.5" font-family="Helvetica,sans-Serif" font-size="10.00"> </text>
</a>
</g>
<!-- Node3&#45;&gt;Node2 -->
<g id="edge4" class="edge"><title>Node3&#45;&gt;Node2</title>
<path fill="none" stroke="midnightblue" d="M544,-420.015C544,-411.403 544,-402.307 544,-393.606"/>
<polygon fill="none" stroke="midnightblue" points="540.5,-420.222 544,-430.222 547.5,-420.223 540.5,-420.222"/>
</g>
</g>
</svg>
        <g id="navigator" transform="translate(0 0)" fill="#404254">
                <rect fill="#f2f5e9" fill-opacity="0.5" stroke="#606060" stroke-width=".5" x="0" y="0" width="60" height="60"/>
                <use id="zoomplus" xlink:href="#zoomPlus" x="17" y="9" onmousedown="handleZoom(evt,'in')"/>
                <use id="zoomminus" xlink:href="#zoomMin" x="42" y="9" onmousedown="handleZoom(evt,'out')"/>
                <use id="reset" xlink:href="#resetDef" x="30" y="36" onmousedown="handleReset()"/>
                <g id="arrowUp" xlink:href="#dirArrow" transform="translate(30 24)" onmousedown="handlePan(0,-1)">
                  <use xlink:href="#rim" fill="#404040">
                        <set attributeName="fill" to="#808080" begin="arrowUp.mouseover" end="arrowUp.mouseout"/>
                  </use>
                  <path fill="none" stroke="white" stroke-width="1.5" d="M0,-3.0v7 M-2.5,-0.5L0,-3.0L2.5,-0.5"/>
                </g>
                <g id="arrowRight" xlink:href="#dirArrow" transform="rotate(90) translate(36 -43)" onmousedown="handlePan(1,0)">
                  <use xlink:href="#rim" fill="#404040">
                        <set attributeName="fill" to="#808080" begin="arrowRight.mouseover" end="arrowRight.mouseout"/>
                  </use>
                  <path fill="none" stroke="white" stroke-width="1.5" d="M0,-3.0v7 M-2.5,-0.5L0,-3.0L2.5,-0.5"/>
                </g>
                <g id="arrowDown" xlink:href="#dirArrow" transform="rotate(180) translate(-30 -48)" onmousedown="handlePan(0,1)">
                  <use xlink:href="#rim" fill="#404040">
                        <set attributeName="fill" to="#808080" begin="arrowDown.mouseover" end="arrowDown.mouseout"/>
                  </use>
                  <path fill="none" stroke="white" stroke-width="1.5" d="M0,-3.0v7 M-2.5,-0.5L0,-3.0L2.5,-0.5"/>
                </g>
                <g id="arrowLeft" xlink:href="#dirArrow" transform="rotate(270) translate(-36 17)" onmousedown="handlePan(-1,0)">
                  <use xlink:href="#rim" fill="#404040">
                        <set attributeName="fill" to="#808080" begin="arrowLeft.mouseover" end="arrowLeft.mouseout"/>
                  </use>
                  <path fill="none" stroke="white" stroke-width="1.5" d="M0,-3.0v7 M-2.5,-0.5L0,-3.0L2.5,-0.5"/>
                </g>
        </g>
</svg>
