<?xml version="1.0" encoding="UTF-8" standalone="no"?>
<!DOCTYPE svg PUBLIC "-//W3C//DTD SVG 1.1//EN"
 "http://www.w3.org/Graphics/SVG/1.1/DTD/svg11.dtd">
<!-- Generated by graphviz version 2.26.3 (20100126.1600)
 -->
<!-- Title: G Pages: 1 -->
<svg width="270pt" height="70pt"
 viewBox="0.00 0.00 270.00 70.00" xmlns="http://www.w3.org/2000/svg" xmlns:xlink="http://www.w3.org/1999/xlink">
<g id="graph1" class="graph" transform="scale(1 1) rotate(0) translate(4 66)">
<title>G</title>
<polygon fill="white" stroke="white" points="-4,5 -4,-66 267,-66 267,5 -4,5"/>
<!-- Node1 -->
<g id="node1" class="node"><title>Node1</title>
<a xlink:href="classBaseObject.html" target="_top" xlink:title="BaseObject">
<polygon fill="white" stroke="black" points="0,-20.5 0,-41.5 68,-41.5 68,-20.5 0,-20.5"/>
<text text-anchor="middle" x="34" y="-28.5" font-family="Helvetica,sans-Serif" font-size="10.00">BaseObject</text>
</a>
</g>
<!-- Node2 -->
<g id="node3" class="node"><title>Node2</title>
<a xlink:href="classKapsackSearch_1_1SearchManager.html" target="_top" xlink:title="KapsackSearch.SearchManager">
<polygon fill="white" stroke="black" points="104.5,-40.5 104.5,-61.5 261.5,-61.5 261.5,-40.5 104.5,-40.5"/>
<text text-anchor="middle" x="183" y="-48.5" font-family="Helvetica,sans-Serif" font-size="10.00">KapsackSearch.SearchManager</text>
</a>
</g>
<!-- Node1&#45;&gt;Node2 -->
<g id="edge2" class="edge"><title>Node1&#45;&gt;Node2</title>
<path fill="none" stroke="midnightblue" d="M78.1041,-36.92C86.5213,-38.0498 95.5634,-39.2635 104.682,-40.4875"/>
<polygon fill="midnightblue" stroke="midnightblue" points="78.5604,-33.45 68.1836,-35.5884 77.6291,-40.3877 78.5604,-33.45"/>
</g>
<!-- Node3 -->
<g id="node5" class="node"><title>Node3</title>
<a xlink:href="classKapsackSearch_1_1SearchNode.html" target="_top" xlink:title="KapsackSearch.SearchNode">
<polygon fill="white" stroke="black" points="111.5,-0.5 111.5,-21.5 254.5,-21.5 254.5,-0.5 111.5,-0.5"/>
<text text-anchor="middle" x="183" y="-8.5" font-family="Helvetica,sans-Serif" font-size="10.00">KapsackSearch.SearchNode</text>
</a>
</g>
<!-- Node1&#45;&gt;Node3 -->
<g id="edge4" class="edge"><title>Node1&#45;&gt;Node3</title>
<path fill="none" stroke="midnightblue" d="M78.2429,-25.0614C88.6573,-23.6635 100.022,-22.138 111.301,-20.624"/>
<polygon fill="midnightblue" stroke="midnightblue" points="77.6291,-21.6123 68.1836,-26.4116 78.5604,-28.55 77.6291,-21.6123"/>
</g>
</g>
</svg>
