<?xml version="1.0" encoding="UTF-8" standalone="no"?>
<!DOCTYPE svg PUBLIC "-//W3C//DTD SVG 1.1//EN"
 "http://www.w3.org/Graphics/SVG/1.1/DTD/svg11.dtd">
<!-- Generated by graphviz version 2.26.3 (20100126.1600)
 -->
<!-- Title: G Pages: 1 -->
<svg width="878pt" height="310pt"
 viewBox="0.00 0.00 878.00 310.00" xmlns="http://www.w3.org/2000/svg" xmlns:xlink="http://www.w3.org/1999/xlink">
<g id="graph1" class="graph" transform="scale(1 1) rotate(0) translate(4 306)">
<title>G</title>
<polygon fill="white" stroke="white" points="-4,5 -4,-306 875,-306 875,5 -4,5"/>
<!-- Node1 -->
<g id="node1" class="node"><title>Node1</title>
<a xlink:href="classobject.html" target="_top" xlink:title="object">
<polygon fill="white" stroke="black" points="0.5,-100.5 0.5,-121.5 43.5,-121.5 43.5,-100.5 0.5,-100.5"/>
<text text-anchor="middle" x="22" y="-108.5" font-family="Helvetica,sans-Serif" font-size="10.00">object</text>
</a>
</g>
<!-- Node2 -->
<g id="node3" class="node"><title>Node2</title>
<a xlink:href="classGeneticAlgorithm_1_1Core_1_1GABaseObject.html" target="_top" xlink:title="The base object provides the functions repr and str.">
<polygon fill="white" stroke="black" points="80,-100.5 80,-121.5 264,-121.5 264,-100.5 80,-100.5"/>
<text text-anchor="middle" x="172" y="-108.5" font-family="Helvetica,sans-Serif" font-size="10.00">GeneticAlgorithm.Core.GABaseObject</text>
</a>
</g>
<!-- Node1&#45;&gt;Node2 -->
<g id="edge2" class="edge"><title>Node1&#45;&gt;Node2</title>
<path fill="none" stroke="midnightblue" d="M53.8858,-111C61.75,-111 70.5717,-111 79.7584,-111"/>
<polygon fill="midnightblue" stroke="midnightblue" points="53.8113,-107.5 43.8113,-111 53.8113,-114.5 53.8113,-107.5"/>
</g>
<!-- Node3 -->
<g id="node5" class="node"><title>Node3</title>
<a xlink:href="classGeneticAlgorithm_1_1Core_1_1BaseChromosomeSegment.html" target="_top" xlink:title="This class defines the minimal expression of a chromosome segment.">
<polygon fill="white" stroke="black" points="300.5,-240.5 300.5,-261.5 539.5,-261.5 539.5,-240.5 300.5,-240.5"/>
<text text-anchor="middle" x="420" y="-248.5" font-family="Helvetica,sans-Serif" font-size="10.00">GeneticAlgorithm.Core.BaseChromosomeSegment</text>
</a>
</g>
<!-- Node2&#45;&gt;Node3 -->
<g id="edge4" class="edge"><title>Node2&#45;&gt;Node3</title>
<path fill="none" stroke="midnightblue" d="M196.499,-127.285C221.958,-143.974 263.155,-170.336 300,-191 333.114,-209.572 372.709,-228.818 397.107,-240.351"/>
<polygon fill="midnightblue" stroke="midnightblue" points="198.146,-124.178 187.869,-121.602 194.296,-130.025 198.146,-124.178"/>
</g>
<!-- Node5 -->
<g id="node9" class="node"><title>Node5</title>
<a xlink:href="classGeneticAlgorithm_1_1Core_1_1GeneticOperator.html" target="_top" xlink:title="GeneticOperator is the base class that should be used to implement selection, crossover and mutation...">
<polygon fill="white" stroke="black" points="325,-160.5 325,-181.5 515,-181.5 515,-160.5 325,-160.5"/>
<text text-anchor="middle" x="420" y="-168.5" font-family="Helvetica,sans-Serif" font-size="10.00">GeneticAlgorithm.Core.GeneticOperator</text>
</a>
</g>
<!-- Node2&#45;&gt;Node5 -->
<g id="edge8" class="edge"><title>Node2&#45;&gt;Node5</title>
<path fill="none" stroke="midnightblue" d="M211.219,-124.798C236.354,-133.255 269.81,-143.803 300,-151 315.101,-154.6 331.422,-157.781 347.018,-160.488"/>
<polygon fill="midnightblue" stroke="midnightblue" points="212.271,-121.459 201.677,-121.553 210.017,-128.086 212.271,-121.459"/>
</g>
<!-- Node12 -->
<g id="node23" class="node"><title>Node12</title>
<a xlink:href="classGeneticAlgorithm_1_1Core_1_1Genotype.html" target="_top" xlink:title="The base Genotype class from which all chromosomes must derived.">
<polygon fill="white" stroke="black" points="339.5,-120.5 339.5,-141.5 500.5,-141.5 500.5,-120.5 339.5,-120.5"/>
<text text-anchor="middle" x="420" y="-128.5" font-family="Helvetica,sans-Serif" font-size="10.00">GeneticAlgorithm.Core.Genotype</text>
</a>
</g>
<!-- Node2&#45;&gt;Node12 -->
<g id="edge22" class="edge"><title>Node2&#45;&gt;Node12</title>
<path fill="none" stroke="midnightblue" d="M274.546,-119.27C296.18,-121.015 318.713,-122.832 339.401,-124.5"/>
<polygon fill="midnightblue" stroke="midnightblue" points="274.595,-115.763 264.346,-118.447 274.032,-122.74 274.595,-115.763"/>
</g>
<!-- Node13 -->
<g id="node25" class="node"><title>Node13</title>
<a xlink:href="classGeneticAlgorithm_1_1Core_1_1Individual.html" target="_top" xlink:title="This class is a container intended to store all information relevant to an individual.">
<polygon fill="white" stroke="black" points="340,-80.5 340,-101.5 500,-101.5 500,-80.5 340,-80.5"/>
<text text-anchor="middle" x="420" y="-88.5" font-family="Helvetica,sans-Serif" font-size="10.00">GeneticAlgorithm.Core.Individual</text>
</a>
</g>
<!-- Node2&#45;&gt;Node13 -->
<g id="edge24" class="edge"><title>Node2&#45;&gt;Node13</title>
<path fill="none" stroke="midnightblue" d="M274.604,-102.726C296.36,-100.971 319.023,-99.1433 339.803,-97.4675"/>
<polygon fill="midnightblue" stroke="midnightblue" points="274.032,-99.2601 264.346,-103.553 274.595,-106.237 274.032,-99.2601"/>
</g>
<!-- Node14 -->
<g id="node27" class="node"><title>Node14</title>
<a xlink:href="classGeneticAlgorithm_1_1Core_1_1Population.html" target="_top" xlink:title="This class is a container, intended to store references to individuals and all their.">
<polygon fill="white" stroke="black" points="338,-40.5 338,-61.5 502,-61.5 502,-40.5 338,-40.5"/>
<text text-anchor="middle" x="420" y="-48.5" font-family="Helvetica,sans-Serif" font-size="10.00">GeneticAlgorithm.Core.Population</text>
</a>
</g>
<!-- Node2&#45;&gt;Node14 -->
<g id="edge26" class="edge"><title>Node2&#45;&gt;Node14</title>
<path fill="none" stroke="midnightblue" d="M211.219,-97.2021C236.354,-88.7446 269.81,-78.1968 300,-71 315.101,-67.4003 331.422,-64.2189 347.018,-61.5125"/>
<polygon fill="midnightblue" stroke="midnightblue" points="210.017,-93.9138 201.677,-100.447 212.271,-100.541 210.017,-93.9138"/>
</g>
<!-- Node15 -->
<g id="node29" class="node"><title>Node15</title>
<a xlink:href="classGeneticAlgorithm_1_1Core_1_1Scheduler.html" target="_top" xlink:title="A class that encapsulates a Population and a list of GeneticOperator.">
<polygon fill="white" stroke="black" points="339,-0.5 339,-21.5 501,-21.5 501,-0.5 339,-0.5"/>
<text text-anchor="middle" x="420" y="-8.5" font-family="Helvetica,sans-Serif" font-size="10.00">GeneticAlgorithm.Core.Scheduler</text>
</a>
</g>
<!-- Node2&#45;&gt;Node15 -->
<g id="edge28" class="edge"><title>Node2&#45;&gt;Node15</title>
<path fill="none" stroke="midnightblue" d="M193.012,-94.1824C217.299,-75.6579 259.182,-46.4513 300,-31 312.247,-26.3641 325.6,-22.8006 338.806,-20.062"/>
<polygon fill="midnightblue" stroke="midnightblue" points="190.652,-91.5839 184.895,-100.479 194.942,-97.115 190.652,-91.5839"/>
</g>
<!-- Node4 -->
<g id="node7" class="node"><title>Node4</title>
<a xlink:href="classGeneticAlgorithm_1_1GenotypeLibrary_1_1BinaryChromosomeSegment.html" target="_top" xlink:title="This class implements an integer variable encoded by a fixed number of bits.">
<polygon fill="white" stroke="black" points="576,-280.5 576,-301.5 870,-301.5 870,-280.5 576,-280.5"/>
<text text-anchor="middle" x="723" y="-288.5" font-family="Helvetica,sans-Serif" font-size="10.00">GeneticAlgorithm.GenotypeLibrary.BinaryChromosomeSegment</text>
</a>
</g>
<!-- Node3&#45;&gt;Node4 -->
<g id="edge6" class="edge"><title>Node3&#45;&gt;Node4</title>
<path fill="none" stroke="midnightblue" d="M509.655,-262.836C552.085,-268.437 602.329,-275.07 643.397,-280.491"/>
<polygon fill="midnightblue" stroke="midnightblue" points="509.982,-259.348 499.61,-261.51 509.066,-266.288 509.982,-259.348"/>
</g>
<!-- Node6 -->
<g id="node11" class="node"><title>Node6</title>
<a xlink:href="classGADemo_1_1LogGenerations.html" target="_top" xlink:title="GADemo.LogGenerations">
<polygon fill="white" stroke="black" points="659,-240.5 659,-261.5 787,-261.5 787,-240.5 659,-240.5"/>
<text text-anchor="middle" x="723" y="-248.5" font-family="Helvetica,sans-Serif" font-size="10.00">GADemo.LogGenerations</text>
</a>
</g>
<!-- Node5&#45;&gt;Node6 -->
<g id="edge10" class="edge"><title>Node5&#45;&gt;Node6</title>
<path fill="none" stroke="midnightblue" d="M451.876,-185.778C482.912,-199.558 531.743,-219.643 576,-231 602.694,-237.85 632.754,-242.468 658.703,-245.523"/>
<polygon fill="midnightblue" stroke="midnightblue" points="453.009,-182.45 442.453,-181.545 450.14,-188.835 453.009,-182.45"/>
</g>
<!-- Node7 -->
<g id="node13" class="node"><title>Node7</title>
<a xlink:href="classGADemo_1_1SumSegments.html" target="_top" xlink:title="This class implements a Genetic operator that simply sums the genotype value of every individual and ...">
<polygon fill="white" stroke="black" points="660.5,-200.5 660.5,-221.5 785.5,-221.5 785.5,-200.5 660.5,-200.5"/>
<text text-anchor="middle" x="723" y="-208.5" font-family="Helvetica,sans-Serif" font-size="10.00">GADemo.SumSegments</text>
</a>
</g>
<!-- Node5&#45;&gt;Node7 -->
<g id="edge12" class="edge"><title>Node5&#45;&gt;Node7</title>
<path fill="none" stroke="midnightblue" d="M509.772,-182.851C558.158,-189.239 616.677,-196.964 660.161,-202.704"/>
<polygon fill="midnightblue" stroke="midnightblue" points="509.982,-179.348 499.61,-181.51 509.066,-186.288 509.982,-179.348"/>
</g>
<!-- Node8 -->
<g id="node15" class="node"><title>Node8</title>
<a xlink:href="classGeneticAlgorithm_1_1Core_1_1Crossover.html" target="_top" xlink:title="Crossover two individuals from population.matingPool with probability population.crossoverProbability...">
<polygon fill="white" stroke="black" points="641,-160.5 641,-181.5 805,-181.5 805,-160.5 641,-160.5"/>
<text text-anchor="middle" x="723" y="-168.5" font-family="Helvetica,sans-Serif" font-size="10.00">GeneticAlgorithm.Core.Crossover</text>
</a>
</g>
<!-- Node5&#45;&gt;Node8 -->
<g id="edge14" class="edge"><title>Node5&#45;&gt;Node8</title>
<path fill="none" stroke="midnightblue" d="M525.088,-171C562.982,-171 605.164,-171 640.817,-171"/>
<polygon fill="midnightblue" stroke="midnightblue" points="525.04,-167.5 515.04,-171 525.04,-174.5 525.04,-167.5"/>
</g>
<!-- Node9 -->
<g id="node17" class="node"><title>Node9</title>
<a xlink:href="classGeneticAlgorithm_1_1Core_1_1Mutate.html" target="_top" xlink:title="Mutate an individual.">
<polygon fill="white" stroke="black" points="648.5,-120.5 648.5,-141.5 797.5,-141.5 797.5,-120.5 648.5,-120.5"/>
<text text-anchor="middle" x="723" y="-128.5" font-family="Helvetica,sans-Serif" font-size="10.00">GeneticAlgorithm.Core.Mutate</text>
</a>
</g>
<!-- Node5&#45;&gt;Node9 -->
<g id="edge16" class="edge"><title>Node5&#45;&gt;Node9</title>
<path fill="none" stroke="midnightblue" d="M509.76,-159.151C553.889,-153.325 606.451,-146.386 648.347,-140.855"/>
<polygon fill="midnightblue" stroke="midnightblue" points="509.066,-155.712 499.61,-160.49 509.982,-162.652 509.066,-155.712"/>
</g>
<!-- Node10 -->
<g id="node19" class="node"><title>Node10</title>
<a xlink:href="classGeneticAlgorithm_1_1SelectionOperators_1_1SelectLethals.html" target="_top" xlink:title="GeneticAlgorithm.SelectionOperators.SelectLethals">
<polygon fill="white" stroke="black" points="603,-80.5 603,-101.5 843,-101.5 843,-80.5 603,-80.5"/>
<text text-anchor="middle" x="723" y="-88.5" font-family="Helvetica,sans-Serif" font-size="10.00">GeneticAlgorithm.SelectionOperators.SelectLethals</text>
</a>
</g>
<!-- Node5&#45;&gt;Node10 -->
<g id="edge18" class="edge"><title>Node5&#45;&gt;Node10</title>
<path fill="none" stroke="midnightblue" d="M524.727,-158.029C530.013,-155.995 535.139,-153.666 540,-151 560.972,-139.5 554.859,-122.184 576,-111 584.424,-106.544 593.483,-102.958 602.818,-100.084"/>
<polygon fill="midnightblue" stroke="midnightblue" points="523.366,-154.796 515.064,-161.379 525.659,-161.41 523.366,-154.796"/>
</g>
<!-- Node11 -->
<g id="node21" class="node"><title>Node11</title>
<a xlink:href="classGeneticAlgorithm_1_1SelectionOperators_1_1SUSSelection.html" target="_top" xlink:title="This operator performs stochastic uniform selection over the population, updating the field matingPoo...">
<polygon fill="white" stroke="black" points="602,-40.5 602,-61.5 844,-61.5 844,-40.5 602,-40.5"/>
<text text-anchor="middle" x="723" y="-48.5" font-family="Helvetica,sans-Serif" font-size="10.00">GeneticAlgorithm.SelectionOperators.SUSSelection</text>
</a>
</g>
<!-- Node5&#45;&gt;Node11 -->
<g id="edge20" class="edge"><title>Node5&#45;&gt;Node11</title>
<path fill="none" stroke="midnightblue" d="M524.568,-160.395C530.036,-157.78 535.231,-154.675 540,-151 570.884,-127.201 544.763,-94.334 576,-71 583.841,-65.1427 592.593,-60.5836 601.813,-57.0663"/>
<polygon fill="midnightblue" stroke="midnightblue" points="523.007,-157.255 515.138,-164.35 525.714,-163.71 523.007,-157.255"/>
</g>
</g>
</svg>
