<?xml version="1.0" encoding="UTF-8" standalone="no"?>
<!DOCTYPE svg PUBLIC "-//W3C//DTD SVG 1.1//EN"
 "http://www.w3.org/Graphics/SVG/1.1/DTD/svg11.dtd">
<!-- Generated by graphviz version 2.26.3 (20100126.1600)
 -->
<!-- Title: G Pages: 1 -->
<svg width="878pt" height="330pt"
 viewBox="0.00 0.00 878.00 330.00" xmlns="http://www.w3.org/2000/svg" xmlns:xlink="http://www.w3.org/1999/xlink">
<g id="graph1" class="graph" transform="scale(1 1) rotate(0) translate(4 326)">
<title>G</title>
<polygon fill="white" stroke="white" points="-4,5 -4,-326 875,-326 875,5 -4,5"/>
<!-- Node1 -->
<g id="node1" class="node"><title>Node1</title>
<a xlink:href="classobject.html" target="_top" xlink:title="object">
<polygon fill="white" stroke="black" points="0.5,-120.5 0.5,-141.5 43.5,-141.5 43.5,-120.5 0.5,-120.5"/>
<text text-anchor="middle" x="22" y="-128.5" font-family="Helvetica,sans-Serif" font-size="10.00">object</text>
</a>
</g>
<!-- Node2 -->
<g id="node3" class="node"><title>Node2</title>
<a xlink:href="classGeneticAlgorithm_1_1Core_1_1GABaseObject.html" target="_top" xlink:title="The base object provides the functions repr and str.">
<polygon fill="white" stroke="black" points="80,-120.5 80,-141.5 264,-141.5 264,-120.5 80,-120.5"/>
<text text-anchor="middle" x="172" y="-128.5" font-family="Helvetica,sans-Serif" font-size="10.00">GeneticAlgorithm.Core.GABaseObject</text>
</a>
</g>
<!-- Node1&#45;&gt;Node2 -->
<g id="edge2" class="edge"><title>Node1&#45;&gt;Node2</title>
<path fill="none" stroke="midnightblue" d="M53.8858,-131C61.75,-131 70.5717,-131 79.7584,-131"/>
<polygon fill="midnightblue" stroke="midnightblue" points="53.8113,-127.5 43.8113,-131 53.8113,-134.5 53.8113,-127.5"/>
</g>
<!-- Node3 -->
<g id="node5" class="node"><title>Node3</title>
<a xlink:href="classGABaseObject-demo_1_1GeneticExampleClass.html" target="_top" xlink:title="GABaseObject&#45;demo.GeneticExampleClass">
<polygon fill="white" stroke="black" points="315.5,-240.5 315.5,-261.5 524.5,-261.5 524.5,-240.5 315.5,-240.5"/>
<text text-anchor="middle" x="420" y="-248.5" font-family="Helvetica,sans-Serif" font-size="10.00">GABaseObject&#45;demo.GeneticExampleClass</text>
</a>
</g>
<!-- Node2&#45;&gt;Node3 -->
<g id="edge4" class="edge"><title>Node2&#45;&gt;Node3</title>
<path fill="none" stroke="midnightblue" d="M188.988,-148.957C211.877,-171.957 254.969,-211.204 300,-231 308.701,-234.825 318.05,-237.923 327.552,-240.432"/>
<polygon fill="midnightblue" stroke="midnightblue" points="191.255,-146.269 181.765,-141.558 186.246,-151.159 191.255,-146.269"/>
</g>
<!-- Node4 -->
<g id="node7" class="node"><title>Node4</title>
<a xlink:href="classGeneticAlgorithm_1_1Core_1_1BaseChromosomeSegment.html" target="_top" xlink:title="This class defines the minimal expression of a chromosome segment.">
<polygon fill="white" stroke="black" points="300.5,-200.5 300.5,-221.5 539.5,-221.5 539.5,-200.5 300.5,-200.5"/>
<text text-anchor="middle" x="420" y="-208.5" font-family="Helvetica,sans-Serif" font-size="10.00">GeneticAlgorithm.Core.BaseChromosomeSegment</text>
</a>
</g>
<!-- Node2&#45;&gt;Node4 -->
<g id="edge6" class="edge"><title>Node2&#45;&gt;Node4</title>
<path fill="none" stroke="midnightblue" d="M199.439,-146.559C224.776,-160.264 263.844,-179.747 300,-191 312.201,-194.797 325.337,-197.917 338.285,-200.467"/>
<polygon fill="midnightblue" stroke="midnightblue" points="200.885,-143.36 190.435,-141.618 197.518,-149.497 200.885,-143.36"/>
</g>
<!-- Node6 -->
<g id="node11" class="node"><title>Node6</title>
<a xlink:href="classGeneticAlgorithm_1_1Core_1_1GeneticOperator.html" target="_top" xlink:title="GeneticOperator is the base class that should be used to implement selection, crossover and mutation...">
<polygon fill="white" stroke="black" points="325,-160.5 325,-181.5 515,-181.5 515,-160.5 325,-160.5"/>
<text text-anchor="middle" x="420" y="-168.5" font-family="Helvetica,sans-Serif" font-size="10.00">GeneticAlgorithm.Core.GeneticOperator</text>
</a>
</g>
<!-- Node2&#45;&gt;Node6 -->
<g id="edge10" class="edge"><title>Node2&#45;&gt;Node6</title>
<path fill="none" stroke="midnightblue" d="M247.145,-143.12C281.496,-148.661 321.8,-155.161 354.846,-160.491"/>
<polygon fill="midnightblue" stroke="midnightblue" points="247.589,-139.647 237.159,-141.51 246.474,-146.557 247.589,-139.647"/>
</g>
<!-- Node14 -->
<g id="node27" class="node"><title>Node14</title>
<a xlink:href="classGeneticAlgorithm_1_1Core_1_1Genotype.html" target="_top" xlink:title="The base Genotype class from which all chromosomes must derived.">
<polygon fill="white" stroke="black" points="339.5,-120.5 339.5,-141.5 500.5,-141.5 500.5,-120.5 339.5,-120.5"/>
<text text-anchor="middle" x="420" y="-128.5" font-family="Helvetica,sans-Serif" font-size="10.00">GeneticAlgorithm.Core.Genotype</text>
</a>
</g>
<!-- Node2&#45;&gt;Node14 -->
<g id="edge26" class="edge"><title>Node2&#45;&gt;Node14</title>
<path fill="none" stroke="midnightblue" d="M274.546,-131C296.18,-131 318.713,-131 339.401,-131"/>
<polygon fill="midnightblue" stroke="midnightblue" points="274.346,-127.5 264.346,-131 274.346,-134.5 274.346,-127.5"/>
</g>
<!-- Node15 -->
<g id="node29" class="node"><title>Node15</title>
<a xlink:href="classGeneticAlgorithm_1_1Core_1_1Individual.html" target="_top" xlink:title="This class is a container intended to store all information relevant to an individual.">
<polygon fill="white" stroke="black" points="340,-80.5 340,-101.5 500,-101.5 500,-80.5 340,-80.5"/>
<text text-anchor="middle" x="420" y="-88.5" font-family="Helvetica,sans-Serif" font-size="10.00">GeneticAlgorithm.Core.Individual</text>
</a>
</g>
<!-- Node2&#45;&gt;Node15 -->
<g id="edge28" class="edge"><title>Node2&#45;&gt;Node15</title>
<path fill="none" stroke="midnightblue" d="M247.145,-118.88C281.496,-113.339 321.8,-106.839 354.846,-101.509"/>
<polygon fill="midnightblue" stroke="midnightblue" points="246.474,-115.443 237.159,-120.49 247.589,-122.353 246.474,-115.443"/>
</g>
<!-- Node16 -->
<g id="node31" class="node"><title>Node16</title>
<a xlink:href="classGeneticAlgorithm_1_1Core_1_1Population.html" target="_top" xlink:title="This class is a container, intended to store references to individuals and all their.">
<polygon fill="white" stroke="black" points="338,-40.5 338,-61.5 502,-61.5 502,-40.5 338,-40.5"/>
<text text-anchor="middle" x="420" y="-48.5" font-family="Helvetica,sans-Serif" font-size="10.00">GeneticAlgorithm.Core.Population</text>
</a>
</g>
<!-- Node2&#45;&gt;Node16 -->
<g id="edge30" class="edge"><title>Node2&#45;&gt;Node16</title>
<path fill="none" stroke="midnightblue" d="M199.439,-115.441C224.776,-101.736 263.844,-82.2533 300,-71 312.201,-67.2026 325.337,-64.083 338.285,-61.533"/>
<polygon fill="midnightblue" stroke="midnightblue" points="197.518,-112.503 190.435,-120.382 200.885,-118.64 197.518,-112.503"/>
</g>
<!-- Node17 -->
<g id="node33" class="node"><title>Node17</title>
<a xlink:href="classGeneticAlgorithm_1_1Core_1_1Scheduler.html" target="_top" xlink:title="A class that encapsulates a Population and a list of GeneticOperator.">
<polygon fill="white" stroke="black" points="339,-0.5 339,-21.5 501,-21.5 501,-0.5 339,-0.5"/>
<text text-anchor="middle" x="420" y="-8.5" font-family="Helvetica,sans-Serif" font-size="10.00">GeneticAlgorithm.Core.Scheduler</text>
</a>
</g>
<!-- Node2&#45;&gt;Node17 -->
<g id="edge32" class="edge"><title>Node2&#45;&gt;Node17</title>
<path fill="none" stroke="midnightblue" d="M188.988,-113.043C211.877,-90.0427 254.969,-50.7959 300,-31 312.181,-25.6452 325.634,-21.7147 338.996,-18.8318"/>
<polygon fill="midnightblue" stroke="midnightblue" points="186.246,-110.841 181.765,-120.442 191.255,-115.731 186.246,-110.841"/>
</g>
<!-- Node5 -->
<g id="node9" class="node"><title>Node5</title>
<a xlink:href="classGeneticAlgorithm_1_1GenotypeLibrary_1_1BinaryChromosomeSegment.html" target="_top" xlink:title="This class implements an integer variable encoded by a fixed number of bits.">
<polygon fill="white" stroke="black" points="576,-300.5 576,-321.5 870,-321.5 870,-300.5 576,-300.5"/>
<text text-anchor="middle" x="723" y="-308.5" font-family="Helvetica,sans-Serif" font-size="10.00">GeneticAlgorithm.GenotypeLibrary.BinaryChromosomeSegment</text>
</a>
</g>
<!-- Node4&#45;&gt;Node5 -->
<g id="edge8" class="edge"><title>Node4&#45;&gt;Node5</title>
<path fill="none" stroke="midnightblue" d="M531.428,-225.836C534.385,-227.41 537.25,-229.128 540,-231 565.706,-248.502 550.035,-273.885 576,-291 581.484,-294.615 587.333,-297.708 593.422,-300.347"/>
<polygon fill="midnightblue" stroke="midnightblue" points="532.846,-222.634 522.309,-221.527 529.855,-228.964 532.846,-222.634"/>
</g>
<!-- Node7 -->
<g id="node13" class="node"><title>Node7</title>
<a xlink:href="classGADemo_1_1LogGenerations.html" target="_top" xlink:title="GADemo.LogGenerations">
<polygon fill="white" stroke="black" points="659,-260.5 659,-281.5 787,-281.5 787,-260.5 659,-260.5"/>
<text text-anchor="middle" x="723" y="-268.5" font-family="Helvetica,sans-Serif" font-size="10.00">GADemo.LogGenerations</text>
</a>
</g>
<!-- Node6&#45;&gt;Node7 -->
<g id="edge12" class="edge"><title>Node6&#45;&gt;Node7</title>
<path fill="none" stroke="midnightblue" d="M524.453,-182.449C529.907,-184.859 535.135,-187.688 540,-191 565.706,-208.502 550.035,-233.885 576,-251 600.085,-266.876 631.232,-272.689 658.652,-274.205"/>
<polygon fill="midnightblue" stroke="midnightblue" points="525.672,-179.168 515.085,-178.776 523.117,-185.685 525.672,-179.168"/>
</g>
<!-- Node8 -->
<g id="node15" class="node"><title>Node8</title>
<a xlink:href="classGADemo_1_1SumSegments.html" target="_top" xlink:title="This class implements a Genetic operator that simply sums the genotype value of every individual and ...">
<polygon fill="white" stroke="black" points="660.5,-220.5 660.5,-241.5 785.5,-241.5 785.5,-220.5 660.5,-220.5"/>
<text text-anchor="middle" x="723" y="-228.5" font-family="Helvetica,sans-Serif" font-size="10.00">GADemo.SumSegments</text>
</a>
</g>
<!-- Node6&#45;&gt;Node8 -->
<g id="edge14" class="edge"><title>Node6&#45;&gt;Node8</title>
<path fill="none" stroke="midnightblue" d="M515.392,-183.81C523.809,-185.866 532.118,-188.246 540,-191 557.279,-197.037 558.633,-205.222 576,-211 602.883,-219.943 633.804,-224.894 660.33,-227.631"/>
<polygon fill="midnightblue" stroke="midnightblue" points="516.011,-180.361 505.482,-181.541 514.449,-187.184 516.011,-180.361"/>
</g>
<!-- Node9 -->
<g id="node17" class="node"><title>Node9</title>
<a xlink:href="classGeneticAlgorithm_1_1Core_1_1Crossover.html" target="_top" xlink:title="Crossover two individuals from population.matingPool with probability population.crossoverProbability...">
<polygon fill="white" stroke="black" points="641,-180.5 641,-201.5 805,-201.5 805,-180.5 641,-180.5"/>
<text text-anchor="middle" x="723" y="-188.5" font-family="Helvetica,sans-Serif" font-size="10.00">GeneticAlgorithm.Core.Crossover</text>
</a>
</g>
<!-- Node6&#45;&gt;Node9 -->
<g id="edge16" class="edge"><title>Node6&#45;&gt;Node9</title>
<path fill="none" stroke="midnightblue" d="M525.088,-177.937C562.982,-180.438 605.164,-183.222 640.817,-185.575"/>
<polygon fill="midnightblue" stroke="midnightblue" points="525.249,-174.44 515.04,-177.273 524.787,-181.424 525.249,-174.44"/>
</g>
<!-- Node10 -->
<g id="node19" class="node"><title>Node10</title>
<a xlink:href="classGeneticAlgorithm_1_1Core_1_1Mutate.html" target="_top" xlink:title="Mutate an individual.">
<polygon fill="white" stroke="black" points="648.5,-140.5 648.5,-161.5 797.5,-161.5 797.5,-140.5 648.5,-140.5"/>
<text text-anchor="middle" x="723" y="-148.5" font-family="Helvetica,sans-Serif" font-size="10.00">GeneticAlgorithm.Core.Mutate</text>
</a>
</g>
<!-- Node6&#45;&gt;Node10 -->
<g id="edge18" class="edge"><title>Node6&#45;&gt;Node10</title>
<path fill="none" stroke="midnightblue" d="M525.249,-164.053C565.855,-161.373 611.363,-158.369 648.478,-155.919"/>
<polygon fill="midnightblue" stroke="midnightblue" points="524.787,-160.576 515.04,-164.727 525.249,-167.56 524.787,-160.576"/>
</g>
<!-- Node11 -->
<g id="node21" class="node"><title>Node11</title>
<a xlink:href="classGeneticAlgorithm_1_1SelectionOperators_1_1SelectLethals.html" target="_top" xlink:title="GeneticAlgorithm.SelectionOperators.SelectLethals">
<polygon fill="white" stroke="black" points="603,-100.5 603,-121.5 843,-121.5 843,-100.5 603,-100.5"/>
<text text-anchor="middle" x="723" y="-108.5" font-family="Helvetica,sans-Serif" font-size="10.00">GeneticAlgorithm.SelectionOperators.SelectLethals</text>
</a>
</g>
<!-- Node6&#45;&gt;Node11 -->
<g id="edge20" class="edge"><title>Node6&#45;&gt;Node11</title>
<path fill="none" stroke="midnightblue" d="M515.392,-158.19C523.809,-156.134 532.118,-153.754 540,-151 557.279,-144.963 558.633,-136.778 576,-131 587.609,-127.138 599.97,-124.021 612.406,-121.505"/>
<polygon fill="midnightblue" stroke="midnightblue" points="514.449,-154.816 505.482,-160.459 516.011,-161.639 514.449,-154.816"/>
</g>
<!-- Node12 -->
<g id="node23" class="node"><title>Node12</title>
<a xlink:href="classGeneticAlgorithm_1_1SelectionOperators_1_1SUSSelection.html" target="_top" xlink:title="This operator performs stochastic uniform selection over the population, updating the field matingPoo...">
<polygon fill="white" stroke="black" points="602,-60.5 602,-81.5 844,-81.5 844,-60.5 602,-60.5"/>
<text text-anchor="middle" x="723" y="-68.5" font-family="Helvetica,sans-Serif" font-size="10.00">GeneticAlgorithm.SelectionOperators.SUSSelection</text>
</a>
</g>
<!-- Node6&#45;&gt;Node12 -->
<g id="edge22" class="edge"><title>Node6&#45;&gt;Node12</title>
<path fill="none" stroke="midnightblue" d="M524.453,-159.551C529.907,-157.141 535.135,-154.312 540,-151 565.706,-133.498 550.035,-108.115 576,-91 583.957,-85.7552 592.684,-81.6087 601.793,-78.3525"/>
<polygon fill="midnightblue" stroke="midnightblue" points="523.117,-156.315 515.085,-163.224 525.672,-162.832 523.117,-156.315"/>
</g>
<!-- Node13 -->
<g id="node25" class="node"><title>Node13</title>
<a xlink:href="classOrdonezDemo_1_1Ordonez.html" target="_top" xlink:title="OrdonezDemo.Ordonez">
<polygon fill="white" stroke="black" points="663.5,-20.5 663.5,-41.5 782.5,-41.5 782.5,-20.5 663.5,-20.5"/>
<text text-anchor="middle" x="723" y="-28.5" font-family="Helvetica,sans-Serif" font-size="10.00">OrdonezDemo.Ordonez</text>
</a>
</g>
<!-- Node6&#45;&gt;Node13 -->
<g id="edge24" class="edge"><title>Node6&#45;&gt;Node13</title>
<path fill="none" stroke="midnightblue" d="M524.55,-161.008C530.066,-158.248 535.272,-154.943 540,-151 576.274,-120.743 539.277,-80.7107 576,-51 600.128,-31.4792 634.111,-25.9042 663.326,-25.4714"/>
<polygon fill="midnightblue" stroke="midnightblue" points="522.782,-157.96 515.006,-165.156 525.573,-164.38 522.782,-157.96"/>
</g>
</g>
</svg>
