<?xml version="1.0" encoding="UTF-8" standalone="no"?>
<!DOCTYPE svg PUBLIC "-//W3C//DTD SVG 1.1//EN"
 "http://www.w3.org/Graphics/SVG/1.1/DTD/svg11.dtd">
<!-- Generated by graphviz version 2.26.3 (20100126.1600)
 -->
<!-- Title: G Pages: 1 -->
<svg width="1708pt" height="350pt"
 viewBox="0.00 0.00 1708.00 350.00" xmlns="http://www.w3.org/2000/svg" xmlns:xlink="http://www.w3.org/1999/xlink">
<g id="graph1" class="graph" transform="scale(1 1) rotate(0) translate(4 346)">
<title>G</title>
<polygon fill="white" stroke="white" points="-4,5 -4,-346 1705,-346 1705,5 -4,5"/>
<!-- Node1 -->
<g id="node1" class="node"><title>Node1</title>
<a xlink:href="classobject.html" target="_top" xlink:title="object">
<polygon fill="white" stroke="black" points="0.5,-140.5 0.5,-161.5 43.5,-161.5 43.5,-140.5 0.5,-140.5"/>
<text text-anchor="middle" x="22" y="-148.5" font-family="Helvetica,sans-Serif" font-size="10.00">object</text>
</a>
</g>
<!-- Node2 -->
<g id="node3" class="node"><title>Node2</title>
<a xlink:href="classGeneticAlgorithm_1_1Core_1_1GABaseObject.html" target="_top" xlink:title="The base object provides the functions repr and str.">
<polygon fill="white" stroke="black" points="80,-140.5 80,-161.5 264,-161.5 264,-140.5 80,-140.5"/>
<text text-anchor="middle" x="172" y="-148.5" font-family="Helvetica,sans-Serif" font-size="10.00">GeneticAlgorithm.Core.GABaseObject</text>
</a>
</g>
<!-- Node1&#45;&gt;Node2 -->
<g id="edge2" class="edge"><title>Node1&#45;&gt;Node2</title>
<path fill="none" stroke="midnightblue" d="M53.8858,-151C61.75,-151 70.5717,-151 79.7584,-151"/>
<polygon fill="midnightblue" stroke="midnightblue" points="53.8113,-147.5 43.8113,-151 53.8113,-154.5 53.8113,-147.5"/>
</g>
<!-- Node3 -->
<g id="node5" class="node"><title>Node3</title>
<a xlink:href="classGABaseObject-demo_1_1GeneticExampleClass.html" target="_top" xlink:title="GABaseObject&#45;demo.GeneticExampleClass">
<polygon fill="white" stroke="black" points="315.5,-280.5 315.5,-301.5 524.5,-301.5 524.5,-280.5 315.5,-280.5"/>
<text text-anchor="middle" x="420" y="-288.5" font-family="Helvetica,sans-Serif" font-size="10.00">GABaseObject&#45;demo.GeneticExampleClass</text>
</a>
</g>
<!-- Node2&#45;&gt;Node3 -->
<g id="edge4" class="edge"><title>Node2&#45;&gt;Node3</title>
<path fill="none" stroke="midnightblue" d="M185.983,-169.812C207.31,-196.988 250.721,-246.637 300,-271 307.763,-274.838 316.117,-277.959 324.674,-280.495"/>
<polygon fill="midnightblue" stroke="midnightblue" points="188.724,-167.635 179.856,-161.838 183.174,-171.9 188.724,-167.635"/>
</g>
<!-- Node4 -->
<g id="node7" class="node"><title>Node4</title>
<a xlink:href="classGeneticAlgorithm_1_1Core_1_1BaseChromosomeSegment.html" target="_top" xlink:title="This class defines the minimal expression of a chromosome segment.">
<polygon fill="white" stroke="black" points="300.5,-240.5 300.5,-261.5 539.5,-261.5 539.5,-240.5 300.5,-240.5"/>
<text text-anchor="middle" x="420" y="-248.5" font-family="Helvetica,sans-Serif" font-size="10.00">GeneticAlgorithm.Core.BaseChromosomeSegment</text>
</a>
</g>
<!-- Node2&#45;&gt;Node4 -->
<g id="edge6" class="edge"><title>Node2&#45;&gt;Node4</title>
<path fill="none" stroke="midnightblue" d="M193.012,-167.818C217.299,-186.342 259.182,-215.549 300,-231 310.173,-234.851 321.109,-237.962 332.09,-240.474"/>
<polygon fill="midnightblue" stroke="midnightblue" points="194.942,-164.885 184.895,-161.521 190.652,-170.416 194.942,-164.885"/>
</g>
<!-- Node6 -->
<g id="node11" class="node"><title>Node6</title>
<a xlink:href="classGeneticAlgorithm_1_1Core_1_1GeneticOperator.html" target="_top" xlink:title="GeneticOperator is the base class that should be used to implement selection, crossover and mutation...">
<polygon fill="white" stroke="black" points="325,-200.5 325,-221.5 515,-221.5 515,-200.5 325,-200.5"/>
<text text-anchor="middle" x="420" y="-208.5" font-family="Helvetica,sans-Serif" font-size="10.00">GeneticAlgorithm.Core.GeneticOperator</text>
</a>
</g>
<!-- Node2&#45;&gt;Node6 -->
<g id="edge10" class="edge"><title>Node2&#45;&gt;Node6</title>
<path fill="none" stroke="midnightblue" d="M211.219,-164.798C236.354,-173.255 269.81,-183.803 300,-191 315.101,-194.6 331.422,-197.781 347.018,-200.488"/>
<polygon fill="midnightblue" stroke="midnightblue" points="212.271,-161.459 201.677,-161.553 210.017,-168.086 212.271,-161.459"/>
</g>
<!-- Node20 -->
<g id="node39" class="node"><title>Node20</title>
<a xlink:href="classGeneticAlgorithm_1_1Core_1_1Genotype.html" target="_top" xlink:title="The base Genotype class from which all chromosomes must derived.">
<polygon fill="white" stroke="black" points="339.5,-160.5 339.5,-181.5 500.5,-181.5 500.5,-160.5 339.5,-160.5"/>
<text text-anchor="middle" x="420" y="-168.5" font-family="Helvetica,sans-Serif" font-size="10.00">GeneticAlgorithm.Core.Genotype</text>
</a>
</g>
<!-- Node2&#45;&gt;Node20 -->
<g id="edge38" class="edge"><title>Node2&#45;&gt;Node20</title>
<path fill="none" stroke="midnightblue" d="M274.546,-159.27C296.18,-161.015 318.713,-162.832 339.401,-164.5"/>
<polygon fill="midnightblue" stroke="midnightblue" points="274.595,-155.763 264.346,-158.447 274.032,-162.74 274.595,-155.763"/>
</g>
<!-- Node21 -->
<g id="node41" class="node"><title>Node21</title>
<a xlink:href="classGeneticAlgorithm_1_1Core_1_1Individual.html" target="_top" xlink:title="This class is a container intended to store all information relevant to an individual.">
<polygon fill="white" stroke="black" points="340,-120.5 340,-141.5 500,-141.5 500,-120.5 340,-120.5"/>
<text text-anchor="middle" x="420" y="-128.5" font-family="Helvetica,sans-Serif" font-size="10.00">GeneticAlgorithm.Core.Individual</text>
</a>
</g>
<!-- Node2&#45;&gt;Node21 -->
<g id="edge40" class="edge"><title>Node2&#45;&gt;Node21</title>
<path fill="none" stroke="midnightblue" d="M274.604,-142.726C296.36,-140.971 319.023,-139.143 339.803,-137.468"/>
<polygon fill="midnightblue" stroke="midnightblue" points="274.032,-139.26 264.346,-143.553 274.595,-146.237 274.032,-139.26"/>
</g>
<!-- Node22 -->
<g id="node43" class="node"><title>Node22</title>
<a xlink:href="classGeneticAlgorithm_1_1Core_1_1Population.html" target="_top" xlink:title="This class is a container, intended to store references to individuals and all their.">
<polygon fill="white" stroke="black" points="338,-80.5 338,-101.5 502,-101.5 502,-80.5 338,-80.5"/>
<text text-anchor="middle" x="420" y="-88.5" font-family="Helvetica,sans-Serif" font-size="10.00">GeneticAlgorithm.Core.Population</text>
</a>
</g>
<!-- Node2&#45;&gt;Node22 -->
<g id="edge42" class="edge"><title>Node2&#45;&gt;Node22</title>
<path fill="none" stroke="midnightblue" d="M211.219,-137.202C236.354,-128.745 269.81,-118.197 300,-111 315.101,-107.4 331.422,-104.219 347.018,-101.512"/>
<polygon fill="midnightblue" stroke="midnightblue" points="210.017,-133.914 201.677,-140.447 212.271,-140.541 210.017,-133.914"/>
</g>
<!-- Node23 -->
<g id="node45" class="node"><title>Node23</title>
<a xlink:href="classGeneticAlgorithm_1_1Core_1_1Scheduler.html" target="_top" xlink:title="A class that encapsulates a Population and a list of GeneticOperator.">
<polygon fill="white" stroke="black" points="339,-40.5 339,-61.5 501,-61.5 501,-40.5 339,-40.5"/>
<text text-anchor="middle" x="420" y="-48.5" font-family="Helvetica,sans-Serif" font-size="10.00">GeneticAlgorithm.Core.Scheduler</text>
</a>
</g>
<!-- Node2&#45;&gt;Node23 -->
<g id="edge44" class="edge"><title>Node2&#45;&gt;Node23</title>
<path fill="none" stroke="midnightblue" d="M193.012,-134.182C217.299,-115.658 259.182,-86.4513 300,-71 312.247,-66.3641 325.6,-62.8006 338.806,-60.062"/>
<polygon fill="midnightblue" stroke="midnightblue" points="190.652,-131.584 184.895,-140.479 194.942,-137.115 190.652,-131.584"/>
</g>
<!-- Node24 -->
<g id="node47" class="node"><title>Node24</title>
<a xlink:href="classGeneticAlgorithm_1_1GraphLibrary_1_1Graph.html" target="_top" xlink:title="This class.">
<polygon fill="white" stroke="black" points="330.5,-0.5 330.5,-21.5 509.5,-21.5 509.5,-0.5 330.5,-0.5"/>
<text text-anchor="middle" x="420" y="-8.5" font-family="Helvetica,sans-Serif" font-size="10.00">GeneticAlgorithm.GraphLibrary.Graph</text>
</a>
</g>
<!-- Node2&#45;&gt;Node24 -->
<g id="edge46" class="edge"><title>Node2&#45;&gt;Node24</title>
<path fill="none" stroke="midnightblue" d="M185.983,-132.188C207.31,-105.012 250.721,-55.3629 300,-31 309.467,-26.3198 319.813,-22.7049 330.334,-19.9176"/>
<polygon fill="midnightblue" stroke="midnightblue" points="183.174,-130.1 179.856,-140.162 188.724,-134.365 183.174,-130.1"/>
</g>
<!-- Node5 -->
<g id="node9" class="node"><title>Node5</title>
<a xlink:href="classGeneticAlgorithm_1_1GenotypeLibrary_1_1BinaryChromosomeSegment.html" target="_top" xlink:title="This class implements an integer variable encoded by a fixed number of bits.">
<polygon fill="white" stroke="black" points="576,-320.5 576,-341.5 870,-341.5 870,-320.5 576,-320.5"/>
<text text-anchor="middle" x="723" y="-328.5" font-family="Helvetica,sans-Serif" font-size="10.00">GeneticAlgorithm.GenotypeLibrary.BinaryChromosomeSegment</text>
</a>
</g>
<!-- Node4&#45;&gt;Node5 -->
<g id="edge8" class="edge"><title>Node4&#45;&gt;Node5</title>
<path fill="none" stroke="midnightblue" d="M527.473,-265.061C531.79,-266.826 535.985,-268.798 540,-271 560.972,-282.5 554.859,-299.816 576,-311 583.058,-314.734 590.561,-317.856 598.3,-320.461"/>
<polygon fill="midnightblue" stroke="midnightblue" points="528.446,-261.689 517.852,-261.516 526.025,-268.257 528.446,-261.689"/>
</g>
<!-- Node7 -->
<g id="node13" class="node"><title>Node7</title>
<a xlink:href="classGeneticAlgorithm_1_1Core_1_1BasePeriodicOperator.html" target="_top" xlink:title="A class that serves as a base for all periodic operators.">
<polygon fill="white" stroke="black" points="616,-280.5 616,-301.5 830,-301.5 830,-280.5 616,-280.5"/>
<text text-anchor="middle" x="723" y="-288.5" font-family="Helvetica,sans-Serif" font-size="10.00">GeneticAlgorithm.Core.BasePeriodicOperator</text>
</a>
</g>
<!-- Node6&#45;&gt;Node7 -->
<g id="edge12" class="edge"><title>Node6&#45;&gt;Node7</title>
<path fill="none" stroke="midnightblue" d="M524.727,-223.971C530.013,-226.005 535.139,-228.334 540,-231 560.972,-242.5 554.859,-259.816 576,-271 588.294,-277.504 601.942,-282.154 615.826,-285.443"/>
<polygon fill="midnightblue" stroke="midnightblue" points="525.659,-220.59 515.064,-220.621 523.366,-227.204 525.659,-220.59"/>
</g>
<!-- Node12 -->
<g id="node23" class="node"><title>Node12</title>
<a xlink:href="classGeneticAlgorithm_1_1Core_1_1Crossover.html" target="_top" xlink:title="Crossover two individuals from population.matingPool with probability population.crossoverProbability...">
<polygon fill="white" stroke="black" points="641,-240.5 641,-261.5 805,-261.5 805,-240.5 641,-240.5"/>
<text text-anchor="middle" x="723" y="-248.5" font-family="Helvetica,sans-Serif" font-size="10.00">GeneticAlgorithm.Core.Crossover</text>
</a>
</g>
<!-- Node6&#45;&gt;Node12 -->
<g id="edge22" class="edge"><title>Node6&#45;&gt;Node12</title>
<path fill="none" stroke="midnightblue" d="M509.655,-222.836C552.085,-228.437 602.329,-235.07 643.397,-240.491"/>
<polygon fill="midnightblue" stroke="midnightblue" points="509.982,-219.348 499.61,-221.51 509.066,-226.288 509.982,-219.348"/>
</g>
<!-- Node13 -->
<g id="node25" class="node"><title>Node13</title>
<a xlink:href="classGeneticAlgorithm_1_1Core_1_1Mutate.html" target="_top" xlink:title="Mutate an individual.">
<polygon fill="white" stroke="black" points="648.5,-200.5 648.5,-221.5 797.5,-221.5 797.5,-200.5 648.5,-200.5"/>
<text text-anchor="middle" x="723" y="-208.5" font-family="Helvetica,sans-Serif" font-size="10.00">GeneticAlgorithm.Core.Mutate</text>
</a>
</g>
<!-- Node6&#45;&gt;Node13 -->
<g id="edge24" class="edge"><title>Node6&#45;&gt;Node13</title>
<path fill="none" stroke="midnightblue" d="M525.249,-211C565.855,-211 611.363,-211 648.478,-211"/>
<polygon fill="midnightblue" stroke="midnightblue" points="525.04,-207.5 515.04,-211 525.04,-214.5 525.04,-207.5"/>
</g>
<!-- Node14 -->
<g id="node27" class="node"><title>Node14</title>
<a xlink:href="classGeneticAlgorithm_1_1EvaluationOperators_1_1BaseEvaluationOperator.html" target="_top" xlink:title="This class provides an easy way of developing evaluation operators that only evaluate recently replac...">
<polygon fill="white" stroke="black" points="577,-160.5 577,-181.5 869,-181.5 869,-160.5 577,-160.5"/>
<text text-anchor="middle" x="723" y="-168.5" font-family="Helvetica,sans-Serif" font-size="10.00">GeneticAlgorithm.EvaluationOperators.BaseEvaluationOperator</text>
</a>
</g>
<!-- Node6&#45;&gt;Node14 -->
<g id="edge26" class="edge"><title>Node6&#45;&gt;Node14</title>
<path fill="none" stroke="midnightblue" d="M509.655,-199.164C552.085,-193.563 602.329,-186.93 643.397,-181.509"/>
<polygon fill="midnightblue" stroke="midnightblue" points="509.066,-195.712 499.61,-200.49 509.982,-202.652 509.066,-195.712"/>
</g>
<!-- Node18 -->
<g id="node35" class="node"><title>Node18</title>
<a xlink:href="classGeneticAlgorithm_1_1SelectionOperators_1_1SelectLethals.html" target="_top" xlink:title="Select the individuals to replace based on the population.maximize flag and the population.genSize property.">
<polygon fill="white" stroke="black" points="603,-120.5 603,-141.5 843,-141.5 843,-120.5 603,-120.5"/>
<text text-anchor="middle" x="723" y="-128.5" font-family="Helvetica,sans-Serif" font-size="10.00">GeneticAlgorithm.SelectionOperators.SelectLethals</text>
</a>
</g>
<!-- Node6&#45;&gt;Node18 -->
<g id="edge34" class="edge"><title>Node6&#45;&gt;Node18</title>
<path fill="none" stroke="midnightblue" d="M524.727,-198.029C530.013,-195.995 535.139,-193.666 540,-191 560.972,-179.5 554.859,-162.184 576,-151 584.424,-146.544 593.483,-142.958 602.818,-140.084"/>
<polygon fill="midnightblue" stroke="midnightblue" points="523.366,-194.796 515.064,-201.379 525.659,-201.41 523.366,-194.796"/>
</g>
<!-- Node19 -->
<g id="node37" class="node"><title>Node19</title>
<a xlink:href="classGeneticAlgorithm_1_1SelectionOperators_1_1SUSSelection.html" target="_top" xlink:title="This operator performs stochastic uniform selection over the population, updating the field matingPoo...">
<polygon fill="white" stroke="black" points="602,-80.5 602,-101.5 844,-101.5 844,-80.5 602,-80.5"/>
<text text-anchor="middle" x="723" y="-88.5" font-family="Helvetica,sans-Serif" font-size="10.00">GeneticAlgorithm.SelectionOperators.SUSSelection</text>
</a>
</g>
<!-- Node6&#45;&gt;Node19 -->
<g id="edge36" class="edge"><title>Node6&#45;&gt;Node19</title>
<path fill="none" stroke="midnightblue" d="M524.568,-200.395C530.036,-197.78 535.231,-194.675 540,-191 570.884,-167.201 544.763,-134.334 576,-111 583.841,-105.143 592.593,-100.584 601.813,-97.0663"/>
<polygon fill="midnightblue" stroke="midnightblue" points="523.007,-197.255 515.138,-204.35 525.714,-203.71 523.007,-197.255"/>
</g>
<!-- Node8 -->
<g id="node15" class="node"><title>Node8</title>
<a xlink:href="classGeneticAlgorithm_1_1LoggingOperators_1_1BestLogger.html" target="_top" xlink:title="This class stores the best individual of the population, if it is better than the last individual fou...">
<polygon fill="white" stroke="black" points="915,-300.5 915,-321.5 1139,-321.5 1139,-300.5 915,-300.5"/>
<text text-anchor="middle" x="1027" y="-308.5" font-family="Helvetica,sans-Serif" font-size="10.00">GeneticAlgorithm.LoggingOperators.BestLogger</text>
</a>
</g>
<!-- Node7&#45;&gt;Node8 -->
<g id="edge14" class="edge"><title>Node7&#45;&gt;Node8</title>
<path fill="none" stroke="midnightblue" d="M840.233,-298.713C864.751,-300.326 890.543,-302.023 914.87,-303.623"/>
<polygon fill="midnightblue" stroke="midnightblue" points="840.387,-295.215 830.179,-298.051 839.928,-302.2 840.387,-295.215"/>
</g>
<!-- Node11 -->
<g id="node21" class="node"><title>Node11</title>
<a xlink:href="classGeneticAlgorithm_1_1LoggingOperators_1_1LogGenerations.html" target="_top" xlink:title="Log the full population of a GA.">
<polygon fill="white" stroke="black" points="906,-260.5 906,-281.5 1148,-281.5 1148,-260.5 906,-260.5"/>
<text text-anchor="middle" x="1027" y="-268.5" font-family="Helvetica,sans-Serif" font-size="10.00">GeneticAlgorithm.LoggingOperators.LogGenerations</text>
</a>
</g>
<!-- Node7&#45;&gt;Node11 -->
<g id="edge20" class="edge"><title>Node7&#45;&gt;Node11</title>
<path fill="none" stroke="midnightblue" d="M840.293,-283.283C861.751,-281.872 884.184,-280.396 905.754,-278.977"/>
<polygon fill="midnightblue" stroke="midnightblue" points="839.928,-279.8 830.179,-283.949 840.387,-286.785 839.928,-279.8"/>
</g>
<!-- Node9 -->
<g id="node17" class="node"><title>Node9</title>
<a xlink:href="classGeneticAlgorithm_1_1PlottingOperators_1_1PlotBestLogger.html" target="_top" xlink:title="A BestLogger specialization that plots the historic progression of the best criterion with each tick...">
<polygon fill="white" stroke="black" points="1184,-300.5 1184,-321.5 1424,-321.5 1424,-300.5 1184,-300.5"/>
<text text-anchor="middle" x="1304" y="-308.5" font-family="Helvetica,sans-Serif" font-size="10.00">GeneticAlgorithm.PlottingOperators.PlotBestLogger</text>
</a>
</g>
<!-- Node8&#45;&gt;Node9 -->
<g id="edge16" class="edge"><title>Node8&#45;&gt;Node9</title>
<path fill="none" stroke="midnightblue" d="M1149.31,-311C1160.79,-311 1172.43,-311 1183.89,-311"/>
<polygon fill="midnightblue" stroke="midnightblue" points="1149.27,-307.5 1139.27,-311 1149.27,-314.5 1149.27,-307.5"/>
</g>
<!-- Node10 -->
<g id="node19" class="node"><title>Node10</title>
<a xlink:href="classGeneticAlgorithm_1_1GraphLibrary_1_1BestPathPlotLogger.html" target="_top" xlink:title="This class extends the PlottingOperators::PlotBestLogger to display the best tour found so far...">
<polygon fill="white" stroke="black" points="1460,-300.5 1460,-321.5 1700,-321.5 1700,-300.5 1460,-300.5"/>
<text text-anchor="middle" x="1580" y="-308.5" font-family="Helvetica,sans-Serif" font-size="10.00">GeneticAlgorithm.GraphLibrary.BestPathPlotLogger</text>
</a>
</g>
<!-- Node9&#45;&gt;Node10 -->
<g id="edge18" class="edge"><title>Node9&#45;&gt;Node10</title>
<path fill="none" stroke="midnightblue" d="M1434.49,-311C1442.91,-311 1451.36,-311 1459.73,-311"/>
<polygon fill="midnightblue" stroke="midnightblue" points="1434.25,-307.5 1424.25,-311 1434.25,-314.5 1434.25,-307.5"/>
</g>
<!-- Node15 -->
<g id="node29" class="node"><title>Node15</title>
<a xlink:href="classGADemo_1_1NumOnes.html" target="_top" xlink:title="An evaluation operator that computes the number of ones in a segment whose data can be converted to b...">
<polygon fill="white" stroke="black" points="975,-200.5 975,-221.5 1079,-221.5 1079,-200.5 975,-200.5"/>
<text text-anchor="middle" x="1027" y="-208.5" font-family="Helvetica,sans-Serif" font-size="10.00">GADemo.NumOnes</text>
</a>
</g>
<!-- Node14&#45;&gt;Node15 -->
<g id="edge28" class="edge"><title>Node14&#45;&gt;Node15</title>
<path fill="none" stroke="midnightblue" d="M812.914,-182.831C865.669,-189.772 930.473,-198.299 974.876,-204.142"/>
<polygon fill="midnightblue" stroke="midnightblue" points="813.244,-179.344 802.872,-181.51 812.33,-186.284 813.244,-179.344"/>
</g>
<!-- Node16 -->
<g id="node31" class="node"><title>Node16</title>
<a xlink:href="classGeneticAlgorithm_1_1GraphLibrary_1_1Ordonez.html" target="_top" xlink:title="A GeneticAlgorithm::Core::GeneticOperator derivate that decodes a binary genotype as a permutation of...">
<polygon fill="white" stroke="black" points="932,-160.5 932,-181.5 1122,-181.5 1122,-160.5 932,-160.5"/>
<text text-anchor="middle" x="1027" y="-168.5" font-family="Helvetica,sans-Serif" font-size="10.00">GeneticAlgorithm.GraphLibrary.Ordonez</text>
</a>
</g>
<!-- Node14&#45;&gt;Node16 -->
<g id="edge30" class="edge"><title>Node14&#45;&gt;Node16</title>
<path fill="none" stroke="midnightblue" d="M879.698,-171C897.504,-171 915.223,-171 931.878,-171"/>
<polygon fill="midnightblue" stroke="midnightblue" points="879.212,-167.5 869.212,-171 879.212,-174.5 879.212,-167.5"/>
</g>
<!-- Node17 -->
<g id="node33" class="node"><title>Node17</title>
<a xlink:href="classGeneticAlgorithm_1_1GraphLibrary_1_1PathLengthFitness.html" target="_top" xlink:title="A GeneticAlgorithm::Core::GeneticOperator derivate that uses.">
<polygon fill="white" stroke="black" points="909.5,-120.5 909.5,-141.5 1144.5,-141.5 1144.5,-120.5 909.5,-120.5"/>
<text text-anchor="middle" x="1027" y="-128.5" font-family="Helvetica,sans-Serif" font-size="10.00">GeneticAlgorithm.GraphLibrary.PathLengthFitness</text>
</a>
</g>
<!-- Node14&#45;&gt;Node17 -->
<g id="edge32" class="edge"><title>Node14&#45;&gt;Node17</title>
<path fill="none" stroke="midnightblue" d="M812.951,-159.164C855.521,-153.563 905.931,-146.93 947.134,-141.509"/>
<polygon fill="midnightblue" stroke="midnightblue" points="812.33,-155.716 802.872,-160.49 813.244,-162.656 812.33,-155.716"/>
</g>
</g>
</svg>
